<svg width="153" height="164" viewBox="0 0 153 164" fill="none" xmlns="http://www.w3.org/2000/svg">
<g filter="url(#filter0_dddddd_32523_8002)">
<path d="M36.3932 63.0068C36.3932 40.536 54.687 22.1895 77.0924 22.1895C99.6401 22.1895 117.792 40.536 117.792 63.0068C117.792 70.5444 115.807 77.6555 112.261 83.6287C107.015 85.0509 101.909 86.3309 96.8036 87.6109C96.7094 87.7056 96.6614 87.8005 96.6614 87.8954C99.4979 88.8909 102.334 90.0286 105.313 91.0241C105.029 91.3086 104.746 91.5931 104.603 91.7353C100.917 95.0063 96.6614 97.2818 91.9825 98.9885C90.5651 99.5575 89.1461 99.8418 87.5864 99.5575C83.7576 98.8463 81.0634 95.8596 80.9212 91.7353C80.6384 86.4732 80.4962 86.0464 80.2117 80.7843C80.2117 78.7933 80.2117 76.8021 80.0711 74.9533C79.9289 71.6822 79.7866 68.4112 79.6444 65.2822C80.779 64.9979 81.3463 64.429 81.3463 63.2912C81.4885 63.4335 81.6307 63.5757 81.6307 63.5757C84.3249 65.709 86.3096 68.4112 87.7286 71.5399C89.146 74.5266 90.1384 77.6555 90.9902 80.9265C90.9902 81.211 91.273 81.3532 91.5574 81.6377C91.6981 81.3532 91.9825 81.0688 92.1247 80.9265C92.2653 79.7888 92.4076 78.7933 92.5498 77.6555C93.1171 70.9711 91.273 64.9979 87.302 59.5935C87.1613 59.309 86.8769 59.0246 86.5941 58.598C86.7347 58.598 86.8769 58.598 87.0191 58.7401C90.4228 59.4513 93.2593 61.158 95.8113 63.2912C98.7899 65.8512 101.2 68.8379 103.186 72.1089C103.327 72.2511 103.752 72.3933 104.036 72.5356C104.036 72.2511 104.319 71.9666 104.319 71.6822C104.178 70.6866 103.894 69.8334 103.752 68.8379C101.909 61.5845 98.0804 55.8958 91.5574 52.0559C90.4229 51.3447 89.2883 50.7759 88.0115 50.2069C88.1537 50.0647 88.296 50.0647 88.4366 50.0647C90.5651 49.4959 92.692 49.4959 94.8189 49.7802C97.9382 50.2069 100.917 51.0602 103.752 52.0559C104.036 52.1981 104.461 52.0559 104.746 52.0559C104.746 51.6292 104.746 51.3447 104.461 51.0602C100.065 45.3715 93.9672 42.9538 86.8769 43.2382C86.0268 43.3803 85.3173 43.3803 84.1827 43.5225C84.75 42.8115 85.175 42.2426 85.6017 41.816C87.302 40.3938 88.8632 39.1138 90.5651 37.6916C90.7057 37.5493 90.8479 37.1226 90.9902 36.8383C90.7057 36.8383 90.4229 36.5538 90.1384 36.6961C86.7347 36.9804 83.6154 37.9761 80.779 39.8248C80.2117 40.2515 79.6444 40.536 79.0772 40.9626C78.9365 37.4071 78.6521 33.8516 77.2347 30.5805C75.8156 33.9939 75.5328 37.4071 75.2483 40.9626C75.1541 40.9626 75.1077 40.9626 75.1077 40.9626C74.9655 40.8203 74.8233 40.6783 74.6811 40.6783C71.5618 38.1183 68.0175 36.9804 64.0465 36.5538C63.762 36.5538 63.337 36.5538 63.337 36.9804C63.337 37.2649 63.6214 37.5493 63.762 37.6916C65.4639 39.256 67.3079 40.6783 69.0098 42.1003C69.2926 42.527 69.5771 42.9538 69.86 43.2382C67.5908 43.3803 65.181 43.2382 62.9119 43.5225C57.5234 44.0915 52.9852 46.7937 49.7237 51.2024C49.5814 51.4869 49.4392 51.7714 49.5815 51.9136C49.7237 52.0559 50.0065 52.1981 50.291 52.0559C50.8583 52.0559 51.2833 51.7714 51.7084 51.6292C55.1121 50.4914 58.5158 49.6381 62.2024 49.6381C63.4791 49.6381 64.8966 49.6381 66.3156 50.2069C66.0311 50.3492 65.7483 50.4914 65.6061 50.6336C61.6351 52.1981 58.3736 54.7581 55.6794 58.1713C52.5601 62.1535 50.8582 66.8467 50.0065 71.8244C50.0065 71.9666 50.291 72.2511 50.291 72.5356C50.5738 72.3933 50.8583 72.3933 51.0005 72.1089C51.9928 70.8289 52.8429 69.4067 53.8353 68.1267C56.8139 64.429 60.0755 61.4423 64.3293 59.5935C65.3217 59.1668 66.4562 58.8823 67.5908 58.598C66.8829 59.7358 66.1734 60.7313 65.4639 61.869C61.9195 67.7 60.9256 74.0999 62.2024 80.9265C62.3446 81.0688 62.6274 81.3532 62.7697 81.6377C63.0541 81.3532 63.1947 81.0688 63.337 80.9265C64.0465 78.7933 64.4715 76.8021 65.181 74.8111C66.7407 70.6866 68.7254 66.9889 71.9869 64.1445C72.2713 63.86 72.6964 63.5757 73.1214 63.149C72.9808 64.1445 73.2637 64.5712 73.9732 64.9979C74.256 65.2822 74.5404 65.709 74.5404 66.1357C74.6811 66.5622 74.6811 66.9889 74.6811 67.4157C74.5405 71.1134 74.3982 74.6688 74.256 78.2243C73.9731 83.771 73.8309 84.482 73.5481 90.0286C73.5481 91.1664 73.4059 92.4464 73.2637 93.4419C71.9869 98.2775 67.3079 100.837 62.4868 99.1308C57.8063 97.424 53.6947 95.0063 49.8659 91.8776C49.5814 91.7353 49.4392 91.3086 49.0142 91.0241C51.9928 89.8864 54.8292 88.8909 57.6641 87.8954C57.6641 87.8954 57.6641 87.7531 57.6641 87.6109C52.5601 86.3309 47.3123 85.0509 42.0661 83.6287C38.5202 77.6555 36.3932 70.5444 36.3932 63.0068ZM86.0268 113.353C88.721 110.935 91.6981 108.802 94.8189 107.095C97.2287 105.815 99.6401 104.819 101.909 103.397C104.886 101.691 107.582 99.5575 110.417 97.7085C110.701 97.424 111.126 97.1396 111.551 96.8553C112.544 100.126 113.396 103.397 114.388 106.526C114.53 106.526 114.672 106.526 114.672 106.526C117.224 98.1352 119.776 89.6019 122.33 81.0687C120.486 81.4955 118.784 81.922 117.082 82.491C119.636 77.2288 121.053 71.3978 121.478 65.4245L132.397 63.0068L121.478 60.7313C121.336 58.7401 121.053 56.7491 120.769 54.9001L123.322 54.3314L123.18 53.6202L120.628 54.0469C120.061 51.4869 119.209 48.9269 118.217 46.5092L120.769 45.3715L120.486 44.6603L117.934 45.656C116.94 43.2382 115.665 40.9626 114.246 38.6871L116.515 37.1226L116.09 36.5538L113.821 37.9761C112.403 35.9849 110.701 33.9939 108.999 32.1449L119.493 21.6206C119.776 21.3363 119.776 20.7673 119.493 20.4828C119.209 20.1985 118.784 20.1985 118.501 20.4828L107.865 31.1494C106.163 29.3005 104.178 27.7362 102.051 26.314L103.611 23.8962L102.902 23.4695L101.342 25.8873C99.215 24.465 96.8036 23.1851 94.3939 22.1895L95.5268 19.4873L94.8189 19.2029L93.6844 21.7628C91.273 20.7673 88.721 20.0563 86.169 19.4873L86.7347 16.7851L85.8846 16.5007L85.3173 19.3451C83.4732 19.0606 81.6307 18.7763 79.6444 18.6341L77.0924 6.6875L74.5404 18.6341C72.6964 18.7763 70.7117 19.0606 68.8676 19.3451L68.3003 16.5007L67.4502 16.6429L68.0174 19.4873C65.4639 20.0563 62.9119 20.9096 60.5005 21.9051L59.3659 19.2029L58.658 19.4873L59.7926 22.1895C57.3812 23.1851 54.9699 24.465 52.8429 25.8873L51.1411 23.4695L50.5738 23.8962L52.1334 26.314C50.1487 27.7362 48.164 29.4427 46.3199 31.1494L35.826 20.4828C35.4009 20.1985 34.9759 20.1985 34.6914 20.4828C34.4086 20.7673 34.4086 21.3363 34.6914 21.6206L45.3276 32.1449C43.4835 33.9939 41.9239 35.9849 40.5065 38.1183L38.0951 36.4116L37.67 37.1226L40.0798 38.6871C38.6624 40.9626 37.3856 43.2382 36.3932 45.656L33.6991 44.6603L33.4162 45.3715L35.9682 46.5092C35.1164 48.9269 34.2663 51.3447 33.6991 54.0469L30.8626 53.4781L30.722 54.3314L33.5568 54.7581C33.274 56.7491 32.9895 58.598 32.8489 60.589L21.0781 63.0068L32.8489 65.5667C33.274 71.5399 34.8336 77.2288 37.245 82.491C35.5431 81.922 33.8413 81.4955 31.9972 81.0687C34.5508 89.6019 37.1028 98.1352 39.6547 106.526C39.6547 106.526 39.797 106.526 39.9392 106.526C40.9316 103.255 41.9239 99.984 42.9162 96.8553C45.0431 98.2775 47.1717 99.8418 49.4392 101.264C53.9775 104.108 58.5158 106.811 63.0541 109.513C69.7177 113.495 74.3982 119.184 76.6674 126.721C76.8096 127.148 76.9502 127.575 77.0924 128.001C77.3769 127.433 77.5175 126.864 77.6597 126.437C79.3616 121.317 81.9136 116.908 86.0268 113.353Z" fill="url(#paint0_linear_32523_8002)"/>
<path d="M75.6798 2.41609L77.6631 4.54792H78.939V0H77.521V2.27398L75.5376 0H74.2617V4.54792H75.6798V2.41609Z" fill="url(#paint1_linear_32523_8002)"/>
<path d="M137.358 64.5608V63.8503H139.625V62.7133H137.358V62.1448H139.91V61.0078H135.941V65.6978H140.05V64.5608H137.358Z" fill="url(#paint2_linear_32523_8002)"/>
<path d="M17.1055 60.7305L16.6805 63.4327L16.1132 60.7305H14.5536L14.1285 63.4327H13.9863L13.5612 60.7305H12L12.9939 65.4238H14.6942L15.2615 62.5794L15.971 65.4238H17.5306L18.6652 60.7305H17.1055Z" fill="url(#paint3_linear_32523_8002)"/>
</g>
<defs>
<filter id="filter0_dddddd_32523_8002" x="0" y="-1" width="152.051" height="165" filterUnits="userSpaceOnUse" color-interpolation-filters="sRGB">
<feFlood flood-opacity="0" result="BackgroundImageFix"/>
<feColorMatrix in="SourceAlpha" type="matrix" values="0 0 0 0 0 0 0 0 0 0 0 0 0 0 0 0 0 0 127 0" result="hardAlpha"/>
<feMorphology radius="12" operator="erode" in="SourceAlpha" result="effect1_dropShadow_32523_8002"/>
<feOffset dy="24"/>
<feGaussianBlur stdDeviation="12"/>
<feComposite in2="hardAlpha" operator="out"/>
<feColorMatrix type="matrix" values="0 0 0 0 0.0431373 0 0 0 0 0.109804 0 0 0 0 0.290196 0 0 0 0.04 0"/>
<feBlend mode="normal" in2="BackgroundImageFix" result="effect1_dropShadow_32523_8002"/>
<feColorMatrix in="SourceAlpha" type="matrix" values="0 0 0 0 0 0 0 0 0 0 0 0 0 0 0 0 0 0 127 0" result="hardAlpha"/>
<feMorphology radius="6" operator="erode" in="SourceAlpha" result="effect2_dropShadow_32523_8002"/>
<feOffset dy="12"/>
<feGaussianBlur stdDeviation="6"/>
<feComposite in2="hardAlpha" operator="out"/>
<feColorMatrix type="matrix" values="0 0 0 0 0.0431373 0 0 0 0 0.109804 0 0 0 0 0.290196 0 0 0 0.04 0"/>
<feBlend mode="normal" in2="effect1_dropShadow_32523_8002" result="effect2_dropShadow_32523_8002"/>
<feColorMatrix in="SourceAlpha" type="matrix" values="0 0 0 0 0 0 0 0 0 0 0 0 0 0 0 0 0 0 127 0" result="hardAlpha"/>
<feMorphology radius="3" operator="erode" in="SourceAlpha" result="effect3_dropShadow_32523_8002"/>
<feOffset dy="6"/>
<feGaussianBlur stdDeviation="3"/>
<feComposite in2="hardAlpha" operator="out"/>
<feColorMatrix type="matrix" values="0 0 0 0 0.0431373 0 0 0 0 0.109804 0 0 0 0 0.290196 0 0 0 0.04 0"/>
<feBlend mode="normal" in2="effect2_dropShadow_32523_8002" result="effect3_dropShadow_32523_8002"/>
<feColorMatrix in="SourceAlpha" type="matrix" values="0 0 0 0 0 0 0 0 0 0 0 0 0 0 0 0 0 0 127 0" result="hardAlpha"/>
<feMorphology radius="1.5" operator="erode" in="SourceAlpha" result="effect4_dropShadow_32523_8002"/>
<feOffset dy="3"/>
<feGaussianBlur stdDeviation="1.5"/>
<feComposite in2="hardAlpha" operator="out"/>
<feColorMatrix type="matrix" values="0 0 0 0 0.0431373 0 0 0 0 0.109804 0 0 0 0 0.290196 0 0 0 0.04 0"/>
<feBlend mode="normal" in2="effect3_dropShadow_32523_8002" result="effect4_dropShadow_32523_8002"/>
<feColorMatrix in="SourceAlpha" type="matrix" values="0 0 0 0 0 0 0 0 0 0 0 0 0 0 0 0 0 0 127 0" result="hardAlpha"/>
<feMorphology radius="0.5" operator="erode" in="SourceAlpha" result="effect5_dropShadow_32523_8002"/>
<feOffset dy="1"/>
<feGaussianBlur stdDeviation="0.5"/>
<feComposite in2="hardAlpha" operator="out"/>
<feColorMatrix type="matrix" values="0 0 0 0 0.0431373 0 0 0 0 0.109804 0 0 0 0 0.290196 0 0 0 0.04 0"/>
<feBlend mode="normal" in2="effect4_dropShadow_32523_8002" result="effect5_dropShadow_32523_8002"/>
<feColorMatrix in="SourceAlpha" type="matrix" values="0 0 0 0 0 0 0 0 0 0 0 0 0 0 0 0 0 0 127 0" result="hardAlpha"/>
<feMorphology radius="1" operator="dilate" in="SourceAlpha" result="effect6_dropShadow_32523_8002"/>
<feOffset/>
<feComposite in2="hardAlpha" operator="out"/>
<feColorMatrix type="matrix" values="0 0 0 0 0.00392157 0 0 0 0 0.278431 0 0 0 0 1 0 0 0 0.04 0"/>
<feBlend mode="normal" in2="effect5_dropShadow_32523_8002" result="effect6_dropShadow_32523_8002"/>
<feBlend mode="normal" in="SourceGraphic" in2="effect6_dropShadow_32523_8002" result="shape"/>
</filter>
<linearGradient id="paint0_linear_32523_8002" x1="76.7377" y1="6.6875" x2="76.7377" y2="128.001" gradientUnits="userSpaceOnUse">
<stop stop-color="white"/>
<stop offset="1" stop-color="#C2C2C2"/>
</linearGradient>
<linearGradient id="paint1_linear_32523_8002" x1="76.6004" y1="0" x2="76.6004" y2="4.54792" gradientUnits="userSpaceOnUse">
<stop stop-color="white"/>
<stop offset="1" stop-color="#C2C2C2"/>
</linearGradient>
<linearGradient id="paint2_linear_32523_8002" x1="137.996" y1="61.0078" x2="137.996" y2="65.6978" gradientUnits="userSpaceOnUse">
<stop stop-color="white"/>
<stop offset="1" stop-color="#C2C2C2"/>
</linearGradient>
<linearGradient id="paint3_linear_32523_8002" x1="15.3326" y1="60.7305" x2="15.3326" y2="65.4238" gradientUnits="userSpaceOnUse">
<stop stop-color="white"/>
<stop offset="1" stop-color="#C2C2C2"/>
</linearGradient>
</defs>
</svg>
