<?xml version="1.0" encoding="UTF-8"?>
<svg id="Layer_1" xmlns="http://www.w3.org/2000/svg" version="1.1" viewBox="0 0 231 50">
  <!-- Generator: Adobe Illustrator 30.1.0, SVG Export Plug-In . SVG Version: 2.1.1 Build 136)  -->
  <defs>
    <style>
      .st0 {
        fill: #fff;
      }
    </style>
  </defs>
  <path class="st0" d="M58.82,41.58h-13.11c-.93,0-1.67-.75-1.67-1.67v-11.12c0-6.59-5.34-11.93-11.93-11.93h-2.17c-.49,0-.89.4-.89.89v4.28c0,.1-.15.13-.18.03-.87-2.91-3.49-5.05-6.65-5.19H.89c-.49,0-.89.4-.89.89v6.63c0,2.77,2.24,5.02,5.02,5.02h8.24c.49,0,.89.4.89.89v.09c0,2.77,2.24,5.02,5.02,5.02h9.01c.49,0,.88.4.88.88v.29c0,2.77,2.24,5.02,5.02,5.02h8.3c.93,0,1.67.75,1.67,1.67v1.08c0,2.77,2.24,5.02,5.02,5.02h9.77c.49,0,.89-.4.89-.89v-6c0-.49-.4-.89-.89-.89Z"/>
  <path class="st0" d="M74.87,35.57c0,4.08,2.24,6.32,6.09,6.32,3.85,0,6.27-2.24,6.27-6.38v-19.49h8.16v19.5c0,8.09-5.5,13.83-14.41,13.83s-14.24-5.74-14.24-13.77h-.02v-19.57h8.16v19.55ZM116.51.65c2.13,0,4.01.35,5.97.95v7.03c-1.13-.42-2.9-.77-4.61-.77-3.61,0-5.5,1.53-5.5,5.14v3.01h8.8v6.8h-8.74v25.7h-8.16v-25.7h-4.49v-6.8h4.55v-3.79c0-6.21,4.43-11.58,12.17-11.58ZM134.6,48.51h-8.16V16.01h8.16v32.5Z"/>
  <path class="st0" d="M227.81,45.91l1.28-3.91h1.16l-2.01,5.62c-.48,1.24-.94,1.73-2.19,1.73h-.55v-.99h.49c.72,0,.89-.16,1.3-1.22l-2.02-5.14h1.15l1.4,3.91ZM214.55,41.88c.99,0,1.75.45,2.26,1.13l-.95.47c-.3-.46-.77-.7-1.33-.7-.55,0-.94.26-.94.67,0,.44.35.51,1.31.7.95.19,1.94.53,1.94,1.56,0,.97-.85,1.68-2.04,1.68-1.01,0-1.85-.44-2.32-1.11h0s.94-.51.94-.51c.32.47.87.7,1.42.7.58,0,.95-.27.95-.7,0-.46-.6-.55-1.43-.73-.95-.2-1.8-.53-1.8-1.54,0-.92.87-1.62,1.98-1.62ZM163.63,42.72c.36-.54.96-.87,1.69-.87,1.35,0,2.36,1.01,2.36,2.7s-1,2.76-2.37,2.76c-.72,0-1.31-.33-1.68-.88h-.01s0,.76,0,.76h-1.06v-7.5h1.07v3.01ZM205.49,47.21h-1.07v-.77c-.36.55-.97.88-1.7.88-1.26,0-2.23-.89-2.35-2.4v-.3c-.01-1.67.99-2.75,2.36-2.75.72,0,1.31.34,1.69.9v-3.04h1.07v7.49ZM211.39,47.21h-1.1v-.9c-.29.65-.8.99-1.56.99-1.1,0-1.79-.72-1.87-1.9v-.23s0-3.19,0-3.19h1.11v3.13c0,.81.35,1.25,1.06,1.25.87,0,1.27-.74,1.27-1.88v-2.51h1.09v5.25ZM179.87,41.87c1.54,0,2.62,1.13,2.62,2.72s-1.11,2.7-2.65,2.7c-1.54,0-2.61-1.11-2.61-2.7s1.08-2.72,2.64-2.72ZM197.41,41.87c1.14,0,1.83.77,1.81,2.17v3.19h-1.11v-3.13c0-.82-.34-1.25-1.05-1.25-.81,0-1.27.68-1.28,1.88v2.51h-1.08v-5.27h1.1v.99c.28-.7.81-1.09,1.62-1.09ZM186.36,41.86c1.14,0,1.83.77,1.82,2.17v3.19h-1.11v-3.13c0-.82-.34-1.25-1.05-1.25-.81,0-1.27.68-1.28,1.88v2.51h-1.08v-5.27h1.1v.99c.28-.7.81-1.09,1.62-1.09ZM219.52,41.97h1.14v.94h-1.14v2.87c0,.33.13.49.47.49h.63v.96h-.93c-.96-.04-1.2-.48-1.21-1.31h-.01v-3h-.84v-.94h.84v-1.02l1.05-.66v1.68ZM224.52,43.01h-.5c-.93,0-1.19.47-1.19,1.53v2.69h-1.1v-5.25h1.1v.97c.16-.62.56-1.01,1.52-1.01h.17v1.06ZM155.18,42.98c.27-.72.79-1.12,1.6-1.12,1.14,0,1.82.74,1.82,2.15v3.19h-1.11v-3.13c0-.82-.34-1.25-1.05-1.25-.81,0-1.27.68-1.27,1.88v2.51h-1.06v-7.51h1.07v3.28ZM193.15,47.21h-1.12v-7.37h1.12v7.37ZM169.95,47.2h-1.1v-5.25h1.1v5.25ZM172.79,41.94h1.14v.94h-1.14v2.87c0,.33.13.49.47.49h.63v.96h-.93c-.96-.04-1.2-.48-1.21-1.31h-.01v-3h-.83v-.94h.83v-1.02l1.05-.66v1.68ZM176.09,47.2h-1.1v-5.25h1.1v5.25ZM147.16,40.8h-4.05v2.05h2.7v.99h-2.7v2.36h4.21v.99h-5.31v-7.38h5.14v.99ZM161.1,47.19h-1.1v-5.25h1.1v5.25ZM150.72,43.74l1.18-1.8h1.19l-1.76,2.52,1.87,2.72h-1.23l-1.3-1.99-1.32,1.99h-1.19l1.89-2.71-1.73-2.53h1.23l1.19,1.8ZM202.98,42.8c-.93,0-1.49.66-1.49,1.78v.07c0,1.13.58,1.73,1.49,1.73.85,0,1.41-.64,1.48-1.58v-.18s0-.09,0-.09c0-1.03-.55-1.73-1.48-1.73ZM165.04,42.77c-.91,0-1.48.73-1.48,1.77v.09c0,1.03.54,1.73,1.47,1.73.88,0,1.48-.66,1.48-1.78h.01v-.08c0-1.13-.57-1.73-1.48-1.73ZM179.86,42.79c-.94,0-1.53.69-1.53,1.78v.04c0,1.07.57,1.74,1.51,1.74.88,0,1.47-.6,1.54-1.55v-.18s0-.04,0-.04c0-1.09-.58-1.79-1.52-1.79ZM176.14,41.12h-1.18v-1.16h1.18v1.16ZM161.14,41.11h-1.18v-1.16h1.18v1.16ZM170.01,41.11h-1.18v-1.16h1.18v1.16ZM151.13,29.34c.99,0,1.75.45,2.26,1.13l-.95.47c-.3-.46-.77-.7-1.32-.7-.55,0-.94.26-.94.67,0,.44.35.51,1.31.7.95.19,1.94.53,1.94,1.56,0,.97-.86,1.68-2.04,1.68-1.01,0-1.85-.44-2.32-1.11h0s.94-.51.94-.51c.32.47.87.7,1.42.7.58,0,.95-.27.95-.7,0-.46-.61-.55-1.43-.73-.95-.2-1.81-.53-1.81-1.54,0-.92.87-1.62,1.98-1.62ZM156.3,29.34c.99,0,1.75.45,2.26,1.13l-.95.47c-.3-.46-.77-.7-1.32-.7s-.94.26-.94.67c0,.44.35.51,1.31.7.95.19,1.94.53,1.94,1.56,0,.97-.86,1.68-2.04,1.68-1.01,0-1.85-.44-2.32-1.11h0s.94-.51.94-.51c.32.47.86.7,1.42.7.58,0,.95-.27.95-.7,0-.46-.6-.55-1.43-.73-.95-.2-1.8-.53-1.8-1.54,0-.92.87-1.62,1.98-1.62ZM224.31,29.41c1.54,0,2.46,1.03,2.46,2.69v.4h-3.94c.06.9.64,1.45,1.52,1.45s1.28-.43,1.48-.94l.97.38c-.35.81-1.1,1.45-2.44,1.45-1.61,0-2.61-1.06-2.61-2.68h-.01c0-1.62,1.09-2.74,2.57-2.74ZM176.38,29.36c1.35,0,2.14.61,2.14,1.93v3.4h-1.05v-.79c-.35.63-1.01.92-1.76.92-1.11,0-1.8-.61-1.8-1.5,0-1.17.88-1.43,2.04-1.69.89-.19,1.43-.24,1.54-.53v-.07c0-.44-.32-.77-1.13-.77s-1.2.35-1.24.94v.06h-1.1c.03-1.18.97-1.89,2.36-1.89ZM202.77,29.4c1.54,0,2.62,1.13,2.62,2.72s-1.1,2.7-2.65,2.7c-1.54,0-2.61-1.11-2.61-2.7s1.1-2.72,2.64-2.72ZM188.35,29.39c1.54,0,2.62,1.13,2.62,2.72s-1.11,2.7-2.65,2.7-2.61-1.11-2.61-2.7,1.1-2.72,2.64-2.72ZM162.07,29.36c1.54,0,2.62,1.13,2.62,2.72,0,1.6-1.11,2.7-2.65,2.7-1.54,0-2.61-1.11-2.61-2.7s1.1-2.72,2.64-2.72ZM168.15,29.36c1.23,0,2.01.67,2.34,1.69l-1.04.32c-.18-.67-.55-1.08-1.31-1.09-.91,0-1.48.72-1.48,1.76v.04c0,1.03.53,1.76,1.44,1.76.84,0,1.21-.43,1.39-1.15l1.04.32c-.35,1.06-1.14,1.74-2.41,1.74-1.56,0-2.56-1.13-2.56-2.72v.02c.01-1.56,1.07-2.7,2.61-2.7ZM217.22,30.52c.27-.72.79-1.12,1.6-1.12,1.14,0,1.83.74,1.82,2.15v3.19h-1.11v-3.13c0-.82-.34-1.25-1.05-1.25-.81,0-1.26.68-1.26,1.88v2.51h-1.06v-7.51h1.07v3.28ZM194.83,29.38c1.14,0,1.82.77,1.82,2.17v3.19h-1.1v-3.13c0-.82-.35-1.25-1.05-1.25-.81,0-1.27.68-1.28,1.88v2.51h-1.1v-5.25l.02-.02h1.08v.99c.28-.7.81-1.09,1.61-1.09ZM209.13,28.23h-.4c-.7,0-.79.05-.79.8v.46h1.06v.94h-1.06v4.31h-1.08v-4.31h0s-.88-.01-.88-.01v-.94h.88v-.53c0-1.21.34-1.66,1.42-1.72h.85v1ZM213.93,29.48h1.13v.94h-1.14v2.87c0,.33.14.49.46.49h.63v.96h-.93c-.96-.04-1.2-.48-1.21-1.31h.01v-3h-.83v-.94h.83v-1.02l1.05-.66v1.68ZM181.27,29.46h1.14v.94h-1.14v2.87c0,.33.14.49.47.49h.63v.96h-.93c-.96-.04-1.2-.48-1.21-1.31h-.01v-3h-.83v-.94h.83v-1.02l1.05-.66v1.68ZM184.57,34.72h-1.09v-5.25h1.09v5.25ZM172.7,34.7h-1.09v-5.25h1.09v5.25ZM144.38,27.31h1.3l2.69,7.37h-1.18l-.76-2.15h-2.89l-.8,2.14h-1.15l2.78-7.37h0ZM177.48,31.95c-.32.22-.88.31-1.39.43-.6.16-1.09.34-1.09.9,0,.44.32.72.9.72.77,0,1.49-.39,1.57-1.41v-.64ZM202.77,30.31c-.94,0-1.53.69-1.53,1.78v.04c0,1.07.57,1.74,1.51,1.74.89,0,1.47-.6,1.54-1.55v-.18s0-.04,0-.04c0-1.09-.58-1.79-1.52-1.79ZM188.34,30.3c-.94,0-1.53.69-1.53,1.78v.04c0,1.07.57,1.74,1.51,1.74.88,0,1.47-.6,1.54-1.55v-.18s0-.04,0-.04c0-1.09-.58-1.79-1.52-1.79ZM162.06,30.28c-.94,0-1.53.69-1.53,1.78v.04c0,1.07.57,1.74,1.51,1.74.89,0,1.47-.6,1.54-1.55v-.18s0-.04,0-.04c0-1.1-.58-1.79-1.52-1.79ZM224.29,30.3c-.82,0-1.37.52-1.48,1.38h2.85c-.04-.9-.54-1.38-1.37-1.38ZM143.88,31.57h2.21l-1.09-3.05-1.13,3.05ZM172.75,28.62h-1.18v-1.16h1.18v1.16ZM184.62,28.62h-1.18v-1.16h1.18v1.16ZM165.96,14.7c1.7,0,2.83.85,3.11,2.55h-1.18c-.2-1.07-.88-1.53-1.94-1.53-1.38,0-2.31,1.05-2.31,2.83v.1c0,1.68.89,2.69,2.3,2.69,1.08,0,1.92-.7,1.98-1.74h-1.82v-.97h2.97v3.58h-.99v-1.13c-.42.8-1.21,1.25-2.24,1.25-1.97,0-3.26-1.36-3.34-3.52v-.2c0-2.4,1.4-3.91,3.47-3.91ZM180.38,17.74c.37-.54.96-.87,1.69-.87,1.35,0,2.36,1.01,2.36,2.7s-1,2.76-2.37,2.76c-.72,0-1.31-.33-1.68-.88h0s0,.76,0,.76h-1.06v-7.5h1.07v3.01ZM187.78,16.88c1.39,0,2.14.6,2.14,1.93v3.4h-1.05v-.79c-.35.63-1.01.92-1.76.92-1.11,0-1.8-.61-1.8-1.5,0-1.17.88-1.43,2.04-1.69.89-.19,1.43-.24,1.54-.53v-.07c0-.44-.32-.77-1.13-.77-.77,0-1.2.35-1.24.94v.06h-1.1c.03-1.18.97-1.89,2.36-1.89ZM175.52,16.88c1.54,0,2.62,1.13,2.62,2.72s-1.11,2.7-2.65,2.7c-1.54,0-2.61-1.11-2.61-2.7s1.08-2.72,2.64-2.72ZM156.67,16.87c1.54,0,2.46,1.03,2.46,2.69v.4h-3.94c.06.9.64,1.45,1.52,1.45s1.28-.43,1.48-.94l.97.38c-.35.81-1.1,1.45-2.44,1.45-1.61,0-2.61-1.06-2.61-2.68h0c0-1.62,1.08-2.74,2.57-2.74ZM192.44,22.23h-1.1v-7.49h1.1v7.49ZM149.57,17.99c.27-.72.79-1.12,1.6-1.12,1.14,0,1.82.74,1.81,2.15v3.19h-1.1v-3.13c0-.82-.34-1.25-1.05-1.25-.81,0-1.26.68-1.26,1.88v2.51h-1.06v-7.51h1.07v3.27ZM171.72,22.21h-1.1v-7.49h1.1v7.49ZM147.48,15.81h-2.36v6.38h-1.12v-6.38h-2.34v-.99h5.81v.99ZM188.88,19.47c-.32.22-.88.31-1.39.43-.6.16-1.09.34-1.09.9,0,.44.32.72.9.72.77,0,1.49-.39,1.57-1.41v-.64ZM181.79,17.8c-.91,0-1.48.73-1.48,1.77v.09c0,1.03.54,1.73,1.47,1.73.88,0,1.48-.66,1.48-1.78h.01v-.08c0-1.13-.57-1.73-1.48-1.73ZM175.51,17.8c-.94,0-1.53.69-1.53,1.78v.04c0,1.07.57,1.74,1.51,1.74.88,0,1.47-.6,1.54-1.55v-.18s0-.04,0-.04c0-1.09-.58-1.79-1.52-1.79ZM156.63,17.76c-.79,0-1.37.52-1.48,1.38h2.85c-.04-.9-.54-1.38-1.37-1.38Z"/>
</svg>