<svg width="231" height="50" viewBox="0 0 231 50" fill="none" xmlns="http://www.w3.org/2000/svg">
<path d="M58.823 41.5778H45.713C44.7847 41.5778 44.0442 40.8269 44.0442 39.9091V28.7911C44.0442 22.1996 38.7043 16.8596 32.1128 16.8596H29.9434C29.4532 16.8596 29.0569 17.2559 29.0569 17.7461V22.0223C29.0569 22.1266 28.9109 22.1474 28.8796 22.0536C28.0139 19.1437 25.3857 17.0056 22.2255 16.8596H0.886517C0.396325 16.8596 0 17.2559 0 17.7461V24.3794C0 27.1536 2.24237 29.396 5.01664 29.396H13.256C13.7462 29.396 14.1426 29.7923 14.1426 30.2825V30.3764C14.1426 33.1507 16.3849 35.393 19.1592 35.393H28.1704C28.6606 35.393 29.0465 35.7894 29.0465 36.2691V36.5612C29.0465 39.3354 31.2888 41.5778 34.0631 41.5778H42.3651C43.2933 41.5778 44.0338 42.3287 44.0338 43.2465V44.3312C44.0338 47.1055 46.2762 49.3479 49.0505 49.3479H58.823C59.3132 49.3479 59.7095 48.9515 59.7095 48.4613V42.4643C59.7095 41.9741 59.3132 41.5778 58.823 41.5778Z" fill="#819937"/>
<path d="M74.8652 35.5696C74.8652 39.6475 77.1077 41.8898 80.9561 41.8899C84.8046 41.8899 87.2246 39.6476 87.2246 35.5071V16.0149H95.3809V35.5178C95.3808 43.6112 89.8841 49.3479 80.9668 49.3479C72.0495 49.3479 66.7305 43.6111 66.7305 35.5803L66.71 35.5696V16.0149H74.8652V35.5696ZM116.511 0.651611C118.638 0.651611 120.526 1.00634 122.477 1.60083V8.63013C121.35 8.21299 119.577 7.85871 117.867 7.85864C114.259 7.85864 112.37 9.39162 112.37 13.0002V16.0149H121.173V22.8147H112.433V48.5129H104.277V22.8147H99.792V16.0149H104.34V12.2288C104.34 6.02317 108.772 0.651667 116.511 0.651611ZM134.596 48.5129H126.439V16.0149H134.596V48.5129Z" fill="black"/>
<path d="M227.807 45.9065L229.09 41.9954H230.247L228.234 47.6165C227.755 48.8576 227.296 49.3479 226.044 49.3479H225.491V48.3577H225.981C226.701 48.3577 226.868 48.2008 227.285 47.137L225.262 41.9954H226.409L227.807 45.9065ZM214.551 41.8801C215.541 41.8802 216.302 42.3285 216.813 43.0061L215.865 43.4758C215.563 43.0169 215.093 42.7766 214.54 42.7766C213.987 42.7767 213.602 43.0379 213.602 43.4446C213.602 43.8826 213.957 43.9561 214.916 44.1438C215.865 44.3316 216.855 44.6759 216.855 45.7083C216.855 46.6779 216 47.3869 214.812 47.387C213.8 47.387 212.965 46.9489 212.496 46.2815V46.2708L213.435 45.7708C213.758 46.2399 214.301 46.469 214.854 46.469C215.437 46.4689 215.802 46.198 215.802 45.7708C215.802 45.3118 215.197 45.2176 214.373 45.0403C213.424 44.8421 212.569 44.5079 212.569 43.4963C212.57 42.5787 213.435 41.8801 214.551 41.8801ZM163.634 42.7151C163.999 42.1727 164.593 41.8489 165.323 41.8489C166.668 41.849 167.68 42.8607 167.68 44.55C167.68 46.2501 166.679 47.3137 165.312 47.3137C164.593 47.3137 163.999 46.9801 163.634 46.4377L163.623 46.428V47.1995H162.56V39.7004H163.634V42.7151ZM205.487 47.2102H204.413V46.4377C204.048 46.9905 203.443 47.3137 202.713 47.3137C201.452 47.3136 200.484 46.425 200.368 44.9133L200.356 44.6125C200.357 42.944 201.357 41.8596 202.724 41.8596C203.443 41.8596 204.038 42.2035 204.413 42.7561V39.7209H205.487V47.2102ZM211.391 47.2102H210.296V46.3127C210.004 46.9594 209.492 47.304 208.741 47.304C207.637 47.3039 206.953 46.5887 206.872 45.3997L206.864 45.1653V41.9739H207.97V45.1028C207.97 45.9162 208.324 46.3546 209.033 46.3547C209.899 46.3547 210.306 45.6136 210.306 44.4768V41.9641H211.391V47.2102ZM179.872 41.8704C181.416 41.8704 182.49 42.9963 182.49 44.592C182.49 46.1878 181.384 47.2932 179.841 47.2932C178.297 47.2931 177.233 46.1877 177.233 44.592C177.233 42.9964 178.318 41.8704 179.872 41.8704ZM197.415 41.8704C198.552 41.8704 199.24 42.6418 199.229 44.0393V47.2307H198.124V44.1018C198.124 43.2779 197.78 42.8499 197.07 42.8499C196.257 42.8501 195.799 43.5286 195.788 44.7278V47.2415H194.703V41.9954L194.714 41.9739H195.798V42.9651C196.079 42.2663 196.612 41.8704 197.415 41.8704ZM186.359 41.8596C187.496 41.8596 188.184 42.631 188.174 44.0286V47.22H187.068V44.0911C187.068 43.2673 186.725 42.8402 186.016 42.8401C185.202 42.8401 184.743 43.5176 184.732 44.717V47.2307H183.647V41.9846L183.658 41.9631H184.743V42.9543C185.025 42.2557 185.556 41.8597 186.359 41.8596ZM219.516 41.9739H220.652V42.9124H219.516V45.7805C219.516 46.1142 219.651 46.2707 219.984 46.2708H220.61V47.2307H219.682C218.722 47.1889 218.483 46.7505 218.473 45.9163H218.462V42.9124H217.627V41.9739H218.462V40.9514L219.516 40.2952V41.9739ZM224.521 43.0061H224.021C223.093 43.0062 222.832 43.4759 222.832 44.5393V47.2307H221.736V41.9846H222.832V42.9543C222.988 42.3391 223.395 41.9426 224.354 41.9426H224.521V43.0061ZM155.175 42.9758C155.446 42.2562 155.967 41.8596 156.771 41.8596C157.907 41.8596 158.596 42.6001 158.596 44.0081V47.1995H157.49V44.0706C157.49 43.2466 157.146 42.8186 156.437 42.8186C155.623 42.8188 155.164 43.4973 155.164 44.6965V47.2102H154.101V39.7209L154.111 39.7004H155.175V42.9758ZM193.149 47.2092H192.033V39.8362H193.149V47.2092ZM169.954 47.1995H168.858V41.9534H169.954V47.1995ZM172.791 41.9426H173.928V42.8811H172.791V45.7493C172.791 46.083 172.926 46.2394 173.26 46.2395H173.886V47.1995H172.957C171.998 47.1576 171.758 46.7193 171.748 45.885H171.737V42.8811H170.903V41.9426H171.737V40.9211L172.791 40.2639V41.9426ZM176.086 47.1995H174.991V41.9534H176.086V47.1995ZM147.165 40.7961H143.118V42.8499H145.819V43.8411H143.118V46.1985H147.332V47.1887H142.023V39.8049H147.165V40.7961ZM161.099 47.1887H160.004V41.9426H161.099V47.1887ZM150.722 43.7366L151.9 41.9329H153.089L151.326 44.4563L153.193 47.179H151.963L150.659 45.1868L149.334 47.179H148.146L150.033 44.467L148.302 41.9329H149.532L150.722 43.7366ZM202.984 42.7981C202.056 42.7981 201.493 43.4551 201.493 44.5813V44.6545C201.493 45.7809 202.077 46.386 202.984 46.386C203.835 46.386 204.393 45.7443 204.459 44.8049L204.465 44.6233V44.5295C204.465 43.497 203.913 42.7981 202.984 42.7981ZM165.041 42.7668C164.134 42.7671 163.561 43.4975 163.561 44.5403V44.634C163.561 45.6664 164.103 46.3655 165.031 46.3655C165.907 46.3653 166.512 45.7076 166.512 44.5813H166.522V44.4983C166.522 43.3719 165.948 42.7668 165.041 42.7668ZM179.862 42.7874C178.924 42.7874 178.329 43.4764 178.329 44.5715V44.6125C178.329 45.6867 178.902 46.3547 179.841 46.3547C180.721 46.3547 181.308 45.7589 181.378 44.8079L181.385 44.6233V44.5813C181.385 43.4866 180.801 42.7876 179.862 42.7874ZM176.139 41.1194H174.96V39.9612H176.139V41.1194ZM161.141 41.1086H159.962V39.9514H161.141V41.1086ZM170.006 41.1086H168.827V39.9514H170.006V41.1086ZM151.128 29.344C152.119 29.344 152.881 29.7921 153.392 30.47L152.442 30.9397C152.14 30.4809 151.671 30.2406 151.118 30.2405C150.565 30.2405 150.179 30.5017 150.179 30.9084C150.179 31.3462 150.534 31.419 151.493 31.6067C152.442 31.7944 153.433 32.1388 153.434 33.1711C153.434 34.1411 152.578 34.8508 151.389 34.8508C150.377 34.8507 149.543 34.4127 149.073 33.7454V33.7346L150.013 33.2336C150.336 33.703 150.878 33.9329 151.431 33.9329C152.015 33.9329 152.38 33.6613 152.38 33.2336C152.38 32.7751 151.775 32.6814 150.951 32.5042C150.002 32.306 149.146 31.9719 149.146 30.9602C149.147 30.0425 150.012 29.3441 151.128 29.344ZM156.301 29.344C157.292 29.344 158.053 29.7921 158.564 30.47L157.615 30.9397C157.313 30.4808 156.844 30.2405 156.291 30.2405C155.738 30.2405 155.353 30.5017 155.353 30.9084C155.353 31.3462 155.707 31.419 156.666 31.6067C157.615 31.7944 158.606 32.1388 158.606 33.1711C158.606 34.1411 157.75 34.8508 156.562 34.8508C155.55 34.8507 154.716 34.4125 154.247 33.7454V33.7346L155.186 33.2336C155.509 33.7029 156.051 33.9328 156.604 33.9329C157.188 33.9329 157.553 33.6613 157.553 33.2336C157.552 32.775 156.948 32.6814 156.124 32.5042C155.175 32.306 154.319 31.9719 154.319 30.9602C154.319 30.0426 155.185 29.3442 156.301 29.344ZM224.312 29.4065C225.856 29.4065 226.774 30.4388 226.774 32.0969V32.4934H222.832C222.895 33.3903 223.468 33.9436 224.354 33.9436C225.241 33.9436 225.638 33.5152 225.836 33.0042L226.806 33.3801C226.451 34.1936 225.71 34.8293 224.365 34.8293C222.759 34.8293 221.758 33.7661 221.758 32.1497H221.747C221.747 30.5332 222.832 29.4067 224.312 29.4065ZM176.378 29.3645C177.723 29.3645 178.517 29.9696 178.517 31.2942V34.6946H177.463V33.9016C177.108 34.5273 176.451 34.8196 175.7 34.8196C174.588 34.8195 173.901 34.2083 173.896 33.3167C173.902 32.1476 174.776 31.8881 175.94 31.6282C176.827 31.4404 177.37 31.388 177.484 31.0959V31.0227C177.484 30.5848 177.16 30.2512 176.357 30.2512C175.554 30.2512 175.158 30.6057 175.116 31.1897V31.2522H174.021C174.053 30.0739 174.991 29.3646 176.378 29.3645ZM202.766 29.3958C204.309 29.396 205.383 30.5228 205.383 32.1184C205.383 33.6931 204.278 34.8193 202.734 34.8196C201.191 34.8196 200.127 33.7141 200.127 32.1184C200.127 30.5227 201.222 29.3958 202.766 29.3958ZM188.352 29.385C189.895 29.385 190.97 30.512 190.97 32.1077C190.97 33.7033 189.864 34.8088 188.32 34.8088C186.777 34.8088 185.713 33.7034 185.713 32.1077C185.713 30.5119 186.808 29.385 188.352 29.385ZM162.069 29.3645C163.613 29.3647 164.687 30.4916 164.687 32.0872C164.686 33.6825 163.581 34.7881 162.038 34.7883C160.495 34.7883 159.431 33.6826 159.431 32.0872C159.431 30.4914 160.526 29.3645 162.069 29.3645ZM168.149 29.3645C169.38 29.3645 170.162 30.032 170.485 31.054L169.442 31.3772C169.265 30.71 168.89 30.293 168.129 30.2825C167.222 30.2825 166.647 31.0022 166.647 32.0452V32.0872C166.648 33.1195 167.18 33.8489 168.087 33.8489C168.931 33.8488 169.296 33.4218 169.474 32.7024L170.517 33.0256C170.172 34.0893 169.38 34.7668 168.107 34.7668C166.543 34.7667 165.542 33.6407 165.542 32.0452L165.553 32.0657C165.553 30.5013 166.616 29.3645 168.149 29.3645ZM217.221 30.5227C217.492 29.8031 218.013 29.4065 218.816 29.4065C219.953 29.4065 220.641 30.147 220.631 31.5549V34.7463H219.525V31.6174C219.525 30.7936 219.181 30.3665 218.472 30.3665C217.658 30.3667 217.21 31.0442 217.21 32.2434V34.7571H216.146V27.2688L216.157 27.2473H217.221V30.5227ZM194.828 29.3752C195.965 29.3752 196.653 30.1469 196.653 31.5442V34.7366H195.548V31.6077C195.548 30.7837 195.203 30.3557 194.494 30.3557C193.681 30.356 193.222 31.0337 193.212 32.2327V34.7463H192.116V29.5002L192.138 29.4797H193.222V30.47C193.503 29.7714 194.036 29.3753 194.828 29.3752ZM209.127 28.2278H208.73C208.032 28.2278 207.938 28.2807 207.938 29.0315V29.4895H209.002V30.429H207.938V34.7356H206.854V30.429L206.864 30.4182H205.988V29.4797H206.864V28.9475C206.864 27.7378 207.208 27.2894 208.282 27.2268H209.127V28.2278ZM213.925 29.4797H215.052V30.4182H213.914V33.2864C213.914 33.6198 214.05 33.7765 214.373 33.7766H214.999V34.7356H214.071C213.112 34.6939 212.872 34.2562 212.861 33.4221H212.871V30.4182H212.037V29.4797H212.871V28.4573L213.925 27.8V29.4797ZM181.27 29.4583H182.406V30.3967H181.27V33.2649C181.27 33.5986 181.406 33.7551 181.739 33.7551H182.365V34.7151H181.437C180.477 34.6733 180.237 34.235 180.227 33.4006H180.217V30.3967H179.382V29.4583H180.217V28.4368L181.27 27.7795V29.4583ZM184.565 34.7151H183.471V29.469H184.565V34.7151ZM172.696 34.7043H171.602V29.4583H172.696V34.7043ZM144.38 27.3098H145.684L148.375 34.6838H147.196L146.435 32.5354H143.546L142.743 34.6731H141.596L144.38 27.2991V27.3098ZM177.484 31.9514C177.161 32.1704 176.608 32.2644 176.097 32.3792C175.492 32.5356 175.012 32.723 175.012 33.2756C175.012 33.7137 175.336 33.9954 175.909 33.9954C176.681 33.9953 177.401 33.6092 177.484 32.5872V31.9514ZM202.766 30.3137C201.827 30.3137 201.232 31.0028 201.232 32.0979V32.1389C201.232 33.2131 201.806 33.881 202.744 33.8811C203.634 33.8811 204.212 33.2852 204.281 32.3342L204.288 32.1497V32.1077C204.288 31.0128 203.704 30.3139 202.766 30.3137ZM188.341 30.303C187.402 30.3031 186.808 30.9921 186.808 32.0872V32.1282C186.808 33.2024 187.382 33.8704 188.32 33.8704C189.2 33.8703 189.786 33.2744 189.856 32.3235L189.864 32.1389V32.0969C189.864 31.002 189.279 30.303 188.341 30.303ZM162.059 30.2825C161.12 30.2825 160.525 30.9707 160.525 32.0657V32.1077C160.525 33.1819 161.099 33.8489 162.038 33.8489C162.928 33.8487 163.506 33.2531 163.574 32.302L163.581 32.1184V32.0764C163.581 30.9813 162.997 30.2825 162.059 30.2825ZM224.292 30.303C223.468 30.303 222.925 30.8247 222.811 31.6799H225.658C225.616 30.783 225.116 30.303 224.292 30.303ZM143.88 31.5657H146.091L145.006 28.5198L143.88 31.5657ZM172.749 28.6243H171.57V27.467H172.749V28.6243ZM184.617 28.6243H183.439V27.467H184.617V28.6243ZM165.959 14.7014C167.659 14.7014 168.786 15.5561 169.067 17.2561H167.889C167.69 16.1819 167.012 15.7229 165.948 15.7229C164.572 15.7231 163.634 16.7765 163.634 18.5491V18.6536C163.634 20.3327 164.52 21.345 165.938 21.345C167.023 21.3449 167.857 20.6457 167.92 19.6028H166.095V18.6331H169.067V22.2102H168.076V21.0842C167.659 21.8871 166.866 22.3352 165.834 22.3352C163.864 22.3352 162.569 20.9751 162.49 18.8137L162.486 18.6125C162.486 16.2138 163.894 14.7015 165.959 14.7014ZM180.383 17.7356C180.748 17.1933 181.343 16.8704 182.073 16.8704C183.418 16.8705 184.43 17.8822 184.43 19.5715C184.43 21.2715 183.429 22.3352 182.062 22.3352C181.343 22.3352 180.748 22.0016 180.383 21.4592L180.373 21.4495V22.2209H179.309V14.7219H180.383V17.7356ZM187.778 16.8811C189.165 16.8812 189.916 17.4856 189.916 18.8098V22.2102H188.862V21.4172C188.508 22.043 187.851 22.3352 187.1 22.3352C185.988 22.3351 185.301 21.7245 185.296 20.8333C185.301 19.6638 186.175 19.4038 187.34 19.1438C188.226 18.9561 188.769 18.9036 188.884 18.6116V18.5393C188.884 18.1013 188.56 17.7668 187.757 17.7668C186.985 17.7669 186.558 18.1216 186.516 18.7053V18.7688H185.421C185.452 17.5903 186.391 16.8811 187.778 16.8811ZM175.523 16.8811C177.067 16.8813 178.141 18.0072 178.141 19.6028C178.141 21.1984 177.036 22.3038 175.492 22.304C173.949 22.304 172.885 21.1985 172.885 19.6028C172.885 18.0071 173.969 16.8811 175.523 16.8811ZM156.666 16.8704C158.21 16.8704 159.128 17.9025 159.128 19.5608V19.9573H155.186C155.248 20.8541 155.822 21.4065 156.708 21.4065C157.595 21.4065 157.991 20.9791 158.189 20.468L159.159 20.844C158.805 21.6573 158.064 22.2931 156.719 22.2932C155.113 22.2932 154.111 21.2291 154.111 19.6125H154.101C154.101 17.9963 155.185 16.8705 156.666 16.8704ZM192.44 22.2307H191.345V14.7424H192.44V22.2307ZM149.574 17.9856C149.845 17.2662 150.367 16.8704 151.17 16.8704C152.307 16.8704 152.995 17.6108 152.984 19.0188V22.2102H151.879V19.0813C151.879 18.2575 151.535 17.8295 150.826 17.8293C150.013 17.8293 149.563 18.5079 149.563 19.7073V22.2209H148.5V14.7317L148.511 14.7112H149.574V17.9856ZM171.717 22.2102H170.621V14.7219H171.717V22.2102ZM147.478 15.8059H145.121V22.1897H144.005V15.8059H141.669V14.8157H147.478V15.8059ZM188.884 19.467C188.56 19.6861 188.007 19.78 187.496 19.8948C186.891 20.0512 186.411 20.2389 186.411 20.7913C186.411 21.2293 186.735 21.511 187.309 21.511C188.08 21.511 188.8 21.1256 188.884 20.1038V19.467ZM181.791 17.7991C180.884 17.7992 180.311 18.5287 180.311 19.5715V19.6653C180.311 20.6978 180.853 21.3967 181.781 21.3967C182.657 21.3965 183.262 20.7397 183.262 19.6135H183.272V19.5295C183.272 18.4034 182.698 17.7991 181.791 17.7991ZM175.513 17.7981C174.574 17.7981 173.979 18.4872 173.979 19.5823V19.6233C173.979 20.6975 174.554 21.3655 175.492 21.3655C176.372 21.3653 176.958 20.7694 177.028 19.8186L177.035 19.634V19.592C177.035 18.4971 176.451 17.7981 175.513 17.7981ZM156.635 17.7561C155.842 17.7562 155.269 18.278 155.154 19.1331H158.001C157.959 18.2362 157.459 17.7561 156.635 17.7561Z" fill="black"/>
</svg>
