<?xml version="1.0" encoding="UTF-8"?>
<svg id="Layer_1" xmlns="http://www.w3.org/2000/svg" version="1.1" viewBox="0 0 202.45 50">
  <!-- Generator: Adobe Illustrator 30.1.0, SVG Export Plug-In . SVG Version: 2.1.1 Build 136)  -->
  <defs>
    <style>
      .st0 {
        fill: #fff;
      }
    </style>
  </defs>
  <g>
    <path class="st0" d="M58.82,41.58h-13.11c-.93,0-1.67-.75-1.67-1.67v-11.12c0-6.59-5.34-11.93-11.93-11.93h-2.17c-.49,0-.89.4-.89.89v4.28c0,.1-.15.13-.18.03-.87-2.91-3.49-5.05-6.65-5.19H.89c-.49,0-.89.4-.89.89v6.63c0,2.77,2.24,5.02,5.02,5.02h8.24c.49,0,.89.4.89.89v.09c0,2.77,2.24,5.02,5.02,5.02h9.01c.49,0,.88.4.88.88v.29c0,2.77,2.24,5.02,5.02,5.02h8.3c.93,0,1.67.75,1.67,1.67v1.08c0,2.77,2.24,5.02,5.02,5.02h9.77c.49,0,.89-.4.89-.89v-6c0-.49-.4-.89-.89-.89Z"/>
    <path class="st0" d="M74.87,35.57c0,4.08,2.24,6.32,6.09,6.32,3.85,0,6.27-2.24,6.27-6.38v-19.49h8.16v19.5c0,8.09-5.5,13.83-14.41,13.83s-14.24-5.74-14.24-13.77h-.02v-19.57h8.16v19.55ZM116.51.65c2.13,0,4.01.35,5.97.95v7.03c-1.13-.42-2.9-.77-4.61-.77-3.61,0-5.5,1.53-5.5,5.14v3.01h8.8v6.8h-8.74v25.7h-8.16v-25.7h-4.49v-6.8h4.55v-3.79c0-6.21,4.43-11.58,12.17-11.58ZM134.6,48.51h-8.16V16.01h8.16v32.5Z"/>
  </g>
  <g>
    <path class="st0" d="M141.56,36.29v-6.58c0-.14.08-.26.19-.26h3.81c.27,0,.54.05.8.14.09.04.17.06.25.1.1.04.2.09.3.15.84.51,1.49,1.47,1.8,2.66.05.17.08.35.11.53.03.16.04.32.05.48,0,.14.01.27.01.41,0,1.02-.62,2.55-.69,2.63-.13,0-.27-.01-.41-.01h-6.03c-.1,0-.18-.11-.18-.25Z"/>
    <g>
      <path class="st0" d="M154.82,37.56v-9.28h1.85l2.2,6.57c.2.61.35,1.07.44,1.38.11-.34.27-.83.49-1.49l2.22-6.46h1.65v9.28h-1.18v-7.77l-2.7,7.77h-1.11l-2.69-7.9v7.9h-1.18Z"/>
      <path class="st0" d="M170.12,35.4l1.18.15c-.19.69-.53,1.22-1.03,1.6-.5.38-1.14.57-1.92.57-.98,0-1.76-.3-2.34-.91-.58-.61-.87-1.46-.87-2.55s.29-2.01.87-2.63c.58-.62,1.34-.94,2.27-.94s1.63.31,2.2.92c.57.61.85,1.47.85,2.58,0,.07,0,.17,0,.3h-5.02c.04.74.25,1.3.63,1.7.38.39.84.59,1.41.59.42,0,.77-.11,1.07-.33s.53-.57.7-1.05ZM166.38,33.56h3.76c-.05-.57-.19-.99-.43-1.27-.36-.44-.83-.66-1.41-.66-.52,0-.96.18-1.32.53-.36.35-.55.82-.59,1.41Z"/>
      <path class="st0" d="M172.73,37.56v-6.73h1.02v.94c.21-.33.49-.59.84-.79.35-.2.75-.3,1.2-.3.5,0,.91.1,1.22.31.32.21.54.5.67.87.53-.79,1.22-1.18,2.08-1.18.67,0,1.18.19,1.54.55.36.37.54.94.54,1.71v4.62h-1.13v-4.24c0-.46-.04-.78-.11-.99-.07-.2-.21-.36-.4-.48-.19-.12-.42-.18-.68-.18-.47,0-.87.16-1.18.47-.31.31-.47.82-.47,1.51v3.91h-1.14v-4.37c0-.51-.09-.89-.28-1.14-.19-.25-.49-.38-.91-.38-.32,0-.62.08-.89.25-.27.17-.47.42-.59.74-.12.33-.18.79-.18,1.41v3.49h-1.14Z"/>
      <path class="st0" d="M184.59,37.56h-1.06v-9.28h1.14v3.31c.48-.6,1.1-.91,1.84-.91.41,0,.81.08,1.17.25.37.17.67.4.91.7.24.3.43.67.56,1.09s.2.88.2,1.37c0,1.15-.29,2.04-.86,2.67-.57.63-1.25.94-2.05.94s-1.42-.33-1.87-.99v.84ZM184.57,34.15c0,.81.11,1.39.33,1.75.36.59.84.88,1.46.88.5,0,.93-.22,1.29-.65.36-.43.54-1.08.54-1.93s-.17-1.53-.52-1.94c-.35-.42-.77-.63-1.26-.63s-.93.22-1.29.65c-.36.43-.54,1.06-.54,1.88Z"/>
      <path class="st0" d="M195.35,35.4l1.18.15c-.19.69-.53,1.22-1.03,1.6-.5.38-1.14.57-1.92.57-.98,0-1.76-.3-2.34-.91-.58-.61-.87-1.46-.87-2.55s.29-2.01.87-2.63c.58-.62,1.34-.94,2.27-.94s1.63.31,2.2.92c.57.61.85,1.47.85,2.58,0,.07,0,.17,0,.3h-5.02c.04.74.25,1.3.63,1.7.38.39.84.59,1.41.59.42,0,.77-.11,1.07-.33s.53-.57.7-1.05ZM191.61,33.56h3.76c-.05-.57-.19-.99-.43-1.27-.36-.44-.83-.66-1.41-.66-.52,0-.96.18-1.32.53-.36.35-.55.82-.59,1.41Z"/>
      <path class="st0" d="M197.95,37.56v-6.73h1.03v1.02c.26-.48.5-.79.73-.94s.46-.23.73-.23c.38,0,.77.12,1.17.37l-.39,1.06c-.28-.17-.56-.25-.84-.25-.25,0-.47.07-.67.22-.2.15-.34.36-.42.62-.13.41-.19.85-.19,1.33v3.52h-1.14Z"/>
    </g>
  </g>
</svg>