<?xml version="1.0" encoding="UTF-8"?>
<svg id="Layer_1" data-name="Layer 1" xmlns="http://www.w3.org/2000/svg" viewBox="0 0 855.4 1080">
  <defs>
    <style>
      .cls-1 {
        fill: #637479;
      }

      .cls-2 {
        fill: #911a1d;
      }

      .cls-3 {
        fill: #3e9556;
      }

      .cls-4 {
        fill: #077039;
      }

      .cls-5 {
        fill: #948438;
      }

      .cls-6 {
        fill: #fff;
      }

      .cls-7 {
        fill: #c83c42;
      }

      .cls-8 {
        fill: #929ea2;
      }

      .cls-9 {
        fill: #d3b878;
      }

      .cls-10 {
        fill: #b0bcc3;
      }
    </style>
  </defs>
  <path class="cls-1" d="M191.06,804.72c-9.95,2.59-13.81,3.49-18.07,3.49-7.73,0-14.02-1.86-18.17-5.38-.69-.58-1.26-1.28-1.71-2.07-1.52-2.7-.94-6.37,1.41-8.93.24-.26.49-.51.57-.66,7.89-2.35,17.4-4.05,26.78-4.79l.29-.02,1.86-8.59-.54.06c-6.34.75-12.2,1.75-17.27,2.99-7.86-1.45-13.68-7.88-14.52-15.79,3.08-5.91,9.55-10.04,15.74-10.04,3.16,0,6.07.75,11.53,2.96l.32.13,1.77-3.22-.31-.19c-2.02-1.29-3.57-2.46-5.08-3.59-1.99-1.49-3.87-2.91-6.8-4.51-11.15,0-23.09,8.6-23.09,21.4,0,6.31,3.83,12.89,9.59,16.58-.56.3-2.41,1.39-2.41,1.39-1.17.74-2.25,2.01-3.21,3.78-3.48,6.42-3.09,14.01,1.02,19.34,2.48,3.22,5.86,5.45,9.78,6.43,3.68.93,7.83,1.41,12.32,1.41h.08l.07-.03c3.5-1.54,6.48-2.9,9.38-4.23,3.22-1.47,6.33-2.9,9.95-4.46l.34-.15-1.29-3.4M381.16,745.55c-11.33,0-18.55,16.52-18.55,25.17,0,7.07,7.85,12.06,25.53,16.2h-179.46c-.23-20.5-.76-31.59-1.7-51.62l-.39-8.31h-8.84l.04.42c2.51,28.05,3.47,46.02,4.28,67.56v.37h194.52l.06-.31c.37-1.84,1.5-14.04,1.5-17.05,0-20.31-6.35-32.43-16.99-32.43M391.54,780.1c-10.81-2.22-16.05-4.45-22.97-9.48.79-9.07,6.18-17.03,11.55-17.03,6.72,0,11.42,10.62,11.42,25.82v.69ZM387.59,733.48l-6.77-6.49-7.16,7.44,7.34,6.63,6.6-7.58ZM677.71,739.68l-6.77-6.49-7.16,7.44,7.33,6.63,6.6-7.58ZM593.38,739.81l-6.77-6.62-7.16,7.44,7.33,6.63,6.6-7.45ZM577.94,739.67l-6.77-6.49-7.16,7.44,7.33,6.63,6.6-7.58ZM620.96,753.03l-8.24,4.69.17.33c5.7,11.15,9.18,20.2,11.26,29.16-3.13,10.03-9.85,17.99-17.56,20.79-3.45,1.54-8.87,2.55-14.51,2.69h-.36s-.16,3.58-.16,3.58l19.19,2.56c11.81-8.99,18.57-20.68,18.57-32.09,0-7.1-2.53-16.75-8.2-31.28l-.16-.42ZM652.63,795.33c-.62-28.18-1.13-41.11-2.32-67.97l-.02-.37h-8.83l.04.42c2.02,26.14,2.83,41.46,3.96,62.65l.28,5.27h6.89ZM677.24,753.03l-8.23,4.69.17.33c5.7,11.15,9.18,20.2,11.26,29.16-3.13,10.03-9.85,17.99-17.56,20.79-3.45,1.54-8.87,2.55-14.52,2.69h-.36s-.16,3.58-.16,3.58l19.19,2.56c11.81-8.99,18.57-20.68,18.57-32.09,0-7.1-2.53-16.75-8.2-31.28l-.16-.42ZM714.4,751.65c-10.66,0-18.68,15.03-18.68,24.78,0,8.34,9.11,13.88,27.86,16.91-2.98,6.8-8.33,12.35-14.4,14.91-3.33,1.48-8.47,2.3-15.29,2.44h-.35s-.33,3.58-.33,3.58l19.21,2.57c12.23-9.08,18.97-21.21,18.97-34.17,0-18.84-6.67-31.01-16.99-31.01M701.68,776.34c1.03-8.87,6.49-16.65,11.68-16.65,6.5,0,10.99,9.72,12.04,26.02-12.02-1.75-19.38-4.74-23.72-9.37M494.78,727.36v-.37h-8.85l.04.42c1.86,24.03,2.68,38.59,3.8,59.52h-39.53c-3.76,0-6.5-2.06-8.87-6.68-3.52-6.62-5.78-16.39-7.09-30.73l-.05-.53-7.63,3.32.04.29c2.05,14.41,5.58,26.3,9.91,33.48.26.44.53.82.81,1.22-4.44.76-8.71.93-13.72.93-5.99,0-11.24-.56-17.04-1.81l-.39-.08-1.43,8.02.35.08c5.79,1.41,12.25,2.22,17.74,2.22s11.6-.16,17.07-1.31l.24-.05.93-3.63c2.67,2.38,5.58,3.61,8.49,3.61l.27.07,47.25-.02v-.39c-.63-28.45-1.14-40.55-2.34-67.58M599.98,786.01c.03-5.04-8.36-22.66-15.19-33.25-1.71.84-4.65,3.04-6.49,4.5-9.63,7.73-16.33,17.97-16.33,24.98,0,7.94,8.32,14.4,18.55,14.4,6.28,0,12.36-1.58,16.83-4.51l2.63-6.12ZM581.17,788.48c-5.42,0-10.35-2.37-13.13-5.98,2.54-7.62,7.7-14.68,14.19-19.41,4.55,7.16,7.66,13.69,10.67,22.37-3.62,2.22-8.4,3.02-11.73,3.02M519.44,795.33c-.63-28.19-1.14-41.12-2.32-67.97l-.02-.37h-8.83l.03.42c2.02,26.14,2.83,41.46,3.96,62.65l.28,5.27h6.89Z"/>
  <polyline class="cls-1" points="166.57 851.55 153 832.44 145.77 832.44 148.23 835.88 148.23 871.29 153.14 871.29 153.14 842.76 165.6 860.21 178.6 842.81 178.6 871.29 184.48 871.29 184.48 832.44 181.15 832.44"/>
  <polyline class="cls-1" points="382.33 849.36 373.49 832.75 373.32 832.44 366.76 832.44 378.63 854.9 378.63 871.29 384.5 871.29 384.5 855.32 397.22 832.44 391.68 832.44"/>
  <path class="cls-1" d="M355.6,852.44c.91-.61,1.77-1.38,2.54-2.27.78-.9,1.46-1.97,2-3.18.54-1.21.82-2.6.82-4.12,0-1.85-.36-3.48-1.06-4.85-.71-1.37-1.69-2.53-2.91-3.43-1.22-.9-2.69-1.6-4.36-2.06-1.66-.46-3.5-.69-5.48-.69-2.43,0-4.46.12-6.05.36-1.42.21-2.86.46-4.28.76l-.46.09v38.23h5.88v-15.76l5.64.06,11.26,15.7h7.35l-13.3-17.53c.72-.29,1.53-.73,2.4-1.31M354.57,846.23c-.33.83-.76,1.59-1.29,2.26-.52.66-1.07,1.23-1.64,1.68-.46.37-.99.75-1.75,1.11h-7.64v-15.01h3.32c3.22,0,5.64.57,7.19,1.68,1.54,1.12,2.32,2.95,2.32,5.46,0,1.04-.17,1.99-.51,2.82"/>
  <rect class="cls-1" x="196.77" y="832.44" width="5.88" height="38.84"/>
  <rect class="cls-1" x="257.45" y="832.44" width="5.88" height="38.84"/>
  <polyline class="cls-1" points="240.18 859.11 218.88 832.44 211.52 832.44 215.43 837.33 215.43 871.29 220.34 871.29 220.34 843.53 242.44 871.29 245.15 871.29 245.15 832.44 240.18 832.44"/>
  <polyline class="cls-1" points="300.92 837.24 312.45 837.24 312.45 871.29 318.34 871.29 318.34 837.24 328.88 837.24 330.73 832.44 300.92 832.44"/>
  <path class="cls-1" d="M293.87,854.95h0c-.68-.79-1.44-1.49-2.25-2.09-.8-.6-1.58-1.13-2.29-1.57l-3.56-2.24c-.77-.44-1.49-.88-2.18-1.33-.67-.44-1.29-.92-1.83-1.44-.55-.53-.98-1.1-1.29-1.68-.32-.6-.48-1.3-.48-2.09,0-.95.2-1.81.6-2.55.4-.74.94-1.35,1.62-1.83.67-.47,1.45-.84,2.31-1.08.86-.24,1.78-.36,2.73-.36,1.8,0,3.41.37,4.79,1.11.97.52,1.85,1.13,2.63,1.81l.96.85v-6.14l-.28-.17c-.32-.2-.72-.4-1.19-.62-.61-.28-1.3-.55-2.05-.79-.74-.23-1.52-.43-2.39-.61-2.82-.54-5.51-.19-7.75.55-1.59.52-2.97,1.29-4.12,2.27-1.15.99-2.05,2.2-2.67,3.58-.62,1.38-.94,2.94-.94,4.63,0,1.9.57,3.68,1.7,5.31,1.12,1.63,2.97,3.24,5.5,4.81l5.05,3.05c.56.33,1.14.76,1.71,1.26.55.49,1.04,1.07,1.45,1.71.4.63.59,1.38.59,2.21s-.19,1.67-.57,2.36c-.38.7-.9,1.31-1.53,1.8-.64.5-1.38.9-2.19,1.17-.82.28-1.67.42-2.55.42-2.07,0-3.92-.36-5.48-1.05-1.19-.53-2.33-1.18-3.4-1.94l-1.07-.75.85,6.71.33.12c1.27.47,2.65.87,4.1,1.18,1.57.34,3.26.51,5.02.51s3.44-.26,4.97-.79c1.53-.53,2.87-1.28,3.97-2.24,1.11-.96,1.98-2.15,2.61-3.52.62-1.37.94-2.9.94-4.55,0-1.21-.23-2.33-.67-3.34-.44-1-1.01-1.91-1.7-2.7"/>
  <path class="cls-1" d="M696.64,854.95c-.68-.78-1.44-1.48-2.24-2.09-.79-.59-1.56-1.12-2.3-1.57l-3.56-2.24c-.77-.44-1.49-.88-2.17-1.33-.67-.43-1.29-.91-1.83-1.44-.54-.52-.97-1.09-1.29-1.68-.32-.6-.48-1.3-.48-2.09,0-.95.2-1.81.6-2.55.4-.74.94-1.35,1.62-1.83.67-.48,1.45-.84,2.31-1.08.85-.24,1.77-.36,2.73-.36,1.8,0,3.4.37,4.78,1.11.97.52,1.85,1.13,2.63,1.81l.96.85v-6.14l-.28-.17c-.32-.2-.72-.4-1.19-.62-.61-.28-1.31-.55-2.06-.79-.75-.24-1.53-.44-2.39-.61-2.84-.55-5.51-.19-7.75.55-1.59.52-2.98,1.29-4.12,2.27-1.16,1-2.05,2.2-2.67,3.58-.62,1.39-.94,2.95-.94,4.63,0,1.89.58,3.68,1.71,5.31,1.12,1.63,2.97,3.24,5.5,4.81l5.04,3.05c.57.33,1.14.75,1.71,1.26.56.5,1.04,1.07,1.45,1.71.39.63.59,1.38.59,2.21s-.19,1.67-.56,2.36c-.38.7-.9,1.3-1.53,1.8-.64.5-1.37.89-2.19,1.17-.82.28-1.67.42-2.55.42-2.08,0-3.92-.36-5.48-1.05-1.19-.54-2.33-1.19-3.4-1.94l-1.07-.75.85,6.72.33.12c1.28.47,2.66.87,4.1,1.18,1.57.34,3.26.51,5.02.51s3.44-.27,4.97-.79c1.53-.53,2.87-1.28,3.97-2.24,1.11-.96,1.98-2.15,2.61-3.51.62-1.37.94-2.9.94-4.55,0-1.22-.23-2.34-.66-3.34-.44-1-1.01-1.91-1.7-2.7"/>
  <polyline class="cls-1" points="610.19 853.84 621.1 853.84 622.89 849.29 610.19 849.29 610.19 836.99 623.64 836.99 625.49 832.44 604.31 832.44 604.31 871.29 624.12 871.29 626.58 866.56 610.19 866.56"/>
  <polyline class="cls-1" points="575.27 871.29 581.15 871.29 581.15 854.68 592.37 854.68 594.21 850.13 581.15 850.13 581.15 836.99 594.96 836.99 596.81 832.44 575.27 832.44"/>
  <path class="cls-1" d="M446.38,837.44c-1.69-1.79-3.72-3.19-6.05-4.17-2.33-.99-4.91-1.49-7.68-1.49s-5.35.5-7.69,1.49c-2.33.98-4.36,2.38-6.05,4.17-1.69,1.79-3.02,3.94-3.96,6.38-.94,2.44-1.42,5.17-1.42,8.1s.48,5.72,1.42,8.17c.94,2.44,2.27,4.58,3.96,6.36,1.69,1.77,3.73,3.16,6.05,4.14,2.33.98,4.91,1.48,7.69,1.48s5.35-.5,7.68-1.48c2.33-.99,4.37-2.39,6.05-4.18,1.69-1.77,3.02-3.92,3.97-6.38.95-2.45,1.43-5.18,1.43-8.11s-.48-5.65-1.43-8.1c-.95-2.46-2.28-4.61-3.96-6.38M445.52,851.92c0,2.23-.29,4.31-.87,6.18-.58,1.86-1.42,3.48-2.5,4.81-1.08,1.34-2.43,2.4-4.03,3.16-1.6.76-3.44,1.15-5.48,1.15s-3.88-.39-5.48-1.15c-1.6-.76-2.96-1.82-4.06-3.15-1.1-1.33-1.94-2.95-2.5-4.82-.56-1.86-.84-3.93-.84-6.18s.29-4.26.87-6.14c.58-1.87,1.42-3.5,2.5-4.85,1.08-1.34,2.44-2.4,4.03-3.16,1.6-.76,3.44-1.14,5.48-1.14s3.88.38,5.48,1.14c1.6.76,2.95,1.82,4.02,3.16,1.08,1.34,1.93,2.97,2.5,4.85.58,1.89.87,3.96.87,6.15"/>
  <polyline class="cls-1" points="715.01 866.56 715.01 853.84 725.92 853.84 727.7 849.29 715.01 849.29 715.01 836.99 728.45 836.99 730.3 832.44 709.12 832.44 709.12 871.29 728.94 871.29 731.4 866.56"/>
  <polyline class="cls-1" points="661.07 859.11 639.76 832.44 632.4 832.44 636.31 837.33 636.31 871.29 641.23 871.29 641.23 843.53 663.32 871.29 666.04 871.29 666.04 832.44 661.07 832.44"/>
  <polyline class="cls-1" points="549.69 853.84 560.61 853.84 562.39 849.29 549.69 849.29 549.69 836.99 563.14 836.99 564.99 832.44 543.81 832.44 543.81 871.29 563.62 871.29 566.08 866.56 549.69 866.56"/>
  <polyline class="cls-1" points="460.43 871.29 466.31 871.29 466.31 854.68 477.53 854.68 479.38 850.13 466.31 850.13 466.31 836.99 480.12 836.99 481.97 832.44 460.43 832.44"/>
  <path class="cls-1" d="M529.85,837.31c-1.71-1.75-3.83-3.11-6.29-4.05-2.47-.94-5.29-1.42-8.38-1.42-2.48,0-4.68.12-6.53.36-1.66.22-3.24.47-4.7.76l-.47.09v37.44l.43.12c1.33.35,2.92.68,4.73.98,1.97.32,4.15.48,6.47.48,3.01,0,5.79-.49,8.26-1.45,2.47-.96,4.6-2.35,6.32-4.11,1.73-1.77,3.08-3.9,4.02-6.32.94-2.42,1.42-5.16,1.42-8.14s-.46-5.9-1.36-8.38c-.9-2.46-2.23-4.6-3.93-6.35M528.9,852.11c0,1.96-.31,3.89-.93,5.72-.62,1.84-1.52,3.5-2.67,4.94-1.15,1.44-2.6,2.6-4.29,3.46-2.52,1.28-5.78,1.61-9.12.99-1.07-.19-1.92-.37-2.52-.53v-30.42h4.35c2.44,0,4.62.4,6.49,1.17,1.87.78,3.47,1.88,4.74,3.25,1.27,1.37,2.27,3.05,2.94,5,.68,1.95,1.02,4.11,1.02,6.41"/>
  <path class="cls-9" d="M444.61,283.23h-12.05c0-2.69,1.76-4.96,4.19-5.74.58-.19,1.19-.29,1.83-.29,3.32,0,6.02,2.7,6.02,6.02"/>
  <path class="cls-5" d="M444.61,283.23c0,3.33-2.69,6.02-6.02,6.02-.21,0-.41-.01-.62-.03-1.93-.2-3.6-1.31-4.55-2.89-.54-.91-.86-1.97-.86-3.1"/>
  <path class="cls-9" d="M438.58,266.14h0s0,0,0,0c-1.24,3.42-4.36,8.81-4.36,8.81h8.73s-3.13-5.39-4.36-8.81"/>
  <path class="cls-5" d="M438.58,274.96h-4.36l2.53,2.53c.58-.18,1.19-.28,1.83-.28h0c.64,0,1.25.1,1.83.28l2.53-2.53"/>
  <path class="cls-8" d="M375.15,394.04c-.57.37-1.13.75-1.7,1.13l1.22,1.57c.58-.39,1.16-.78,1.74-1.16,15.32-9.91,33.14-16.26,52.29-17.9,0-.67.05-1.33.09-1.99-19.66,1.64-37.95,8.14-53.65,18.34"/>
  <path class="cls-8" d="M355.83,385.93c-10.29,8.04-19.38,17.55-26.97,28.2l-1.74-.97c7.72-10.88,16.99-20.59,27.49-28.8"/>
  <path class="cls-8" d="M438.58,646.47c-2,0-3.99-.04-5.98-.12.26.28.52.56.78.83l1.17,1.22c1.34.03,2.68.05,4.03.05s2.69-.02,4.03-.05l1.17-1.22c.26-.27.52-.55.78-.83-1.98.08-3.97.12-5.98.12"/>
  <path class="cls-8" d="M419.37,564.59c4.16,1.16,7.91,1.81,12.12,2.21v1.99c-4.02-.36-7.5-.94-11.44-1.96"/>
  <path class="cls-8" d="M286.58,455c.52.21,1.16.42,1.88.64h0c13.94-57.53,60.18-102.58,118.36-114.78-.25-.57-.56-1.18-.92-1.83-58.62,12.51-105.19,57.96-119.32,115.97"/>
  <path class="cls-8" d="M318.12,431.98c-4.15,8.28-7.46,17.05-9.83,26.19-.69,0-1.38.01-2.05,0h0c2.42-9.44,5.81-18.49,10.09-27.03"/>
  <path class="cls-8" d="M305.71,470.39c-1.14,7.04-1.74,14.27-1.74,21.63,0,9.58,1.01,18.92,2.92,27.94-.63.22-1.26.46-1.88.69-1.98-9.24-3.02-18.81-3.02-28.63,0-7.47.61-14.8,1.76-21.95"/>
  <path class="cls-8" d="M520.98,385.65c11.6,9,21.68,19.85,29.82,32.11.77-.04,1.55-.07,2.32-.08h0c-8.37-12.85-18.84-24.22-30.92-33.6"/>
  <path class="cls-8" d="M489.56,434.23c2.23,1.97,4.35,4.07,6.34,6.28l-1.83.93c-1.81-1.98-3.72-3.87-5.73-5.64"/>
  <path class="cls-8" d="M497.9,415.42c5.98,4.64,11.4,9.96,16.15,15.85l-1.81.92c-4.59-5.64-9.81-10.74-15.56-15.2"/>
  <path class="cls-8" d="M508.84,401.31c8.06,6.26,15.27,13.57,21.42,21.72h0c.61-.29,1.23-.57,1.85-.84-6.31-8.43-13.74-15.99-22.05-22.45"/>
  <path class="cls-8" d="M285.5,459.79c-2.19,10.41-3.34,21.19-3.34,32.24,0,18.49,3.23,36.25,9.15,52.73l1.79-.9c-5.79-16.21-8.95-33.66-8.95-51.83,0-10.27,1.01-20.31,2.93-30.02-.67-.8-1.18-1.5-1.57-2.22"/>
  <path class="cls-8" d="M322.23,482.25c-.27,3.22-.41,6.48-.41,9.78,0,7.98.81,15.78,2.34,23.31l1.96-.3c-1.52-7.44-2.32-15.13-2.32-23.01,0-3.21.14-6.39.39-9.54-.68-.06-1.33-.15-1.97-.24"/>
  <path class="cls-8" d="M341.66,491.81c-.02,7.05.73,13.93,2.15,20.56l1.97-.3c-1.41-6.52-2.14-13.28-2.13-20.22h0c-.64,0-1.62-.03-1.98-.05"/>
  <path class="cls-8" d="M361.85,499.53c.28,2.92.73,5.79,1.33,8.61l1.83-.93c-.52-2.52-.91-5.09-1.17-7.7h0c-.83,0-1.26.01-2,.03"/>
  <path class="cls-8" d="M370.23,607.96c16.9,10.05,35.95,16.36,56.54,18.16,0,0-5.97.23-10.42.69-17.14-2.82-32.43-8.37-46.8-16.95,0,0,.58-1.45.68-1.9"/>
  <path class="cls-8" d="M377.61,589.23c4.48,2.85,8.66,5.08,13.52,7.3.28.69.58,1.38.91,2.06l.31.65c-5.6-2.43-10.4-4.97-15.51-8.21"/>
  <path class="cls-8" d="M411.58,646.12c-.3-.7-.59-1.42-.76-2.15-22.23-4.05-42.82-12.88-60.66-25.38h0c-3.54-1.63-11.12-5.98-11.12-5.98,20.47,16.93,45.3,28.75,72.53,33.51"/>
  <path class="cls-8" d="M386.39,571.3c1.79,1.18,3.62,2.3,5.49,3.37l-.81,1.82c-1.94-1.09-3.83-2.25-5.68-3.47"/>
  <path class="cls-8" d="M431.49,586.7v1.99c-10.59-.77-20.71-3.25-30.09-7.16-.43-.63-.84-1.27-1.22-1.93-.19-.33-.37-.67-.55-1.01,9.85,4.45,20.58,7.27,31.86,8.1"/>
  <path class="cls-8" d="M334.34,439.46c-2.88,5.68-5.3,11.62-7.22,17.78h0c.71-.05,1.42-.09,2.12-.14,1.86-5.82,4.17-11.43,6.9-16.81"/>
  <path class="cls-8" d="M353.8,445.08c-2.07,3.73-3.91,7.61-5.48,11.62.7.04,1.39.1,2.07.16,1.5-3.75,3.23-7.38,5.18-10.87"/>
  <path class="cls-8" d="M371.48,454.09c-1.45,2.56-2.76,5.21-3.92,7.93h0c.57.34,1.14.7,1.7,1.07,1.17-2.79,2.5-5.5,3.99-8.11"/>
  <path class="cls-8" d="M388.65,435.96l-1.21-1.57c-3.36,2.98-6.45,6.25-9.25,9.78l1.81.92c2.63-3.28,5.52-6.33,8.66-9.13"/>
  <path class="cls-8" d="M378.91,415.7c-7.08,5.55-13.36,12.06-18.67,19.33l1.79.91c5.16-7.02,11.25-13.3,18.1-18.67"/>
  <path class="cls-8" d="M366.76,400.03c-8.4,6.57-15.87,14.26-22.2,22.85l1.75.97c6.19-8.36,13.48-15.85,21.67-22.26"/>
  <path class="cls-8" d="M590.59,455c-.53.21-1.16.42-1.89.64-13.94-57.53-60.18-102.58-118.36-114.78.25-.57.56-1.18.92-1.83,58.62,12.51,105.19,57.96,119.33,115.97"/>
  <path class="cls-8" d="M457.2,566.85c-3.8.96-7.66,1.6-11.52,1.94v-1.99c4.06-.38,8.09-1.08,12.11-2.16"/>
  <path class="cls-8" d="M507.92,609.68c-14.25,8.43-30.16,14.34-47.11,17.13-4.45-.46-10.42-.69-10.42-.69,20.63-1.8,39.94-8.27,56.86-18.35"/>
  <path class="cls-8" d="M500.46,591c-4.98,3.12-10.2,5.88-15.64,8.23l.31-.65c.33-.69.63-1.38.91-2.06,4.71-2.14,9.25-4.6,13.59-7.34"/>
  <path class="cls-8" d="M538.13,612.61h0s-7.58,4.35-11.13,5.97h0c-17.84,12.5-38.42,21.33-60.65,25.39-.17.73-.46,1.45-.76,2.15,27.23-4.76,52.07-16.58,72.53-33.51"/>
  <path class="cls-8" d="M490.37,571.57c-1.66,1.08-3.35,2.12-5.08,3.1l.81,1.82c1.79-1.01,3.55-2.08,5.26-3.19"/>
  <path class="cls-8" d="M477.54,578.6c-.17.34-.36.67-.55,1-.38.66-.79,1.3-1.22,1.93-9.38,3.91-19.5,6.39-30.09,7.16v-1.99c11.28-.84,22.02-3.65,31.86-8.1"/>
  <path class="cls-8" d="M556.08,426.39c5.55,9.89,9.88,20.55,12.8,31.78.69,0,1.38.01,2.05.01-3.04-11.87-7.63-23.12-13.55-33.52-.42.59-.86,1.16-1.3,1.73"/>
  <path class="cls-8" d="M540.83,439.9c2.81,5.49,5.19,11.24,7.1,17.2.7.04,1.41.09,2.13.14h0c-2-6.38-4.52-12.53-7.54-18.4-1.3.85-1.54.97-1.69,1.06"/>
  <path class="cls-8" d="M523.22,449.03c1.3,2.55,2.48,5.16,3.55,7.83.68-.07,1.37-.12,2.07-.16-1.15-2.93-2.44-5.79-3.86-8.57"/>
  <path class="cls-8" d="M505.55,458.03l1.77-.9c.81,1.6,1.58,3.23,2.28,4.89-.57.34-1.14.7-1.7,1.07-.72-1.72-1.51-3.41-2.35-5.07"/>
  <path class="cls-8" d="M573.42,470.07l-1.96.32c1.14,7.04,1.74,14.27,1.74,21.63,0,10.61-1.23,20.93-3.57,30.84l2.05-.04c2.29-9.9,3.5-20.21,3.5-30.8,0-7.47-.6-14.8-1.76-21.95"/>
  <path class="cls-8" d="M554.93,482.25c-.64.09-1.29.17-1.97.24.26,3.15.39,6.33.39,9.54,0,8.47-.93,16.74-2.68,24.69l1.85.84c1.84-8.22,2.82-16.77,2.82-25.54,0-3.29-.14-6.55-.41-9.78"/>
  <path class="cls-8" d="M533.53,491.85c.24,0,.49,0,.73,0h.12c.39-.01.76-.02,1.14-.04.02,7.57-.84,14.93-2.47,22.01l-2.04.02c1.67-7.06,2.54-14.42,2.53-21.98"/>
  <path class="cls-8" d="M513.32,499.5c.62,0,1.2.01,1.74.02.09,0,.17,0,.26,0h0c-.44,4.54-1.28,8.97-2.48,13.25l-1.8-.92c1.09-4,1.87-8.12,2.29-12.36"/>
  <path class="cls-3" d="M350.66,322.49c-6.51,5.64-11.39,11.91-14.62,18.37-3.23,6.47-4.66,12.77-4.74,18.65,4.26-12.5,10.59-25.03,19.36-37.03"/>
  <path class="cls-3" d="M367.76,317.07c-6.83,4.73-12.17,10.16-15.95,15.91-3.79,5.76-5.84,11.52-6.57,17.02,5.46-11.3,12.87-22.44,22.52-32.94"/>
  <path class="cls-3" d="M384.89,313.34c-7.04,3.87-12.72,8.49-16.96,13.53-4.24,5.04-6.83,10.24-8.13,15.3,6.48-10.06,14.76-19.81,25.09-28.83"/>
  <path class="cls-3" d="M333.75,329.77h0c-6.06,6.59-10.37,13.71-12.94,20.86-2.57,7.16-3.29,13.95-2.65,20.15h0c2.88-13.61,7.93-27.49,15.59-41.01"/>
  <path class="cls-3" d="M307.6,663.19c16.73,6.38,33.92,8.5,49.61,6.9,14.35-1.45,26.68-5.84,36.52-11.88-.6-.13-1.21-.27-1.81-.41-26.66,7.66-55.51,9.87-84.32,5.39"/>
  <path class="cls-3" d="M281.68,639.02c14.35,8.68,29.62,13.45,44.1,14.47,13.7.98,25.95-1.36,36.14-5.76-.32-.14-.64-.29-.96-.43-25.69,3.17-52.84.69-79.28-8.27"/>
  <path class="cls-3" d="M261.85,611.94h0c12.05,10.45,25.41,17.35,38.58,20.6,12.79,3.17,24.68,2.82,34.97.1-.15-.11-.3-.21-.45-.32-24.3-1-49.36-7.65-73.1-20.38"/>
  <path class="cls-3" d="M247.58,583.15c9.86,11.72,21.33,20.3,33.11,25.41,11.57,5.03,22.78,6.54,32.9,5.52-.08-.08-.16-.16-.24-.25-22.46-4.77-45.02-14.97-65.77-30.69"/>
  <path class="cls-3" d="M238.31,553.67c7.78,12.55,17.4,22.37,27.77,29,10.16,6.5,20.45,9.64,30.11,10.24-.06-.09-.13-.19-.19-.28-20.28-8.02-40.08-21.06-57.68-38.96"/>
  <path class="cls-3" d="M233.54,524.34c5.83,13,13.67,23.7,22.59,31.49,8.69,7.6,17.91,12.1,26.9,14.13-.06-.13-.13-.27-.19-.4-17.9-10.68-34.84-25.87-49.31-45.22"/>
  <path class="cls-3" d="M232.75,495.85c4,13.12,10.14,24.34,17.64,33,7.22,8.34,15.28,13.91,23.46,17.16-.06-.19-.12-.38-.17-.57-15.42-12.73-29.51-29.43-40.92-49.59"/>
  <path class="cls-3" d="M235.46,468.74c2.32,12.96,6.85,24.41,12.95,33.64,5.78,8.76,12.63,15.1,19.88,19.34-.04-.26-.08-.51-.12-.77-12.9-14.21-24.2-31.82-32.71-52.21"/>
  <path class="cls-3" d="M241.21,443.41c.78,12.56,3.8,23.99,8.54,33.55,4.44,8.96,10.14,15.83,16.44,20.83,0-.28,0-.55-.01-.83-11.14-15.7-19.33-33.93-24.97-53.55"/>
  <path class="cls-3" d="M249.56,420.16c-.62,11.98.99,23.17,4.44,32.82,3.22,9.02,7.84,16.26,13.24,21.82.03-.28.06-.56.09-.84-8.49-15.99-14.55-34.68-17.77-53.81"/>
  <path class="cls-3" d="M260.11,399.18c-1.88,11.25-1.55,22.02.67,31.57,2.09,8.97,5.7,16.43,10.25,22.41.06-.26.13-.53.19-.79-5.71-15.69-10.09-34.77-11.11-53.19"/>
  <path class="cls-3" d="M272.49,380.58c-2.99,10.42-3.83,20.62-2.75,29.91,1.02,8.83,3.69,16.39,7.42,22.65.07-.2.15-.39.22-.59-3.78-15.66-5.89-34.25-4.89-51.97"/>
  <path class="cls-3" d="M286.34,364.4c-3.96,9.5-5.85,19.03-5.83,27.92.02,8.58,1.78,16.13,4.71,22.55.07-.13.13-.25.2-.38-1.97-15.45-1.97-33.17.92-50.09"/>
  <path class="cls-3" d="M301.35,350.59c-4.79,8.54-7.61,17.31-8.55,25.7-.92,8.21-.03,15.63,2.12,22.09.05-.07.09-.14.14-.21-.26-15.04,1.64-31.63,6.3-47.59"/>
  <path class="cls-3" d="M317.24,339.09h0c-5.49,7.57-9.12,15.53-10.92,23.33-1.79,7.73-1.73,14.9-.35,21.29.02-.03.04-.05.06-.07,1.36-14.44,4.95-29.71,11.21-44.54"/>
  <path class="cls-3" d="M422.33,665.39c-25.64,10.87-53.42,17.1-82.17,17.66,19.17,3.46,38.25,2.42,55.01-2.17,10.46-2.87,19.64-6.95,27.41-11.81-.16-.42-.24-.88-.24-1.36"/>
  <path class="cls-4" d="M342.53,340.83c3.39-6.31,6.17-12.4,8.13-18.34-8.77,12-15.1,24.53-19.36,37.03,4.03-6.18,7.84-12.38,11.23-18.68"/>
  <path class="cls-4" d="M358.03,333.54c3.92-5.6,7.23-11.07,9.73-16.47-9.66,10.49-17.06,21.63-22.52,32.94,4.54-5.41,8.87-10.87,12.8-16.47"/>
  <path class="cls-4" d="M373.86,327.91c4.36-4.9,8.1-9.73,11.03-14.57-10.33,9.02-18.61,18.78-25.09,28.84,4.95-4.65,9.7-9.36,14.06-14.26"/>
  <path class="cls-4" d="M422.33,662.76c-13.48,3.33-26.25,6.23-38.55,9.06-16.09,3.7-30.55,7.15-43.63,11.24,28.75-.56,56.54-6.79,82.17-17.66"/>
  <path class="cls-4" d="M423,659.12c-82.34-6.21-140.18-65.14-151.02-140.88-11.03-78.76,29.28-148.42,93.97-177.77,7.99-3.76,16.87-6.63,19.04-7.36l-.1-.32s-1.78.55-5.11,1.58c-24.03,7.74-44.72,20.37-61.62,36.41,3.41-6.94,6.59-13.86,9.34-20.85,2.75-6.99,4.9-13.69,6.25-20.16-7.66,13.52-12.72,27.4-15.59,41.01h0c-4.25,4.03-8.25,8.28-12.02,12.72,2.64-7.54,5.04-15.04,7.02-22.55,2-7.65,3.45-14.91,4.08-21.86-6.26,14.83-9.85,30.1-11.21,44.54-.02.03-.04.05-.06.08-3.82,4.53-7.39,9.25-10.69,14.15,1.76-8.02,3.31-15.95,4.43-23.87,1.16-8.23,1.79-16.03,1.64-23.38-4.66,15.96-6.56,32.55-6.3,47.59-.05.07-.09.14-.14.21-3.34,4.99-6.4,10.17-9.18,15.49.83-8.35,1.45-16.61,1.66-24.8.22-8.76-.04-16.98-1.06-24.68-2.89,16.92-2.89,34.64-.92,50.09-.07.13-.13.25-.2.38-2.8,5.44-5.3,11.04-7.49,16.77-.15-8.57-.5-17.03-1.24-25.39-.81-9.17-2.05-17.74-4-25.66-1,17.73,1.11,36.31,4.89,51.97-.07.2-.15.39-.22.59-2.2,5.89-4.07,11.9-5.62,18.02-1.18-8.7-2.53-17.27-4.25-25.7-1.93-9.45-4.22-18.24-7.17-26.28,1.02,18.42,5.4,37.51,11.11,53.19-.06.26-.13.53-.19.79-1.52,6.33-2.7,12.77-3.51,19.28-2.26-8.76-4.67-17.38-7.43-25.84-3.12-9.58-6.54-18.44-10.53-26.45,3.23,19.13,9.29,37.82,17.77,53.81-.03.28-.06.56-.09.84-.76,6.79-1.12,13.66-1.08,20.56-3.45-8.78-7.01-17.43-10.89-25.86-4.39-9.52-8.98-18.28-14.06-26.09,5.64,19.62,13.83,37.86,24.97,53.55,0,.28,0,.55.01.83.14,7.24.73,14.52,1.77,21.79-4.79-8.75-9.64-17.35-14.8-25.7-5.72-9.25-11.52-17.71-17.7-25.14,8.51,20.4,19.8,38,32.71,52.21.04.26.08.51.12.77,1.19,7.6,2.88,15.18,5.09,22.7-6.31-8.53-12.62-16.94-19.2-25.06-7.08-8.74-14.13-16.68-21.42-23.51,11.42,20.16,25.5,36.86,40.92,49.59.06.19.12.38.17.57,2.34,7.7,5.22,15.33,8.67,22.84-7.93-7.95-15.77-15.82-23.82-23.36-8.48-7.95-16.77-15.12-25.16-21.14,14.46,19.35,31.41,34.55,49.31,45.22.06.13.13.27.19.4,3.69,7.83,7.91,15.21,12.6,22.14-9.59-6.95-18.97-13.87-28.48-20.47-9.88-6.87-19.4-13-28.85-17.97,17.61,17.9,37.41,30.94,57.68,38.96.07.09.13.19.19.28,5.05,7.36,10.65,14.19,16.71,20.46-11.2-5.49-22.05-11.05-32.91-16.3-11.27-5.45-21.98-10.27-32.42-13.93,20.75,15.72,43.31,25.91,65.77,30.69.08.08.16.16.24.24,6.37,6.5,13.24,12.4,20.56,17.66-12.54-3.57-24.59-7.31-36.51-10.81-12.62-3.7-24.45-6.92-35.78-9,23.75,12.74,48.81,19.38,73.1,20.38.15.11.3.21.45.32,7.53,5.31,15.52,9.94,23.88,13.87-13.42-1.31-26.22-2.9-38.76-4.34-13.89-1.59-26.75-2.88-38.85-3.15,26.44,8.96,53.59,11.43,79.28,8.27.32.15.64.29.96.43,8.63,3.87,17.63,6.99,26.94,9.34-13.85,1.08-27,1.78-39.76,2.52-15.06.87-28.81,1.8-41.5,3.61,28.8,4.48,57.65,2.27,84.31-5.39.6.14,1.2.28,1.81.41,9.29,2.05,18.85,3.34,28.6,3.83h0v-.74c0-.81.25-1.56.68-2.19"/>
  <path class="cls-3" d="M526.51,322.49c6.51,5.64,11.39,11.91,14.62,18.37,3.23,6.47,4.66,12.77,4.74,18.65-4.26-12.5-10.59-25.03-19.36-37.03"/>
  <path class="cls-3" d="M509.41,317.07c6.83,4.73,12.17,10.16,15.96,15.91,3.78,5.76,5.84,11.52,6.57,17.02-5.46-11.3-12.87-22.44-22.53-32.94"/>
  <path class="cls-3" d="M492.28,313.34c7.04,3.87,12.72,8.49,16.96,13.53,4.24,5.04,6.83,10.24,8.13,15.3-6.48-10.06-14.76-19.81-25.09-28.83"/>
  <path class="cls-3" d="M543.42,329.77h0c6.06,6.59,10.37,13.71,12.94,20.86,2.57,7.16,3.28,13.95,2.65,20.15h0c-2.88-13.61-7.93-27.49-15.59-41.01"/>
  <path class="cls-3" d="M569.57,663.19c-16.73,6.38-33.92,8.5-49.61,6.9-14.34-1.45-26.68-5.84-36.52-11.88.6-.13,1.21-.27,1.81-.41,26.66,7.66,55.51,9.87,84.31,5.39"/>
  <path class="cls-3" d="M595.49,639.02c-14.35,8.68-29.62,13.45-44.1,14.47-13.7.98-25.95-1.36-36.14-5.76.32-.14.64-.29.96-.43,25.69,3.17,52.84.69,79.28-8.27"/>
  <path class="cls-3" d="M615.31,611.94h0c-12.05,10.45-25.41,17.35-38.58,20.6-12.79,3.17-24.68,2.82-34.97.1.15-.11.3-.21.45-.32,24.3-1,49.36-7.65,73.1-20.38"/>
  <path class="cls-3" d="M629.59,583.15c-9.86,11.72-21.32,20.3-33.11,25.41-11.57,5.03-22.78,6.54-32.9,5.52.08-.08.16-.16.24-.25,22.46-4.77,45.02-14.97,65.77-30.69"/>
  <path class="cls-3" d="M638.85,553.67c-7.78,12.55-17.4,22.37-27.76,29-10.16,6.5-20.46,9.64-30.11,10.24.07-.09.13-.19.19-.28,20.28-8.02,40.08-21.06,57.68-38.96"/>
  <path class="cls-3" d="M643.62,524.34c-5.82,13-13.67,23.7-22.59,31.49-8.69,7.6-17.91,12.1-26.9,14.13.06-.13.13-.27.19-.4,17.9-10.68,34.84-25.87,49.31-45.22"/>
  <path class="cls-3" d="M644.41,495.85c-4,13.12-10.14,24.34-17.64,33-7.22,8.34-15.28,13.91-23.46,17.16.06-.19.12-.38.17-.57,15.42-12.73,29.51-29.43,40.92-49.59"/>
  <path class="cls-3" d="M641.71,468.74c-2.32,12.96-6.85,24.41-12.95,33.64-5.78,8.76-12.63,15.1-19.88,19.34.04-.26.08-.51.12-.77,12.9-14.21,24.2-31.82,32.71-52.21"/>
  <path class="cls-3" d="M635.96,443.41c-.78,12.56-3.8,23.99-8.54,33.55-4.44,8.96-10.14,15.83-16.44,20.83,0-.28,0-.55.01-.83,11.14-15.7,19.33-33.93,24.97-53.55"/>
  <path class="cls-3" d="M627.6,420.16c.62,11.98-1,23.17-4.44,32.82-3.22,9.02-7.83,16.26-13.24,21.82-.03-.28-.06-.56-.09-.84,8.49-15.99,14.55-34.68,17.78-53.81"/>
  <path class="cls-3" d="M617.05,399.18c1.88,11.25,1.55,22.02-.68,31.57-2.09,8.97-5.7,16.43-10.25,22.41-.06-.26-.13-.53-.19-.79,5.71-15.69,10.09-34.77,11.11-53.19"/>
  <path class="cls-3" d="M604.68,380.58c2.99,10.42,3.83,20.62,2.75,29.91-1.02,8.83-3.69,16.39-7.42,22.65-.07-.2-.15-.39-.22-.59,3.78-15.66,5.89-34.25,4.89-51.97"/>
  <path class="cls-3" d="M590.83,364.4c3.96,9.5,5.85,19.03,5.83,27.92-.02,8.58-1.78,16.13-4.71,22.55-.06-.13-.13-.25-.2-.38,1.97-15.45,1.97-33.17-.92-50.09"/>
  <path class="cls-3" d="M575.82,350.59c4.79,8.54,7.61,17.31,8.55,25.7.92,8.21.03,15.63-2.12,22.09-.05-.07-.09-.14-.14-.21.26-15.04-1.64-31.63-6.3-47.59"/>
  <path class="cls-3" d="M559.93,339.09h0c5.49,7.57,9.12,15.53,10.92,23.33,1.79,7.73,1.73,14.9.35,21.29-.02-.03-.04-.05-.06-.07-1.36-14.44-4.95-29.71-11.21-44.54"/>
  <path class="cls-3" d="M454.84,665.39c25.64,10.87,53.42,17.1,82.17,17.66-19.17,3.46-38.25,2.42-55.01-2.17-10.46-2.87-19.65-6.95-27.41-11.81.16-.42.25-.88.25-1.36"/>
  <path class="cls-4" d="M534.64,340.83c-3.39-6.31-6.17-12.4-8.13-18.34,8.77,12,15.1,24.53,19.36,37.03-4.03-6.18-7.84-12.38-11.23-18.68"/>
  <path class="cls-4" d="M519.14,333.54c-3.92-5.6-7.23-11.07-9.73-16.47,9.66,10.49,17.06,21.63,22.53,32.94-4.54-5.41-8.87-10.87-12.8-16.47"/>
  <path class="cls-4" d="M503.31,327.91c-4.36-4.9-8.1-9.73-11.04-14.57,10.33,9.02,18.61,18.78,25.09,28.84-4.95-4.65-9.69-9.36-14.05-14.26"/>
  <path class="cls-4" d="M454.84,662.76c13.48,3.33,26.25,6.23,38.55,9.06,16.09,3.7,30.55,7.15,43.63,11.24-28.75-.56-56.54-6.79-82.17-17.66"/>
  <path class="cls-4" d="M454.17,659.12c82.34-6.21,140.18-65.14,151.02-140.88,11.03-78.76-29.28-148.42-93.97-177.77-7.99-3.76-16.88-6.63-19.04-7.36l.1-.32s1.78.55,5.11,1.58c24.03,7.74,44.72,20.37,61.62,36.41-3.41-6.94-6.59-13.86-9.34-20.85-2.75-6.99-4.91-13.69-6.25-20.16,7.66,13.52,12.72,27.4,15.59,41.01h0c4.25,4.03,8.26,8.28,12.02,12.72-2.63-7.54-5.04-15.04-7.02-22.55-2-7.65-3.44-14.91-4.08-21.86,6.26,14.83,9.85,30.1,11.21,44.54.02.03.04.05.06.08,3.82,4.53,7.39,9.25,10.69,14.15-1.76-8.02-3.31-15.95-4.43-23.87-1.16-8.23-1.8-16.03-1.64-23.38,4.66,15.96,6.56,32.55,6.3,47.59.05.07.09.14.14.21,3.34,4.99,6.4,10.17,9.18,15.49-.83-8.35-1.45-16.61-1.66-24.8-.22-8.76.04-16.98,1.06-24.68,2.9,16.92,2.89,34.64.92,50.09.07.13.13.25.2.38,2.8,5.44,5.3,11.04,7.5,16.77.15-8.57.5-17.03,1.23-25.39.81-9.17,2.05-17.74,4-25.66,1,17.73-1.11,36.31-4.89,51.97.07.2.15.39.22.59,2.2,5.89,4.07,11.9,5.62,18.02,1.18-8.7,2.53-17.27,4.24-25.7,1.93-9.45,4.22-18.24,7.17-26.28-1.02,18.42-5.4,37.51-11.11,53.19.06.26.13.53.19.79,1.52,6.33,2.7,12.77,3.51,19.28,2.26-8.76,4.67-17.38,7.43-25.84,3.12-9.58,6.54-18.44,10.53-26.45-3.23,19.13-9.29,37.82-17.78,53.81.03.28.06.56.09.84.76,6.79,1.12,13.66,1.08,20.56,3.45-8.78,7.01-17.43,10.89-25.86,4.39-9.52,8.98-18.28,14.06-26.09-5.64,19.62-13.83,37.86-24.97,53.55,0,.28,0,.55-.01.83-.14,7.24-.73,14.52-1.77,21.79,4.79-8.75,9.64-17.35,14.8-25.7,5.72-9.25,11.52-17.71,17.7-25.14-8.51,20.4-19.8,38-32.71,52.21-.04.26-.08.51-.12.77-1.19,7.6-2.88,15.18-5.09,22.7,6.31-8.53,12.62-16.94,19.2-25.06,7.08-8.74,14.13-16.68,21.42-23.51-11.41,20.16-25.5,36.86-40.92,49.59-.06.19-.12.38-.17.57-2.34,7.7-5.22,15.33-8.67,22.84,7.93-7.95,15.77-15.82,23.82-23.36,8.48-7.95,16.77-15.12,25.16-21.14-14.46,19.35-31.41,34.55-49.31,45.22-.06.13-.13.27-.19.4-3.69,7.83-7.91,15.21-12.6,22.14,9.59-6.95,18.97-13.87,28.48-20.47,9.88-6.87,19.4-13,28.85-17.97-17.6,17.9-37.41,30.94-57.68,38.96-.07.09-.13.19-.19.28-5.05,7.36-10.65,14.19-16.71,20.46,11.2-5.49,22.05-11.05,32.91-16.3,11.27-5.45,21.98-10.27,32.42-13.93-20.75,15.72-43.31,25.91-65.77,30.69-.08.08-.16.16-.24.24-6.36,6.5-13.24,12.4-20.56,17.66,12.54-3.57,24.59-7.31,36.51-10.81,12.62-3.7,24.45-6.92,35.78-9-23.75,12.74-48.81,19.38-73.1,20.38-.15.11-.3.21-.45.32-7.53,5.31-15.52,9.94-23.88,13.87,13.42-1.31,26.22-2.9,38.76-4.34,13.89-1.59,26.75-2.88,38.85-3.15-26.44,8.96-53.59,11.43-79.28,8.27-.32.15-.64.29-.96.43-8.63,3.87-17.63,6.99-26.94,9.34,13.85,1.08,27,1.78,39.76,2.52,15.06.87,28.81,1.8,41.5,3.61-28.8,4.48-57.65,2.27-84.32-5.39-.6.14-1.2.28-1.81.41-9.29,2.05-18.85,3.34-28.6,3.83v-.74c0-.81-.25-1.56-.68-2.19"/>
  <path class="cls-2" d="M438.58,641.31h13.83c2.1-3.11,3.9-6.43,5.36-9.9l.97-2.31.04-.09h-40.42l1.01,2.4c1.14,2.71,2.49,5.32,4.02,7.82.43.7.88,1.4,1.34,2.09"/>
  <path class="cls-7" d="M448.8,671.6h2.15c1.67,0,3.09-1.05,3.64-2.53.16-.42.24-.88.24-1.36v-6.41c0-.81-.25-1.56-.68-2.19-.42-.61-1.01-1.1-1.71-1.4l9.62-11.03c2.77-3.18,3.11-7.82.81-11.37l-4.09-6.31-.04.09-.97,2.31c-1.46,3.48-3.26,6.79-5.36,9.9h0c-1.86,2.75-3.94,5.35-6.25,7.75l-7.58,7.89-7.58-7.89c-2.31-2.4-4.4-5-6.25-7.75-.46-.68-.91-1.38-1.34-2.08-1.53-2.5-2.88-5.11-4.02-7.82l-1.01-2.4-4.09,6.31c-2.3,3.55-1.97,8.18.81,11.37l9.62,11.03c-.7.29-1.29.78-1.71,1.4-.43.63-.68,1.38-.68,2.19v6.41c0,.48.09.94.24,1.36.55,1.48,1.97,2.53,3.64,2.53h2.15c-6.12,6.54-14.24,12.42-24.86,17.48h15.06s11.5-9.37,15.56-17.48h8.93c4.06,8.11,15.56,17.48,15.56,17.48h15.06c-10.63-5.05-18.74-10.94-24.86-17.48"/>
  <path class="cls-2" d="M418.57,689.08l-.04,14.76c9.26-10.29,16.55-20.71,20.06-31.38,3.5,10.68,10.8,21.1,20.06,31.38l-.04-14.76s-11.5-9.37-15.56-17.48h-8.91c-4.06,8.11-15.56,17.48-15.56,17.48"/>
  <path class="cls-6" d="M438.58,543.06c-27.96,0-50.62-22.66-50.62-50.62s22.67-50.62,50.62-50.62,50.62,22.66,50.62,50.62-22.67,50.62-50.62,50.62"/>
  <path class="cls-4" d="M476.22,495.95c-10.98,0-26.15,7.79-34.83,12.83-1.68-18.53-1.05-30.53-.52-36.74,0-.04.05-.06.08-.04,5.37,3.39,3.86,12.85,2.74,15.55-.02.05.06.09.1.05,6.69-7.92,3.42-16.66,2.05-18.88-.03-.05.04-.1.08-.06,5.98,4.87,5.72,11.33,5.4,14.95,0,.06.07.08.1.03,2.43-4.79,3.17-12.9-4.29-19.47-.04-.04,0-.11.05-.09,6.67,1.61,9.37,7.93,9.42,12.65,0,.08,0,.16,0,.24,0,.06.09.07.1,0,.96-3.53.75-6.4-.11-8.69-1.93-5.19-7.16-7.46-9.71-7.78-.06,0-.05-.1.01-.1,4.96-.46,7.98,1.08,9.7,2.6,1.06.94,1.64,1.86,1.87,2.3.03.05.11.02.1-.04-.19-1.91-.91-3.48-1.97-4.74-2.95-3.51-8.47-4.49-12.05-2.99-.05.02-.09-.04-.06-.08,2.31-3.33,6.93-3.67,9.38-2.51.05.02.1-.04.06-.08-3.67-4.2-9.69-4.3-12.9.57-.02.03-.07.03-.09,0-.35-.62-.69-1.31-1-2.04-.69-1.59-1-3.37-1.29-5.15-.01-.08-.12-.08-.13,0-.3,1.78-.6,3.56-1.29,5.15-.32.73-.65,1.42-1,2.04-.02.03-.07.03-.09,0-3.21-4.87-9.24-4.77-12.9-.57-.04.04.01.11.06.08,2.45-1.16,7.07-.82,9.38,2.51.03.04-.01.1-.06.08-3.57-1.51-9.1-.52-12.05,2.99-1.05,1.26-1.78,2.83-1.97,4.74,0,.06.07.09.1.04.23-.43.8-1.36,1.87-2.3,1.72-1.52,4.73-3.06,9.69-2.6.06,0,.07.1.01.1-2.55.32-7.77,2.59-9.71,7.78-.85,2.3-1.07,5.16-.11,8.69.02.06.1.05.1,0,0-.08,0-.16,0-.24.05-4.72,2.75-11.04,9.42-12.65.05-.01.09.06.05.09-7.46,6.57-6.72,14.68-4.29,19.47.03.05.11.03.1-.03-.32-3.62-.58-10.07,5.4-14.95.04-.04.11.01.08.06-1.38,2.22-4.64,10.96,2.05,18.88.04.05.12,0,.1-.05-1.12-2.7-2.63-12.16,2.74-15.55.04-.02.08,0,.08.04.52,6.21,1.16,18.21-.52,36.74-8.68-5.04-23.85-12.83-34.83-12.83-3.38,0-6.2.9-6.02.93,14.52,2.29,31.72,12.39,38.95,16.98-4.67,2.92-19.61,12.16-21.41,12.16-.91,0-1.04-1.1-1.81-1.1-.69,0-.69.5-.69.71,0,3.11,4.24,5.12,7.66,3.52l20.95-12.11,20.95,12.11c3.42,1.6,7.66-.41,7.66-3.52,0-.21,0-.71-.69-.71-.77,0-.9,1.1-1.81,1.1-1.79,0-16.74-9.24-21.4-12.16,7.23-4.59,24.43-14.69,38.95-16.98.18-.03-2.64-.93-6.02-.93"/>
  <path class="cls-1" d="M522.37,485.01c7,.58,21.8,2.4,26.32-.85.25,1.28-4.54,5.97-19.33,4.99-12.44-.82-28.64-2.64-33.14,1.1h0c1.18-5.33,11.67-6.44,26.14-5.24"/>
  <polyline class="cls-1" points="295.49 538.72 297.08 541.85 335.91 522.05"/>
  <polyline class="cls-1" points="569.63 522.86 564.39 522.98 572.01 526.45 574.26 522.77 571.68 522.82"/>
  <path class="cls-1" d="M563.23,543.77l-36.35-18.92c-4.99-2.6-10.67-3.58-16.25-2.81l17.02,23.91,26.73,15.1-1.66,3.99,13.08,6.67,3.91-7.68c3.76-7.39.87-16.43-6.49-20.26"/>
  <path class="cls-1" d="M483.89,575.44c-.67-1.38-1.47-2.76-2.4-4.14,1.65,13.47-7.01,19.63-7.01,19.63l5.71-3.95s-4.7,13-15.14,17.96c-10.45,4.95-26.46,10.25-26.46,11.92,0-1.7-16.86-6.97-27.3-11.92-10.45-4.95-15.14-17.96-15.14-17.96l8.56,3.57,3.08-.58c-3.35-2.09-6.66-5.52-8.99-9.57-.53-.92-1.01-1.88-1.43-2.86-.86-2.01-1.45-4.11-1.68-6.24-.93,1.38-1.73,2.76-2.4,4.14-.29.61-.56,1.21-.81,1.82-2.72,6.74-2.38,13.56,1.01,20.64l2.33-3.26c6.35,18.56,33.13,17.64,42.77,30.98,0,0,0,0,0,0h0c9.64-13.34,36.42-12.43,42.77-30.98l2.33,3.26c3.38-7.08,3.72-13.89,1.01-20.64-.25-.61-.51-1.22-.81-1.82"/>
  <path class="cls-1" d="M354.79,485.01c-7,.58-21.8,2.4-26.33-.85-.25,1.28,4.54,5.97,19.33,4.99,12.44-.82,28.64-2.64,33.14,1.1h0c-1.18-5.33-11.67-6.44-26.14-5.24"/>
  <path class="cls-1" d="M370.63,479.87c-.46-.74-.96-1.41-1.49-2.01-7.27-8.17-21.26-3.55-35.91-2.22-12.66,1.15-17.63.14-21.69-1.61-2.67-1.16-2.88-1.61-2.88-1.61,0,0-.03.08-.03.21,0,1.87,6.35,8.62,24.94,7.3,16.78-1.2,30.03-4.38,37.05-.05"/>
  <path class="cls-1" d="M506.53,479.87c.46-.74.96-1.41,1.49-2.01,7.27-8.17,21.26-3.55,35.91-2.22,12.66,1.15,17.63.14,21.69-1.61,2.68-1.16,2.88-1.61,2.88-1.61,0,0,.04.08.04.21,0,1.87-6.35,8.62-24.94,7.3-16.78-1.2-30.03-4.38-37.05-.05"/>
  <polyline class="cls-10" points="547.09 556.93 554.38 561.05 552.72 565.04"/>
  <path class="cls-10" d="M378.18,444.17l-16.16-8.23-1.79-.91-3.34-1.7.44-.8c.56-1.09.15-2.44-.92-3.03l-10.12-5.64-1.75-.97-15.7-8.75-1.74-.97-10.74-5.98-2.31,4.53-4.22,8.28-2.23,4.37,2.66,1.33.15-.29c2.24-4.4,7.62-6.16,12.03-3.93l32.23,16.27-2.06,4.05,1.67-.4c3.25-.75,6.67-.35,9.65,1.16l31.53,15.88c1.2-1.22,2.45-2.4,3.77-3.51l-19.26-9.81"/>
  <path class="cls-10" d="M474.48,590.93s8.66-6.16,7.01-19.63c-.23,2.13-.83,4.24-1.68,6.24-.42.98-.9,1.94-1.43,2.86-2.33,4.05-5.64,7.48-8.99,9.57"/>
  <path class="cls-10" d="M455.45,603.37c-1.05,0-2.06-.1-3.03-.31h0c-5.24,1.59-8.7,3.18-10.85,4.37-2.15,1.19-2.99,1.98-2.99,1.98v-65.26c-1.85,0-3.68-.08-5.49-.23v47.43c.01,3.82-1.02,6.83-3.07,8.93-6.45,6.61-21.97,2.24-27.33-9.35l2.01-.38-8.56-3.57s4.69,13.01,15.14,17.96c10.45,4.95,27.3,10.22,27.3,11.92,0-1.68,16.01-6.97,26.46-11.92,10.45-4.95,15.14-17.96,15.14-17.96l-5.71,3.96c-3.65,7.9-12.03,12.44-19.03,12.44"/>
  <path class="cls-10" d="M444.91,373.85c-1.26.3-3.23.62-6.33.81h0c-1.92.12-3.97.14-6.85.14,0,0,.05.44.6.99.19.18.43.38.74.57.78.48,1.99.95,3.91,1.24.49.07,1.01.13,1.6.18v63.04c-5.23,0-10.32.63-15.19,1.84v-22.86c0-1.42.8-2.73,2.08-3.36l3.22-1.83c-1.59.91-2.44,2.71-2.13,4.52l.18,1.07,3.36,19.63v-61.46c0-5.87,1.07-11.69,3.16-17.18l5.3-14.76v22.07h0c0,3.2.35,5.08,6.33,5.36"/>
  <polyline class="cls-10" points="343.89 537.7 305.05 557.49 306.64 560.62"/>
  <path class="cls-10" d="M345.31,493.04s-.04-.05-.05-.07h0s.03.05.05.07"/>
  <path class="cls-10" d="M380.94,490.25h0c-7.09-2.07-31.06,3.4-35.68,2.72h0s.03.04.04.06c1.06,1.29,9.71,1.17,19.82.86,3.23-.1,9.91-.77,16.19,1.42-.25-4.21-.37-5.04-.38-5.07"/>
  <path class="cls-10" d="M380.83,489.84c-.86-3.15-3.79-7.03-9-9.47-.4-.19-.8-.35-1.2-.5-5.7-2.05-11.34.44-30.06,3.6-3.49.59-10.46,1.06-12.09.69,0,0-.01,0-.02,0,4.53,3.26,19.32,1.43,26.33.85,14.47-1.2,24.97-.09,26.14,5.24-.03-.13-.06-.27-.1-.41"/>
  <path class="cls-10" d="M370.13,479.08c-2.74-4.24-5.43-6.8-8.3-8.25-6.01-3.04-12.85-1.26-22.71-.06-13.35,1.63-25.76,3.43-30.45,1.65,0,0,.2.46,2.88,1.61,4.05,1.75,9.03,2.76,21.69,1.61,14.64-1.33,28.64-5.94,35.91,2.23.53.6,1.03,1.27,1.49,2.01-.17-.27-.33-.53-.5-.79"/>
  <path class="cls-10" d="M531.86,493.04s.03-.05.05-.07c-.01.02-.03.05-.05.07"/>
  <path class="cls-10" d="M496.23,490.25h0c7.09-2.07,31.05,3.4,35.68,2.72-.01.02-.03.04-.05.06-1.06,1.29-9.71,1.17-19.82.86-3.23-.1-9.9-.77-16.19,1.42.25-4.21.37-5.04.38-5.07"/>
  <path class="cls-10" d="M496.33,489.84c.86-3.15,3.79-7.03,9-9.47.4-.19.8-.35,1.2-.5,5.7-2.05,11.34.44,30.06,3.6,3.49.59,10.46,1.06,12.08.69,0,0,.01,0,.02,0-4.53,3.26-19.32,1.43-26.33.85-14.47-1.2-24.97-.09-26.14,5.24.03-.13.06-.27.1-.41"/>
  <path class="cls-10" d="M507.03,479.08c2.74-4.24,5.43-6.8,8.3-8.25,6.01-3.04,12.85-1.26,22.71-.06,13.35,1.63,25.76,3.43,30.45,1.65,0,0-.2.46-2.88,1.61-4.05,1.75-9.02,2.76-21.69,1.61-14.64-1.33-28.64-5.94-35.91,2.23-.53.6-1.03,1.27-1.49,2.01.17-.27.33-.53.5-.79"/>
  <path class="cls-10" d="M363.19,508.14l-3.64,1.85-13.78,2.08-1.97.3-17.68,2.67-1.96.3-1.71.26c-5.29,1.09-10.48,2.55-15.55,4.37-.63.23-1.26.46-1.88.69h0c-3.96,1.5-7.84,3.21-11.62,5.13l-3.57,1.82,5.66,11.12,40.42-16.67-38.83,19.8-3.99,2-1.79.9c1.99,5.55,4.29,10.95,6.87,16.19-2.26-4.43-.5-9.84,3.93-12.09l81.55-41.5c-.87-2.6-1.51-5.29-1.92-8.04-.25-.08-.49-.16-.74-.24l-15.97,8.14"/>
  <path class="cls-10" d="M367.57,462.03c-4.96-2.94-10.48-4.54-17.18-5.17-.68-.06-1.37-.12-2.07-.16-1.5-.09-3.04-.15-4.66-.16-4.4-.03-9.25.23-14.42.56-.7.04-1.41.09-2.12.14h0c-2.72.18-5.36.35-8,.51-3.67.22-7.33.38-10.83.43-.69,0-1.38.01-2.05,0h0s-2.32,0-2.32,0c-4.43-.05-11.32-1.3-15.44-2.53h0c-.72-.22-1.36-.43-1.88-.64-.44-.17-.79-.34-1.06-.5-.09-.05-.16-.1-.23-.16,0,0,.42.45.42.45,11.66,12.32,28.86,7.97,62.15,6.67,15.65-.62,25.87,10.93,33.87,24.17.31-2.11.77-4.17,1.35-6.19h0c-1.94-3.76-4.62-8.31-7.67-11.23-1.99-1.99-4.02-3.69-6.14-5.12-.56-.37-1.13-.73-1.7-1.07"/>
  <path class="cls-10" d="M507.9,463.1c.56-.38,1.13-.74,1.7-1.08h0c4.96-2.94,10.48-4.54,17.18-5.17.68-.06,1.37-.12,2.07-.16,1.49-.09,3.04-.15,4.66-.16,4.4-.03,9.25.23,14.42.56.7.04,1.41.09,2.13.14h0c2.72.18,5.36.35,8,.51,3.67.21,7.33.38,10.83.43.69,0,1.38.01,2.05,0h2.32c4.43-.05,11.32-1.3,15.45-2.54h0c.72-.22,1.36-.43,1.89-.64.44-.17.79-.34,1.06-.5.09-.05.16-.1.23-.16,0,0-.42.45-.42.46-11.66,12.32-28.86,7.97-62.15,6.66-15.65-.61-25.87,10.93-33.87,24.18-.31-2.11-.77-4.17-1.35-6.19h0c1.93-3.76,4.62-8.31,7.67-11.23,1.98-1.99,4.02-3.69,6.14-5.12"/>
  <path class="cls-5" d="M438.58,289.25c-.15,1.02-.75,1.92-1.59,2.93-.85,1.01-1.94,2.13-3.1,3.59-6.07,2.97-23.1,1.03-23.1,18.01,0,4.64,2.19,9.07,5.99,11.92-4.73-1.05-9.14-4.52-10.69-11.61-1.44-7.57,2.86-14.57,9.68-17.99,6.49-3.24,19.3-2.95,22.21-6.88.2.02.41.03.62.03"/>
  <path class="cls-5" d="M404.76,302.12c-.34.58-.66,1.19-.98,1.84-.05.1-.11.21-.15.32h0c-5.54,1.32-9.66,6.28-9.66,12.23,0,2.37.51,4.69,1.81,6.48.25.34.51.66.78.96h0s0,0,0,0c-5.89-5.76-5.35-12.99-1.23-19,2.38-3.47,5.96-6.53,10.18-8.68.03-.01.05-.03.08-.04-.57,1.64-.95,3.86-.82,5.9"/>
  <path class="cls-5" d="M400.47,329.88h-.02c5.2,3.02,9.51,9.28,10.2,15.41,9.15-3.56,15.61-5.69,27.93-5.69-12.74-12.02-31.33-9.53-38.11-9.72"/>
  <path class="cls-5" d="M438.58,289.25c.15,1.02.75,1.92,1.59,2.93.85,1.01,1.94,2.13,3.1,3.59,6.07,2.97,23.1,1.03,23.1,18.01,0,4.64-2.19,9.07-5.99,11.92,4.73-1.05,9.14-4.52,10.69-11.61,1.44-7.57-2.86-14.57-9.67-17.99-6.49-3.24-19.3-2.95-22.21-6.88-.2.02-.41.03-.62.03"/>
  <path class="cls-5" d="M472.41,302.12c.33.58.66,1.19.98,1.84.05.1.11.21.16.32h0c5.54,1.32,9.66,6.28,9.66,12.23,0,2.37-.5,4.69-1.81,6.48-.25.34-.51.66-.78.96,0,0,0,0,0,0h0c5.89-5.77,5.35-12.99,1.23-19-2.38-3.47-5.96-6.53-10.18-8.68-.03-.01-.05-.03-.08-.04.57,1.64.95,3.86.82,5.9"/>
  <path class="cls-9" d="M471.58,296.22s.06.03.08.04c4.23,2.14,7.8,5.21,10.18,8.68,4.12,6.01,4.66,13.24-1.23,19h0s0,.01,0,.01h0c-4.51,5.02-11.14,3.99-13.1,3.55-.37-.09-.5-.12-.54-.14,1.25.3,8.54-4.95,8.54-13.58,0-1.81-.22-3.6-.57-5.23-.35-1.63-.85-3.1-1.39-4.27h0c-.05-.11-.1-.21-.15-.32-.32-.65-.65-1.26-.98-1.84-8.42-14.61-21.64-9.92-28.66-15.79-.48.79-1.13,1.47-1.91,1.97-.78.5-1.67.83-2.64.92,2.9,3.93,15.72,3.64,22.21,6.88,6.81,3.42,11.12,10.42,9.67,17.99-1.55,7.09-5.96,10.55-10.69,11.61-3.54-.78-6.02-1.4-8.61-1.86-2.6-.46-5.32-.75-9.35-.87,1.13-2.35,1.98-4.88,2.53-7.54.47-2.26.75-4.6.75-7.02,0-4.28-.77-8.51-2.44-12.64h0c-2.32-2.92-4.39-4.48-4.7-6.51h0s0,0,0,0h0s0,0,0,0c-.31,2.03-2.38,3.59-4.69,6.51h0c-1.67,4.13-2.44,8.37-2.44,12.64,0,2.42.27,4.76.75,7.02.55,2.66,1.41,5.19,2.54,7.54-4.03.12-6.75.41-9.35.87-2.6.46-5.07,1.08-8.61,1.86-4.73-1.05-9.14-4.52-10.69-11.61-1.44-7.57,2.86-14.57,9.68-17.99,6.49-3.25,19.3-2.95,22.21-6.88-.97-.1-1.86-.42-2.64-.92-.78-.5-1.43-1.18-1.91-1.97-7.02,5.87-20.24,1.18-28.66,15.79-.34.58-.66,1.19-.98,1.84-.05.1-.11.21-.15.32h0c-.54,1.17-1.03,2.64-1.39,4.27-.35,1.63-.58,3.42-.58,5.23,0,8.63,7.29,13.88,8.54,13.58-.04.01-.17.05-.54.14-1.96.45-8.59,1.48-13.1-3.54h0s0,0,0,0c0,0,0,0,0,0-5.89-5.76-5.35-12.99-1.23-19,2.38-3.47,5.96-6.53,10.18-8.68.03-.01.05-.03.08-.04-10.78.5-19.38,9.37-19.38,20.28,0,3.39.84,6.58,2.31,9.39.25.48.53.95.81,1.41.38-.02.75-.06,1.13-.06,3.64,0,7.06.94,9.99,2.64,0,0,.01,0,.02,0h0c6.78.19,25.37-2.3,38.11,9.71h0c12.74-12.01,31.33-9.53,38.11-9.71h0s.01,0,.01,0c2.94-1.7,6.36-2.64,10-2.64.38,0,.75.04,1.12.06.29-.46.56-.92.82-1.41,1.47-2.81,2.31-6,2.31-9.39,0-10.91-8.59-19.78-19.38-20.28"/>
  <path class="cls-5" d="M476.7,329.88h.02c-5.2,3.02-9.51,9.28-10.2,15.41-9.15-3.56-15.61-5.69-27.93-5.69,12.74-12.02,31.33-9.53,38.11-9.72"/>
  <path class="cls-1" d="M591.87,454.34s-.42.45-.42.46c-11.66,12.32-28.86,7.97-62.15,6.66-15.65-.61-25.87,10.93-33.87,24.17-.31-2.11-.77-4.17-1.35-6.19-.62-2.13-1.38-4.2-2.28-6.21-.35-.78-.71-1.54-1.1-2.3-.01-.02-.02-.05-.04-.07-.02-.04-.05-.09-.07-.14-1.06-2.06-2.27-4.05-3.61-5.95l49.91-25.43c9.81-5,17.49-12.53,22.63-21.4-.04.02-14.51,7.32-14.55,7.34-.27.14-6.78,3.69-4.98,8.89,0,0-5.61-6.4-6.1-10.82,0,0-.27,3.62.14,7.45l-53.04,26.92c-2.34-2.31-4.83-4.29-7.28-5.98l17.23-22.16-.83-7,38.99-50.28-1.69-1.33-36.01,46.35-23.69,30.75c-.07-.04-.14-.08-.2-.11h-.02c-5.01-2.67-9.18-4.19-13.72-5.32v-22.86c0-1.42-.81-2.73-2.08-3.36-.02-.01-4.63-2.62-4.65-2.63v-35.44c0-5.87-1.07-11.69-3.15-17.18l-5.3-14.76v22.07h0c0,3.2.35,5.08,6.33,5.36-1.26.3-3.23.62-6.33.81h0c-1.93.12-3.97.14-6.85.14,0,0,.09.79,1.35,1.56.77.48,1.99.95,3.91,1.23.49.07,1.02.13,1.6.18h0v63.04c-5.23,0-10.33.63-15.19,1.84-4.85,1.2-10.58,3.48-13.98,5.38l-59.62-77-1.73,1.29,38.99,50.28-.83,7,17.21,22.13c-1.51,1.04-2.93,2.11-4.18,3.17-1.31,1.12-2.57,2.29-3.77,3.51l-31.53-15.88c-2.98-1.5-6.4-1.91-9.65-1.16l-1.67.4,2.06-4.05-32.23-16.27c-4.41-2.23-9.79-.47-12.03,3.94l-.14.29,38.93,17.95c1.12.52,2.44.06,3-1.04l.42-.82,39.74,20.13c-4.2,5.14-7.42,11.12-9.28,17.54-.59,2.02-1.04,4.09-1.35,6.19-8-13.25-18.21-24.79-33.87-24.17-33.29,1.31-50.49,5.66-62.15-6.66,0,0-.42-.46-.42-.46-.31.91.76,2.82,1.33,3.67,3.03,4.48,11.53,11.08,29.83,10.09,18.63-1,28.19-1.67,34.43-1.11,4.27.39,7.84,1.76,10.95,3.84,2.88,1.45,5.56,4.01,8.3,8.25.17.26.33.52.5.79h0c.4.14.8.31,1.2.5,5.21,2.44,8.14,6.32,9,9.47.04.14.08.27.1.41h0s.13.87.38,5.07c-6.29-2.2-12.97-1.52-16.19-1.42-10.11.31-18.76.43-19.82-.86,0,0,0,0,0,0,.99,1.38,6.95,4.12,17.06,3.9,4.55-.1,11.93.03,18.63,2.13.25.08.49.16.74.24.4,2.76,1.05,5.44,1.92,8.04l-81.55,41.5c-4.43,2.25-6.18,7.67-3.93,12.09l6.88-3.46,38.84-19.78-37.24,22.91,5.65,11.09,3.57-1.82c9.18-4.68,17.7-10.57,25.32-17.51l26.68-26.89,19.42-9.9s.01.02.02.03c1.51,2.71,3.27,5.28,5.26,7.69,6.48,7.84,15.32,13.9,25.47,17.42,4.77,1.66,9.83,2.75,15.06,3.2,1.81.16,3.64.23,5.49.23v65.26s3.36-3.16,13.84-6.34c-2.05-.44-3.87-1.36-5.27-2.79-2.05-2.1-3.08-5.1-3.07-8.93v-47.43c5.23-.45,10.29-1.54,15.06-3.2,10.14-3.52,18.99-9.58,25.47-17.42,1.58-1.91,3.02-3.93,4.3-6.05h-.02c.97-1.6,1.85-3.25,2.63-4.94h.01s19.09,9.72,19.09,9.72c-2.41-5-6.39-8.85-10.93-11.12l-6.33-3.18c1.04-3.02,1.67-5.69,2.07-8.43.24-.08.49-.16.74-.24,6.69-2.1,14.07-2.23,18.63-2.13,10.11.22,16.07-2.52,17.06-3.9,0,0,0,0,0,0-1.06,1.29-9.71,1.17-19.82.86-3.23-.1-9.91-.77-16.19,1.42.25-4.21.37-5.04.38-5.07h0c.03-.14.06-.27.1-.41.86-3.15,3.79-7.03,9-9.47.4-.19.8-.35,1.2-.5h0c.17-.27.33-.53.5-.79,2.74-4.24,5.43-6.8,8.3-8.25,3.11-2.08,6.68-3.45,10.95-3.84,6.24-.57,15.8.11,34.43,1.11,18.3.99,26.79-5.61,29.83-10.09.62-.91,1.63-2.78,1.33-3.67M438.58,543.06c-27.96,0-50.62-22.66-50.62-50.62s22.67-50.62,50.62-50.62,50.62,22.67,50.62,50.62-22.67,50.62-50.62,50.62"/>
  <path class="cls-10" d="M574.26,522.77l-2.26,3.69-7.62-3.48-11.86-5.42-1.84-.84-6.6-3.01-11.04.11-2.04.02-15.78.16-2.38-1.21-1.8-.92-16.41-8.38c-.33,1.37-.75,2.77-1.26,4.26l6.33,3.18c4.5,2.25,8.45,6.06,10.87,10.99.02.04.04.09.07.13h0s0,0,0,0c5.58-.77,11.25.21,16.25,2.81l36.35,18.92c7.36,3.83,10.25,12.87,6.49,20.26l-3.91,7.68,21.54-42.27"/>
  <path class="cls-10" d="M467.49,447.98h.02c.07.04.14.08.2.11l23.69-30.75,36.01-46.35-3.02-2.39-30.02,38.57-25.27,32.63,21.69-35.44-22.28,27.16-3.41.12-9.49,11.5c3.85,1.08,7.56,2.53,11.89,4.83"/>
  <path class="cls-1" d="M490.77,404.38h.01s-2.96-2.35-2.96-2.35c-.74-.53-1.38-.98-2.12-1.16-2.17-.53-3.97,1.2-4.44,5.24l-1.81,12.07"/>
  <path class="cls-8" d="M481.27,406.1c.04-.35.1-.67.17-.99-10.08-4.99-21.13-8.29-32.8-9.5v2c11.57,1.22,22.52,4.53,32.47,9.54"/>
  <polyline class="cls-1" points="494.31 407.25 490.79 404.37 469.1 439.81"/>
  <path class="cls-10" d="M349.79,371.04l59.62,77c2.98-1.66,7.75-3.62,12.15-4.89l-9.49-11.51-3.41-.13-22.28-27.15-3.59,2.81-30.02-38.57"/>
  <path class="cls-1" d="M397.71,418.17l-1.81-12.07c-.47-4.04-2.27-5.76-4.44-5.24-.74.18-1.38.64-2.12,1.16l-2.96,2.34"/>
  <path class="cls-8" d="M395.73,405.1c.06.32.12.64.17,1l.16,1.06c9.96-5.01,20.9-8.33,32.47-9.55v-2c-11.67,1.21-22.72,4.5-32.8,9.49"/>
  <polyline class="cls-1" points="408.07 439.81 386.38 404.37 382.79 407.17"/>
  <path class="cls-10" d="M514.05,431.27l-1.81.92-16.35,8.33-1.83.93-20.3,10.34c2.44,1.68,4.91,3.65,7.23,5.95l53.04-26.92c-.41-3.83-.14-7.45-.14-7.45h0s0,0,0,0c.06.55.2,1.14.4,1.73.4,1.2,1.04,2.45,1.75,3.63.35.59.72,1.16,1.09,1.7,1.46,2.15,2.86,3.75,2.86,3.75-.22-.65-.32-1.27-.32-1.87.03-2.68,2.11-4.76,3.65-5.94.52-.39.97-.69,1.27-.87.48-.29-.98.47,14.92-7.55-2.22-.23-4.44-.31-6.41-.28h0c-.77.01-1.55.04-2.32.08-6.3.36-12.62,1.81-18.7,4.44-.62.27-1.24.55-1.85.84h0c-.45.21-.89.43-1.33.65"/>
  <path class="cls-8" d="M500.13,538.4c3.36-4.44,6.25-9.26,8.59-14.38l-1.77-.9c-2.22,4.87-4.98,9.43-8.14,13.68"/>
  <path class="cls-8" d="M511.13,556.19c4.07-4.6,7.73-9.56,10.88-14.86l-1.26-1.77c-3.13,5.39-6.78,10.45-10.88,15.1"/>
  <path class="cls-8" d="M523.85,571.67c5.03-5.39,9.59-11.22,13.54-17.48l-1.73-.98c-3.83,6.05-8.23,11.69-13.08,16.91"/>
  <path class="cls-8" d="M536.54,587.11c5.8-5.97,11.07-12.47,15.71-19.42l-1.22-1.75c-4.64,7.03-9.92,13.6-15.76,19.63"/>
  <path class="cls-8" d="M341.89,585.57c-5.68-5.87-10.84-12.25-15.39-19.07-.55.37-1.12.69-1.68,1.04h0c4.66,7.01,9.97,13.55,15.81,19.57"/>
  <path class="cls-8" d="M354.59,570.12c-4.55-4.89-8.71-10.16-12.36-15.79,0,0-1.29,1.17-1.49,1.35,3.72,5.7,7.95,11.04,12.58,15.99"/>
  <path class="cls-8" d="M367.32,554.63c-4.02-4.57-7.63-9.5-10.73-14.79l-1.44,1.46c3.15,5.32,6.82,10.28,10.9,14.88"/>
  <path class="cls-8" d="M378.35,536.81c-2.48-3.33-4.71-6.86-6.62-10.58l-1.77.9c2.04,3.97,4.43,7.72,7.1,11.26"/>
  <path class="cls-8" d="M362.5,378.64c-.42.28-.84.56-1.25.85l1.22,1.57c.43-.3.86-.59,1.29-.88,19.97-13.4,43.72-21.54,69.27-22.58l.72-2.01c-26.31.92-50.76,9.25-71.26,23.05"/>
  <path class="cls-8" d="M403.73,425.52c.6-.32,1.2-.63,1.81-.93,5.15-2.54,10.63-4.5,16.36-5.8.16-.83.5-1.59,1.01-2.25-6.56,1.36-12.82,3.56-18.66,6.48-.6.3-1.2.63-1.8.95"/>
  <path class="cls-8" d="M471.63,424.59c.61.3,1.21.62,1.81.93l1.29-1.57c-.6-.32-1.2-.64-1.8-.94-5.84-2.92-12.1-5.12-18.66-6.48.5.66.85,1.42,1.01,2.25,5.73,1.3,11.21,3.27,16.36,5.8"/>
  <path class="cls-8" d="M502.49,396.74l1.22-1.57c-.56-.38-1.13-.76-1.7-1.13-15.7-10.2-33.99-16.7-53.65-18.34.03.66.08,1.32.09,1.99,19.15,1.64,36.97,7.99,52.29,17.9.59.38,1.17.77,1.75,1.16"/>
  <path class="cls-8" d="M514.7,381.05l1.22-1.57c-.41-.29-.83-.57-1.25-.85-20.51-13.81-44.96-22.13-71.26-23.05l.72,2.01c25.55,1.05,49.31,9.18,69.27,22.58.43.29.87.58,1.29.88"/>
  <path class="cls-1" d="M426.76,420.19l3.37,19.63v-26.02l-1.4.8c-1.6.9-2.46,2.72-2.15,4.53"/>
  <path class="cls-1" d="M358.57,588.78s1.87,10.15,3.61,18.83c-.11-.28-.24-.54-.35-.82-.12-.27-.9-2.33-2.76-5.21-1.51-2.27-2.95-4.18-5.06-6.35h-.01c-8.12-1.11-20.35.03-25.39,6.49-.32.38-.47.84-.47,1.3,0,.68.33,1.34.96,1.74l32.85,16.28c.34.21.71.31,1.08.31.54,0,1.07-.22,1.46-.6.44-.44.67-1.11.87-2.22,7.67-30.11,23.96-55.21,27.92-61.02.63-.93.87-1.16.99-1.28.44-.44,1.05-.72,1.73-.72s1.28.27,1.72.71c.47.47.58.86,1.12,2.5.04.12,4.93,15.04,5.09,15.66.23.82.58,1.45,1.01,1.88.51.51,1.14.76,1.85.76.83,0,1.76-.34,2.72-1.01l8.86-6.19s.27-.21.34-.28c.29-.29.46-.68.46-1.13,0-.41-.17-.82-.47-1.12-.29-.29-.69-.43-.8-.43l-9.25-1.72s-.01.02-.02.04h0c-1.16,2.12-2.56,4.9-3.41,7.36.12-1.89.65-10.62.87-13.88l-5.24-13.42c-.58-1.48-1.91-2.54-3.48-2.76-1.57-.23-3.14.41-4.12,1.66"/>
  <path class="cls-8" d="M328.45,601.96s0-.01.01-.02c.02-.03.04-.06.06-.09.03-.04.06-.08.1-.12h0c.2-.26.41-.51.63-.75-11.37-11.37-20.79-24.3-28.21-38.75l-1.78.87c7.53,14.7,17.33,28.05,28.91,39.61.04-.26.13-.51.28-.75"/>
  <path class="cls-10" d="M328.96,601.31c5.23-6.1,17.1-7.16,25.04-6.07h.01c2.11,2.16,3.55,4.08,5.06,6.35,1.86,2.88,2.64,4.94,2.76,5.21.11.27.24.54.35.82-1.74-8.67-3.61-18.83-3.61-18.83l34.67-44.62c.97-1.26,2.55-1.89,4.12-1.66,1.57.23,2.9,1.28,3.48,2.76l5.24,13.42c-.21,3.27-.75,11.99-.87,13.88.86-2.47,2.25-5.24,3.41-7.36,0,0,0,0,0,0,.01-.02.01-.03.02-.04l9.25,1.72c.12,0,.51.14.8.43.15.15.26.33.34.51-.69-2.33-9.18-30.65-9.18-30.65-6.73-3.52-12.63-8.22-17.3-13.87-.52-.62-1.02-1.26-1.5-1.91l-22.11,26.8.25,4.14"/>
  <path class="cls-1" d="M518.59,588.78s-1.87,10.15-3.61,18.83c.11-.28.24-.54.35-.82.12-.27.9-2.33,2.76-5.21,1.51-2.27,2.95-4.18,5.06-6.35h.01c8.12-1.11,20.35.03,25.38,6.49.32.38.47.84.47,1.3,0,.68-.33,1.34-.96,1.74l-32.85,16.28c-.34.21-.71.31-1.08.31-.54,0-1.07-.22-1.46-.6-.44-.44-.67-1.11-.87-2.22-7.67-30.11-23.96-55.21-27.92-61.02-.63-.93-.86-1.16-.99-1.28-.44-.44-1.05-.72-1.73-.72s-1.28.27-1.72.71c-.47.47-.58.86-1.12,2.5-.04.12-4.94,15.04-5.09,15.66-.23.82-.58,1.45-1.01,1.88-.51.51-1.14.76-1.85.76-.83,0-1.76-.34-2.72-1.01l-8.86-6.19s-.27-.21-.33-.28c-.29-.29-.46-.68-.46-1.13,0-.41.16-.82.47-1.12.29-.29.69-.43.8-.43l9.25-1.72s.01.02.02.04h0c1.17,2.12,2.56,4.9,3.41,7.36-.12-1.89-.65-10.62-.87-13.88l5.24-13.42c.58-1.48,1.91-2.54,3.48-2.76,1.57-.23,3.14.41,4.12,1.66"/>
  <path class="cls-8" d="M595.01,492.02c0-11.05-1.16-21.83-3.34-32.24-.38.7-1.11,1.67-1.57,2.22,1.92,9.71,2.93,19.75,2.93,30.02,0,26.05-6.49,50.61-17.92,72.16h0c-7.25,13.67-16.34,25.95-27.19,36.8.22.24.43.49.63.74,0,0,0,0,0,0,.03.04.07.08.09.13.02.03.04.06.06.09,0,0,0,.02.01.02.14.23.24.49.28.75,11.06-11.04,20.5-23.71,27.88-37.63h0c11.58-21.82,18.14-46.69,18.14-73.07"/>
  <path class="cls-10" d="M548.21,601.31c-5.23-6.1-17.1-7.16-25.04-6.07h-.01c-2.11,2.16-3.55,4.08-5.06,6.35-1.86,2.88-2.64,4.94-2.76,5.21-.11.27-.24.54-.35.82,1.74-8.67,3.61-18.83,3.61-18.83l-34.67-44.62c-.98-1.26-2.55-1.89-4.12-1.66-1.57.23-2.9,1.28-3.48,2.76l-5.24,13.42c.21,3.27.75,11.99.87,13.88-.86-2.47-2.25-5.24-3.41-7.36h0s-.01-.04-.02-.05l-9.25,1.72c-.11,0-.51.14-.8.43-.15.15-.26.33-.34.51.69-2.33,9.18-30.65,9.18-30.65,6.72-3.52,12.63-8.22,17.3-13.87.52-.62,1.02-1.26,1.5-1.91l22.11,26.8-.25,4.14"/>
</svg>