<?xml version="1.0" encoding="UTF-8"?>
<svg id="Layer_1" data-name="Layer 1" xmlns="http://www.w3.org/2000/svg" viewBox="0 0 104 48">
  <defs>
    <style>
      .cls-1 {
        fill: #0a2240;
      }

      .cls-2 {
        fill: #ffcd00;
      }
    </style>
  </defs>
  <g>
    <path class="cls-1" d="M38.64,31.84s.01.05.01.06c0,.05-.02.07-.07.07h-.4s-.07-.02-.09-.07l-.41-.98h-2.1s-.05-.02-.05-.06c0-.02,0-.03,0-.04l.16-.36c.02-.05.06-.08.11-.08h1.65l-.88-2.16-1.57,3.68s-.05.07-.09.07h-.36s-.07-.02-.07-.07c0,0,0-.02.01-.06l1.71-3.95s.05-.08.08-.11c.04-.03.07-.05.11-.05h.34s.08.02.11.05c.04.03.06.07.08.11l1.71,3.95Z"/>
    <path class="cls-1" d="M41.04,31.6s.01-.07.04-.1c.02-.03.05-.04.09-.04h1.46c.06,0,.11-.02.15-.07.04-.05.06-.1.06-.17v-1.97c0-.07-.02-.12-.06-.17-.04-.05-.09-.07-.15-.07h-1.96v2.82s-.01.07-.04.1-.05.04-.09.04h-.27s-.06-.01-.09-.04-.04-.06-.04-.1v-3.2s.01-.07.04-.1.05-.04.09-.04h2.43c.18,0,.34.07.46.21s.19.32.19.53v2c0,.21-.06.38-.19.53s-.28.21-.47.21h-1.53s-.06-.01-.09-.04c-.02-.03-.04-.06-.04-.1v-.24Z"/>
    <path class="cls-1" d="M44.52,28.63s-.01-.05-.01-.07c0-.05.02-.07.07-.07h.38s.06.02.08.06l1.47,3.28s.01.05.01.07c0,.05-.02.07-.07.07h-.36s-.06-.02-.07-.06l-1.5-3.28ZM46.73,31.34s-.03.03-.04.03c-.02,0-.04-.01-.04-.03l-.19-.38s-.01-.06-.01-.07,0-.04.01-.06l.98-2.27s.03-.06.04-.07.03,0,.04,0h.31c.05,0,.08.03.08.08,0,0,0,.02-.01.06l-1.17,2.71ZM46.52,31.82s-.03.03-.04.03c-.02,0-.04-.01-.04-.03l-.19-.38s-.01-.06-.01-.07,0-.04.01-.06l.98-2.27s.03-.06.04-.07.03,0,.04,0h.31c.05,0,.08.03.08.08,0,0,0,.02-.01.06l-1.17,2.71Z"/>
    <path class="cls-1" d="M49.09,28.63s.01-.07.04-.1c.02-.03.05-.04.09-.04h.27s.06.01.09.04c.02.03.04.06.04.1v3.2s-.01.07-.04.1c-.02.03-.05.04-.09.04h-.27s-.06-.01-.09-.04c-.02-.03-.04-.06-.04-.1v-3.2Z"/>
    <path class="cls-1" d="M51.15,31.07s.01-.07.04-.1c.02-.03.05-.04.09-.04h.24c.07,0,.11.04.12.12.02.11.07.21.15.29.08.08.17.12.27.12h1.24c.12,0,.22-.05.3-.15.08-.1.12-.22.12-.36s-.04-.25-.12-.35-.18-.15-.3-.15h-1.19c-.12,0-.23-.02-.33-.07-.1-.05-.19-.12-.27-.21-.08-.09-.14-.19-.19-.31-.05-.12-.07-.24-.07-.38s.02-.26.07-.38c.05-.12.11-.22.19-.31.08-.09.17-.16.27-.21s.21-.08.33-.08h1.17c.11,0,.21.02.31.07s.19.1.26.18c.07.08.14.17.19.27s.08.22.1.34c0,.09-.04.14-.12.14h-.23c-.07,0-.11-.04-.12-.11-.02-.1-.06-.19-.14-.26-.07-.07-.16-.1-.25-.1h-1.17c-.11,0-.2.04-.28.13-.08.09-.12.2-.12.32s.04.23.12.33.17.14.28.14h1.19c.12,0,.24.03.35.08.11.05.21.12.29.21.08.09.15.2.19.32.05.12.07.26.07.4s-.02.28-.07.4c-.05.12-.11.23-.19.33s-.18.17-.29.22c-.11.05-.23.08-.35.08h-1.24c-.12,0-.22-.02-.33-.07s-.19-.11-.27-.19c-.08-.08-.15-.18-.2-.29-.05-.11-.08-.23-.09-.35Z"/>
    <path class="cls-1" d="M55.66,29.01c0-.06.01-.12.04-.18.03-.06.06-.12.1-.17.04-.05.09-.09.15-.12s.11-.05.16-.05h2.34c.06,0,.11.02.17.05s.1.07.14.12c.04.05.08.11.1.17.03.06.04.12.04.18v2.45c0,.06-.01.12-.04.18-.03.06-.06.12-.1.17-.04.05-.09.09-.14.12-.05.03-.11.05-.17.05h-2.34c-.05,0-.11-.02-.16-.05-.06-.03-.1-.07-.15-.12-.04-.05-.08-.11-.1-.17-.03-.06-.04-.12-.04-.18v-2.45ZM56.16,31.46h2.26v-2.45h-2.26v2.45Z"/>
    <path class="cls-1" d="M62.38,28.49c.13,0,.26.03.37.08.11.05.21.13.29.23.08.1.15.21.19.33.05.13.07.26.07.41,0,.26-.07.49-.2.67-.13.18-.31.3-.51.36l.82,1.26s.02.05.02.08c0,.04-.02.06-.06.06h-.4s-.03,0-.05-.02c-.02-.01-.03-.02-.04-.04l-.86-1.31h-.55s-.06-.01-.09-.04-.04-.06-.04-.1v-.21s.01-.07.04-.1c.02-.03.05-.04.09-.04h.86c.14,0,.26-.05.35-.16.09-.1.14-.24.14-.4,0-.15-.05-.28-.14-.39-.1-.1-.21-.16-.35-.16h-1.37v2.82s-.01.07-.04.1c-.02.03-.05.04-.09.04h-.26s-.06-.01-.09-.04-.04-.06-.04-.1v-3.2s.01-.07.04-.1.05-.04.09-.04h1.77Z"/>
    <path class="cls-1" d="M65.73,29.75s.02.05.02.06-.06.1-.19.28c-.03.03-.05.05-.07.05s-.04-.02-.07-.05l-1.05-1.44s-.04-.07-.04-.09c0-.04.02-.06.06-.06h.37s.08.02.1.05l.86,1.21ZM66.02,30.15s.02.05.02.06-.06.1-.19.28c-.03.03-.05.05-.07.05s-.04-.02-.07-.05l-1.05-1.44s-.04-.07-.04-.09c0-.04.02-.06.06-.06h.37s.08.02.1.05l.86,1.21ZM66.21,31.83s-.01.07-.04.1-.05.04-.09.04h-.27s-.06-.01-.09-.04-.04-.06-.04-.1v-1.35l1.35-1.93s.05-.06.09-.06h.36s.06.02.06.05c0,.02-.01.05-.04.09l-1.31,1.85v1.35Z"/>
    <path class="cls-1" d="M71.5,28.91c0-.09.03-.19.1-.28s.16-.14.27-.14h2.29s.07.01.09.04c.02.03.03.06.03.1v.24s-.01.07-.03.1c-.02.03-.05.04-.09.04h-2.15v2.45h2.23s.07.01.09.04c.02.03.03.06.03.1v.24s-.01.07-.03.1c-.02.03-.05.04-.09.04h-2.38c-.11,0-.2-.04-.27-.13-.07-.08-.1-.18-.1-.29v-2.64Z"/>
    <path class="cls-1" d="M75.74,28.63s.01-.08.04-.1c.02-.02.05-.04.09-.04h.27s.06.01.09.04c.02.02.04.06.04.1v3.2s-.01.07-.04.1-.05.04-.09.04h-.27s-.06-.01-.09-.04-.04-.06-.04-.1v-3.2ZM75.88,30.04s.01-.07.04-.1.05-.04.09-.04h2.45v-1.26s.01-.07.04-.1.05-.04.09-.04h.27s.06.01.09.04.04.06.04.1v3.2s-.01.07-.04.1-.05.04-.09.04h-.27s-.06-.01-.09-.04-.04-.06-.04-.1v-1.42h-2.45s-.06-.01-.09-.04-.04-.06-.04-.1v-.24Z"/>
    <path class="cls-1" d="M81.68,28.63s.04-.07.08-.1c.04-.03.07-.04.1-.04h.26s.07.01.1.04.06.06.08.1l1.49,3.2s.01.05.01.07c0,.05-.02.07-.07.07h-.33c-.05,0-.1-.03-.13-.1l-.34-.72h-1.41s-.07-.02-.07-.07c0-.01,0-.03.01-.07l.12-.25c.03-.07.08-.1.13-.1h.99l-.73-1.62-1.27,2.83s-.03.05-.05.07c-.03.02-.05.03-.08.03h-.31s-.07-.02-.07-.07c0-.01,0-.03.01-.07l1.46-3.2Z"/>
    <path class="cls-1" d="M85.06,28.55s.02-.06.05-.06h.41s.06.01.07.04l1.28,1.4,1.28-1.4s.05-.04.08-.04h.38s.05.01.05.04c0,.04-.02.08-.06.12l-1.59,1.76s-.02.02-.04.03c-.03.02-.06.03-.1.03s-.07-.01-.1-.03c-.01-.01-.03-.02-.04-.03l-1.2-1.31v2.72s-.01.07-.04.1-.05.04-.09.04h-.23s-.06-.01-.09-.04-.04-.06-.04-.1v-3.28ZM88.64,31.83s-.01.07-.04.1-.05.04-.09.04h-.24s-.06-.01-.09-.04-.04-.06-.04-.1v-2.1s0-.05.02-.08c.01-.03.03-.06.05-.09l.32-.37s.05-.04.06-.04c.01,0,.02.01.02.04v2.63Z"/>
    <path class="cls-1" d="M90.27,28.63s.01-.07.04-.1.05-.04.09-.04h1.82c.12,0,.23.02.33.07s.2.12.28.21c.08.09.14.19.19.31.05.12.07.24.07.38s-.03.26-.08.37c-.05.12-.12.22-.2.32.12.09.22.21.29.36.07.14.11.3.11.47,0,.14-.02.27-.07.39-.05.12-.11.22-.19.31-.08.09-.17.16-.28.21-.11.05-.22.08-.34.08h-1.94s-.06-.01-.09-.04-.04-.06-.04-.1v-3.2ZM90.77,29.01v2.45h1.45c.15,0,.28-.05.37-.16s.14-.23.14-.37-.05-.27-.14-.38c-.09-.1-.22-.16-.37-.16h-.94s-.06-.01-.09-.04c-.02-.03-.04-.06-.04-.1v-.19s.01-.08.04-.1c.02-.02.05-.04.09-.04h.89c.14,0,.24-.05.32-.14.07-.09.11-.2.11-.32s-.04-.23-.12-.32c-.08-.09-.18-.13-.31-.13h-1.4Z"/>
    <path class="cls-1" d="M95.21,31.46h2.18s.06.01.09.04c.02.03.04.06.04.1v.24s-.01.07-.04.1-.05.04-.09.04h-2.54s-.06-.01-.09-.04-.04-.06-.04-.1v-3.2s.01-.07.04-.1.05-.04.09-.04h2.52s.06.01.09.04c.02.03.04.06.04.1v.24s-.01.07-.04.1c-.02.03-.05.04-.09.04h-2.15v2.45ZM94.85,30.04s.01-.07.04-.1c.02-.03.05-.04.09-.04h2.22s.06.01.09.04c.02.03.04.06.04.1v.24s-.01.08-.04.1c-.02.02-.05.04-.09.04h-2.22s-.06-.01-.09-.04c-.02-.02-.04-.06-.04-.1v-.24Z"/>
    <path class="cls-1" d="M100.76,28.49c.13,0,.26.03.37.08.11.05.21.13.29.23.08.1.15.21.19.33.05.13.07.26.07.41,0,.26-.07.49-.2.67-.13.18-.31.3-.51.36l.82,1.26s.02.05.02.08c0,.04-.02.06-.06.06h-.4s-.03,0-.05-.02c-.02-.01-.03-.02-.04-.04l-.86-1.31h-.55s-.06-.01-.09-.04-.04-.06-.04-.1v-.21s.01-.07.04-.1c.02-.03.05-.04.09-.04h.86c.14,0,.26-.05.35-.16.09-.1.14-.24.14-.4,0-.15-.05-.28-.14-.39-.1-.1-.21-.16-.35-.16h-1.37v2.82s-.01.07-.04.1c-.02.03-.05.04-.09.04h-.26s-.06-.01-.09-.04-.04-.06-.04-.1v-3.2s.01-.07.04-.1.05-.04.09-.04h1.77Z"/>
  </g>
  <g>
    <path class="cls-1" d="M40.09,21.6c0,1.43-.49,2.09-2,2.09-1.72,0-1.99-1.04-1.99-2.09v-6h-2.12v6c0,2.62,1.51,3.88,4.11,3.88s4.12-1.27,4.12-3.88v-6h-2.12v6Z"/>
    <rect class="cls-1" x="61.05" y="15.6" width="2.12" height="9.64"/>
    <polygon class="cls-1" points="68.47 17.38 71.36 17.38 71.36 25.24 73.48 25.24 73.48 17.38 76.37 17.38 76.37 15.6 68.47 15.6 68.47 17.38"/>
    <path class="cls-1" d="M97.53,15.6h-4.16v9.16h0s0,.48,0,.48h4.16c2.95,0,4.38-2.08,4.38-4.87,0-3.2-1.88-4.77-4.38-4.77ZM97.39,23.46h-1.89v-6.08h1.51c2.1,0,2.78,1.24,2.78,3.19,0,2.14-1.18,2.89-2.4,2.89Z"/>
    <path class="cls-1" d="M83.81,19.88h4.12v1.22h-4.08c.19,1.46.95,2.36,2.73,2.36h1.35v1.79h-1.87c-2.5,0-4.38-1.57-4.38-4.77,0-2.8,1.43-4.87,4.38-4.87h1.87v1.78h-1.73c-1.15,0-2.25.66-2.39,2.5Z"/>
    <path class="cls-1" d="M51.62,15.6c-2.59,0-4.11,1.26-4.11,3.88v6h2.12v-6c0-1.05.27-2.09,1.99-2.09,1.51,0,2,.66,2,2.09v6h2.12v-6c0-2.61-1.54-3.88-4.12-3.88Z"/>
  </g>
  <rect class="cls-2" x="30.79" y="15.62" width=".79" height="16.52"/>
  <g>
    <path class="cls-1" d="M14.89,23.96l2.08,3.03c-.2,1.52-.88,2.89-2.08,3.88-1.2,1-2.93,1.63-5.18,1.63-4.98,0-7.35-3-7.35-6.45v-10.57h2.14v10.43c0,2.76,1.81,4.69,5.21,4.69s5.18-1.88,5.18-4.69v-1.95Z"/>
    <polygon class="cls-1" points="27.99 15.47 27.99 32.13 25.86 32.13 17.03 19.09 17.03 23.3 14.89 20.17 14.89 15.47 17.03 15.47 25.86 28.49 25.86 15.47 27.99 15.47"/>
    <path class="cls-2" d="M17.03,23.3v2.75c0,.32-.02.63-.06.94l-2.08-3.03v-3.79l2.14,3.12Z"/>
  </g>
</svg>