<?xml version="1.0" encoding="UTF-8"?>
<svg id="Layer_1" data-name="Layer 1" xmlns="http://www.w3.org/2000/svg" viewBox="0 0 855.4 1080">
  <defs>
    <style>
      .cls-1 {
        fill: #e0795c;
      }

      .cls-2 {
        fill: #637479;
      }

      .cls-3 {
        fill: #9db9d4;
      }

      .cls-4 {
        fill: #739ac1;
      }

      .cls-5 {
        fill: #e47d5c;
      }

      .cls-6 {
        fill: #bacbde;
      }

      .cls-7 {
        fill: #b7b5b7;
      }

      .cls-8 {
        fill: #b1c7db;
      }

      .cls-9 {
        fill: #5284b4;
      }

      .cls-10 {
        fill: #6691ba;
      }

      .cls-11 {
        fill: #cedae5;
      }

      .cls-12 {
        fill: #e0ab52;
      }

      .cls-13 {
        fill: #065292;
      }

      .cls-14 {
        fill: #b6cadd;
      }

      .cls-15 {
        fill: #529342;
      }

      .cls-16 {
        fill: #5b5b5d;
      }

      .cls-17 {
        fill: #4f80b1;
      }

      .cls-18 {
        fill: #deac54;
      }

      .cls-19 {
        fill: #c1d1e3;
      }

      .cls-20 {
        fill: #6893bc;
      }

      .cls-21 {
        fill: #f9fbfd;
      }

      .cls-22 {
        fill: #ccdbe7;
      }

      .cls-23 {
        fill: #5384b4;
      }

      .cls-24 {
        fill: #d4dfea;
      }

      .cls-25 {
        fill: #d0dde7;
      }

      .cls-26 {
        fill: #dba850;
      }

      .cls-27 {
        fill: #215b97;
      }

      .cls-28 {
        fill: #da5f54;
      }

      .cls-29 {
        fill: #487eae;
      }

      .cls-30 {
        fill: #2e6ca3;
      }

      .cls-31 {
        fill: #52667d;
      }

      .cls-32 {
        fill: #de6f5a;
      }

      .cls-33 {
        fill: #3d75aa;
      }

      .cls-34 {
        fill: #dba74e;
      }

      .cls-35 {
        fill: #085191;
      }

      .cls-36 {
        fill: #d0dde9;
      }

      .cls-37 {
        fill: #345e8e;
      }

      .cls-38 {
        fill: #ca2128;
      }

      .cls-39 {
        fill: #5e8db9;
      }

      .cls-40 {
        fill: #c3d3e4;
      }

      .cls-41 {
        fill: #919394;
      }

      .cls-42 {
        fill: #2a6aa3;
      }

      .cls-43 {
        fill: #b3c8db;
      }

      .cls-44 {
        fill: #c92528;
      }

      .cls-45 {
        fill: #deaa51;
      }

      .cls-46 {
        fill: #bdcfe0;
      }

      .cls-47 {
        fill: #618eb9;
      }

      .cls-48 {
        fill: #b0c6d9;
      }

      .cls-49 {
        fill: #dce5db;
      }

      .cls-50 {
        fill: #3a72a7;
      }

      .cls-51 {
        fill: #5a595b;
      }

      .cls-52 {
        fill: #d1dee9;
      }

      .cls-53 {
        fill: #de725a;
      }

      .cls-54 {
        fill: #6d97be;
      }

      .cls-55 {
        fill: #bc822b;
      }

      .cls-56 {
        fill: #f9dfbf;
      }

      .cls-57 {
        fill: #c4d6bd;
      }

      .cls-58 {
        fill: #7aa0c4;
      }

      .cls-59 {
        fill: #ca2129;
      }

      .cls-60 {
        fill: #2c5d96;
      }

      .cls-61 {
        fill: #89abcb;
      }

      .cls-62 {
        fill: #c0d2e2;
      }

      .cls-63 {
        fill: #b7c9dc;
      }

      .cls-64 {
        fill: #edb04a;
      }

      .cls-65 {
        fill: #c6c6c8;
      }

      .cls-66 {
        fill: #cbd8e2;
      }

      .cls-67 {
        fill: #c9d8e6;
      }

      .cls-68 {
        fill: #5583b4;
      }

      .cls-69 {
        fill: #93b1cf;
      }

      .cls-70 {
        fill: #84a9c9;
      }

      .cls-71 {
        fill: #33639a;
      }

      .cls-72 {
        fill: #6892bb;
      }

      .cls-73 {
        fill: #5f8db9;
      }

      .cls-74 {
        fill: #5b5b5c;
      }

      .cls-75 {
        fill: #faac27;
      }

      .cls-76 {
        fill: #b5c9dd;
      }

      .cls-77 {
        fill: #dba64d;
      }

      .cls-78 {
        fill: #bed1e1;
      }

      .cls-79 {
        fill: #336fa7;
      }

      .cls-80 {
        fill: #9a9c9e;
      }

      .cls-81 {
        fill: #fff;
      }

      .cls-82 {
        fill: #80a6c7;
      }

      .cls-83 {
        fill: #4b80b2;
      }

      .cls-84 {
        fill: #4f83b3;
      }

      .cls-85 {
        fill: #e7835b;
      }

      .cls-86 {
        fill: #c8d7e5;
      }

      .cls-87 {
        fill: #b1c6da;
      }

      .cls-88 {
        fill: #b8cbde;
      }

      .cls-89 {
        fill: #414242;
      }

      .cls-90 {
        fill: #c7d8e6;
      }

      .cls-91 {
        fill: #39773a;
      }

      .cls-92 {
        fill: #065291;
      }

      .cls-93 {
        fill: #2c6331;
      }

      .cls-94 {
        fill: #c5c6c8;
      }

      .cls-95 {
        fill: #e1795b;
      }

      .cls-96 {
        fill: #83a8c9;
      }

      .cls-97 {
        fill: #c0d1e2;
      }

      .cls-98 {
        fill: #035290;
      }

      .cls-99 {
        fill: #336da6;
      }

      .cls-100 {
        fill: #1a5896;
      }

      .cls-101 {
        fill: #de715a;
      }

      .cls-102 {
        fill: #e2ad52;
      }

      .cls-103 {
        fill: #59595b;
      }

      .cls-104 {
        fill: #ddaa53;
      }

      .cls-105 {
        fill: #5c88b6;
      }

      .cls-106 {
        fill: #5c5a5b;
      }

      .cls-107 {
        fill: #dee5ee;
      }

      .cls-108 {
        fill: #949698;
      }

      .cls-109 {
        fill: #4178ab;
      }

      .cls-110 {
        fill: #6893bb;
      }

      .cls-111 {
        fill: #dca952;
      }

      .cls-112 {
        fill: #dda84f;
      }

      .cls-113 {
        fill: #c4d4e5;
      }

      .cls-114 {
        fill: #729bc1;
      }

      .cls-115 {
        fill: #c5c5c7;
      }

      .cls-116 {
        fill: #becfe1;
      }

      .cls-117 {
        fill: #487eaf;
      }

      .cls-118 {
        fill: #f6fafd;
      }

      .cls-119 {
        fill: #2467a1;
      }

      .cls-120 {
        fill: #b4c9dc;
      }

      .cls-121 {
        fill: #2e6ca4;
      }

      .cls-122 {
        fill: #f2f2f2;
      }

      .cls-123 {
        fill: #8baecc;
      }

      .cls-124 {
        fill: #e1775c;
      }

      .cls-125 {
        fill: #5d8ab6;
      }

      .cls-126 {
        fill: #e2eaf0;
      }

      .cls-127 {
        fill: #a3bcd1;
      }

      .cls-128 {
        fill: #a06227;
      }

      .cls-129 {
        fill: #5688b6;
      }

      .cls-130 {
        fill: #ddab53;
      }

      .cls-131 {
        fill: #c92428;
      }

      .cls-132 {
        fill: #dca851;
      }

      .cls-133 {
        fill: #e7e2cd;
      }

      .cls-134 {
        fill: #929497;
      }

      .cls-135 {
        fill: #e2795c;
      }

      .cls-136 {
        fill: #80a4c6;
      }

      .cls-137 {
        fill: #5583b2;
      }

      .cls-138 {
        fill: #a4bdd7;
      }

      .cls-139 {
        fill: #939497;
      }

      .cls-140 {
        fill: #286aa3;
      }

      .cls-141 {
        fill: #deab53;
      }

      .cls-142 {
        fill: #065392;
      }

      .cls-143 {
        fill: #5b5a5c;
      }

      .cls-144 {
        fill: #5180b0;
      }

      .cls-145 {
        fill: #deab51;
      }

      .cls-146 {
        fill: #de6f58;
      }

      .cls-147 {
        fill: #bdccdf;
      }

      .cls-148 {
        fill: #dc6557;
      }

      .cls-149 {
        fill: #e0765b;
      }

      .cls-150 {
        fill: #dba74d;
      }

      .cls-151 {
        fill: #ca2229;
      }

      .cls-152 {
        fill: #df705a;
      }

      .cls-153 {
        fill: #9b9c9f;
      }

      .cls-154 {
        fill: #e47e5c;
      }

      .cls-155 {
        fill: #5482af;
      }

      .cls-156 {
        fill: #e37a5d;
      }

      .cls-157 {
        fill: #dfab52;
      }

      .cls-158 {
        fill: #de7059;
      }
    </style>
  </defs>
  <g>
    <path class="cls-98" d="M427.87,264.91c.62-.19,1.51-.19,2.09,0,.4-.19,1.19-.18,1.61,0,2.91-.19,6.28-.19,9.26,0,.41-.2,1.2-.2,1.62,0,.5-.23,1.28-.18,1.85,0h1.86c.4.08.77.16,1.15.24.24-.24.82-.16,1.16,0,40.12,0,89.2,22.33,119.25,49.9l1.72,1.59,3.79,3.62c1.26,1.2,2.51,2.42,3.7,3.69l3.62,3.83c13.08,13.84,23.54,29.88,31.72,47.16,9.98,21.07,15.79,44.36,17.92,67.48.06.71-.1,1.16.21,1.66-.13.45-.22.94,0,1.39.06.38,0,.77,0,1.16.17.34.22.87,0,1.15.08.34.15.73.24,1.16v1.62c.17.42.23,1.02,0,1.39.08.66.15,1.36.23,2.09v5.55c.21.67.21,1.4,0,2.09v4.63c-.19.61-.19,1.25,0,1.86v.92l-.23,1.15v1.62c-.19.45-.19.94,0,1.39,0,.79-.34,1.52-.24,2.31l-.23,1.16c-.53,10.52-2.55,20.99-5.19,31.39-2.97,11.69-7.07,22.95-12.21,33.86-7.91,16.74-18.31,32.01-30.6,45.72-1.56,1.74-3,3.15-4.43,4.94.65.84,1.34,1.44,1.98,2.14l2.31,2.54,3,3.25,2.77,3,2.1,2.32c.35.39.71,1.12,1.35.9.76-.26,1.12-1.1,1.62-1.63l2.96-3.09c9.5-9.95,17.22-21.39,23.4-33.71l2.65-5.3c3.89-7.74,6.6-15.84,9.45-24.02l1.72-4.91c.82,1.11-.03,2.86.6,3.94-.15.39-.18.77,0,1.16v1.85l.23,1.39v1.85c.17.34.22.87,0,1.16.06.45.13.91.24,1.39v2.55c.18.49.23,1.18,0,1.61.2.52.18,1.35,0,1.86.2.72.19,1.79,0,2.54.19,3.62.19,7.67,0,11.35.19,1.56.18,3.48,0,5.1.19,1.82.19,3.94,0,5.79.19,2.18.19,4.72,0,6.94.2.72.19,1.77,0,2.55v5.32c-.09,1.09-.17,2.17-.24,3.25.2.4.19,1.19,0,1.61.2.72.19,1.8,0,2.55.24.5.18,1.28,0,1.85,0,.24.17.3.45.2l23.41-8.51,24.8-9c-.42,1.35-.94,2.3-1.48,3.4l-5.47,10.94c-2.83,5.64-6.11,10.81-9.61,16.1-7.39,11.22-15.61,21.65-24.8,31.41-14.31,15.18-28.59,27.26-45.87,38.84-3.7,2.48-10.18,7.59-14.89,7.59-.37-.18-.79-.18-1.16,0-.08,0-.16.02-.23,0-.45-.22-.94-.15-1.4,0-1.67-.35-3.43-.66-4.79-1.93-.88-.82-1.77-1.88-2.29-3-1.51-3.28-3.48-6.05-5.86-8.73-.84-.95-1.78-1.77-2.56-2.77-.8-1.03-1.73-1.77-2.67-2.82l-4.47,2.39c-2.43,1.3-4.73,2.42-7.27,3.65-33.19,16.03-56.5,21.33-92.48,25.27l-1.91.21c-.45-.17-.94-.18-1.39,0-1.1-.06-2.14.37-3.25.24-.44-.22-.94-.2-1.39,0h-1.85c-.7.19-1.66.19-2.31,0-.44.2-1.2.18-1.62,0-3.18.19-6.9.19-10.18,0-.6.2-1.51.18-2.09,0-.5.24-1.28.18-1.85,0h-2.31c-.56-.1-1.09-.18-1.62-.24-.3.24-.98.17-1.39,0h-1.39c-.45-.18-.94-.14-1.39,0-1.06-.23-2.02-.23-3.27-.33-36.44-2.79-70.65-13.61-102.75-31.23-2.91,2.7-7.87,7.97-9.63,11.28l-1.52,2.87c-1.52,2.88-4.17,4.93-7.37,5.15-.77-.17-1.55-.14-2.32,0-2.19-.31-4.29-.96-6.4-1.96-9.4-4.47-32.21-22.41-40.23-30.07l-4.07-3.88c-2.29-2.18-4.51-4.38-6.69-6.68l-3.64-3.84c-17.06-18.02-30.87-38.7-41.87-61.29,9.17,2.6,17.75,5.64,26.48,8.88l22.49,8.33c.1-.7.18-1.4.23-2.08-.2-.76-.19-1.82,0-2.55-.07-.82-.15-1.67-.23-2.55v-4.16c-.19-.71-.19-1.66,0-2.32-.2-.56-.18-1.5,0-2.08-.19-1.25-.18-2.88,0-4.17-.19-2.9-.2-6.27,0-9.26-.2-9.9-.2-20.56,0-30.55-.19-1.44-.18-3.17,0-4.63-.13-.49-.23-4.32-.05-4.47.04-.03.15,0,.28.07l3.02,8.36c3.36,9.28,7.18,18.28,11.83,27.02,6.72,12.63,14.8,24.3,24.36,34.87,1.14,1.25,2.13,2.27,3.4,3.47.93-1.03,1.86-1.91,2.75-2.89l2.32-2.54,2.32-2.54,2.33-2.55c1.23-1.35,2.53-2.5,3.78-3.95-1-.98-1.85-1.84-2.79-2.89-17.6-19.5-31.39-41.7-39.94-66.74-4.77-13.96-8.12-28.3-9.45-42.85l-.23-1.16c.07-.76-.04-1.5-.19-2.34-.16-.87.03-1.73-.04-2.52l-.23-1.39v-1.85c-.17-.35-.21-.85,0-1.16-.07-.5-.14-1.03-.24-1.61v-3.47c-.18-.5-.23-1.18,0-1.62-.19-1.44-.19-3.17,0-4.63-.2-.55-.19-1.46,0-2.08v-2.55c.08-.4.16-.78.24-1.16-.2-.22-.19-.88,0-1.15-.22-.42-.19-1.13,0-1.62,0-.46-.04-.92,0-1.39l.23-1.62v-2.54l.24-1.16c-.02-.13.19-2.97.23-3.7l.24-1.16.46-4.4.23-1.16v-.46l.24-1.15c0-.13.07-.36,0-.46l.23-1.16c-.03-.62.34-1.24.24-1.85l.23-1.16c1.56-9.51,3.83-18.87,6.77-28.21,4.64-14.71,11.13-28.59,19.11-41.69,5.69-9.34,14.06-20.7,21.44-28.59l2.94-3.15c1.97-2.11,3.99-4.12,6.08-6.16.76-.73,1.63-1.25,2.26-2.15-.03.05,3.46-3.09,3.79-3.38l2.99-2.57c2.85-2.46,5.7-4.75,8.75-6.96l5.69-4.09c8.57-6.17,17.75-11.35,27.27-15.97,21.7-10.54,45.04-16.45,68.84-18.43.45.17.94.18,1.39,0h1.39c.35-.17.87-.24,1.16,0,.51-.09,1.06-.17,1.62-.24.56-.11,1.27,0,1.85,0"/>
    <path class="cls-30" d="M440.83,264.68c.2.07.2.14,0,.24h-9.26c-.2-.07-.2-.15,0-.24h9.26Z"/>
    <path class="cls-46" d="M429.95,264.68c.2.07.2.14,0,.24h-2.09c-.02-.19.21-.24.45-.24h1.63Z"/>
    <path class="cls-126" d="M630.89,461.67v-2.09c.4.54.4,1.56,0,2.09"/>
    <path class="cls-88" d="M444.3,264.91h-1.85c-.2-.07-.2-.14,0-.24.61.05,1.4-.23,1.85.24"/>
    <path class="cls-20" d="M442.45,264.68v.24h-1.62v-.24c.54,0,1.08-.04,1.62,0"/>
    <rect class="cls-72" x="429.95" y="264.68" width="1.62" height=".24"/>
    <path class="cls-68" d="M421.85,265.14c-.29.39-1.1.39-1.39,0,.45-.04.93,0,1.39,0"/>
    <path class="cls-70" d="M448.47,265.14h-1.16c-.2-.07-.19-.14,0-.24.39,0,.94-.16,1.16.24"/>
    <path class="cls-109" d="M447.31,264.91v.24c-.39,0-.93.16-1.16-.24h1.16Z"/>
    <path class="cls-79" d="M238.51,573.01c-.07.2-.14.2-.24,0v-30.55c.07-.2.14-.2.24,0v30.55Z"/>
    <path class="cls-140" d="M634.36,566.76c-.07.2-.14.2-.24,0v-11.35c.07-.2.14-.19.24,0v11.35Z"/>
    <path class="cls-83" d="M238.51,582.27c-.07.2-.14.2-.24,0v-9.26h.24v9.26Z"/>
    <path class="cls-3" d="M634.36,584.58c-.07.2-.14.2-.24,0v-6.95c.07-.2.14-.19.24,0v6.95Z"/>
    <path class="cls-114" d="M634.36,577.64h-.24v-5.79c.07-.2.14-.2.24,0v5.79Z"/>
    <path class="cls-61" d="M238.74,533.43c-.18-.02-.24.21-.24.45v3.94c-.06.2-.14.2-.23,0l.03-4.82c0-.12.45-.05.45.07,0,.09-.04.25,0,.35"/>
    <rect class="cls-84" x="634.12" y="566.76" width=".24" height="5.1"/>
    <rect class="cls-39" x="238.27" y="537.83" width=".24" height="4.63"/>
    <path class="cls-127" d="M241.75,463.06c-.07.2-.14.2-.24,0v-4.63c.07-.2.14-.19.24,0v4.63Z"/>
    <path class="cls-54" d="M238.51,586.44c-.07.2-.14.2-.24,0v-4.16h.24v4.16Z"/>
    <path class="cls-99" d="M634.13,595.7c-.07.2-.14.2-.24,0v-2.79c0-.24.05-.46.24-.45v3.24Z"/>
    <path class="cls-117" d="M634.36,555.42h-.24v-2.55c.07-.2.14-.19.24,0v2.55Z"/>
    <path class="cls-119" d="M238.74,597.55h-.24v-2.55c.19-.02.24.21.24.45v2.09Z"/>
    <path class="cls-36" d="M634.13,587.13v-2.55h.24v2.1c0,.24-.05.46-.24.45"/>
    <path class="cls-46" d="M445.46,705.19c.02.18-.21.24-.45.24h-1.87c-.2-.07-.2-.14,0-.24h2.31Z"/>
    <path class="cls-52" d="M238.51,590.83c-.19.02-.24-.21-.24-.45v-1.86c.07-.2.14-.2.24,0v2.31Z"/>
    <path class="cls-9" d="M294.76,692.69c-.72.05-1.6.1-2.31,0,.61-.4,1.7-.4,2.31,0"/>
    <path class="cls-47" d="M630.89,454.03c-.19.02-.24-.21-.24-.45v-1.63c.07-.2.14-.19.24,0v2.09Z"/>
    <rect class="cls-3" x="238.27" y="586.43" width=".24" height="2.09"/>
    <path class="cls-66" d="M241.75,458.43h-.24v-1.63c0-.24.05-.47.24-.45v2.09Z"/>
    <path class="cls-33" d="M630.89,468.15c-.4-.45-.4-1.4,0-1.85v1.85Z"/>
    <path class="cls-4" d="M634.36,552.87h-.24v-1.85c.07-.2.14-.2.24,0v1.85Z"/>
    <path class="cls-90" d="M429.26,705.19v.24c-.61,0-1.4.21-1.85-.24h1.85Z"/>
    <path class="cls-11" d="M241.75,464.68c-.42-.37-.24-1.09-.24-1.62h.24v1.62Z"/>
    <path class="cls-125" d="M241.98,469.77c-.07.2-.14.2-.24,0v-1.62c.46.37.19,1.08.24,1.62"/>
    <path class="cls-23" d="M426.02,264.91c-.5.26-1.03.29-1.62.24-.2-.07-.19-.15,0-.24h1.62Z"/>
    <path class="cls-25" d="M241.98,451.48c-.07.2-.14.2-.24,0,.06-.54-.22-1.25.24-1.62v1.62Z"/>
    <path class="cls-155" d="M241.98,448.47c.04-.54-.22-1.24.24-1.62,0,.54.19,1.25-.24,1.62"/>
    <path class="cls-97" d="M634.36,551.02h-.24v-1.62c.44.38.24,1.08.24,1.62"/>
    <rect class="cls-39" x="633.89" y="595.69" width=".24" height="1.62"/>
    <rect class="cls-110" x="441.52" y="705.18" width="1.62" height=".24"/>
    <path class="cls-138" d="M633.9,542.46c-.42-.29-.24-.92-.24-1.39.42.29.24.92.24,1.39"/>
    <path class="cls-10" d="M242.21,474.17c-.42-.29-.24-.92-.24-1.39.44.29.19.92.24,1.39"/>
    <path class="cls-17" d="M630.65,473.24c-.39-.29-.39-1.1,0-1.39v1.39Z"/>
    <path class="cls-62" d="M423.47,704.96v.23c-.46,0-1.09.19-1.39-.23h1.39Z"/>
    <path class="cls-144" d="M453.33,704.96c-.45.05-.93.03-1.39,0,.29-.39,1.1-.39,1.39,0"/>
    <path class="cls-137" d="M630.42,445.47c-.39-.29-.39-1.1,0-1.39.13.39-.06.98,0,1.39"/>
    <path class="cls-73" d="M420.69,704.96c-.45,0-.95.09-1.39,0,.29-.39,1.1-.39,1.39,0"/>
    <path class="cls-42" d="M579.03,692.69c-.45-.07-.94.09-1.39,0,.29-.39,1.1-.39,1.39,0"/>
    <path class="cls-129" d="M634.13,546.85c-.43-.29-.24-.92-.24-1.39.07-.2.14-.2.24,0v1.39Z"/>
    <path class="cls-78" d="M630.89,451.95h-.24v-1.39c.41.29.24.92.24,1.39"/>
    <path class="cls-82" d="M241.98,452.64c-.07.2-.14.2-.24,0,0-.39-.03-.77,0-1.16h.24v1.16Z"/>
    <path class="cls-23" d="M630.65,448.94c-.4-.22-.24-.77-.24-1.16.07-.2.14-.19.24,0v1.16Z"/>
    <path class="cls-29" d="M241.75,453.8v-1.16h.24c0,.39.16.94-.24,1.16"/>
    <path class="cls-43" d="M630.65,447.78h-.24v-1.16c.4.23.24.77.24,1.16"/>
    <path class="cls-14" d="M424.39,264.91v.24c-.38-.04-.77,0-1.16,0,.23-.4.77-.24,1.16-.24"/>
    <path class="cls-113" d="M630.65,470.23c0-.39-.16-.93.24-1.16,0,.39.16.94-.24,1.16"/>
    <path class="cls-48" d="M241.98,470.93c-.39-.22-.24-.77-.24-1.16h.24c.04.39,0,.77,0,1.16"/>
    <path class="cls-8" d="M243.6,432.27c0-.39-.17-.94.24-1.16-.02.39.15.94-.24,1.16"/>
    <path class="cls-42" d="M580.42,692.69h-1.16c.2-.38.96-.38,1.16,0"/>
    <path class="cls-120" d="M634.13,545.46h-.24v-1.16c.4.23.24.77.24,1.16"/>
    <path class="cls-40" d="M242.21,444.31c0-.39-.16-.93.24-1.16.03.38.12.94-.24,1.16"/>
    <path class="cls-67" d="M242.67,439.45c.02-.4-.1-.85.24-1.16-.03.39.17.94-.24,1.16"/>
    <path class="cls-19" d="M244.29,427.64c-.08-.5.17-.76.24-1.16-.03.39.17.94-.24,1.16"/>
    <path class="cls-88" d="M243.83,430.65c-.27-.42.24-.84.24-1.16-.03.39.17.94-.24,1.16"/>
    <path class="cls-116" d="M243.37,433.89c.04-.38-.15-.93.24-1.16,0,.39.16.94-.24,1.16"/>
    <path class="cls-123" d="M633.66,539.21c-.38-.2-.38-.96,0-1.16.07.34,0,.81,0,1.16"/>
    <path class="cls-136" d="M630.19,476.71c.02-.39-.16-.94.24-1.16.05.38.11.95-.24,1.16"/>
    <path class="cls-76" d="M242.67,480.19c-.36-.22-.27-.78-.24-1.16.41.22.2.77.24,1.16"/>
    <path class="cls-81" d="M426.37,645c-29-1.3-56.85-9.52-81.85-23.85-12.04-6.9-23.24-15.06-33.74-24.09-18.21-15.64-29.47-32.43-40.54-53.51-7.21-13.72-12.76-28.11-16.2-43.28-3.5-15.45-5.28-31.27-4.84-47.16.93-33.56,12.2-67.29,30.16-95.49,12.61-19.81,28.81-36.86,48.04-50.34,10.64-7.46,21.97-13.9,33.87-19.12,22.5-9.86,48.34-14.93,72.84-15.76,8.91-.3,17.59.29,26.43,1.56,21.59,3.08,42.56,9.65,61.99,19.44,28.66,14.45,52.72,36.12,70.05,63.1,17.39,27.08,27.67,58.01,30.29,90.13,2.31,28.26-2.12,53.78-12.39,80.07-8.7,22.29-20.58,40.22-36.47,57.99-10.7,11.96-22.93,22.3-36.57,30.8-16.21,10.08-33.81,17.81-52.21,23.02-19.1,5.36-38.9,7.59-58.87,6.51"/>
    <path class="cls-91" d="M500.07,570.72c-2.02-9.51-1.88-28.68,4.58-36.43,4.24,9.5,1.52,24.79-1.67,34.3,3.53-.88,6.53-3.99,9.94-5.5-4.06-7.93-4.81-29.75.39-37.11,5.5,8.07,3.82,26.03,1.51,35.24,3.32-1.56,5.77-4.48,8.89-6.46-4.98-10.44-5.98-29.83-2.02-40.56,3.35,2.97,4.15,9.8,4.41,13.87.32,4.84.53,9.53.59,14.39.05,3.49-.33,6.75-1.11,10.13,3.62-2.27,5.69-5.62,8.9-8.55-5.6-10.79-9.43-28.76-6.19-40.6,2.09,1.68,3.3,4.01,4.06,6.57,1.59,5.34,2.6,10.7,3.42,16.26.74,5.02.81,9.84.54,14.89,1.69-1.14,2.82-2.47,3.87-3.98l4.72-6.71c-7.72-11.22-12.75-24.95-11.77-38.79,3.12,1.85,5.53,6.65,6.59,9.81l4.19,12.48c1.48,4.4,2.25,8.76,2.45,13.6,2.67-2.19,4.82-7.46,6.53-10.61-2.83-2.52-5.15-5.31-7.14-8.58-2.99-4.89-5.55-9.88-7.65-15.23-1.46-3.74-2.28-7.53-2.16-11.55,3.83,1.58,6.74,5.92,8.5,9.41l5.86,11.65c1.87,3.72,3.04,7.5,3.69,11.71,1.29-1.8,2.06-3.56,2.82-5.45l3.04-7.59c-10.18-7.76-17.7-16.95-20.78-29.48,3.62.51,7.15,3.96,9.22,6.48,4.72,5.77,9.73,12.52,12.09,19.64.5,1.5,2.28-5.57,2.4-6l1.9-7.01c-8.54-4.61-16.03-10.39-22.34-17.58-1.77-2.03-2.97-4.23-3.63-6.99,3.09.28,5.92,1.45,8.5,3.27,6.74,4.78,12.66,10.36,18.17,16.74.71-2.91,1.03-5.64,1.42-8.58-10.94-6.4-21.55-13.57-27.24-25.36-.09-.2.13-.37.37-.34,3.17.38,6,1.64,8.61,3.51,5.28,3.77,10.03,8.07,14.36,12.89l3.96,4.42c.08.08.24.17.32.03.54-3.36.58-6.66.66-10.09-7.43-2.51-14.13-6.34-19.96-11.47-2.2-1.95-5.08-5.17-5.35-8.3,10.62,1.39,17.73,8.37,24.93,15.55.13.13.39.2.39-.02l-.71-11.74c-9.58-2.32-20.81-5.67-26.66-14.52,6.39-1.12,12.94,1.62,18.27,4.89l7.64,4.68-1.35-8.59c-5.79-.62-11.16-2.44-16.34-5.06-3.68-1.87-8.7-4.21-10.2-8.28-.05-.16-.08-.29-.07-.4.02-.11.19-.21.4-.24,6.29-.96,12.78,1.88,18.13,5.06l6.64,3.95c-.62-3.79-1.78-7.11-3.04-10.64-7.2-.46-19.56-1.34-24.26-7.98,7.91-1.99,15.09,1.01,22.06,3.8l.35.14c1.19.48-2.73-7.64-3.02-8.46-7.22.94-16.32-1.43-22.86-4.54-1.67-.79-3.08-1.93-3.94-3.47-.14-.24-.22-.55-.11-.64.17-.15.46-.18.73-.23,8.64-1.49,16.08,1.94,23.78,5.1.16.07.26.1.37.09.53-.05-2.23-4.81-2.51-5.34l-2.04-3.81c-7.54,2.04-20.86.92-26.37-5.26,7.11-3.14,17.18-.51,23.82,2.53,2.04.93-4.45-7.34-4.4-7.67-5.46,1.96-18.16,2.45-22.21-2.82,5.49-2.67,14.28-1.61,19.97.55-.06-.92-.59-1.45-1.07-2l-2.94-3.39c-6.39,1.83-17.58,1.87-23.52-1.74,4.39-3.56,15.42-1.61,20.77-.53.17.03.44.1.44,0,.04-.91-5.53-6.15-6.71-7.11-6.28,3.28-16.06,5.02-22.88,2.73,1.82-3.47,7.66-4.51,10.97-4.6l8.51-.25c2.14-.06-4.27-4.2-4.6-4.79-5.29,4.1-15.83,5.19-21.87,3.15-.35-.12-.03-.52.13-.71,3.33-3.64,10.55-4.24,15.23-4.07l3.48.13c1.48.06-2.99-2.98-3.31-3.2l-4.4-2.99c-6.38,3.52-14.54,7.01-21.81,5.12,3.7-5.04,12.79-5.93,18.38-6.46,2.09-.2-5.14-3.15-5.26-3.84-5.35,4.68-13.44,6.75-20.4,5.98-.24-.03-.44-.06-.54-.21-.08-.12.11-.32.27-.49,4.3-4.73,12.14-5.35,18.14-6.08-1.78-1.33-3.66-1.89-5.52-2.67-5.01,3.13-12.34,5.32-18.25,3.78,2.34-4.39,10.08-4.46,14.27-5.26-3.58-1.79-7.03-2.67-10.92-3.08-.36-.36,1.46-1.24,1.76-1.35,2.21-.82,4.55-.42,6.76.33l.37.12c.07.03.25.05.28-.03.04-.15-.12-.35-.21-.49l-1.88-2.75c-1.64-2.39-2.16-5.29-1.48-8.28,4.62,3.62,6.34,7.96,8.12,13.11l6.64,2.95-3.2-7.19c-1.1-2.48-1.86-8.75-1.04-9.1.15-.07.4.18.58.32,5.02,3.98,6.78,11.59,7.01,17.63.09.04.29.13.36.17l6.49,3.53c.13.07.24.1.36.13.09.03.18.08.16-.08,0-.15-.09-.28-.18-.45-2.56-5.46-5.65-12.01-4.1-18.26,5.44,4.79,7.75,14.11,6.97,20.82.46.27.38.2.71.37l.31.16.29.16,3.1,1.96.28.18.28.18.3.19.29.18c.26.16,1.34.85,1.24.48l-1.3-4.84c-1.1-4.08-2.58-10.83-.13-14.41.09-.13.34-.06.54.16,4.42,5.1,5.12,14.7,3.79,21.12.6,1.03,1.38,1.77,2.27,2.45l3.15,2.4c.12.09.2.14.29.13.39-.05-.11-5.03-.18-5.87-.34-4.1-.92-10.44,2.08-13.64,1.22,1.34,1.93,2.91,2.35,4.7,1.23,5.33,1.09,11.01-.5,16.25-.34,1.09-.47,1.49.34,2.46,1.57,1.89,3.45,3.59,5.37,5.29.18.26.34.14.29-.17-1.1-5.87-2.51-15.52.49-20.91,5.33,4.9,5.13,18.45,3.15,24.95.92,2.09,2.62,3.73,4.2,5.55l.33.39c.14.16.27-.03.25-.31l-.4-9.5c-.14-3.26.27-10.39,2.53-13.1,3.99,2.48,3.7,12.64,3.57,16.75-.12,3.78-.66,7.35-1.72,11-.37,1.28,1.99,3.71,2.74,5.26.07.16.24.29.29.19.07-.13.09-.25.12-.44l1.1-9.12c.5-4.16,1.41-9.39,4.64-12.26,1.3-1.15,4.67,12.99-2.2,26.21-.42.81-.59,1.07-.08,1.92,1.45,2.47,2.74,4.96,3.99,7.66l1.07-8.22c.57-4.42,1.83-10.99,5.58-13.97,3.63,5.85.61,21.98-4.85,26.07,1.51,3.57,2.98,6.89,4.11,10.71l1.17-10.13c.58-4.99,1.89-11.25,5.47-14.89.12-.12.23-.18.28-.13.14.1.2.27.25.45,2.29,9.02.04,22.24-5.39,29.93l1.76,6c2.94-6.53,4.91-15.38,11.77-18.82,1.1,9.4-4.03,17.71-10.07,24.23-.44.47-.23,1.07-.13,1.67l.06.4.07.43,1.19,6.9.08.33c.03.29.24.56.34.24l3.73-8.64c1.95-4.53,5.99-10.68,10.66-13.09.85,2.67.53,5.44-.5,8.07-1.8,4.54-4.02,8.84-6.64,12.96-1.79,2.84-4.05,5.11-7.07,6.72.61,3.71.58,7.23.78,11.29,1.39-2.92,2.8-5.74,4.7-8.48,1.86-2.67,3.63-5.24,5.68-7.75,1.78-2.2,3.94-3.95,6.68-4.67.19-.04.29-.04.35-.04.13,0,.18.13.16.34-.58,6.94-4.06,12.68-8.61,17.77-1.95,2.17-3.78,4.35-5.92,6.29-.41.37-3.76,1.68-2.99,1.05-.13.11-.15.3-.15.56.06,3.68-.45,7.2-.65,10.9,0,.15.02.4-.02.53-.03.12.13.51.25.28l.29-.6c.05-.09.12-.19.18-.28l5.33-8.8c3.41-5.6,8.27-11.02,14.2-13.99.15-.07.57-.19.56.13-.17,2.98-.99,5.75-2.51,8.38-4.26,7.43-9.65,14.03-15.96,19.82-.93.86-2.15,1.13-3.37,1.38-.09,3.25-1.02,5.38-1.3,8.71l7.38-8.28c4.15-4.67,9.21-9.26,15.39-10.79.22-.05.45-.14.55-.08.21.12.14.49.09.77-.57,2.94-2.09,5.46-4.06,7.75-3.08,3.58-6.35,6.83-9.71,10.16-2.94,2.93-7.06,5.87-11.2,6.63l-2.09,7.32c2.97-2,5.31-4.19,7.91-6.34,5.77-4.79,11.08-8.92,18.54-10.84.26-.07.52-.17.75-.08.22.08.16.37.05.66-1.15,3.13-3.12,5.73-5.62,8.02-4.11,3.78-8.44,7.11-13.04,10.32-3.6,2.53-7.32,4.51-11.32,6.2-.45.67-.78,1.29-1.08,1.98l-2.06,4.93c-.08.2-.17.41.02.4.21,0,.4-.14.59-.26l9.27-5.84c6.46-4.08,12.88-7.08,20.54-8.12.13-.02.44.04.39.18-1.24,3.53-4.84,6.64-8.07,8.58-4.52,2.71-8.99,5.22-13.67,7.64-3.32,1.72-6.68,2.98-10.33,3.77-1.3.29-1.4.03-2.2,1.02l-.22.27-.22.27c-1.43,1.78-2.15,3.91-3.37,5.84l-.19.3-.19.29c-.09.14-.15.26-.24.39-.12.16-.08.34.13.32l8.82-3.81c7.54-3.26,14.95-5.79,23.26-5.05.2.02.49.09.5.25,0,.13-.16.34-.29.5-3.96,5.06-11.35,6.96-17.34,9.25-5.24,2-11.7,4.22-17.28,4.49-1.96.09-1.82.25-3.12,1.95-1.87,2.42-3.69,4.74-5.55,7.18l-.24.31c-.08.11-.05.16.07.17.14.02.24,0,.4-.06l8.91-3.36c7.54-2.84,16.55-4.96,24.54-3.57-1.81,2.68-5.81,4.74-8.61,5.86-5.11,2.03-19.5,6.48-24.46,6.26l-3.96-.19c-1.6-.07-2.94.87-3.94,2.09l-3.35,4.1-.56.58c-.98,1.01-.4.08-.67.63,9.72-2.4,19.51-3.97,29.56-3.89,2.47.03,4.72.42,6.81,1.51,1.76.92-3.74,3.38-5.44,3.78-10.69,2.56-24.9,4.72-35.77,2.85-2.44,1.4-4.54,3.09-6.53,5.11,10.41-1.09,27.55-2.45,36.49,2.33.14.08.16.18.13.23-.08.1-.22.25-.36.34-7.28,4.23-23.4,3.57-31.77,2.95-3.67-.27-7.11-.98-10.54-1.95-2.59,1.13-3.89,2.67-5.96,3.36.33.2.47.17.61.18l.38.03,11.22.42.4.03.38.02.4.02h.47c7.17.15,17.25,1.11,23.61,4.43.34.18.67.35.77.51.07.13-.13.29-.34.43-3.24,1.99-7.95,2.39-11.77,2.3-9.76-.24-22.42-.87-31.46-4.4-1.12-.43-1.79-.22-2.95.38-.57.29-3.1,1.47-3.42,1.46-.18,0-.5.18-.24.26.61.19,4.41.76,5.47.89l8.64,1.1c2.76.35,5.35.99,8.04,1.68,3.52.89,7.59,2.25,9.87,5.19.13.18.18.35.09.41-.15.1-.34.14-.55.17l-.44.07-.43.06-.4.05-.4.06c-8.04,1.24-16.19.21-24.03-1.97l-.4-.11-.37-.1c-4.3-1.2-8.38-2.73-12.34-4.76-.52.17-.38.09-.8.25l-.34.13-.34.13-.34.12-.35.13-.34.12-.32.12-.32.12-.33.12-.35.12-.35.12-.36.11-.37.12-.37.11-.34.09-1.35.34c-.15.03-.27.08-.32.14-.08.11.52.24.5.24l12.32,2.05c6.92,1.15,15.15,3.14,20.6,7.62.24.19.48.35.46.62-.06,1.03-2.62,1.47-3.97,1.44-12.08-.32-25.28-3.57-35.56-9.72l-12.46,1.82c-.61.21-.19.4.27.34,12.18,2.94,21.12,2.56,31.83,9.89l6.71,4.59c1.14.78,2.46,1.17,3.54,2.05,1.2.98,1.42,2.57.69,3.96-.6,1.12-1.63,1.9-2.82,2.46-4.01,1.89-9.58,1.98-13.89,1.08-6.11-1.3-3.54-3.99-9.97-8.54l-.29-.2c-7.69-5.45-17.22-7.34-26.42-9.01-.4-.08-.79-.08-1.08-.2-.35-.14-.34-.57-.34-1l.07-6.48-.03-4.36,13.53-1.79.4-.06.43-.05.42-.04c3.13-.32,6.2-.82,9.16-1.6.02-.8.03-.49.05-.98l.02-.39.02-.44.03-.46.03-.47.03-.5c.44-7.56,1.39-15.02,3.91-22.13l.13-.37.12-.34.12-.34.13-.35.13-.35.13-.35.13-.33.13-.33c.98-2.56,2.15-4.92,3.64-7.22l.19-.29.18-.28.19-.28.19-.27.19-.28.19-.27.19-.27c.07-.09.12-.17.2-.25.82-.78,1.51,1.91,1.6,2.26l.12.44c2.34,9.24-2.51,19.39-6.11,28.54l-.14.37-.13.34-.12.31-.12.32-.13.34-1.25,3.25c-.39.99,9.5-2.47,10.55-3.06-1.32-10.6-.04-27.55,6.3-36.41.11-.16.25-.26.34-.29.61-.22,1.35,1.01,1.54,1.96,1.5,7.55-.1,16.5-2.24,23.88l-2.72,9.43c3.36-.72,5.81-2.54,9.24-3.8"/>
    <path class="cls-91" d="M393.61,329.72c.45-.07,1.19.31,1.39.72.03.02.4.18.41.32,0,.08-.12.18-.26.23l-.36.11-.93.26-8.28,2.4c-.34.09-.79.29-.22.36l1.44.3.38.08.4.08.4.08.4.07.38.08.39.07.39.07.4.07.41.07c2.75.44,6.89,1.32,8.6,3.66.14.19.5.61.36.78-.12.15-.56.18-.77.22-5.37.92-11.61-.51-16.16-3.38-.7-.45-1.12-.76-1.97-.37l-4.35,2.01c-.24.11-.08.18.17.26l6.87,1.26c3.52.65,9.08,2.26,11.1,5.57-6.64,1.05-15.93-.9-20.78-5.87l-6.03,3.37c5.84,1.4,14.36,1.76,18.68,6.44.21.22-.08.34-.29.4-6.8,2.07-15.09-1.46-21-5.01-3.13,1.51-5.75,3.78-8.67,5.92-.4.05-.11.27.23.24,5.67-.37,15.21-.4,19.52,4.19-5.32,2.94-17.22,1.41-21.87-2.7-1.25.61-4.94,3.77-5.54,4.55-.07.08-.03.24.25.25l8.79.24c3.31.09,9.24,1.13,11.08,4.63-6.7,2.17-16.63.71-22.56-2.74-1.32.77-2.39,1.7-3.41,2.8l-3.68,3.97c-.13.19-.08.27,0,.29.59.18,13.53-3.28,20.93,0,.19.08.25.23.2.29-.68.94-3.76,2.06-5.21,2.39-5.96,1.35-12.1,1.09-17.96-.36-1.81,1.49-2.97,3.19-4.31,4.97-.19.3-.1.42.27.27,5.24-1.87,15.1-3.17,19.73-.3-4.31,5.19-16.67,4.66-21.91,2.72-.91.9-5.53,7.32-4.94,7.62.24.12,13.85-6.61,23.76-2.64.13.05.18.21.24.32-5.68,5.9-18.27,7.16-25.93,5.09-1.1,1.33-1.84,2.7-2.62,4.17l-2.14,4.09c-.08.14-.2.31-.18.42.03.14.25.17.44.1l8.89-3.17c4.62-1.65,10.83-2.87,15.75-1.45-.73,1.93-2.3,3.2-4.12,4.09-6.42,3.14-15.51,5.48-22.62,4.59-.89,1.11-1.43,2.26-1.92,3.51l-1.61,4.19c-.05.13-.14.32-.11.4.04.08.24.11.38.06l7.43-2.49c4.36-1.46,10.39-2.65,14.9-1.14-5.18,6.61-16.63,7.8-24.25,7.63-.33,1.03-3.41,10.46-2.94,10.55.09.02.24-.02.37-.08l7.23-4.01c5.37-2.97,10.86-5.26,17.4-4.75.12,3.97-6.15,7.07-9.31,8.72-5.37,2.8-10.96,4.77-16.94,5.53-.58.98-1.67,8.05-1.54,8.12.36.19,6.59-3.64,7.61-4.23,5.53-3.22,11.62-6.18,18.18-4.89-5.73,8.81-16.98,12.04-26.31,14.53-.42,1.46-.6,2.83-.67,4.28l-.35,7.01c0,.21.18.32.24.26.07-.08.18-.17.26-.24l3.87-3.53c5.87-5.37,12.47-10.71,20.87-11.61.04,2.94-2.94,6.15-4.96,7.84-2.94,2.48-5.91,4.72-9.13,6.83-3.46,2.28-7.14,3.86-11.15,4.78-.19,3.89.5,6.48.38,10.31,1.42-.86,2.41-1.87,3.46-2.96l6.83-7.06c2.65-2.75,5.55-5.07,8.67-7.25,2.62-1.82,5.46-3.08,8.63-3.44.19-.02.41.08.35.23-5.83,11.64-15.74,19.14-27.24,25.07-.08,1.1.98,8.24,1.37,8.48.13.08.36-.14.49-.28l8.18-8.22c4.81-4.84,10.75-9.47,17.53-10.95.22-.05.35-.03.37.06.24,1.43-2.41,5.63-3.8,7.18-5.8,6.51-13.88,13.31-22.1,16.95l3.82,13.77c3.63-8.55,8.69-15.89,15.1-22.3,1.67-1.66,3.33-4.45,6.16-4.37.16,0,.31.04.38.11.1.09.14.26.08.47-3.39,12.23-10.28,21.42-20.67,28.64.72,2.35,1.53,4.38,2.46,6.51l2.83,6.47c.06.13.21.26.24.21.05-.08.13-.25.16-.39,1.61-7.1,4.79-13.04,8.03-19.46,2.42-4.78,4.79-10.03,9.85-12.61.26-.13.4.02.39.34-.03,4.25-.98,8.26-2.64,12.18-2.16,5.13-4.59,9.99-7.54,14.71-1.85,2.97-4,5.49-6.84,7.66,1.67,4.08,3.74,7.86,6.53,11.33.15-4.47.71-8.54,2.05-12.64l3.31-10.12c1.54-4.72,3.37-10.12,7.38-13.21.21-.17.4-.29.54-.05.05.09.09.24.13.43,1.43,7.25-1.41,14.07-3.67,20.87-1.92,5.79-3.73,12.83-8.28,16.95,2.42,4.15,5.12,7.88,8.59,11.28-.8-9.85,1.28-22.39,3.99-31.49.76-2.53,1.94-4.84,4.05-6.53,3.12,12.16-.44,29.65-6.2,40.28.87,1.42,8,8.75,8.44,8.7.14-.02.14-.28.11-.45l-.08-.42c-.76-3.91-.77-7.83-.6-11.85l.51-11.57c.17-3.92,1.19-11.41,4.43-13.89,3.68,10.46,3.29,30.82-2.08,40.47,1.73,2.58,5.81,3.91,8.23,6.1.16.13.31-.03.26-.25l-.14-.64c-1.91-8.59-2.88-17.67-.87-26.22l.11-.45c.57-2.43,1.08-4.78,2.28-6.95.03-.04.19-.34.34-.24,5.8,4.01,3.59,29.56,2.67,31.57l-.19.4c-.46,1.02-.56,2.11-1.04,3.13l-.14.3-.16.31-.18.32-.18.3-.18.4c3.07,2.28,6.37,4.26,9.92,6.14-3.08-9.75-5.96-25.28-1.62-34.59,4.83,5.23,5.66,17.64,5.85,24.34.12,4.05-.24,7.88-1.34,11.77,1.32.86,2.55,1.48,3.89,2.04l5.35,2.25c-3.45-10.88-7-24.1-3.86-35.05.04-.17.09-.36.18-.38.09-.02.31.03.45.14,1.63,1.35,2.73,3.2,3.41,5.35,2.83,8.91,4.72,21.5,3.08,30.79,1.08.94,2.41,1.5,3.81,1.9l5.74,1.66c.21.07.42.22.61.13.15-.08.08-.34,0-.55l-4.61-14.34c-1.16-3.62-4.76-18.94-1.77-21.72,2.92,1.79,4.57,5.95,5.42,9.04l3.22,11.59c1.53,5.53,2.27,11.06,2.12,16.84,3.53,1.1,6.97,1.72,10.61,2.12l12.28,1.38v11.84c0,.29-.34.38-.54.42-9.34,1.9-19.6,4.01-27.21,9.87-4.99,3.85-4.05,6.69-8.63,7.82-4.25,1.05-8.72,1.01-12.93-.26-1.53-.46-2.93-1.19-3.93-2.35-1.4-1.6-1.1-3.87.69-5.05l7.78-5.13c5.95-3.93,12.08-6.96,19.12-8.21l15.48-2.73c-2.28-.66-4.33-.88-6.58-1.27l-6.13-1.08c-10.42,6.11-23.49,9.38-35.48,9.77-.83.03-5.1-.34-4.11-1.69,2.57-3.55,7.8-4.65,11.83-5.8,7.24-2.08,14.46-3.49,21.95-4.07-.5-.74-1.21-.74-1.83-.94-1.79-.57-3.49-.95-5.25-1.82-11.82,5.66-26.47,8.75-39.54,6.62-.23-.04-.22-.29-.09-.45,1.61-1.98,3.81-3.29,6.32-4.15,5.45-1.86,11.03-2.9,16.76-3.51l8.44-.89.39-.03c.45-.07.49-.34.03-.41-.13-.07-.22-.13-.32-.18l-4.25-1.94c-.09-.04-.24-.12-.36-.31-10.11,3.83-24.82,4.99-35.65,4.68-3.15-.08-6.09-.62-8.9-1.83-.19-.08-.6-.28-.58-.45.02-.18.41-.34.58-.44,5.53-3.35,12.97-4.26,19.35-4.67,6.04-.39,11.93-.32,17.99-.4.16,0,.34-.05.4-.08.05-.03-.07-.19-.19-.26l-5.16-3.2c-.65-.4-1.16-.12-1.92.03-8.9,1.72-17.86,2.36-26.92,1.81-4.24-.26-11.04-1.18-14.69-3.25,1.95-1.68,4.14-2.5,6.6-2.88,9.81-1.51,19.7-1.23,29.55.07.29.04.47.09.41-.24-1.87-1.93-4.05-3.47-6.23-4.86-12.93,1.36-29.74.49-41.2-5.53-1.77-.94,3.03-2.56,5.44-2.58,10.33-.1,20.5,1.21,30.54,3.83-.92-2.24-4.87-5.29-6.76-7.17-4.69,0-9.16-.4-13.77-1.44-5.84-1.31-11.46-2.92-16.95-5.21-2.95-1.23-5.59-2.79-7.77-5.47,7.38-1.4,17.15.66,24.14,3.38l9.34,3.64c.77.29-.26-1.06-.39-1.24l-.2-.27c-1.71-2.3-3.67-4.38-5.16-6.84-.47-.78-.66-1.19-1.62-1.23-4.71-.19-9.25-1.24-13.7-2.89l-13.37-4.96c-2.77-1.03-7.51-3.76-9.03-6.64,8.86-.97,16.4,1.75,24.21,5.09,2.89,1.24,5.57,2.69,8.58,3.77-1.3-3.29-3.14-5.69-4.76-8.52-11.38-2.34-22.26-8.71-31.3-15.82-1.47-1.16-2.57-2.77-2.67-4.64,12.97,1.81,20.52,7.83,30.66,14.54.15.1.34.21.34.12,0-1.21-2.49-5.75-2.95-7.72-3.99-1.48-7.64-3.39-11.19-5.86-4.83-3.36-9.39-6.85-13.69-10.83-2.51-2.32-4.46-5-5.53-8.15-.06-.19,0-.38.07-.42.05-.03.18,0,.33.03,4.47,1.15,8.52,3.12,12.35,5.71,5.52,3.73,9.38,7.81,14.74,11.99l-1.9-7.36c-7.86-2-17.21-11.75-22.03-18.11-1.71-2.25-2.94-4.68-3.31-7.59,6.82,1.34,13,7.11,17.22,12.14l6.24,7.45c-.11-3.24-1.18-5.58-1.3-8.86l-2.86-1.18c-6.52-5.88-12.07-12.64-16.45-20.23-1.56-2.72-2.45-5.54-2.54-8.8,8.02,2.29,17.11,16.6,20.44,24.01.77-3.64-.63-8.21-.36-12.15-.96-.55-2.27-.51-3.04-1.24-2.27-2.14-4.28-4.44-6.35-6.8-4.28-4.9-7.91-10.85-8.22-17.7,2.88.53,5.11,2.26,6.91,4.44,2.47,3,4.64,6.11,6.85,9.33,1.61,2.36,2.67,4.83,3.57,7.5.8-3.99.12-7.26,1.01-11.23-5.52-3.15-8.59-9.59-11.37-15.15-1.88-3.77-4.55-8.48-2.85-12.96,7.82,4.7,11.33,13.72,14.23,22.05,1.51-2.39,1.3-6.74,2.06-9.61-5.79-6.95-11.62-15.08-10.36-24.92,6.8,3.73,9.23,12.21,11.43,18.91,1.17-1.25,1.24-4.06,2.04-5.81-5.15-7.86-7.96-21.76-5.13-30.8,5.98,5.9,6.17,17.94,6.58,25.5,1.89-3.78,2.49-7.02,4.47-10.62-5.8-5.5-7.86-18.83-5.18-26.35,6.07,4.34,6.07,15.47,6.64,22.42,1.91-2.91,2.79-5.69,4.76-8.56-3.89-7.18-6.62-19.86-3.08-27.74,3.93,3.04,4.94,10.31,5.34,14.88l.66,7.5c1.46-1.65,2.35-3.34,3.36-5.1-1.76-6.82-3.62-22.88,1.44-28.39,2.97,2.81,2.99,10.45,2.83,14.24l-.36,8.52c1.52-.71,3.71-4.17,4.74-5.48-1.86-6.61-2.26-20.24,3.17-25.3,2.99,5.49,1.61,15.14.43,21.08,1.39-.61,2.3-1.61,3.22-2.61l3.25-3.51c-2.23-5.72-2.61-17.46,1.13-22.56,3.23,2.91,2.91,9.3,2.47,13.18l-.7,6.19c1.08-.13,1.93-.7,2.69-1.38l3.46-3.15c-1.51-6.59-.39-16.5,3.89-21.85,1.21.74,1.76,1.94,1.8,3.3.19,5.62-.98,11.05-3.15,16.42,2.92-.74,3.92-2.99,7.17-3.78-.93-6.76,1.59-16.49,6.98-21.07,1.51,6.72-1.73,13.03-4.38,18.86,2.95-1.16,4.37-2.7,7.5-3.71.04-6.24,2.11-14.55,7.59-18.28,1.07,5.96-1.73,11.04-4.38,16.16,1.93,0,4.05-2,6.55-2.41,1.6-4.53,3.62-9.59,7.53-12.67.77,4.29-.13,7.56-3.01,10.81,2.59-.61,4.7-1.1,6.94-.56"/>
    <path class="cls-128" d="M441.21,545.12c.51,2.46-1.29,7.8-4.44,7.97-3.31.19-5.11-5.26-4.82-7.98,2.11-1.71,1.72-7.11,1.21-9.55-.57-2.77-1.49.3-1.39-5.68-16.62-1.04-32.29-7.48-44.88-18.42-1.03.65-1.59,1.83-2.59,2.33-2.52-.52-8.8,5.71-8.18,8.23-1.75,2.05-6.57,4.49-8.86,2.4-2.4-2.19-.03-7.21,2.16-8.95,2.82-.05,6.09-3.59,7.58-5.82,1.67-2.51-1.12-1.09,3.01-5-11.07-12.49-17.66-28.15-18.73-44.82-1.31-.29-2.61.28-3.64-.23-1.68-2.09-10.08-2.11-11.59.06-2.7.28-7.91-1.44-7.97-4.61-.05-3.29,5.37-5.11,7.98-4.68,1.88,1.99,6.92,1.68,9.4,1.19,2.89-.56-.07-1.56,5.81-1.38,1.07-16.59,7.57-32.29,18.75-44.87l-2.41-2.77c.45-2.58-5.68-8.8-8.26-8.19-2.07-1.79-4.58-6.74-2.31-8.97,2.27-2.22,7.19.13,8.87,2.29.04,2.82,3.64,6.11,5.86,7.59,2.41,1.6,1.06-1.12,5.19,3.19,12.54-10.86,28.17-17.3,44.79-18.35-.06-5.79.76-2.69,1.35-5.33.58-2.56.93-7.9-1.16-9.74-.29-2.68,1.43-7.91,4.6-7.96,3.28-.06,5.16,5.45,4.65,7.96-1.92,2-1.67,6.88-1.16,9.41.59,2.93,1.51-.04,1.4,5.65,16.56,1.06,32.23,7.43,44.86,18.38,1.02-.48,1.48-1.79,2.51-2.16.61-.22,1.33-.06,1.99-.46,2.17-1.33,6.51-5.04,6.16-7.8,1.76-2.08,6.78-4.63,9-2.3,2.19,2.3-.14,7.06-2.3,8.88-2.73-.09-6.02,3.52-7.5,5.66-.61.87-.56,1.76-.87,2.67-.32.97-1.61,1.43-2.06,2.36,11.07,12.47,17.64,28.09,18.73,44.73.83.4,1.88-.21,2.62.21.72.41,1.24,1.03,2.17,1.22,2.49.54,7.85.87,9.56-1.23,2.67-.23,7.83,1.4,7.96,4.58.13,3.28-5.17,5.04-7.94,4.79-1.84-2.09-7.12-1.77-9.71-1.19-2.61.6.1,1.37-4.66,1.37-1.08,16.72-7.68,32.42-18.86,44.96.42.96,1.7,1.37,1.98,2.31.28.88.25,1.71.78,2.51,1.46,2.24,4.77,5.79,7.58,5.86,2.15,1.66,4.48,6.54,2.3,8.83-2.2,2.3-7.16-.22-8.99-2.27.35-2.78-3.92-6.45-6.11-7.82-.71-.44-1.52-.22-2.12-.5-.94-.44-1.4-1.55-2.35-2.12-12.53,10.82-28.1,17.22-44.67,18.27-.41,1.12.24,2.44-.25,3.52-.35.78-1,1.34-1.19,2.27-.51,2.52-.78,7.47,1.15,9.44"/>
    <path class="cls-92" d="M415.1,440.37c-.07,1.05-.46,2.09-1.18,3.12,0,0-.52,1.29-1.56,3.87-.15,1.12-.53,2.05-1.14,2.79l-39.83.04c1.03-14.17,6.53-27.3,15.69-37.97l6.5,6.58,21.51,21.57Z"/>
    <path class="cls-92" d="M463.76,450.14c-.66-.88-1.1-1.95-1.32-3.21-1.4-3.2-2.11-4.81-2.11-4.81-.73-.94-1.14-1.92-1.23-2.93l21.12-20.98,6-5.93c9.17,10.71,14.62,23.92,15.62,37.88l-38.08-.02Z"/>
    <path class="cls-92" d="M452.18,432.68h-.79c-2.14-1.28-4.43-2.27-6.86-2.95l-.5-.66-.47-.34c-.12-4.91-.14-9.82-.08-14.73,8.87-5.49,7.96-18.35-1.67-22.36l-.38-.64c-.03-.4-.14-.82.13-1.35,13.96,1.08,27.14,6.5,37.84,15.8l-27.22,27.21Z"/>
    <path class="cls-92" d="M431.83,391.49c-.15.54-.6.98-1.33,1.31-.79.87-1.67,1.43-2.64,1.7l-.4.45c-3.71.04-5.99,2.99-6.29,6.52-1.35.28-2.18.95-2.48,2.04.09.64.12,1.28.09,1.92-1.69.98-2.21,2.17-1.57,3.57.51.53.64.99.36,1.4-2.03.92-2.27,2.88-.56,4.3l.09.37c-1.53,1.1-2.91,2.6-1.1,4.26.91.49,1.16.99.75,1.52-2.55,1.83-.84,3.83,1.31,5.02.09.47-.11.98-.61,1.55-.08.59-.3.94-.65,1.09l-16.97-16.99-5.95-6.11c10.71-9.26,23.88-14.68,37.86-15.73.16.73.05,1.28.08,1.82"/>
    <path class="cls-92" d="M488.06,459.78l.29.72c-.9,5.32-5.49,9.54-10.19,11.5l7.48.28c.59.29.64.43.49,1.09-.47,1.98-3.09,5.85-4.4,7.59-1.25,1.67-3.83,4.78-5.56,5.76-.32.19-.69.24-1.06.24l-.45.21c-5.29-5.31-10.58-10.61-15.87-15.93l.13-.53.08-.95c1.87-2.82,3.34-5.91,4.1-9.22l.63-.76h24.32Z"/>
    <path class="cls-92" d="M411.2,459.79c.62.73,1.03,1.67,1.19,2.78,0,0,.56,1.35,1.66,4.03.69.98,1.06,1.97,1.11,2.98l.13.53-16.2,16.23-.53-.13c-.37,0-.73-.08-1.05-.28-1.67-1.05-4.12-4.24-5.31-5.94-1.08-1.54-3.31-4.96-3.68-6.65-.12-.56-.11-.82.38-1.1l7.65-.24c-4.95-2.05-8.85-6.06-10.22-11.44l.29-.77h24.57Z"/>
    <path class="cls-92" d="M384.84,459.79l.38.96c-1.41,10.69.5,21.55,6.51,30.66l.28,1.25-5.03,4.99c-9.18-10.76-14.56-23.85-15.58-37.85h13.45Z"/>
    <path class="cls-92" d="M481.85,493.68l.31-1.24c6.53-9.23,8.76-20.45,7.26-31.55,0,0,.12-.37.35-1.1h12.08c-1,14.07-6.53,27.41-15.78,38.07l-4.22-4.18Z"/>
    <path class="cls-153" d="M489.78,459.78c.32,2.99.58,5.9.53,9.09-.14,9.09-3.15,17.56-8.45,24.8-1.82,2.5-4.18,5.08-6.51,7.12-.08.23-.18.45-.29.66-.12.2-.24.4-.4.54-4.49,3.84-10.69,7.39-15.95,9.91h-.5c-.37.24-.76.5-1.16.78-1.39-.08-2.13.44-2.24,1.52l-.34.02-.6-.31c-1.02.49-2.04.8-3.08.93-.24.51-.85.72-1.35.47-.27.66-2.03,1.19-2.66.87-.94.49-1.81,1.08-2.61,1.76l-.56-.25c-.81.72-1.56,1.47-2.27,2.29-1.51,1.86-2.49,4.15-2.93,6.64l-.76,4.34c-.05.26-.22.39-.45.39-.45.02-1.08-8.12-2.63-8.84-.17-.68,1.27-1.02,1.56-.4l.36.29.78,2.55c1.47-4.37,3.38-8.01,7.89-9.82,13.89-4.73,27.76-11.28,36.37-23.67,5.84-8.4,8.22-18.33,7.03-28.47-1.39,3.26-3.59,6.1-6.54,8.08l5,.24c.61.22.71.36.61,1.02-.37,2.19-3.41,6.96-4.82,8.88-7.43,10.2-20.58,16.53-32.98,12.67-2.69-.84-6.88-2.72-6.52-5.98v-5.1c-.17-.74-.15-1.38.06-1.91.4-.08.8-.34,1.35-.35l.31.03c.25,2.85.32,5.73.19,8.63,2.38,2.02,5.36,3.16,8.43,3.59.88.39,1.47.45,1.76.19.37-.29.67-.05.97.24l.52-.34c1.49.28,3.02.09,4.47-.25l.55.34c.5-.48.82-.5.96-.07.28-.4.71-.62,1.29-.69.89-.57,1.67-.71,2.35-.4l.47-.59c2.69-.93,5.16-2.36,7.38-4.26l.76.02c4.71-3.51,8.36-8.49,10.78-14.21l-9.57-.35,4.63-2.39c3.85-1.98,6.07-6.12,7.11-10.23l1.06-4.18c.31,1.56.51,2.85.66,4.18"/>
    <path class="cls-13" d="M415.05,510.72c.29-.6,2.04.54,2.3.87.14,1.56.78,2.46,1.93,2.68,1.1-.18,1.76.03,1.97.64-.08,2.48,1.87,2.67,3.83,2.14.6-.19,1.28,1.59,1.4,2.14l-.24.5c-11.97-1.93-23.27-7.17-32.43-15.21l4.64-4.42,1.19.4c4.49,3.67,9.48,6.68,14.62,9.34l.81.92Z"/>
    <path class="cls-13" d="M447.11,519.55c-.65-.09-.71-.55-.28-1.04,2.26.27,3.63-.34,4.1-1.83-.3-.95.33-1.32,1.89-1.11,1.71-.19,2.04-1.18,2.46-2.64,1.18-.08,2.04-.19,2.92-1.01.12-.55.81-.73,1.34-1,5.62-2.85,11.09-5.98,15.79-10.12l3.93,3.88c-9.11,7.78-20.34,13.26-32.16,14.88"/>
    <path class="cls-153" d="M386.63,459.8c.89,4.15,3.47,7.91,7.13,10.27l4.71,2.39-9.71.25c2.16,5.29,5.53,10,9.81,13.51l.77.03c2.19,1.81,4.47,3.62,7.21,4.5l.46.61c.67-.13,1.41.03,2.22.47.95.09,1.66.4,2.1.92,0,.34-.08.78.06,1.11-.18.08-.35.16-.54.2-.19.04-.35.08-.5.04-7.85-1.76-14.81-7.38-19.25-13.95-1.19-1.77-3.71-5.82-4.07-7.76-.11-.58-.06-.82.46-1.07l5.24-.19c-3.03-1.98-5.31-4.91-6.69-8.23-2.56,19.99,10.09,37.63,27.81,45.78l.54-.02c-.03.76.15,1.49.66,2.06-5.64-3.27-11.68-6.27-16.61-10.66-2.29-2.04-4.71-4.86-6.43-7.38-5.13-7.52-7.84-16.22-7.68-25.41.05-2.66.29-5,.51-7.47.11-1.28.43-2.53.64-3.87.4,1.38.87,2.61,1.14,3.88"/>
    <path class="cls-153" d="M441.45,391.01c4.63,1.63,7.97,5.82,8.56,10.5.65,5.2-1.72,10-6.16,12.72l.19,14.84c-.28-.09-.68-.24-1.09-.29l-.46-.22c-.08-5.06-.05-10.12.08-15.17,14.36-8.96.71-28.98-12.73-18.75l-.54.03c-.46-.14-.94-.14-1.42-.17,1.2-1.04,2.44-2.41,3.97-3.01,3.04-1.2,6.48-1.58,9.61-.48"/>
    <path class="cls-115" d="M458.21,511.91c-.25,1.18-1.55,1.32-2.83,1.09-.04.74,0,1.51-.52,2.02-.96.92-2.28,1.06-3.62.87.24.98-.04,1.81-.86,2.32-.99.62-2.09.74-3.35.6-.1.27.05.51.08.73-.22.03-.48.15-.71.19-1.4-.61-2.09-.92-2.09-.92-.39.58-1,1.04-1.83,1.37-.19,0-.37.1-.61.08-.17-.02-.5-.03-.34-.34.61-.82,1.28-1.61,2.09-2.23,1.08-.42,1.91-1.53,3.16-1.51.04.45-.14.87-.56,1.26,1.13.44,5.37.18,3.25-1.57l-.03-.56c.3-.35.88-.61,1.35-.47.91-.03,1.8-.14,2.67-.33.34-.34.67-.45,1-.29.19-.27.09-.81.29-1.03.65-.77,1.91-.48,2.56-1.03l.56-.46c.14-.13.32-.04.33.22"/>
    <path class="cls-106" d="M446.4,519.74c-1.3.24-2.61.45-3.92.45.44-.65,1.01-1.18,1.63-1.85.98.04,2,.51,2.29,1.4"/>
    <path class="cls-71" d="M443.62,517.69c-.63.8-1.34,1.56-2.09,2.23-.04.03-.13.03-.18.06.71-.88,1.15-1.85,2.27-2.29"/>
    <path class="cls-128" d="M475.1,486.96c-2.61,1.93-5.28,4.12-8.6,4.83l-.69-.03c-1.98-1.82-3.88-3.74-5.67-5.76-.97-.55-1.62-1.31-1.96-2.3-.43.56-1.61-.66-1.21-1.22-.67-.22-1.05-.6-1.14-1.14-.36.29-.61.07-.76-.66l-.34-.49c-.39.25-.52.12-.26-.26-1.24-.4-1.93-1.09-2.07-2.05-.64.1-.78-.11-.45-.66,2.51-1.81,5.09-3.8,6.96-6.52l16.19,16.25Z"/>
    <path class="cls-128" d="M421.33,476.07c-1.51.29-2.71,1.43-2.36,3.13-1.58.21-2.46,1.42-2.43,2.84-.03.29-.27.53-.71.69-.47.29-.79.73-1.19,1.11l-.49,1.13c-2.2,2.19-4.42,4.36-6.65,6.5l-.5-.12c-3.25-.83-5.91-3.08-8.44-5.14l16.59-16.63c1.51,2.51,3.88,4.51,6.16,6.49"/>
    <path class="cls-89" d="M436.13,522.11c-1.59-6.07-5.42-6.69-6.38-7.45-1.08-.85-1.91-2.23-3.95-1.95.15-1.1.19-1.81-.32-2.51-.55-.74-1.4-1.03-2.51-1.04.29-.9.17-1.56-.16-2.25-.29-.63-1.19-.92-1.8-1.21-.02-.8.36-1.71-.22-2.56-.45-.66-1.45-.96-2.26-1.21.25-.72.73-1.66.44-2.51-.28-.78-.82-1.38-1.85-1.87,1.51-.48,2.1-1.7,1.98-3.04l.54-.55c3.82-.46,8.03-1.52,10.59-4.35l.21-8.57.47-.32c4.05.96,8.19,1.04,12.46.15.85.53.05,7.63.63,8.9,3.95,4.68,12.43,5.2,18.14,4.28,11.8-1.89,21.13-11.29,25.21-22.27l-6.9-.29c4.13-2.27,6.9-5.95,8.4-10.55,1.36,10.36-.13,20.15-5.88,29.2-8.49,13.37-22.51,20.18-37.05,25.2-5.37,1.86-7.11,6.08-8.63,11.45-.07-1.06-1.64-4.49-1.16-4.67"/>
    <path class="cls-89" d="M442.95,428.78c-3.56-.55-7.14-.72-10.89.04-.67.1-.98-.05-.91-.45,0-4.88.11-9.69.32-14.42-1.89-.87-4.85-3.66-5.37-5.67l.19-.75c1.14-3.83-1.31-1.45-.43-6.69.14-.82,1.08-1.18,1.67-1.24.78-.07,1.68.19,1.98.93-.08,1.88,0,3.74.23,5.58.02.75.19.93.5,1.38l.66.13c4.08,5.49,12.85,3.76,14.02-3.14,1.14-6.74-6.27-11.36-11.92-7.75l-.76-.36c-.85-.77-1.85-1.39-2.94-1.72.08-.22.22-.4.45-.59,5.44-4.49,13.43-3.27,17.33,2.44,3.92,5.74,2.13,13.65-4.16,17.11l.04,15.15Z"/>
    <path class="cls-13" d="M430.63,429.06c-1.7.67-3.46,1.18-5.08,2.03-.55.05.14-1.64-1.3-2.64l-1.71-1.18c.65-.82,1.14-1.61.93-2.72-.17-.89-.91-1.59-1.98-2.22,1.02-.6,1.56-1.35,1.63-2.32.08-.97-.41-1.83-1.4-2.56,1.07-.37,1.73-1.05,1.95-1.81.32-1.12.02-2.1-.87-2.9.79-.34,1.48-.83,1.77-1.46.41-.87.31-1.72-.08-2.53l1.03-.5c.64.36,1.14.98,1.49,1.85,1.22,1.58,2.62,2.97,4.2,4.15l-.13,14.53-.46.28Z"/>
    <path class="cls-13" d="M429.94,480.46l.45.28c-.03,2.96-.12,5.91-.26,8.86-.93,1.49-4.22,2.88-5.9,3.41-1.67.51-4.35,1.25-5.84.37,1.31-1.03,2.52-1.43,1.71-3.93,1.57-.34,2.48-1.67,2.05-3.27,1.56-.24,2.25-1.54,2.25-2.99.77-.38,1.75-.7,2.07-1.53.34-.87.19-1.74-.18-2.57,1.06.62,2.38.78,3.65,1.37"/>
    <path class="cls-13" d="M455.4,492.96c.03.2.07.43-.13.42-3.42-.14-7.78-1.41-10.45-4l-.11-8.86s.11-.03.28-.08c.65-.36,1.04-.09,1.19.81.48.8,1.27,1.23,2.38,1.29-.03.82.09,1.57.37,2.29.55.54,1.22.96,2.02,1.24,0,2.11.45,2.78,2.37,3.53-.06,1.13.29,1.98,1.04,2.57.59.15.93.42,1.04.8"/>
    <path class="cls-153" d="M432.05,428.82c-.33.07-.94.05-1.42.24l.19-14.77c-2.41-1.5-4.3-3.52-5.28-6.04.28-.13.49-.52.74-.72,1.03,2.65,2.99,4.74,5.53,6.19l-.2,14.62c0,.2.07.35.15.43.06.05.2.05.29.05"/>
    <path class="cls-80" d="M430.91,480.71l-.23,9.18c-3.45,3.37-7.23,4.01-11.59,4.61-.04-.45-.56-.71-.71-1.12,3.64.08,8.59-1.17,11.36-3.97l.2-8.95c.22.1.56.15.97.25"/>
    <path class="cls-74" d="M449.44,515.32c.44.25,1,.62,1.1,1.24.28,1.74-3.91,1.92-5.31.97.63-.46,1.03-1,1.55-1.34.76-.5,1.82-.79,2.66-.87"/>
    <path class="cls-16" d="M454.47,514.22c-.78,1.15-2.46,1.24-3.68.62.83-.85,2.27-.94,3.5-1.66.39.34.13.71.18,1.03"/>
    <path class="cls-89" d="M411.38,493.85c.41.96,1.35,1.45,2.28,2.15-1.23,0-2.38.46-2.88,1.48-.59,1.19-.49,2.82.74,3.41l2.97,1.43c-1.45.34-2.31,1.39-2.18,2.72.12,1.2,1.16,2.08,2.58,2.22-.28.51-.5.92-.51,1.38l-.32.63c-19.42-9.56-31.4-26.15-28.25-48.35,1.48,4.65,4.35,8.41,8.53,10.6l-7.06.24c4.12,10.87,12.86,19.7,24.09,22.08"/>
    <path class="cls-13" d="M411.33,492.74c-1.49-.19-3.04-.61-4.32-1.4l7.64-7.5c-.21.78-.18,1.56.07,2.44-1.09.22-1.64.9-1.98,1.61-.41.87.13,1.84.49,2.6-.65.61-1.89,1.13-1.88,2.25"/>
    <path class="cls-65" d="M426.28,479.09c1.79,1.36.55,3.85-1.45,4.39-.04,1.4-.8,2.62-2.15,3.07.19,1.52-.67,2.65-2,3.27.5,1.84-.4,3.29-2.3,3.56.65.22,1.45.49.71,1.13,1.13.53,0,2.48-.87,3.01,1.19,1.18,1.67,2.44.93,4.11,1.84.48,2.77,1.74,2.34,3.72,1.47.62,2.27,1.7,2.07,3.31,1.83.34,3.04,1.55,2.77,3.52,1.45.23,2.72.95,3.78,2.19,1.59.77,3.17,1.61,4.28,3.05.61.79,2.04,3.13,2.04,4.02,0,.26-.13.49-.29.69l-1.55.4c-.4.1-.91.14-1.4.21-1.6.23-2.79-.87-2.89-2.45-.02-.29-.77-.43-1.02-.29-1.09.64-2.11-.16-3.04-.3-.43-.63-.73-1.32-.78-2.23l-1.98.29c-.9.13-1.65-.26-2.2-.94-.43-.53-.51-1.33-.49-2.19-1.16.29-2.08.18-2.88-.45-.66-.5-.66-1.44-.9-2.31l-1.94-1.13c-1-.58-1.22-1.27-.67-2.06-.42-.31-.42-.63-.19-1.03-2.66-.66-3.23-3.9-.87-5.35-3.85-.93-4.73-5-.93-6.62-1.03-.61-1.37-1.21-1.01-1.8-.71-.26-.78-.86-.06-1.11-.12-.04-.23-.08-.3-.16-.56-.55,1.13-1.9,1.59-2.26-1.03-1.77-.32-3.64,1.52-4.36-.24-.86,0-1.42.5-2.12-.41-.6.62-1.64,1.19-1.11.31-.17.56-.37.71-.69-.71-.18-.4-.98-.16-1.51.42-.91,1.16-1.4,2.07-1.74-.13-1.46,1.4-3.51,2.88-2.72,1.41,1.24,3.2,1.99,4.95,3.02"/>
    <path class="cls-103" d="M432.75,518.41c.29.59-.82.96-1.03.39l-.41.05c-.96.29-1.99.4-3.07.59-.78.13-1.5-.31-1.81-.89-.38-.72-.08-1.51.45-2.11-1.56-.05-4.84,1.65-5.29-.73-.48-2.5,4.43-3.01,6.58-1.56.28.18.61.61.53.99-.06.24-.18.5-.48.78l1.79-.17c.66-.06,4.21,2.24,2.73,2.67"/>
    <path class="cls-51" d="M413.66,496.95c2.51.96,5.37,1.76,4.48,3.95-.31.77-1.21,1.47-2.17,1.14-1.35-.48-2.62-1.06-3.89-1.68-.88-.43-1.03-1.54-.73-2.28.35-.89,1.3-1.51,2.31-1.13"/>
    <path class="cls-103" d="M425.09,511.11c.7,2.43-3.09,2.5-5.32,2.88-.95.16-1.72-.55-1.86-1.3-.16-.91.39-1.77,1.39-1.98,2.31-.47,5.24-1.52,5.79.4"/>
    <path class="cls-103" d="M422.3,507.64c.72,2.4-2.77,2.42-5.09,2.9-1,.2-1.92-.38-2.09-1.3-.16-.86.39-1.76,1.39-1.97,2.27-.45,5.21-1.52,5.79.37"/>
    <path class="cls-103" d="M420.39,504.2c.43,2.37-3.28,2.08-5.49,2.23-.94.07-1.68-.56-1.82-1.36-.15-.82.41-1.77,1.4-1.91,1.38-.18,2.73-.27,4.14-.34.93-.05,1.63.58,1.77,1.38"/>
    <path class="cls-51" d="M417.53,493.64c.92.63,1.03,1.7.45,2.47-.54.72-1.54.86-2.38.28l-2.73-1.89c-.79-.55-1.02-1.51-.5-2.34.45-.72,1.51-1.04,2.36-.45l2.8,1.93Z"/>
    <path class="cls-51" d="M425.07,479.14c.88.61,1.03,1.57.65,2.28-.5.88-1.59,1.15-2.45.56l-2.86-1.98c-.77-.54-.93-1.51-.49-2.28.45-.76,1.52-1.08,2.35-.5l2.79,1.92Z"/>
    <path class="cls-51" d="M418.72,489.22c.87.6,1.13,1.58.61,2.43-.45.73-1.53,1.02-2.4.43l-2.77-1.9c-.82-.56-.99-1.55-.61-2.25.48-.87,1.54-1.18,2.36-.62l2.81,1.91Z"/>
    <path class="cls-103" d="M422.83,482.3c.83.58.89,1.52.58,2.14-.44.88-1.49,1.2-2.34.69-1.06-.65-2.02-1.37-3.03-2.08-.83-.57-.88-1.65-.4-2.32.56-.8,1.58-.93,2.41-.36l2.78,1.93Z"/>
    <path class="cls-51" d="M420.72,485.58c.87.6.99,1.7.36,2.49-.49.62-1.48.82-2.3.24l-2.85-1.98c-.82-.56-.89-1.61-.36-2.34.53-.71,1.52-.92,2.34-.36l2.82,1.95Z"/>
    <path class="cls-143" d="M431.31,518.85l1.44-.44.98.3c.71.84,1.13,1.82,1.49,2.83-1.44.44-3.66,1.03-4.08-.78-.17-.74.16-1.31.71-1.82-.22-.18-.4-.07-.54-.08"/>
    <path class="cls-100" d="M415.83,482.73c.25-.15.31-.68.71-.7.05.19.29.38.08.46-.32.13-.57.2-.79.24"/>
    <path class="cls-128" d="M441.53,397.53l.46.92c0,3.21,0,6.43-.03,9.65l-.45.81c-.05,1.24-2.3,1.75-3.41,1.89-1.24.15-2.53,0-3.69-.48-1.01-.41-2.91-1.46-2.59-2.63-.32-.45-.5-.76-.03-1.13,2.7-2.5,3.28-6.12,1.39-9.29.33-1.41,2.95-1.77,4.29-1.72,1.3.05,3.88.58,4.06,1.98"/>
    <path class="cls-153" d="M430.22,407.51c.11-.38.68-.26.86-.48.4-.26.64-.04.74.66,2.17,3.15,6.8,3.53,9.71,1.22l.36-.92c2.88-2.58,2.9-6.94.02-9.52l-.37-.92c-2.41-1.89-5.69-2.07-8.34-.27l-.96-.87c.39.09.71-.12,1.12-.34,4.03-2.23,9.02-.7,11.15,3.26,2.1,3.91.71,8.83-3.2,11.02-3.89,2.18-8.54.84-11.08-2.83"/>
    <path class="cls-65" d="M427.87,394.5c.89-.55,1.36-.5,1.42.17.86-.61,3.04.68,2.94,1.72.91,0,1.23.29.95.87,1.13.21,1.45,2.15,1.54,3.22.11,1.16-.08,2.35-.51,3.43-.4.98-1.27,2.75-2.41,2.64-.1.51-.19.77-.71.47.13.69-.35.74-.86.48-.82.25-1.25-.98-.5-1.38-.24-1.84-.32-3.71-.24-5.58l-.3.07c-2.92-1.82-3.48,1.19-2.85,3.47.75.92,1.21,3.03-.06,3.45.14.67-.06,1.14-.73.72.19.35.03.6-.44.73.56,1.56-.07,3.14-1.53,3.89,1.23,1.58.76,3.76-1,4.7,1.43,1.38,1.32,3.49-.22,4.72,1.77,1.24,2.13,3.14.87,4.89,1.41.82,3.04,2.17,2.32,3.91-.41.21-.77.49-1.35.66-.27-.33-.31-.78-.12-1.34l-.18-.63-3.13-2.38c.05-.45.08-.67.08-.67.94-.45,1.98-1.34,1.22-2.44-.31-.45-3.89-2.88-4.44-2.79-3.35.61.46,3.88,1.93,4.34.5.57.24,1.01-.81,1.3-.66.42-.81,1.15-.47,1.86.41.87,3.92,2.77,4.96,3.26-.38.2-.62.68-1.18.89-.36.13-.7-.13-.89-.44-.23-.08-.46-.24-.72-.48-1.37-1.22-3.52-2.02-3.65-3.75-.06-.82.49-1.62,1.02-2.28-1.59-1.45-2.88-1.4-2.66-3.88.06-.69.76-1.35,1.51-2.01-1.34-.71-2.08-1.67-1.94-2.95.11-1.07.87-1.95,2.07-2.36-1.06-.78-1.57-1.72-1.35-2.92.18-.9.87-1.67,2-2.09-.87-.77-1.1-1.67-.93-2.8.13-.88,1.14-1.43,1.87-1.97,0-.77-.48-1.9.17-2.73.53-.68,1.21-1.19,2.3-1.28.02-3.93,3.25-6.96,7-6.72"/>
    <path class="cls-37" d="M422.07,433.16c-.13.04-.22.16-.46.25-.16-.14-.29-.29-.41-.45-.17-.06-.17-.13-.02-.23.32.09.63.22.89.43"/>
    <path class="cls-31" d="M421.18,432.73l.02.23c-.42-.03-.5-.5-.73-.71.32,0,.59.19.71.48"/>
    <path class="cls-103" d="M424.2,431.76c-.27.08-.59.31-.96.51-.51.17-1.11.12-1.63-.24l-3.15-2.18c-.76-.51-1-1.39-.7-2.21.24-.67.87-1.1,1.8-1.24l-2.87-1.97c-.93-.64-1.09-1.85-.43-2.7.59-.74,1.68-.94,2.56-.33l3.28,2.3c.66.47.77,1.31.52,2.09-.2.59-.85.99-1.65,1.29l2.99,2.14c.84.61.6,1.74.23,2.54"/>
    <path class="cls-103" d="M425.09,404.31c.34.97,1.2,1.63.51,2.69-1.44,2.21-3.51-.03-5.84-1.6-.82-.55-.98-1.57-.62-2.34.44-.9,1.4-1.2,2.52-.92-.39-3.08,1.4-5.84,4.24-6.69,2.85-.85,5.9.54,7.14,3.3,1.17,2.62.34,5.92-2.37,7.5l-.13-5.15c-.04-1.44-1.47-2.27-2.78-2.25-1.24,0-2.64.81-2.73,2.27-.06.93-.28,2.21.08,3.2"/>
    <path class="cls-51" d="M422.21,413.27c.98.67,1.09,1.89.41,2.74-.59.73-1.69.88-2.6.25l-3-2.08c-.89-.61-1.08-1.71-.6-2.51.56-.94,1.76-1.19,2.7-.54l3.09,2.14Z"/>
    <path class="cls-103" d="M421.42,418.21c.96.65,1.19,1.75.66,2.62-.53.88-1.75,1.14-2.69.49l-3-2.08c-.87-.6-1.1-1.58-.75-2.35.46-1,1.64-1.49,2.57-.86l3.21,2.17Z"/>
    <path class="cls-103" d="M423.24,408.54c.94.65,1.04,1.74.61,2.48-.53.89-1.65,1.26-2.52.66l-3.3-2.25c-.87-.6-1.03-1.7-.56-2.49.55-.92,1.75-1.18,2.67-.55l3.1,2.14Z"/>
    <path class="cls-41" d="M429.73,406.13c-.87-1.72-.66-3.71-.24-5.58.68,1.74.21,3.72.24,5.58"/>
    <path class="cls-27" d="M431.8,406.56c.03.37.03.75.02,1.12-.17-.25-.57-.37-.73-.65.19-.23.48-.36.71-.47"/>
    <path class="cls-94" d="M454.47,479.95c-.24.36-.65.44-1.22.24-1.28.35-5.58,3.68-3.01,4.64,1.1.42,4.03-2.24,4.31-3.37-.21-.57-.15-.98.19-1.24.56,0,.67.98,1.1,1.14.29.52.61.85,1.14,1.14l1.2,1.21c.34.43.55.88.63,1.36,1.31.69,2.65,1.85,2.4,3.47,1.28.4,2.23,1.19,2.44,2.56.1.69.07,1.67-.77,1.78-.28-.02-.68.34-.96.07-.15-.13-.27-.3-.22-.5.43-1.76,0-2.7-1.9-1.89l-2.9,2.55-.53.1c-.15.08-.34.24-.56.15-.16-.06-.29-.23-.4-.39-1.56-.08-2.73-1.45-2.41-3.15-.82-.19-1.5-.58-1.92-1.06-.65-.73-.45-1.64-.47-2.46-1.78-.74-2.51-1.08-2.34-3.52-3.24-.14-2.11-2.69-3.28-2.34.28-.42.82-.19,1.31-.41l.47.38c.89,2.96,4.3-.87,5.11-2.17l.51-.34c.45.08.55.61.9.93.42.39,1.01.62,1.17,1.12"/>
    <path class="cls-51" d="M452.4,477.9c-.03.56-.24,1.13-.73,1.56l-2.51,2.14c-.62.53-1.46.55-2.09.13-.55-.35-.82-1.03-.77-1.69,1.86-.83,3.86-1.51,5.65-2.8.18.2.33.43.45.66"/>
    <path class="cls-35" d="M466.5,491.79c-1.18.25-2.32,1.18-3.63,1.09.4-.79.48-1.7.07-2.51-.4-.76-1.15-1.26-2.26-1.41.36-1.73-.49-3.22-2.29-3.47-.08-.63,0-1.24-.2-1.78l8.32,8.08Z"/>
    <path class="cls-51" d="M461.91,492.95c-1.71.45-3.83.74-5.54.25.06-.25.2-.5.46-.72l2.49-2.14c.83-.72,1.93-.72,2.61-.07.79.78.57,1.89-.02,2.68"/>
    <path class="cls-51" d="M454.47,479.95c.05.08.2.2.26.27.19.68.55,1.6-.08,2.24-.91.94-1.93,1.74-2.94,2.57-.71.58-1.77.42-2.35-.26-.51-.6-.58-1.68.18-2.35.93-.83,1.84-1.66,2.85-2.42.64-.49,1.43-.17,2.08-.04"/>
    <path class="cls-60" d="M456.97,482.49l-1.21-.26c-.07-.36,0-.62.07-.87.62.22.75.74,1.14,1.14"/>
    <path class="cls-51" d="M457.08,486.28c-.54.69-1.17,1.21-1.89,1.56-.9.62-2.04,1.84-3.33.64-.68-.64-.82-1.87,0-2.58l2.72-2.36c.8-.7,1.89-.62,2.56.08.67.72.54,1.71-.07,2.65"/>
    <path class="cls-51" d="M455.41,487.97c.53-.71,1.14-1.22,1.85-1.53.98-.45,2.07,0,2.47.66.47.78.34,1.73-.38,2.36l-2.72,2.32c-.81.69-1.96.48-2.51-.23-1.33-1.67.71-2.75,1.3-3.58"/>
    <path class="cls-7" d="M457.26,486.44c-.64.3-.97,1.31-1.85,1.53.08-.15-.13-.13-.21-.13.61-.67,1.2-1.2,1.89-1.57.03.08.09.13.17.17"/>
    <path class="cls-13" d="M441.52,408.9l.02-11.37c1.78,1.41,2.99,3.22,2.98,5.69,0,2.43-1.21,4.26-2.99,5.68"/>
    <path class="cls-122" d="M442.95,428.78c.31-.66.98-.41,1.09.3,2.88.98,5.81,1.83,8.15,3.6,2.54,1.93,5.22,3.96,6.91,6.52,2.25,3.39,3.95,7.13,4.66,10.94.57,3.13.53,6.73-.03,9.65-.76,4.02-2.59,7.72-4.82,10.92.03.17.04.33.03.5-.1,1.16-4.89,5.27-6.14,5.97l-.86.05-.26.74c-1.49.88-3.04,1.63-4.67,2.25l-.72-.19-.18.53c-.42-.11-.8-.15-1.13-.12-.05.22-.14.24-.28.08-.24.63-.9.92-1.35.35-.13.14-.28.29-.44.4-1.37.98-10.29.88-11.62-.15-.14-.12-.28-.26-.4-.4-.34.61-.89.46-.97-.25l-.57.25c-1.01-.18-2.62-.72-3.08-1.63l-.76.11c-1.41-.71-2.76-1.51-4.05-2.4l-.16-.72-.83-.11c-1.7-1.31-4.26-3.74-5.35-5.56l.03-.82c-1.88-3.11-3.34-6.43-3.96-9.79-.61-3.22-.5-6.64.02-9.65.61-3.57,2.1-6.85,3.88-9.78,1.73-2.85,4.22-4.85,6.51-6.96-.23-.4.08-.36.46-.24-.12-.44.27-.74,1.18-.89-.21-.66.43-.99.95-.5.45-.78.89-1.01,1.35-.67.07-.28.19-.54.41-.72.44-.36,3.15-1.32,3.87-1.49l.8.18c.09-.7.9-.92,1.12-.25h.3c.12-.13.25-.27.4-.38,1.05-.79,9.07-.79,10.11-.03.14.11.27.24.39.37"/>
    <path class="cls-128" d="M434.35,429.83c14.09-1.74,26.63,8.38,28.22,22.19,1.57,13.77-8.28,26.29-22.08,27.96-13.76,1.67-26.36-8.12-28.1-21.92-1.73-13.7,7.93-26.51,21.96-28.24"/>
    <path class="cls-122" d="M434.59,430.78c13.49-1.61,25.47,8.1,27.01,21.31,1.56,13.36-8.08,25.5-21.52,26.97-13.13,1.44-25.12-8.01-26.74-21.23-1.61-13.14,7.74-25.45,21.24-27.05"/>
    <path class="cls-128" d="M442.97,460.31c-.75,3.35-6.38,3.4-9.19,2.18-.95-.41-1.69-1.15-1.82-2.18l3.38-.07c.97-4.81.04-9.77,1.79-14.7,1.34,3.11,1.93,6.22,1.98,9.46l.09,5.26,3.77.04Z"/>
    <path class="cls-134" d="M440.47,471.31c-2.1-.8-3.92-2.11-5.7-3.57l-4.8-3.96c-3.03-2.49-6.68-3.53-10.72-3.54,9.39-3.89,15.21,4.67,21.84,9.6-.09.54-.38.92-.61,1.47"/>
    <path class="cls-139" d="M439.25,467.46c-.75-.12-1.23-.65-1.72-1.14,3.31-2.19,5.21-4.4,8.62-6.07,2.89-1.35,6.14-1.77,9.18-.44-8.03.38-9.49,4.52-16.07,7.64"/>
    <path class="cls-75" d="M433.2,472.9c-2.09.85-4.27,1.25-6.3.46-.79-.3-1.35-.84-1.23-1.51.15-.82.65-1.3,1.49-1.33,1-.04,1.57.73,2.41,1.05.89.35,1.9-.58,2.3-1.3l-1.57-.6c-.31-.12-.15-.7.04-.79,1.56-.7,2.15,1.38,2.57,2.58.66,1.94,1.83.77,2.21,1.82.07.19.14.53-.13.78-.3.27-.74.13-1.08,0-.3-.11-.4-.57-.69-1.17"/>
    <path class="cls-75" d="M448.55,470.82c.52.24.63,1.81.1,2.13-2.17,1.31-4.85,1.01-7.01-.07-.29.42-.49.82-.72,1.03-.36.31-.79.4-1.31-.06,2.25-1.35,2.39-5.17,4.49-4.74.22.04.52.4.25.7-.38.42-1.08,0-1.62.28.29.88,1.62,1.76,2.64,1.41,1-.34,1.9-1.27,3.19-.69"/>
    <path class="cls-108" d="M434.63,471.34c-.71-.35-1.4-1.15-1.19-2.02.09-.38,1-.91,1.38-.83.66.21,1.13,1.01,1.69,1.46-.66.67-1.27.89-1.88,1.39"/>
    <path class="cls-15" d="M429.04,445.93c.1-.36.15-.74-.17-.48-.04.2-.18.59-.61.63-.2-.75-.77-1.78-.5-2.62.25-.74,1.25-.89,1.74-1.4-1.32-.4-2.75.9-4.13.77.25-2.55,3.08-2.81,4.98-3.09-.86-1.3-3.21-.96-3.25-1.57-.08-1.35,3.2-.8,4.41-.64-.6-.9-1.61-1.27-2.62-1.6.2-1.23,2.78-1.22,3.57-1.66.62-.34,3.46-.67,4.12-.55,1.16.24,2.3.23,3.52-.13l-.03.93c1.99-.24,3.87-.06,5.74.77-.53,1.19-1.67,1.31-2.72,1.98.33.46,4.55-.55,4.38.87-.13,1.08-2.42.5-3.04,1.3,1.64,1.08,4.95.89,4.74,3.44-1.37.03-2.41-.71-3.84-.87.27.57,1.68,1.09,1.68,2.42,0,.63-.15,1.36-.9,1.77-.45-.4-.1-1.03-.72-1.3l.06,2.18c-.73.09-.96-.51-1.48-.92-.03.7.23,1.29.07,2.04-.08.39-.8.84-.92.45-.24-.81-.26-1.64-1.03-2.16.24,1.19.09,4.09-1.12,3.61-.75-.29-.05-2.36-.84-2.7l-.49,2.81c-1.41-1.03-.72-5.14-2.18-5.73-1.56-.64-1.61,5.05-2.13,5.69-1.04-.68-.42-2.32-.87-2.49-.57-.22-.08,1.72-.56,2.14-.88-.07-1.33-.81-1.61-1.32-.44-.84.25-1.33.62-2.3-1.14.16-1.25,1.42-1.39,2.56-1.15-.35-1.26-1.57-.78-2.55-.65,0-.73.84-1.28.74-.45-.08-.39-.77-.45-1.04"/>
    <path class="cls-57" d="M429.04,445.93c-.03-.15.07-.5-.17-.48.05-.29.04-.64.45-.79.16.45-.03.92-.28,1.27"/>
    <path class="cls-49" d="M435.93,435.51c-.39-.24-.62-.51-.91-.9.48-.07.9.2.91.9"/>
    <path class="cls-38" d="M445.45,595.52c4.08,6,8.8,11.36,12.84,17.83l-9.84-3.96c-.58,1.79-.46,3.63-.39,5.53.15,2.43.5,4.71.34,7.21-2.29-3.88-4.21-7.8-6.1-11.92l-6.06-13.3c-2.94,5.41-5.31,10.62-7.88,15.96l-4.23,8.78c-1.14-3.78.4-8.23-.04-12.28-3.61.54-6.64,2.9-10.56,3.68l13.19-17.53c6-.25,12.67-.25,18.73,0"/>
    <path class="cls-38" d="M442.54,569.33c-4.82,0-8.59.64-13.2.34l-2.95-5.61c-1.05-2.01-2.14-3.9-2.9-6.15h25.21c-.99,2.31-2.2,4.28-3.36,6.37l-2.8,5.05Z"/>
    <path class="cls-38" d="M433.45,579.07c-2.94.89-4.99.08-7.93.33l-9.02-14.89c1.26-2.62,3.41-4.11,5.21-6.55,2.21,3.26,3.96,6.64,5.83,10.12l5.91,11Z"/>
    <path class="cls-59" d="M451.13,570.69c-1.72,2.96-3.32,5.71-4.8,8.7-2.79.15-5.42.18-8.26-.03l6.83-12.23,4.91-8.86c2.43.87,3.32,3.57,5.51,5.23l-4.19,7.19Z"/>
    <path class="cls-75" d="M448.7,595.23c-8.39.24-17.09.25-25.49,0l-.06-15.32c2.14-.13,4.05-.03,6.12-.02l12.47.07,6.95-.04v15.31Z"/>
    <path class="cls-56" d="M448.7,595.23c-.99.59-2.19,0-3.25.29h-18.72c-.18,0-4.42-.03-3.52-.29h25.49Z"/>
    <polygon class="cls-38" points="444.85 591.4 427.03 591.45 427.02 583.71 444.8 583.71 444.85 591.4"/>
    <path class="cls-75" d="M461.04,337.01c-10.79-4.95-27.44-5.11-39.03-3.24-5.12.83-13.05,2.89-16.21,7.09-.87-1.85-1.84-3.32-2.99-4.85,1.59-1.56,3.39-2.46,5.31-3.36,12.92-5.31,31.02-5.61,44.63-3.29,5,.86,12.87,2.88,16.65,6.36-1.33,1.67-2.34,3.28-3.25,5.16-1.42-1.77-3.11-2.94-5.1-3.86"/>
    <path class="cls-75" d="M395.25,330.18c-.38.12-1.19-.34-1.41-.69l-2.9-.87v-13.22c0-2.99.76-5.8,2.16-8.39,3.11-5.79,9.16-7.88,15.63-7.53,5.34-5.57,11.95-6.18,19.09-3.95,2.53-1.61,4.94-5,2.3-7.98,1.77-.8,3.16-2.16,3.32-4.11.13-1.6-.59-2.91-1.26-4.26l3.82-5.1c1.3,1.75,2.69,3.36,3.7,5.19-.5,1.29-1.38,2.68-1.2,4.17.24,1.94,1.53,3.31,3.35,4.12-2.67,3.03-.15,6.4,2.36,8.04,6.9-2.46,13.97-1.51,19.02,3.88,6.41-.29,12.17,1.56,15.47,7.2,1.54,2.74,2.35,5.74,2.34,8.93l-.02,13.06c-4.21,1.03-7.87,2.99-10.91,6.28-4.52-3.7-11.66-5.67-17.5-6.62-10.71-1.74-21.51-1.76-32.23-.08-5.63.88-14,2.99-18.19,7.01-2.02-2.1-4.19-3.92-6.95-5.07"/>
    <path class="cls-133" d="M395.25,330.18c-.09.08-.18.17-.25.26-.4-.29-.87-.38-1.39-.72.08-.07.16-.14.23-.23.58.2.98.5,1.41.69"/>
    <path class="cls-93" d="M414.43,319.65l-3.65,1.34-.09-13.96c2.23-2.48,5.07-4.07,8.26-5,3.4-1.11,6.89-1.39,10.49-1.19v16.82c-5.11-.12-10.01.61-15,1.99"/>
    <path class="cls-93" d="M461.01,310.52l-.08,10.55c-5.29-2.48-12.6-3.53-18.48-3.39l.02-16.85c4-.23,7.85.23,11.54,1.54,2.81,1.13,5.34,2.49,7.27,4.9-.36,1.1-.26,2.13-.27,3.24"/>
    <path class="cls-93" d="M401.99,323.29l-4.67,1.37c-1.7.5-1.06-2.87-1.02-3.52.28-4.01,1.84-7.76,5-10.5.45.83.34,1.73.38,2.65.08,1.99.09,3.92.17,5.87l.14,4.13Z"/>
    <path class="cls-93" d="M475.29,324.49c-.78.64-3.98-.95-5.52-1.1,0-1.66.07-3.25.12-4.92l.23-7.94c4.26,3.16,5.78,9.29,5.17,13.96"/>
    <path class="cls-59" d="M439.67,289.22c.17.57.17,1.11,0,1.62-.58,2.12-2.51,3.36-4.48,2.95-1.94-.41-3.22-2.29-2.94-4.37.26-1.97,1.91-3.2,3.82-3.22,1.75-.03,3.13,1.33,3.61,3.02"/>
    <path class="cls-151" d="M432.89,309.67c.14-.51.37-1.04.63-1.39,1-1.3,2.82-1.53,4.14-.73,1.39.83,1.93,2.62,1.22,4.11-.66,1.39-2.24,2.17-3.78,1.72-1.45-.42-2.69-1.98-2.2-3.72"/>
    <path class="cls-59" d="M437.93,302.78c-1.84,1.17-3.86.62-4.77-1.1-.89-1.68-.13-3.65,1.74-4.41,1.77-.71,3.75.47,4.22,2.49.25,1.03-.23,2.41-1.19,3.02"/>
    <path class="cls-151" d="M435.28,317.23c.44-.21.95-.19,1.39-.03,1.23,0,1.92,1.71,1.56,2.83-.29.96-1.24,1.84-2.33,1.72-1.13-.13-2.2-.96-2.27-2.1-.07-1.09.57-2.19,1.65-2.43"/>
    <path class="cls-151" d="M405.87,309.93c1.32-.4,2.34.5,2.67,1.51.41,1.24-.3,2.33-1.47,2.7-1.08.34-2.32-.27-2.7-1.31-.4-1.08.19-2.5,1.5-2.9"/>
    <path class="cls-151" d="M455.55,300.24c-.38-.84.2-1.61.59-2.13.57-.75,1.56-.68,2.47-.44.89.24,1.44,1.4,1.31,2.18-.17,1.06-.93,1.83-1.96,1.98-.96.13-1.93-.52-2.41-1.59"/>
    <path class="cls-151" d="M399.28,310.3c-.98.44-1.97.03-2.45-.61-.58-.77-.75-2-.1-2.69.68-.72,1.51-1.06,2.47-.86.75.16,1.38,1.04,1.53,1.96.13.82-.5,1.78-1.45,2.2"/>
    <path class="cls-151" d="M467.91,311.56c.24,1.11-.4,2-1.08,2.39-.87.5-1.99.42-2.64-.34-1.04-1.23-.69-2.64.53-3.43,1.09-.72,2.84-.14,3.19,1.39"/>
    <path class="cls-151" d="M422.79,295.56c1.2-.27,2.4.77,2.54,1.67.21,1.28-.61,2.37-1.76,2.62-1.19.28-2.14-.4-2.54-1.61-.31-.96.42-2.37,1.76-2.67"/>
    <path class="cls-151" d="M449.03,295.54c1.15-.18,2.31.74,2.46,1.68.2,1.31-.58,2.33-1.78,2.63-1.2.29-2.22-.53-2.55-1.81-.26-1.01.66-2.31,1.88-2.51"/>
    <path class="cls-151" d="M466.33,305.89c-.43.15-.83.15-1.19,0-1.21-.4-1.78-1.6-1.54-2.57.31-1.24,1.42-1.76,2.72-1.6,1.06.13,1.67,1.16,1.64,2.19-.03.96-.66,1.8-1.64,1.99"/>
    <path class="cls-151" d="M466.3,323.27c-.42.13-.81.13-1.16-.03-1.19-.43-1.79-1.6-1.53-2.57.31-1.15,1.35-1.66,2.36-1.63,1.1.03,1.97.94,2,1.98.04,1.12-.61,2.05-1.67,2.25"/>
    <path class="cls-151" d="M416.53,300.01c-.11,1.16-1.19,1.86-2.16,1.83-1.07-.03-1.96-.93-2.11-1.98-.14-1.03.6-2.19,1.72-2.3.81-.08,1.47-.08,1.98.44.43.44.66,1.09.58,2.01"/>
    <path class="cls-59" d="M471.59,308.66c-.12-.43-.12-.82.03-1.19.23-1.19,1.6-1.78,2.6-1.51,1.02.27,1.69,1.3,1.58,2.34-.11.99-.87,1.98-1.97,2-1.03.03-1.98-.63-2.24-1.63"/>
    <path class="cls-151" d="M405.88,301.72c.36-.18.81-.23,1.16,0,1.01.24,1.68,1.31,1.62,2.18-.07.88-.77,1.79-1.62,2.01-.38.16-.79.16-1.16-.03-.93-.21-1.68-1.21-1.63-2.19.05-.87.77-1.79,1.63-1.98"/>
    <path class="cls-151" d="M407.03,323.27c-.41.13-.8.13-1.16-.03-1.09-.45-1.91-1.58-1.56-2.59.39-1.11,1.19-1.72,2.39-1.64.93.07,1.84.9,1.96,2.03.1.94-.71,1.95-1.63,2.23"/>
    <path class="cls-151" d="M469.5,327.41c.39-.13.85-.25,1.19.03,1.24.43,1.67,1.81,1.09,2.77-.56.94-1.72,1.35-2.81.77-.74-.4-1.24-1.33-.96-2.14.23-.69.66-1.4,1.48-1.42"/>
    <path class="cls-131" d="M425.68,322.35c-.75-1.01-.15-2.32.98-2.78,1.08-.44,2.41.09,2.76,1.49.21.82-.44,1.88-1.07,2.07-1.11.34-1.97.17-2.67-.77"/>
    <path class="cls-151" d="M407.05,325.01c1.08-.51,2.25.03,2.61.98.4,1.07.17,2.15-1.03,2.62-.91.35-1.84.12-2.49-.88-.52-.8-.21-2.18.92-2.72"/>
    <path class="cls-131" d="M420.42,320.92c.38-.14.84-.24,1.19.03.99.28,1.55,1.51,1.28,2.31-.39,1.16-1.21,1.55-2.51,1.35-.61-.09-1.41-.92-1.51-1.64-.13-.99.71-1.9,1.55-2.05"/>
    <path class="cls-151" d="M450.78,320.91c.37-.13.8-.19,1.16,0,.94.23,1.44,1.18,1.4,1.98-.03.77-.6,1.63-1.4,1.75-.37.18-.79.19-1.16,0-.99-.19-1.45-1.13-1.4-1.96.05-.77.59-1.66,1.4-1.77"/>
    <path class="cls-59" d="M401.01,327.39c.36-.17.81-.18,1.16.03.98.02,1.44,1.06,1.4,1.96-.03.79-.58,1.6-1.4,1.74-.37.18-.79.19-1.16,0-.96-.2-1.42-1.15-1.39-1.96.04-.77.6-1.65,1.39-1.77"/>
    <path class="cls-131" d="M443.81,319.53c.39-.13.85-.25,1.19.03.94.34,1.5,1.35,1.33,2.09-.24,1.03-.87,1.54-2,1.72-.91.15-1.81-.86-1.9-1.64-.13-1.09.35-2.04,1.38-2.21"/>
    <path class="cls-151" d="M466.09,326.25c.15.37.16.79-.03,1.16-.2,1.01-1.11,1.39-1.95,1.4-.86.03-1.42-.61-1.72-1.4-.21-.36-.21-.79-.03-1.16.26-.92,1.14-1.45,1.94-1.4.79.06,1.65.6,1.78,1.4"/>
    <path class="cls-151" d="M412.79,325.1c-.14-.39-.13-.81.03-1.19.38-1.03,1.46-1.58,2.38-1.3.94.28,1.43,1.19,1.35,2.12-.09.93-.71,1.74-1.76,1.77-.81.03-1.88-.5-1.99-1.4"/>
    <path class="cls-151" d="M459.58,324.17c.18.36.19.78.03,1.16-.23.94-1.17,1.45-1.98,1.4-.77-.05-1.67-.59-1.75-1.4-.18-.37-.19-.8.02-1.16.24-.93,1.02-1.33,1.97-1.38.8-.04,1.56.58,1.72,1.38"/>
    <path class="cls-44" d="M394.52,315.73c-.86.3-1.52-.21-1.74-.83-.24-.7-.03-1.4.54-1.78.56-.4,1.45-.48,1.89.16.3.46.59.95.38,1.4-.17.37-.48.85-1.07,1.06"/>
    <path class="cls-44" d="M477.39,312.93c.99-.37,1.52.18,1.94.9.42.72-.24,1.47-.85,1.82-.78.43-1.56.05-1.83-.58-.37-.89-.31-1.75.73-2.14"/>
    <path class="cls-44" d="M392.95,325.24c.67-.47,1.71-.06,2.09.56.39.64.05,1.5-.62,2.02-.65.5-1.26.16-1.9-.41-.55-.5-.36-1.61.43-2.17"/>
    <path class="cls-131" d="M479.34,321.77c-1.03.33-1.71,0-2.05-.84-.28-.65.12-1.71,1.01-1.87.87-.15,1.59.17,1.82.87.23.68.08,1.57-.78,1.84"/>
    <path class="cls-131" d="M394.23,321.83c-.86.18-1.47-.1-1.79-.55-.35-.49-.31-1.18-.02-1.67.33-.53.95-.63,1.69-.56.67.07,1.04.72,1.09,1.31.04.49-.31,1.33-.98,1.46"/>
    <path class="cls-151" d="M479.19,327.53c-.5.21-1.4.29-1.86-.08-.77-.61-.49-2.06.35-2.47.79-.38,1.59-.04,1.9.63.25.55.34,1.62-.4,1.93"/>
    <path class="cls-154" d="M439.67,290.84v-1.62c.17.6.53,1.17,0,1.62"/>
    <path class="cls-146" d="M436.66,317.2l-1.39.03c.29-.4,1.07-.37,1.39-.03"/>
    <path class="cls-149" d="M402.17,331.11c-.39.4-.89.31-1.16,0h1.16Z"/>
    <path class="cls-95" d="M470.69,327.43c-.3-.1-.68.04-1.19-.03.26-.32,1.03-.43,1.19.03"/>
    <path class="cls-124" d="M402.17,327.41l-1.16-.03c.24-.34.96-.35,1.16.03"/>
    <path class="cls-152" d="M466.06,327.41l.03-1.16c.37.4.28.9-.03,1.16"/>
    <path class="cls-5" d="M462.39,327.41c-.46-.35-.33-.89-.03-1.16l.03,1.16Z"/>
    <path class="cls-154" d="M451.94,324.63c-.39.4-.89.31-1.16,0h1.16Z"/>
    <path class="cls-53" d="M459.61,325.33l-.03-1.16c.4.39.3.88.03,1.16"/>
    <path class="cls-5" d="M455.88,325.33c-.35-.3-.38-.89.02-1.16l-.02,1.16Z"/>
    <path class="cls-28" d="M412.79,325.1c-.37-.41-.26-.9.03-1.19,0,.4,0,.79-.03,1.19"/>
    <path class="cls-156" d="M466.3,323.27c-.45.08-.86.49-1.16-.03l1.16.03Z"/>
    <path class="cls-135" d="M407.03,323.27c-.47.14-.84.45-1.16-.03l1.16.03Z"/>
    <path class="cls-158" d="M451.94,320.9c-.29-.07-.66.11-1.16,0,.24-.34.93-.34,1.16,0"/>
    <path class="cls-101" d="M421.62,320.95c-.31-.08-.67.03-1.19-.03.26-.32,1.02-.42,1.19.03"/>
    <path class="cls-32" d="M445,319.56c-.29-.11-.68.04-1.19-.03.26-.32,1.03-.42,1.19.03"/>
    <path class="cls-148" d="M471.59,308.66c-.12-.48-.44-.86.03-1.19,0,.4,0,.8-.03,1.19"/>
    <path class="cls-1" d="M466.33,305.89c-.37.08-.85.55-1.19,0h1.19Z"/>
    <path class="cls-156" d="M407.03,305.91c-.4.37-.89.28-1.16-.03l1.16.03Z"/>
    <path class="cls-85" d="M407.03,301.72c-.37-.08-.79.07-1.16,0,.2-.38.96-.38,1.16,0"/>
    <path class="cls-75" d="M452.61,350.21c-11.14,1.39-22.17,1.37-33.18,0-3.09-.38-5.89-.93-8.76-1.93-4.1-1.4-2.73-2.46-4.36-6.29,1.78-3.73,9.27-5.93,13.04-6.71,10.97-2.26,22.26-2.28,33.23,0,3.47.72,6.59,1.71,9.63,3.44,1.18.67,3.09,1.85,3.2,3.28.11,1.39-.8,2.92-1.14,4.29-.56,2.21-9.28,3.62-11.66,3.91"/>
    <path class="cls-55" d="M432.73,340.84c2.35-.19,4.82-.19,7.17,0l2.09.04c1.08.03,2.16.09,3.24.19l1.4.03c.71.03,1.4.09,2.08.19.3.04.62.03.93.04.48.03.94.1,1.4.19.22.02.46.03.69.03l1.39.2c1.59.29,10.1,1.35,10.16,3.36.06,1.97-7.93,3.12-9.46,3.35l-1.16.19c-.15-.08-.52.03-.69.04l-1.39.21c-.31.02-.62-.02-.93.02-.52.1-1.06.16-1.61.18-.39.02-.78,0-1.16.05-.83.09-1.68.16-2.55.18l-1.85.04c-4.02.2-8.25.2-12.27,0l-1.85-.03c-.85-.03-1.7-.09-2.55-.19l-1.15-.04c-.63-.03-1.24-.09-1.86-.19-.23-.03-.46-.03-.69-.03l-1.39-.19c-.19,0-.54-.12-.7-.03l-1.16-.2c-1.56-.24-9.28-1.3-9.49-3.15-.18-1.63,4.5-2.64,5.81-2.86l4.38-.71,1.16-.19c.15.08.51-.02.69-.03.53-.09,1.07-.16,1.62-.2.3-.02.62,0,.93-.03.61-.09,1.22-.16,1.85-.18l1.39-.04c1.07-.13,2.15-.19,3.25-.19.68-.18,1.61-.04,2.31-.04"/>
    <path class="cls-104" d="M442.45,349.4c.03.08-.08.23-.25.23h-11.77c-.17,0-.28-.14-.25-.23h12.27Z"/>
    <path class="cls-64" d="M439.91,340.84h-7.17c-.02-.18.21-.24.45-.24h6.27c.24,0,.47.06.45.24"/>
    <path class="cls-77" d="M445.23,341.07h-2.99c-.16-.02-.28-.08-.24-.19.18,0,3.65-.22,3.24.19"/>
    <path class="cls-145" d="M430.41,340.88c-1.06.28-2.14.15-3.24.18-.42-.4,3.1-.19,3.24-.18"/>
    <path class="cls-150" d="M446.85,349.17c.28.42-2.41.18-2.55.18.77-.43,1.7-.08,2.55-.18"/>
    <path class="cls-26" d="M428.33,349.37c-.23,0-2.83.2-2.55-.2l2.3.02c.15,0,.27.08.24.18"/>
    <path class="cls-132" d="M448.7,341.3c-.7-.09-1.51.24-2.09-.19.69.03,1.56-.31,2.09.19"/>
    <path class="cls-102" d="M425.78,341.12c-.5.4-1.24.11-1.85.18.45-.5,1.24-.16,1.85-.18"/>
    <path class="cls-150" d="M424.63,349.13c-.61-.03-1.4.3-1.85-.19.61.08,1.35-.22,1.85.19"/>
    <path class="cls-45" d="M423.01,341.33c-.41.4-1.08.14-1.62.19.37-.48,1.08-.16,1.62-.19"/>
    <path class="cls-157" d="M449.63,348.94c-.37.49-1.08.16-1.62.18.43-.38,1.08-.13,1.62-.18"/>
    <path class="cls-112" d="M453.1,341.76c-.46-.05-1.06.18-1.39-.2.48-.02,1.03-.19,1.39.2"/>
    <path class="cls-141" d="M451.94,348.71c-.29.45-.93.18-1.39.21.31-.4.93-.18,1.39-.21"/>
    <path class="cls-18" d="M422.08,348.9c-.45-.02-1.1.25-1.39-.19.45.03,1.05-.17,1.39.19"/>
    <path class="cls-12" d="M451.02,341.53c-.46-.04-1.05.18-1.39-.18.45,0,1.09-.27,1.39.18"/>
    <path class="cls-130" d="M420.69,341.57c-.25.35-.77.15-1.16.19.37-.06.7-.44,1.16-.19"/>
    <path class="cls-111" d="M420,348.67c-.46.25-.8-.14-1.16-.2.39.04.91-.15,1.16.2"/>
    <path class="cls-34" d="M453.79,348.47c-.35.05-.7.45-1.16.19.26-.35.78-.15,1.16-.19"/>
    <path class="cls-121" d="M441.53,705.19c.2.07.2.14,0,.24h-10.18c-.2-.07-.2-.14,0-.24h10.18Z"/>
    <path class="cls-129" d="M238.74,600.09c-.07.2-.14.2-.24,0v-2.55c.07-.2.14-.19.24,0v2.55Z"/>
    <path class="cls-69" d="M634.13,599.86c-.07.2-.14.2-.24,0v-2.55c.07-.2.14-.19.24,0v2.55Z"/>
    <path class="cls-96" d="M238.51,602.18v-2.09h.24c0,.71.24,1.57-.24,2.09"/>
    <path class="cls-58" d="M431.34,705.19v.24h-2.09c-.2-.07-.19-.14,0-.24h2.09Z"/>
    <path class="cls-24" d="M633.9,601.71v-1.85h.24c0,.61.21,1.4-.24,1.85"/>
    <path class="cls-105" d="M425.09,705.19h-1.62c-.2-.07-.19-.14,0-.23.54,0,1.25-.23,1.62.23"/>
    <path class="cls-50" d="M448.7,705.19c-.45-.06-.93,0-1.39,0,.29-.39,1.1-.39,1.39,0"/>
    <path class="cls-81" d="M291.45,676.45c1.44,1.1,2.52,2.19,3.48,3.62.58.87,1.02,2.82-.05,3.43-1.65.94-3.69.09-5.37-.4-2.49-1.11-4.59-2.51-6.81-4.15-31.23-20.54-57.29-47.84-76.44-80.41l22.72,8.54,17.45,6.41.03-14.35-.08-26.47c8.41,14.74,17.45,28.38,29.15,40.6-6.21,7.38-12.51,14.17-19.03,20.95-1.59,1.65-2.62,3.53-3.11,5.71-.59,4.08,1.14,7.85,4.17,10.55,2.1,1.88,4.4,3.19,6.64,4.93l15.5,12.01,11.74,9.02Z"/>
    <path class="cls-81" d="M581.25,676.24l13.5-10.22,13.26-9.87c3.62-2.7,7.7-4.95,9.96-9.2,2.2-4.15,1.6-8.86-1.34-12.48-2.36-2.93-4.89-5.48-7.64-8.07l-6.78-7.11c-1.83-1.93-3.57-3.8-5.21-5.98,11.78-12.47,20.75-25.46,29.1-40.51l-.08,31.22-.34,9.01,21.42-7.16,18.95-7.21c-9.18,16.29-20.28,30.83-32.94,44.14-12.94,13.56-27.37,25.43-42.92,35.77-2.88,1.92-8.43,6.84-12.48,5.02-1-.45-.64-2.32-.2-3.08.96-1.71,2.12-3.02,3.75-4.26"/>
    <path class="cls-81" d="M291.17,666.29c-5.53-3.84-10.58-7.77-15.9-11.72l-7.85-5.82c-2.25-1.67-6.68-5.21-5.44-8.31,2.63-2.12,6.85.87,9.02,2.87l4.73,4.34c9.65,7.87,19.66,15.09,30.35,21.58l-4.91,5.98c-2.94-3.49-6.27-6.16-9.99-8.91"/>
    <path class="cls-81" d="M574.63,671.25c-1.41,1.15-2.45,2.3-3.43,3.75l-4.57-5.68,14.21-9.52c4.66-3.12,9.02-6.31,13.41-9.76,2.25-1.77,4.25-3.55,6.23-5.58,2.61-2.67,6.26-6,10.23-4.22.88,4.15-4.2,7.5-7.17,9.65l-17.27,12.54c-3.98,2.88-7.77,5.67-11.65,8.81"/>
    <path class="cls-81" d="M603.03,631.43c-17.76,15.62-36.72,29.25-57.73,40.08-26.53,13.78-55.35,22.23-85.13,25-16.61,1.55-33.4,1.46-49.99-.23-28.77-2.94-56.56-11.21-82.24-24.46-21.32-10.99-40.12-24.46-58.42-40.12l14.71-16.25,16.07-17.38c9.78,9.14,20.09,17.32,31.18,24.54,23.3,15.16,49.49,24.88,77.09,28.5,17.3,2.27,34.95,2.43,52.28.47,27.74-3.13,54.13-12.49,77.68-27.42,11.97-7.58,23.08-16.27,33.58-26,5.35,5.3,10.22,10.73,15.28,16.23l15.63,17.01Z"/>
    <path class="cls-92" d="M496.57,671.08c-.61-1.72-.52-4.89-2.7-4.31l-5.04,1.34c-.37-1.24-.72-2.3-.94-3.52l5.89-1.61c2.48-.67,5.26.48,5.99,2.96l1.14,3.86c.88-.18,1.7-.51,2.73-.86l-2.62-8.25,4.02-1.35,2.78,8.23c.98-.3,1.63-.51,2.52-.91l-4.83-13.47,4-1.51,6.15,17.01c-4.06,1.6-8,3.04-12.19,4.22l-14.79,4.19c.11,3.1-2.25,5.22-5.15,5.33l-.78-3.73c1.36-.1,2.01-1.19,1.74-2.41l-2.33-10.5c1.34-.39,2.59-.71,4.04-.92l1.94,8.41,8.42-2.19Z"/>
    <path class="cls-92" d="M460.31,681.92c-.61-3.97.62-8.08,3.46-10.95,1.92-1.93,4.47-2.73,7.14-3.04l1.2,8.65,4.63-.87-1.58-8.5,4.17-.83,2.35,12.09-7.41,1.51c-1.94.4-3.87.53-5.88.85l-1.08-7.23c-2.27,1.92-2.95,4.8-3.05,7.75l-3.95.57Z"/>
    <path class="cls-92" d="M302.85,642.91l-6.39-3.99c-1.67-1.04-3.16-2.21-4.83-3.35l4.15-6.08c-3.08,0-5.53,1.57-7.54,3.69l-3.3-2.31c4.03-5.71,11.55-7.74,17.29-3.02l-4.98,7.17,3.87,2.46,4.76-7.26,3.57,2.31-6.61,10.38Z"/>
    <path class="cls-92" d="M525.73,651.55c1.28-.77,2.46-1.31,3.72-1.89l2.95,5.67c.5.95,1.76,1.64,2.81,1.11l11.09-5.58-3.86-7.8,3.8-1.89,5.59,11.05-15.91,7.96c-2.65,1.33-5.51.24-6.92-2.2l-3.27-6.42Z"/>
    <path class="cls-92" d="M305.96,640.67l6.85,3.91c.8-1.28,1.17-2.79.66-4.2-.51-1.4-1.67-2.3-2.99-3.09l1.9-3.32c4.66,1.96,6.6,6.99,4.47,11.6-.68,1.47-1.53,2.83-2.44,4.24l-10.23-5.99,1.78-3.15Z"/>
    <polygon class="cls-92" points="582.99 631.85 572.22 617.34 575.65 614.79 586.43 629.26 582.99 631.85"/>
    <path class="cls-92" d="M556.61,649.12c-1.22.87-2.41,1.48-3.72,2.19l-8.98-15.63c1.17-.79,2.32-1.42,3.71-2.17l8.99,15.61Z"/>
    <polygon class="cls-92" points="516.73 668.29 510.19 651.47 514.21 649.92 520.73 666.73 516.73 668.29"/>
    <path class="cls-92" d="M369.19,672.92c-1.39-.19-2.61-.73-4.13-1.19l5.28-17.25,4.12,1.24-5.27,17.19Z"/>
    <path class="cls-92" d="M449.09,682.67c-1.36.24-2.65.19-4.27.29l-.85-18.05,4.27-.23.85,17.98Z"/>
    <path class="cls-92" d="M568.33,625.66l-6.5,4.38c-.91-.95-1.41-2.04-2.29-3.22l6.56-4.42c.86,1.07,1.46,2.09,2.23,3.26"/>
    <path class="cls-142" d="M535.97,644.95c-.14.04-.26.07-.28.03-.56-.93-1.19-2.28-1.52-3.25.3-.57,2.56-1.54,3.48-1.97l1.77,3.43c-1.16.7-2.41,1.07-3.45,1.75"/>
    <path class="cls-13" d="M301.01,620.96c-.5.94-1.3,2.19-2.01,3-.03.03-.16,0-.3-.05-1.03-.69-2.1-1.33-3.1-2.22l2.23-3.16c1.14.86,2.41,1.39,3.19,2.43"/>
    <path class="cls-13" d="M299.19,624.39l-.19-.47,2.05-2.74c.22-.11.47-.09.73.09l2.75,1.97-2.27,3.19c-1.17-.66-2.02-1.51-3.08-2.04"/>
    <polygon class="cls-92" points="509.86 675.5 506.12 676.75 504.91 673.03 508.62 671.8 509.86 675.5"/>
    <path class="cls-142" d="M478.56,682.73c-.38-.61-.62-1.93-.7-2.78,0-.07.1-.14.24-.23l3.78-.62c.24,1.35.6,2.51.67,3.83-1.34.23-2.46.59-3.7.63-.24-.08-.27-.62-.29-.83"/>
    <path class="cls-142" d="M394.18,665.26c-1.32-.18-2.49-.47-3.83-.84l.8-3.73c1.33.08,2.48.49,3.87.77l-.83,3.81Z"/>
    <path class="cls-92" d="M297.31,644.8l-.3-.34c.34-.66,1.45-2.24,1.93-2.88.03-.05.13-.05.25-.03,1.24.09,2.15,1.3,3.4,1.87l-2.08,3.31-3.2-1.93Z"/>
    <path class="cls-142" d="M396.62,684.13c-.12-.03-.23-.06-.31-.12-.13-.1.57-2.87.77-3.13.02-.16.02-.62.24-.61,1.27.09,2.41.34,3.72.61-.18,1.39-.36,2.62-.69,3.83l-3.73-.6Z"/>
    <path class="cls-92" d="M298.93,641.33c-.08.51-1.75,3.18-2.03,3.11-.12-.03-.21-.07-.29-.16l-3.04-1.91c.67-1.16,1.34-2.23,2.13-3.31l2.79,1.74c.24.15.34.37.45.53"/>
    <path class="cls-142" d="M465.37,664.68c.4.68.53,1.79.39,2.57-.48.5-2.8.61-3.88.71-.23-1.36-.46-2.56-.49-3.85l3.78-.48c.18.41.15.74.19,1.05"/>
    <path class="cls-13" d="M466.06,666.99c-.42-.64-.48-1.79-.42-2.55-.06-.18-.1-.67.04-.85,1.24-.38,2.49-.41,3.77-.57l.56,3.83c-.4.04-4.5,1.02-3.95.14"/>
    <path class="cls-92" d="M396.81,680.65c.05.4-.31,3.19-.45,3.28-.13.08-.69.03-.91-.04-.99-.25-2.05-.19-3.14-.57l.64-3.85,3.53.61c.28.05.31.42.32.58"/>
    <path class="cls-92" d="M533.89,641.75c.36.49,1.82,2.78,1.81,3.23,0,.09-.08.19-.19.28l-3.41,1.66-1.76-3.49c1.3-.63,2.34-1.35,3.55-1.67"/>
    <path class="cls-92" d="M477.64,679.94c.13,0,.24.03.24.06.22.85.5,2.19.32,2.97.03.22.35.73-.17.82-1.19.23-2.31.53-3.52.61-.24-1.38-.57-2.53-.66-3.8,1.35-.29,2.76-.18,3.78-.66"/>
    <path class="cls-92" d="M390.79,660.51c-.04.6-.68,3.71-1.14,3.7-1.17,0-2.27-.45-3.48-.7l.78-3.75c1.33.06,2.51.5,3.83.75"/>
    <path class="cls-63" d="M397.08,680.88c-.09.82-.5,2.36-.46,3.25-.45-.07-.76-.13-1.16-.24,1.35.52.85-2.95,1.35-3.25.08.09.17.18.27.24"/>
    <path class="cls-6" d="M299.19,641.55c-.34.51-1.98,2.8-1.88,3.25-.34-.2-.56-.31-.7-.52.38.5,2.04-2.92,2.32-2.95.09.14.2.22.26.23"/>
    <path class="cls-86" d="M301.06,621.17c-.13.8-2.02,2.54-1.87,3.21-.24-.12-.34-.32-.5-.48l2.31-2.94.05.21Z"/>
    <path class="cls-22" d="M535.97,644.95l-.46.3c-.33-1.25-1.13-2.31-1.62-3.51h.29s1.8,3.2,1.8,3.2Z"/>
    <path class="cls-147" d="M478.56,682.73l-.36.24c-.11-.77-.33-2.22-.56-3.03l.46-.22c-.08.84.4,2.25.46,3.01"/>
    <path class="cls-87" d="M466.06,666.99c-.11.07-.21.16-.3.25-.21-.82-.29-1.71-.4-2.57l.28-.24c.21.61.35,1.84.42,2.55"/>
    <path class="cls-92" d="M427.78,685.69l-.03-2.64-8.7-.57c-5.68-.37-11.21-.98-16.8-1.95l-9.66-1.67c-1.66-.29-3.23-.74-4.82-1.11l1.51-7.14c-2.82,1.11-4.47,3.52-5.53,6.24-1.36-.21-2.62-.5-3.95-.88,1.56-6.79,7.8-11.6,14.84-9.33l-1.87,8.47,4.85.87,1.56-8.54,4.18.73-1.43,8.51c.63.15,1.14.32,1.72.39l10.7,1.24c.29-.73.31-1.34.24-2.03-.08-.7-.6-1.14-1.3-1.23l-9.08-1.08.45-4.5,9.08-5.74,5.89.77-9.05,5.99c1.65.39,3.16.29,4.66.77,2.39.74,3.9,2.69,3.73,5.21-.06.77-.2,1.5-.15,2.25.75.12,1.35.14,2.26.13l.93-14.33,4.26.26-.83,14.31c.82.19,1.55.22,2.36.14l.11-3.64c.08-2.67,2.03-4.54,4.68-4.8,1.61-.15,3.2-.08,4.88.03l-.13,8.52c.61.19,1.3.21,1.93-.05l-.28-14.23c1.44-.14,2.81-.16,4.31-.1l.34,18.03-7,.23c-2.02,3.34-5.25,2.45-8.89,2.48"/>
    <path class="cls-118" d="M432.95,681.22c0,.4-.21.56-.34.61-.14.07-.51.07-.5-.24l.15-6.48c0-.22.15-.3.19-.39.08-.16.58-.18.58.12l-.08,6.37Z"/>
    <path class="cls-92" d="M354.56,664.3l3.26-8,4.1,1.56-3.15,8.13c.89.13,1.45.28,2.29.55l4.56-13.62c1.44.38,2.71.82,4.07,1.35l-5.68,17.11-5.27-1.57-22.13-8.75c-1.33-.53-5.96-3.2-6.52-3.35-2.07-.55-3.89-1.87-5.97-2.64-1.08,1.98-3.35,2.94-5.47,1.83l-5-2.63c.57-1.24,1.14-2.36,1.82-3.36,1.79.68,3.06,1.97,5.05,2.35-1.56-1.14-2.81-2.31-3.16-3.81-.5-2.04,0-3.76,1.05-5.31,3-4.46,7.77-2.21,11.52-.06l-4.01,7.64c1.33.72,2.55,1.4,4.03,1.94.48-1.96-.25-3.65-1.04-5.37l3.63-3.26,5.91,3.08c1.3.67,1.82,2.62,1.33,3.98-.68,1.91-2.1,3.17-3.71,4.52l2.93,1.52c.79.41,1.62.66,2.54,1.01l1.67-4,4.09,1.55-1.51,4.1c.77.43,1.51.72,2.31.9l2.44-5.99,4.07,1.62-2.33,6c.66.46,1.19.57,2.27.98"/>
    <path class="cls-21" d="M324.54,645.56l-2.32,4.26c-1.26-.75-1.29-2.16-.7-3.29.58-1.11,1.7-1.67,3.02-.98"/>
    <path class="cls-107" d="M334.37,652.49l-.12-2.32c.67.23,1.02.65.91,1.14-.1.44-.25.97-.79,1.18"/>
    <path class="cls-92" d="M553.98,642.85c-2.32-4.94,2.04-7.9,5.8-9.98l4.5,7.3c.82-.41,1.51-.8,2.33-1.5-1.98-.77-3.28-2.35-3.62-4.2-.82-4.38,3.9-6.22,7.08-8.53l4.87,7.11c.58-.36,1.04-.62,1.54-1.12l-8.31-11.67c1.14-.9,2.2-1.67,3.5-2.49l10.49,14.68-3.99,2.92-11.89,8.09c1.22,1.98.76,4.23-1.08,5.53-1.56,1.1-3.2,1.98-4.91,3.06l-1.99-3.2c1.4-1.31,3.33-1.66,4.57-3.25-1.85.82-3.43,1.35-5.3.67-1.46-.53-2.78-1.72-3.57-3.42"/>
    <path class="cls-21" d="M560.78,642.29c-.94.92-2.35.25-3.06-.74-.78-1.09-.73-2.47.56-3.29l2.5,4.03Z"/>
    <path class="cls-118" d="M571.08,635.14c-1.24.29-2.99-.15-3.71-1.35-.48-.79.77-2.09,1.43-1.98.86.9,1.48,2.09,2.28,3.33"/>
  </g>
  <g>
    <path class="cls-2" d="M88.75,806.86h-4.49c-.82,0-1.58-.17-2.26-.51-1.33-.66-2.45-1.87-3.36-3.63-1.23-2.42-2.03-5.74-2.4-9.94-1.55,1.92-2.76,3.28-3.63,4.08-1.26,1.17-2.31,1.75-3.15,1.75-.43,0-.98-.07-1.64-.21l-4.18-.82c-1.78-.37-2.88-.63-3.29-.79-.41-.16-.62-.45-.62-.86,0-.62.79-2.56,2.38-5.84,1.59-3.28,2.74-5.31,3.44-6.08.57-.62,1.59-1.42,3.05-2.4.87-.59,2.1-1.36,3.7-2.3l1.82-1.06c-.07-.32-.12-.65-.15-.98-.03-.33-.05-.64-.05-.94,0-.87.2-1.96.6-3.27.4-1.31,1.11-2.94,2.14-4.88l3.29,21.39c.53,3.36,1.21,5.63,2.06,6.82.55.78,1.3,1.17,2.26,1.17h4.49v9.32ZM80.83,758.81l-3.77,6.37-4.87-2.74-2.74,5.42-6.37-3.5,3.56-6.03,5.07,2.54,2.98-5.24,6.13,3.19ZM75.41,787.5l-.69-4.11c-.73.34-1.3.62-1.71.82-1.26.66-2.26,1.28-3.02,1.85-.55.46-1.01.88-1.37,1.27-.46.5-.69.88-.69,1.13,0,.32.4.57,1.2.75.8.18,1.59.27,2.37.27.5,0,1.03-.14,1.58-.43.55-.29,1.33-.81,2.33-1.56Z"/>
    <path class="cls-2" d="M107.8,806.86h-21.46v-9.32h18.03c-.25-1.55-.71-2.87-1.37-3.94-.34-.59-1.14-1.62-2.4-3.08l2.74-8.16c1.71,1.94,2.88,3.98,3.51,6.1.63,2.12.94,5.28.94,9.46v8.95ZM107.25,812.89l-3.77,6.99-4.87-2.74-2.74,5.42-6.38-3.5,3.56-6.65,5.07,2.54,2.88-5.55,6.24,3.5Z"/>
    <path class="cls-2" d="M131.86,806.86h-15.53c-1.51,0-2.66-.32-3.46-.96-.98-.78-1.47-2.04-1.47-3.8,0-1,.05-2.09.15-3.26s.26-2.34.46-3.53l1.3-.07c.18.8.59,1.38,1.22,1.75.63.37,1.39.55,2.28.55h11.79c-.53-3.36-1.44-6.04-2.74-8.05-1.07-1.67-2.57-3.11-4.49-4.32l2.47-10.69c2.97,2.22,5.07,5.07,6.31,8.57,1.14,3.22,1.71,7.49,1.71,12.82v11Z"/>
    <path class="cls-2" d="M163.53,804.5c0,3.93-1.67,7.81-5,11.65s-6.63,5.76-9.87,5.76c-1.9,0-3.97-.61-6.22-1.82-2.25-1.21-5.71-3.6-10.37-7.16l1.44-1.99c2.47,1.65,4.49,2.74,6.07,3.29,1.3.46,2.78.68,4.42.68,2.22,0,4.41-.62,6.58-1.85,2.56-1.46,5.21-3.82,7.95-7.06-.96.14-1.76.21-2.4.21-2.26,0-4.06-.74-5.4-2.21s-2-3.48-2-6.02c0-3.43.79-6.73,2.36-9.9,1.71-3.45,3.67-5.17,5.86-5.17,1.83,0,3.38,1.25,4.66,3.74,1.28,2.49,1.92,5.5,1.92,9.01v8.84ZM159.42,797.54c-.64-3.68-1.94-5.52-3.91-5.52-.71,0-1.27.28-1.7.84s-.63,1.17-.63,1.83c0,.82.45,1.5,1.35,2.04.9.54,2.1.81,3.58.81h1.3Z"/>
    <path class="cls-2" d="M188.82,806.86h-5.07c-1.8,0-3.39-.37-4.76-1.1-1.37-.73-2.48-1.91-3.32-3.53-1.49,1.83-3.42,3.12-5.79,3.87-1.58.5-3.29.75-5.14.75h-3.6v-9.32h3.6c1.9,0,3.23-.1,3.99-.29s1.8-.63,3.1-1.32c-.69-1.35-1.28-2.32-1.78-2.91-.62-.71-1.26-1.06-1.92-1.06-.25,0-.49.08-.7.26-.22.17-.46.5-.74.98l-1.51-.21c0-4.14.71-7.09,2.14-8.86,1.43-1.77,3.68-2.66,6.77-2.66s5.67.62,7.49,1.87c1.82,1.25,2.72,2.95,2.72,5.12,0,1.17-.24,2.28-.72,3.34-.48,1.06-1.38,2.51-2.71,4.33.32.43.75.78,1.3,1.03.55.25,1.07.38,1.58.38h5.07v9.32Z"/>
    <path class="cls-2" d="M231.53,806.86c-2.56,0-4.68-.18-6.38-.55-1.69-.37-3.36-.95-5-1.75-1.33.94-2.51,1.55-3.55,1.85-1.04.3-2.6.45-4.68.45h-5.59c-1.53,0-2.74-.4-3.63-1.2-.89-.8-1.69-2.12-2.4-3.98-1.26,1.92-2.66,3.29-4.22,4.11-1.33.71-2.91,1.06-4.76,1.06h-4.9v-9.32h4.9c2.4,0,4.4-.67,6-2.02,2.08-1.76,3.12-4.43,3.12-8.02l2.26.34c-.05.73-.09,1.57-.14,2.5-.05.94-.07,1.98-.07,3.12s.4,2.14,1.2,2.91c.8.78,1.71,1.17,2.74,1.17h4.22c2.79,0,4.77-.39,5.96-1.17,1.44-.94,2.16-2.68,2.16-5.24,0-.55.17-1.04.51-1.47.21-.25.63-.63,1.27-1.13l1.3-1.03c.04.43.08,1.02.1,1.77.02.74.03,1.23.03,1.46,0,1.26-.18,2.92-.55,5,.84.41,1.79.77,2.84,1.06s2.16.53,3.33.69c0-.78-.29-1.78-.86-3.02-.57-1.23-.86-2.07-.86-2.5,0-.59.08-1.05.24-1.37.04-.11.3-.47.75-1.06l2.91-3.94c.62,1.44,1.06,2.75,1.32,3.92.26,1.18.39,2.65.39,4.4v12.96Z"/>
    <path class="cls-2" d="M247.98,806.86h-18.85v-9.32h14.74l-4.15-23.27-2.19-1.44c0-1.35.21-2.71.62-4.08.53-1.74,1.42-3.8,2.67-6.2l1.58.82c0,.14-.05.5-.14,1.1,0,.75.48,1.49,1.44,2.19.84.64,2.19,1.35,4.04,2.12-.21,1.46-.51,2.89-.91,4.28-.4,1.39-.85,2.64-1.35,3.74l-1.23-.48,3.74,21.21v9.32Z"/>
    <path class="cls-2" d="M260.66,796.89c0,2.03-.24,3.89-.72,5.57-.48,1.68-1.41,3.94-2.78,6.77l-2.06-.82c.55-2.92.82-5.3.82-7.13,0-1.39-.11-3.44-.34-6.13s-.51-5.36-.86-8-.9-5.79-1.68-9.44c-.27-1.28-.41-2.16-.41-2.64,0-.71.35-1.91,1.06-3.62.71-1.7,1.7-3.76,2.98-6.19l2.06,12.13c.75,4.62,1.28,8.61,1.58,12,.23,2.6.34,5.11.34,7.5Z"/>
    <path class="cls-2" d="M311.83,806.86h-4.49c-.82,0-1.58-.17-2.26-.51-1.33-.66-2.45-1.87-3.36-3.63-1.23-2.42-2.03-5.74-2.4-9.94-1.55,1.92-2.76,3.28-3.63,4.08-1.26,1.17-2.31,1.75-3.15,1.75-.43,0-.98-.07-1.64-.21l-4.18-.82c-1.78-.37-2.88-.63-3.29-.79-.41-.16-.62-.45-.62-.86,0-.62.79-2.56,2.38-5.84,1.59-3.28,2.74-5.31,3.44-6.08.57-.62,1.59-1.42,3.05-2.4.87-.59,2.1-1.36,3.7-2.3l1.82-1.06c-.07-.32-.12-.65-.15-.98-.03-.33-.05-.64-.05-.94,0-.87.2-1.96.6-3.27.4-1.31,1.11-2.94,2.14-4.88l3.29,21.39c.53,3.36,1.21,5.63,2.06,6.82.55.78,1.3,1.17,2.26,1.17h4.49v9.32ZM303.91,758.81l-3.77,6.37-4.87-2.74-2.74,5.42-6.37-3.5,3.56-6.03,5.07,2.54,2.98-5.24,6.13,3.19ZM298.49,787.5l-.69-4.11c-.73.34-1.3.62-1.71.82-1.26.66-2.26,1.28-3.02,1.85-.55.46-1.01.88-1.37,1.27-.46.5-.69.88-.69,1.13,0,.32.4.57,1.2.75.8.18,1.59.27,2.37.27.5,0,1.03-.14,1.58-.43.55-.29,1.33-.81,2.33-1.56Z"/>
    <path class="cls-2" d="M330.88,806.86h-21.46v-9.32h18.03c-.25-1.55-.71-2.87-1.37-3.94-.34-.59-1.14-1.62-2.4-3.08l2.74-8.16c1.71,1.94,2.88,3.98,3.51,6.1.63,2.12.94,5.28.94,9.46v8.95ZM330.33,812.89l-3.77,6.99-4.87-2.74-2.74,5.42-6.38-3.5,3.56-6.65,5.07,2.54,2.88-5.55,6.24,3.5Z"/>
    <path class="cls-2" d="M356.17,806.86h-27.69v-9.32h22.24c-.89-1.07-1.76-2.01-2.6-2.81-.69-.64-1.61-1.42-2.78-2.33-1.3-1-2.59-2.01-3.87-3.02l-1.1,1.23c-2.03-2.01-3.24-3.23-3.63-3.67-1.14-1.3-1.71-2.8-1.71-4.49,0-2.31.16-3.93.48-4.87.46-1.33,1.43-2.5,2.91-3.53,1.33-.91,2.74-1.75,4.25-2.5,1.19-.59,2.76-1.29,4.73-2.09.91-.37,2.84-1.12,5.79-2.26v8.16c-.11,0-1.07.3-2.88.89-2.24.73-4.02,1.37-5.35,1.92-1.92.78-2.88,1.36-2.88,1.75,0,.21.81,1.1,2.43,2.67,2.22,2.15,4.08,4.11,5.59,5.89,2.49,2.95,4.51,5.88,6.07,8.81v9.56Z"/>
    <path class="cls-2" d="M372.63,806.86h-18.85v-9.32h14.74l-4.15-23.27-2.19-1.44c0-1.35.21-2.71.62-4.08.53-1.74,1.42-3.8,2.67-6.2l1.58.82c0,.14-.05.5-.14,1.1,0,.75.48,1.49,1.44,2.19.84.64,2.19,1.35,4.04,2.12-.21,1.46-.51,2.89-.91,4.28-.4,1.39-.85,2.64-1.35,3.74l-1.23-.48,3.74,21.21v9.32Z"/>
    <path class="cls-2" d="M401.76,806.83c-2.4,0-5.22-.47-8.47-1.41-2.86-.82-5.37-1.79-7.54-2.91-1.33,1.99-2.96,3.29-4.9,3.91-.94.3-2.22.45-3.84.45h-6.79v-9.32h6.79c2.06,0,3.69-.25,4.9-.75,1.55-.64,2.63-1.75,3.22-3.32,1.3-2.9,2.97-5.29,5-7.16,1.8-1.67,3.33-2.5,4.59-2.5,1.17,0,2.61,1.76,4.32,5.28,1.8,3.72,2.71,7.15,2.71,10.28v7.47ZM395.35,796.47c0-.5-.49-1.37-1.47-2.6-1.1-1.37-2.04-2.06-2.84-2.06-.89,0-1.64,1.03-2.26,3.08,1.19.46,2.09.8,2.71,1.03,1.85.69,2.89,1.03,3.12,1.03.5,0,.75-.16.75-.48Z"/>
    <path class="cls-2" d="M415.67,806.86h-16.31v-9.32h16.31v9.32Z"/>
    <path class="cls-2" d="M432.12,806.86h-18.85v-9.32h14.74l-4.15-23.27-2.19-1.44c0-1.35.21-2.71.62-4.08.53-1.74,1.42-3.8,2.67-6.2l1.58.82c0,.14-.05.5-.14,1.1,0,.75.48,1.49,1.44,2.19.84.64,2.19,1.35,4.04,2.12-.21,1.46-.51,2.89-.91,4.28-.4,1.39-.85,2.64-1.35,3.74l-1.23-.48,3.74,21.21v9.32Z"/>
    <path class="cls-2" d="M444.8,796.89c0,2.03-.24,3.89-.72,5.57-.48,1.68-1.41,3.94-2.78,6.77l-2.06-.82c.55-2.92.82-5.3.82-7.13,0-1.39-.11-3.44-.34-6.13s-.51-5.36-.86-8-.9-5.79-1.68-9.44c-.27-1.28-.41-2.16-.41-2.64,0-.71.35-1.91,1.06-3.62.71-1.7,1.7-3.76,2.98-6.19l2.06,12.13c.75,4.62,1.28,8.61,1.58,12,.23,2.6.34,5.11.34,7.5Z"/>
    <path class="cls-2" d="M495.97,806.86h-4.49c-.82,0-1.58-.17-2.26-.51-1.33-.66-2.45-1.87-3.36-3.63-1.23-2.42-2.03-5.74-2.4-9.94-1.55,1.92-2.76,3.28-3.63,4.08-1.26,1.17-2.31,1.75-3.15,1.75-.43,0-.98-.07-1.64-.21l-4.18-.82c-1.78-.37-2.88-.63-3.29-.79-.41-.16-.62-.45-.62-.86,0-.62.79-2.56,2.38-5.84,1.59-3.28,2.74-5.31,3.44-6.08.57-.62,1.59-1.42,3.05-2.4.87-.59,2.1-1.36,3.7-2.3l1.82-1.06c-.07-.32-.12-.65-.15-.98-.03-.33-.05-.64-.05-.94,0-.87.2-1.96.6-3.27.4-1.31,1.11-2.94,2.14-4.88l3.29,21.39c.53,3.36,1.21,5.63,2.06,6.82.55.78,1.3,1.17,2.26,1.17h4.49v9.32ZM488.06,758.81l-3.77,6.37-4.87-2.74-2.74,5.42-6.37-3.5,3.56-6.03,5.07,2.54,2.98-5.24,6.13,3.19ZM482.64,787.5l-.69-4.11c-.73.34-1.3.62-1.71.82-1.26.66-2.26,1.28-3.02,1.85-.55.46-1.01.88-1.37,1.27-.46.5-.69.88-.69,1.13,0,.32.4.57,1.2.75.8.18,1.59.27,2.37.27.5,0,1.03-.14,1.58-.43.55-.29,1.33-.81,2.33-1.56Z"/>
    <path class="cls-2" d="M515.03,806.86h-21.46v-9.32h18.03c-.25-1.55-.71-2.87-1.37-3.94-.34-.59-1.14-1.62-2.4-3.08l2.74-8.16c1.71,1.94,2.88,3.98,3.51,6.1.63,2.12.94,5.28.94,9.46v8.95ZM514.48,812.89l-3.77,6.99-4.87-2.74-2.74,5.42-6.38-3.5,3.56-6.65,5.07,2.54,2.88-5.55,6.24,3.5Z"/>
    <path class="cls-2" d="M545.39,807.65c0,1.39-.8,3.24-2.4,5.54-1.6,2.3-3.47,4.29-5.62,5.98-2.38,1.87-4.41,2.81-6.1,2.81-2.01,0-4.17-.57-6.48-1.71-2.01-.98-5.15-2.95-9.42-5.89l1.44-2.12c2.06,1.37,3.71,2.3,4.97,2.78,1.26.48,2.62.72,4.08.72,1.58,0,3.15-.45,4.73-1.34,1.58-.89,3.72-2.55,6.44-4.97,3.79-3.38,5.69-5.99,5.69-7.81,0-.91-.37-2.11-1.1-3.6-.82-1.69-1.83-3.1-3.02-4.22l1.92-9.25c1.55,1.6,2.75,3.44,3.6,5.52.84,2.08,1.27,4.44,1.27,7.09v10.49Z"/>
    <path class="cls-2" d="M559.31,806.86h-16.31v-9.32h16.31v9.32Z"/>
    <path class="cls-2" d="M573.22,806.86h-16.31v-9.32h16.31v9.32Z"/>
    <path class="cls-2" d="M609.96,806.86h-39.14v-9.32h24.37c-2.76-2.86-5.32-4.91-7.68-6.17-2.08-1.12-4.11-1.68-6.1-1.68-.59,0-1.14.03-1.63.09-.49.06-1.21.19-2.14.39,1.26-2.88,2.66-5,4.2-6.38,1.54-1.37,3.3-2.06,5.26-2.06,1.51,0,2.96.37,4.35,1.1,1.39.73,2.96,1.91,4.7,3.53,1.37,1.28,3.31,3.28,5.83,6,1.71,1.92,3.02,3.17,3.92,3.74.9.57,2.26,1.05,4.06,1.44v9.32Z"/>
    <path class="cls-2" d="M629.02,806.86h-21.46v-9.32h18.03c-.25-1.55-.71-2.87-1.37-3.94-.34-.59-1.14-1.62-2.4-3.08l2.74-8.16c1.71,1.94,2.88,3.98,3.51,6.1.63,2.12.94,5.28.94,9.46v8.95ZM625.52,814.09l-4.11,7.68-7.95-4.32,4.11-7.81,7.95,4.46Z"/>
    <path class="cls-2" d="M645.47,806.86h-18.85v-9.32h14.74l-4.15-23.27-2.19-1.44c0-1.35.21-2.71.62-4.08.53-1.74,1.42-3.8,2.67-6.2l1.58.82c0,.14-.05.5-.14,1.1,0,.75.48,1.49,1.44,2.19.84.64,2.19,1.35,4.04,2.12-.21,1.46-.51,2.89-.91,4.28-.4,1.39-.85,2.64-1.35,3.74l-1.23-.48,3.74,21.21v9.32Z"/>
    <path class="cls-2" d="M658.15,796.89c0,2.03-.24,3.89-.72,5.57-.48,1.68-1.41,3.94-2.78,6.77l-2.06-.82c.55-2.92.82-5.3.82-7.13,0-1.39-.11-3.44-.34-6.13s-.51-5.36-.86-8-.9-5.79-1.68-9.44c-.27-1.28-.41-2.16-.41-2.64,0-.71.35-1.91,1.06-3.62.71-1.7,1.7-3.76,2.98-6.19l2.06,12.13c.75,4.62,1.28,8.61,1.58,12,.23,2.6.34,5.11.34,7.5Z"/>
    <path class="cls-2" d="M725.77,806.86h-28.75c-2.76,0-4.6-.04-5.5-.14-.9-.09-1.88-.33-2.93-.72-1.87-.64-3.42-1.94-4.63-3.91s-1.82-4.16-1.82-6.58c0-.94.05-1.78.14-2.52.09-.74.27-1.62.55-2.62.39-1.48.82-2.73,1.3-3.74.48-1,1.33-2.37,2.54-4.08l1.92,1.37c-.98,1.81-1.65,3.23-2,4.28-.35,1.05-.53,2.09-.53,3.12,0,1.3.42,2.47,1.25,3.51.83,1.04,1.92,1.72,3.27,2.04.8.21,1.84.37,3.14.48s2.64.17,4.06.17h24.78c-.64-1.74-1.17-2.97-1.58-3.7-.48-.87-1.26-1.98-2.33-3.32l3.08-7.95c1.71,2.44,2.83,4.68,3.36,6.72.46,1.78.69,4.41.69,7.88v9.7ZM713.67,774.33l-3.77,6.99-4.87-2.74-2.74,5.42-6.37-3.5,3.56-6.65,5.07,2.54,2.88-5.55,6.24,3.5Z"/>
    <path class="cls-2" d="M738.45,796.89c0,2.03-.24,3.89-.72,5.57-.48,1.68-1.41,3.94-2.78,6.77l-2.06-.82c.55-2.92.82-5.3.82-7.13,0-1.39-.11-3.44-.34-6.13s-.51-5.36-.86-8-.9-5.79-1.68-9.44c-.27-1.28-.41-2.16-.41-2.64,0-.71.35-1.91,1.06-3.62.71-1.7,1.7-3.76,2.98-6.19l2.06,12.13c.75,4.62,1.28,8.61,1.58,12,.23,2.6.34,5.11.34,7.5Z"/>
    <path class="cls-2" d="M772.66,804.5c0,3.93-1.67,7.81-5,11.65s-6.63,5.76-9.87,5.76c-1.9,0-3.97-.61-6.22-1.82-2.25-1.21-5.71-3.6-10.37-7.16l1.44-1.99c2.47,1.65,4.49,2.74,6.07,3.29,1.3.46,2.78.68,4.42.68,2.22,0,4.41-.62,6.58-1.85,2.56-1.46,5.21-3.82,7.95-7.06-.96.14-1.76.21-2.4.21-2.26,0-4.06-.74-5.4-2.21s-2-3.48-2-6.02c0-3.43.79-6.73,2.36-9.9,1.71-3.45,3.67-5.17,5.86-5.17,1.83,0,3.38,1.25,4.66,3.74,1.28,2.49,1.92,5.5,1.92,9.01v8.84ZM768.54,797.54c-.64-3.68-1.94-5.52-3.91-5.52-.71,0-1.27.28-1.7.84s-.63,1.17-.63,1.83c0,.82.45,1.5,1.35,2.04.9.54,2.1.81,3.58.81h1.3Z"/>
    <path class="cls-2" d="M795.41,806.86h-25.16v-9.32h6.17c1.05,0,2.04.05,2.98.14,2.51.27,5.38.58,8.6.92-3.41-.75-5.79-1.75-7.15-3-1.36-1.25-2.04-3.06-2.04-5.43,0-3.54.82-6.73,2.45-9.58s3.47-4.27,5.5-4.27c2.31,0,4.32,1.99,6.05,5.98,1.72,3.99,2.59,8.8,2.59,14.45v10.11ZM791.13,765.63l-3.77,6.99-4.87-2.74-2.74,5.42-6.38-3.5,3.56-6.65,5.07,2.54,2.88-5.55,6.24,3.5ZM790.75,792.64c-.82-1.96-1.74-3.5-2.74-4.59-1.01-1.1-2.01-1.65-3.02-1.65-.46,0-.86.15-1.2.45s-.51.65-.51,1.06c0,.98.74,1.94,2.21,2.86s3.23,1.55,5.26,1.87Z"/>
    <path class="cls-2" d="M811.86,806.86h-18.85v-9.32h14.74l-4.15-23.27-2.19-1.44c0-1.35.21-2.71.62-4.08.53-1.74,1.42-3.8,2.67-6.2l1.58.82c0,.14-.05.5-.14,1.1,0,.75.48,1.49,1.44,2.19.84.64,2.19,1.35,4.04,2.12-.21,1.46-.51,2.89-.91,4.28-.4,1.39-.85,2.64-1.35,3.74l-1.23-.48,3.74,21.21v9.32Z"/>
    <path class="cls-2" d="M824.54,796.89c0,2.03-.24,3.89-.72,5.57-.48,1.68-1.41,3.94-2.78,6.77l-2.06-.82c.55-2.92.82-5.3.82-7.13,0-1.39-.11-3.44-.34-6.13s-.51-5.36-.86-8-.9-5.79-1.68-9.44c-.27-1.28-.41-2.16-.41-2.64,0-.71.35-1.91,1.06-3.62.71-1.7,1.7-3.76,2.98-6.19l2.06,12.13c.75,4.62,1.28,8.61,1.58,12,.23,2.6.34,5.11.34,7.5Z"/>
  </g>
  <g>
    <path class="cls-2" d="M64.12,872.63v-37.02h15.73c3.96,0,6.83.33,8.62,1,1.79.67,3.23,1.85,4.31,3.55,1.08,1.7,1.62,3.64,1.62,5.83,0,2.78-.82,5.07-2.45,6.88s-4.07,2.95-7.32,3.42c1.62.94,2.95,1.98,4,3.11,1.05,1.13,2.47,3.13,4.25,6.01l4.52,7.22h-8.94l-5.4-8.06c-1.92-2.88-3.23-4.69-3.94-5.44-.71-.75-1.46-1.26-2.25-1.54-.79-.28-2.05-.42-3.76-.42h-1.52v15.46h-7.47ZM71.6,851.27h5.53c3.59,0,5.82-.15,6.72-.46.89-.3,1.59-.82,2.1-1.57.5-.74.76-1.67.76-2.78,0-1.25-.33-2.25-1-3.02-.67-.77-1.6-1.25-2.82-1.45-.61-.08-2.42-.13-5.46-.13h-5.83v9.39Z"/>
    <path class="cls-2" d="M99.93,854.35c0-3.77.56-6.94,1.69-9.5.84-1.88,1.99-3.58,3.45-5.08,1.46-1.5,3.05-2.61,4.79-3.33,2.31-.98,4.97-1.46,7.98-1.46,5.46,0,9.82,1.69,13.09,5.08s4.91,8.09,4.91,14.12-1.62,10.65-4.87,14.03c-3.25,3.38-7.59,5.06-13.03,5.06s-9.88-1.68-13.13-5.04c-3.25-3.36-4.87-7.98-4.87-13.88ZM107.64,854.09c0,4.19.97,7.37,2.9,9.53,1.94,2.16,4.39,3.25,7.37,3.25s5.42-1.07,7.34-3.22c1.91-2.15,2.87-5.37,2.87-9.66s-.93-7.41-2.79-9.5c-1.86-2.09-4.33-3.13-7.41-3.13s-5.56,1.06-7.45,3.17c-1.89,2.11-2.83,5.3-2.83,9.56Z"/>
    <path class="cls-2" d="M151.4,872.63v-15.58l-13.56-21.44h8.76l8.71,14.65,8.54-14.65h8.61l-13.61,21.49v15.53h-7.45Z"/>
    <path class="cls-2" d="M204.81,872.63h-8.13l-3.23-8.41h-14.8l-3.06,8.41h-7.93l14.42-37.02h7.9l14.82,37.02ZM191.05,857.98l-5.1-13.74-5,13.74h10.1Z"/>
    <path class="cls-2" d="M208.98,872.63v-36.72h7.47v30.48h18.59v6.24h-26.06Z"/>
    <path class="cls-2" d="M251.91,860.58l7.27-.71c.44,2.44,1.33,4.23,2.66,5.38,1.34,1.15,3.14,1.72,5.42,1.72,2.41,0,4.22-.51,5.44-1.53s1.83-2.21,1.83-3.57c0-.88-.26-1.62-.77-2.24-.51-.61-1.41-1.15-2.69-1.6-.88-.3-2.87-.84-5.99-1.62-4.01-.99-6.82-2.21-8.43-3.66-2.27-2.04-3.41-4.52-3.41-7.45,0-1.89.53-3.65,1.6-5.29s2.61-2.89,4.62-3.75c2.01-.86,4.44-1.29,7.29-1.29,4.65,0,8.14,1.02,10.49,3.06,2.35,2.04,3.58,4.76,3.7,8.16l-7.47.33c-.32-1.9-1.01-3.27-2.06-4.1s-2.63-1.25-4.74-1.25-3.87.45-5.1,1.34c-.79.57-1.19,1.34-1.19,2.3,0,.88.37,1.62,1.11,2.25.94.79,3.23,1.62,6.87,2.47,3.64.86,6.33,1.75,8.07,2.67,1.74.92,3.11,2.17,4.09,3.76.99,1.59,1.48,3.56,1.48,5.9,0,2.12-.59,4.11-1.77,5.96s-2.85,3.23-5,4.13c-2.16.9-4.84,1.35-8.06,1.35-4.68,0-8.28-1.08-10.78-3.25-2.51-2.16-4.01-5.32-4.5-9.46Z"/>
    <path class="cls-2" d="M321.68,872.63h-8.13l-3.23-8.41h-14.8l-3.06,8.41h-7.93l14.42-37.02h7.9l14.82,37.02ZM307.92,857.98l-5.1-13.74-5,13.74h10.1Z"/>
    <path class="cls-2" d="M325.6,835.61h7.48v20.05c0,3.18.09,5.25.28,6.19.32,1.52,1.08,2.73,2.29,3.65,1.2.92,2.85,1.38,4.94,1.38s3.72-.43,4.8-1.3c1.08-.87,1.73-1.93,1.95-3.19.22-1.26.33-3.36.33-6.29v-20.48h7.47v19.45c0,4.44-.2,7.58-.61,9.42-.4,1.84-1.15,3.38-2.24,4.65-1.09,1.26-2.54,2.27-4.36,3.02s-4.19,1.12-7.12,1.12c-3.54,0-6.22-.41-8.04-1.22-1.83-.82-3.27-1.88-4.33-3.18s-1.76-2.67-2.1-4.1c-.49-2.12-.73-5.25-.73-9.39v-19.75Z"/>
    <path class="cls-2" d="M362.97,835.61h13.66c3.08,0,5.43.24,7.05.71,2.17.64,4.03,1.78,5.58,3.41s2.73,3.63,3.54,6c.81,2.37,1.21,5.28,1.21,8.75,0,3.05-.38,5.67-1.14,7.88-.93,2.69-2.25,4.87-3.96,6.54-1.3,1.26-3.05,2.25-5.25,2.95-1.65.52-3.86.78-6.62.78h-14.07v-37.02ZM370.45,841.87v24.52h5.58c2.09,0,3.59-.12,4.52-.35,1.21-.3,2.22-.82,3.02-1.54.8-.72,1.45-1.92,1.96-3.57s.76-3.92.76-6.78-.25-5.06-.76-6.59c-.5-1.53-1.21-2.73-2.12-3.59-.91-.86-2.06-1.44-3.46-1.74-1.04-.24-3.09-.35-6.14-.35h-3.36Z"/>
    <path class="cls-2" d="M400.12,872.63v-37.02h7.48v37.02h-7.48Z"/>
    <path class="cls-2" d="M429.16,872.63v-37.02h7.27l15.15,24.72v-24.72h6.94v37.02h-7.5l-14.92-24.14v24.14h-6.94Z"/>
    <path class="cls-2" d="M499.82,872.63h-8.13l-3.23-8.41h-14.8l-3.06,8.41h-7.93l14.42-37.02h7.9l14.82,37.02ZM486.06,857.98l-5.1-13.74-5,13.74h10.1Z"/>
    <path class="cls-2" d="M509.4,872.63l-13.23-37.02h8.11l9.37,27.4,9.07-27.4h7.93l-13.26,37.02h-7.98Z"/>
    <path class="cls-2" d="M563.99,872.63h-8.13l-3.23-8.41h-14.8l-3.06,8.41h-7.93l14.42-37.02h7.9l14.82,37.02ZM550.23,857.98l-5.1-13.74-5,13.74h10.1Z"/>
    <path class="cls-2" d="M568.16,872.63v-36.72h7.47v30.48h18.59v6.24h-26.06Z"/>
    <path class="cls-2" d="M613.03,872.63v-37.02h25.38v6.26h-17.91v8.76h15.46v6.26h-15.46v15.73h-7.47Z"/>
    <path class="cls-2" d="M643.06,854.35c0-3.77.56-6.94,1.69-9.5.84-1.88,1.99-3.58,3.45-5.08,1.46-1.5,3.05-2.61,4.79-3.33,2.31-.98,4.97-1.46,7.98-1.46,5.46,0,9.82,1.69,13.09,5.08s4.91,8.09,4.91,14.12-1.62,10.65-4.87,14.03c-3.25,3.38-7.59,5.06-13.03,5.06s-9.88-1.68-13.13-5.04c-3.25-3.36-4.87-7.98-4.87-13.88ZM650.76,854.09c0,4.19.97,7.37,2.9,9.53,1.94,2.16,4.39,3.25,7.37,3.25s5.42-1.07,7.34-3.22c1.91-2.15,2.87-5.37,2.87-9.66s-.93-7.41-2.79-9.5c-1.86-2.09-4.33-3.13-7.41-3.13s-5.56,1.06-7.45,3.17c-1.89,2.11-2.83,5.3-2.83,9.56Z"/>
    <path class="cls-2" d="M684.83,872.63v-37.02h15.73c3.96,0,6.83.33,8.62,1,1.79.67,3.23,1.85,4.31,3.55,1.08,1.7,1.62,3.64,1.62,5.83,0,2.78-.82,5.07-2.45,6.88s-4.07,2.95-7.32,3.42c1.62.94,2.95,1.98,4,3.11,1.05,1.13,2.47,3.13,4.25,6.01l4.52,7.22h-8.94l-5.4-8.06c-1.92-2.88-3.23-4.69-3.94-5.44-.71-.75-1.46-1.26-2.25-1.54-.79-.28-2.05-.42-3.76-.42h-1.52v15.46h-7.47ZM692.31,851.27h5.53c3.59,0,5.82-.15,6.72-.46.89-.3,1.59-.82,2.1-1.57.5-.74.76-1.67.76-2.78,0-1.25-.33-2.25-1-3.02-.67-.77-1.6-1.25-2.82-1.45-.61-.08-2.42-.13-5.46-.13h-5.83v9.39Z"/>
    <path class="cls-2" d="M745.84,859.02l7.25,2.3c-1.11,4.04-2.96,7.04-5.54,9-2.58,1.96-5.86,2.94-9.84,2.94-4.92,0-8.96-1.68-12.12-5.04-3.17-3.36-4.75-7.95-4.75-13.78,0-6.16,1.59-10.95,4.77-14.36s7.37-5.11,12.55-5.11c4.53,0,8.21,1.34,11.04,4.02,1.68,1.58,2.95,3.86,3.79,6.82l-7.4,1.77c-.44-1.92-1.35-3.43-2.74-4.54-1.39-1.11-3.08-1.67-5.06-1.67-2.74,0-4.97.98-6.68,2.95s-2.56,5.16-2.56,9.57c0,4.68.84,8.01,2.53,10,1.68,1.99,3.87,2.98,6.57,2.98,1.99,0,3.7-.63,5.13-1.89,1.43-1.26,2.46-3.25,3.08-5.96Z"/>
    <path class="cls-2" d="M759.5,872.63v-37.02h27.45v6.26h-19.97v8.21h18.59v6.24h-18.59v10.08h20.68v6.24h-28.16Z"/>
    <path class="cls-2" d="M792.11,860.58l7.27-.71c.44,2.44,1.33,4.23,2.66,5.38,1.34,1.15,3.14,1.72,5.42,1.72,2.41,0,4.22-.51,5.44-1.53s1.83-2.21,1.83-3.57c0-.88-.26-1.62-.77-2.24-.51-.61-1.41-1.15-2.69-1.6-.88-.3-2.87-.84-5.99-1.62-4.01-.99-6.82-2.21-8.43-3.66-2.27-2.04-3.41-4.52-3.41-7.45,0-1.89.53-3.65,1.6-5.29s2.61-2.89,4.62-3.75c2.01-.86,4.44-1.29,7.29-1.29,4.65,0,8.14,1.02,10.49,3.06,2.35,2.04,3.58,4.76,3.7,8.16l-7.47.33c-.32-1.9-1.01-3.27-2.06-4.1s-2.63-1.25-4.74-1.25-3.87.45-5.1,1.34c-.79.57-1.19,1.34-1.19,2.3,0,.88.37,1.62,1.11,2.25.94.79,3.23,1.62,6.87,2.47,3.64.86,6.33,1.75,8.07,2.67,1.74.92,3.11,2.17,4.09,3.76.99,1.59,1.48,3.56,1.48,5.9,0,2.12-.59,4.11-1.77,5.96s-2.85,3.23-5,4.13c-2.16.9-4.84,1.35-8.06,1.35-4.68,0-8.28-1.08-10.78-3.25-2.51-2.16-4.01-5.32-4.5-9.46Z"/>
  </g>
</svg>