<?xml version="1.0" encoding="UTF-8"?>
<svg id="Layer_1" data-name="Layer 1" xmlns="http://www.w3.org/2000/svg" viewBox="0 0 649.82 300">
  <defs>
    <style>
      .cls-1 {
        fill: #d4bda3;
      }

      .cls-2 {
        fill: #5b4280;
      }
    </style>
  </defs>
  <g>
    <polygon class="cls-2" points="142.26 112.25 115.79 149.16 130.37 204.64 204.75 79.85 94.25 137.13 49.02 91.47 142.26 112.25"/>
    <polygon class="cls-1" points="142.43 112.18 93.03 137.95 46.47 90.68 142.43 112.18"/>
  </g>
  <g>
    <g>
      <path class="cls-2" d="M207.25,184.38l4.26-10.34c4.56,3.2,9.04,4.79,13.45,4.79,6.77,0,10.16-2.37,10.16-7.1,0-2.22-.8-4.33-2.4-6.35-1.6-2.01-4.89-4.27-9.87-6.77-4.99-2.5-8.34-4.56-10.07-6.17-1.73-1.61-3.06-3.53-3.99-5.75-.93-2.22-1.4-4.67-1.4-7.37,0-5.03,1.84-9.2,5.53-12.52,3.68-3.31,8.41-4.97,14.18-4.97,7.51,0,13.03,1.41,16.55,4.22l-3.51,9.94c-4.05-2.9-8.33-4.35-12.83-4.35-2.66,0-4.73.7-6.19,2.11-1.46,1.41-2.2,3.23-2.2,5.48,0,3.73,4.13,7.6,12.38,11.63,4.35,2.13,7.48,4.09,9.41,5.88,1.92,1.79,3.39,3.88,4.39,6.26,1.01,2.38,1.51,5.04,1.51,7.97,0,5.27-2.08,9.6-6.24,13-4.16,3.4-9.73,5.1-16.71,5.1-6.07,0-11.54-1.57-16.42-4.7Z"/>
      <path class="cls-2" d="M283.27,133.21v54.77h-11.54v-54.77h-20.68v-10.25h53.83v10.25h-21.61Z"/>
      <path class="cls-2" d="M398.04,187.98l-17.35-26.85c-1.75-.03-4.19-.13-7.32-.31v27.16h-11.98v-65.02c.65,0,3.15-.11,7.5-.33s7.86-.33,10.52-.33c16.51,0,24.76,6.39,24.76,19.17,0,3.85-1.14,7.35-3.42,10.52-2.28,3.17-5.15,5.4-8.61,6.7l19.22,29.29h-13.31ZM373.36,132.99v18.06c2.13.18,3.76.27,4.88.27,4.82,0,8.35-.68,10.58-2.04,2.23-1.36,3.35-4.01,3.35-7.94,0-3.2-1.2-5.43-3.59-6.7-2.4-1.27-6.17-1.91-11.32-1.91-1.24,0-2.54.09-3.91.27Z"/>
      <path class="cls-2" d="M439.67,133.21v54.77h-11.54v-54.77h-20.68v-10.25h53.83v10.25h-21.61Z"/>
      <path class="cls-2" d="M469.05,187.98v-65.02h11.54v65.02h-11.54Z"/>
      <path class="cls-2" d="M554.74,188.02h-11.18l-6.75-35.06-13.09,35.9h-4.13l-13.09-35.9-7.01,35.06h-11.14l13.09-65.06h6.12l14.07,43.8,13.76-43.8h6.08l13.27,65.06Z"/>
      <path class="cls-2" d="M573.38,133.21v15.22h21.48v9.81h-21.48v19.48h29.47v10.25h-41.01v-65.02h41.5v10.25h-29.96Z"/>
    </g>
    <path class="cls-1" d="M436.04,198.79h3.52v10.14c0,.94.26,1.7.78,2.27s1.21.86,2.06.86c.98,0,1.73-.29,2.27-.86.54-.58.81-1.39.81-2.44v-9.96h3.51v10.73c0,.94-.24,1.92-.73,2.94s-1.24,1.79-2.25,2.33c-1.01.54-2.15.81-3.4.81-2.27,0-3.94-.63-4.99-1.9s-1.58-2.6-1.58-4v-10.91Z"/>
    <path class="cls-1" d="M452.46,198.51h3.23v16.86h-3.23v-16.86Z"/>
    <path class="cls-1" d="M459.02,200.78h3.23v3.73h1.55v2.97h-1.55v7.89h-3.23v-7.89h-1.24v-2.97h1.24v-3.73Z"/>
    <path class="cls-1" d="M465.48,200.49c0-.55.2-1.02.59-1.42.4-.4.87-.6,1.43-.6s1.03.2,1.43.6c.4.4.59.87.59,1.42s-.2,1.03-.59,1.43c-.4.4-.87.6-1.43.6s-1.03-.2-1.43-.6c-.4-.4-.59-.87-.59-1.43ZM465.89,204.51h3.23v10.86h-3.23v-10.86Z"/>
    <path class="cls-1" d="M475.87,204.51v1.73c.15-.1.37-.29.67-.58.29-.29.58-.53.85-.73.27-.2.6-.36.98-.48s.73-.18,1.04-.18c.5,0,1.04.18,1.62.52.58.35,1.06.97,1.45,1.86.67-.86,1.33-1.47,1.98-1.84.64-.37,1.24-.55,1.8-.55.98,0,1.82.41,2.5,1.22.68.81,1.02,1.81,1.02,3v6.88h-3.23v-6.02c0-.6-.16-1.1-.49-1.51-.33-.41-.72-.61-1.19-.61-.56,0-1.04.23-1.44.69-.4.46-.61,1.02-.61,1.65v5.8h-3.21v-5.87c0-.63-.17-1.16-.5-1.6s-.73-.65-1.21-.65c-.56,0-1.04.24-1.44.71-.4.48-.61,1.05-.61,1.71v5.69h-3.26v-10.86h3.26Z"/>
    <path class="cls-1" d="M500.15,215.37v-1.86h-.05c-.51.72-1.01,1.25-1.53,1.57-.51.32-1.15.49-1.91.49-1.27,0-2.35-.55-3.25-1.64-.89-1.09-1.34-2.42-1.34-3.99s.48-2.88,1.43-3.98c.95-1.11,2.08-1.66,3.38-1.66.62,0,1.18.14,1.68.42.5.28,1.02.72,1.58,1.33v-1.5h3.23v10.83h-3.23ZM497.78,207.53c-.64,0-1.17.25-1.6.76-.43.51-.64,1.15-.64,1.93,0,.72.2,1.31.61,1.75.41.44.94.66,1.61.66s1.19-.25,1.64-.76.68-1.13.68-1.85c0-.67-.23-1.26-.68-1.75-.45-.49-.99-.74-1.62-.74Z"/>
    <path class="cls-1" d="M507.11,200.78h3.23v3.73h1.55v2.97h-1.55v7.89h-3.23v-7.89h-1.24v-2.97h1.24v-3.73Z"/>
    <path class="cls-1" d="M523.94,210.71h-7.74c.04.7.27,1.27.69,1.7s.9.66,1.46.66c.99,0,1.77-.45,2.34-1.35l2.97.98c-1.1,1.93-2.82,2.89-5.14,2.89-1.71,0-3.07-.52-4.08-1.55-1.01-1.04-1.52-2.43-1.52-4.18,0-1.57.53-2.9,1.6-3.96s2.38-1.6,3.93-1.6,2.87.56,3.92,1.69c1.05,1.12,1.57,2.53,1.57,4.21v.52ZM516.22,208.54h4.37c-.3-1.36-1-2.03-2.08-2.03-.62,0-1.14.18-1.55.53s-.65.85-.74,1.5Z"/>
    <path class="cls-1" d="M533.07,198.79h3.57v16.58h-3.57v-16.58Z"/>
    <path class="cls-1" d="M543.22,204.51v1.73c.15-.1.37-.29.67-.58.29-.29.58-.53.85-.73.27-.2.6-.36.98-.48s.73-.18,1.04-.18c.5,0,1.04.18,1.62.52.58.35,1.06.97,1.45,1.86.67-.86,1.33-1.47,1.98-1.84.64-.37,1.24-.55,1.8-.55.98,0,1.82.41,2.5,1.22.68.81,1.02,1.81,1.02,3v6.88h-3.23v-6.02c0-.6-.16-1.1-.49-1.51-.33-.41-.72-.61-1.19-.61-.56,0-1.04.23-1.44.69-.4.46-.61,1.02-.61,1.65v5.8h-3.21v-5.87c0-.63-.17-1.16-.5-1.6s-.73-.65-1.21-.65c-.56,0-1.04.24-1.44.71-.4.48-.61,1.05-.61,1.71v5.69h-3.26v-10.86h3.26Z"/>
    <path class="cls-1" d="M563.6,204.53v1.58h.05c.47-.63.96-1.09,1.47-1.38.51-.29,1.12-.44,1.84-.44,1.3,0,2.4.57,3.31,1.7.91,1.14,1.37,2.52,1.37,4.14,0,1.49-.44,2.77-1.33,3.83-.89,1.07-1.94,1.6-3.16,1.6-.75,0-1.38-.16-1.88-.47-.51-.31-1.03-.81-1.57-1.49h-.05v6.54h-3.28v-15.62h3.23ZM568.26,210.11c0-.71-.23-1.32-.68-1.82-.45-.51-1-.76-1.63-.76s-1.15.25-1.59.75c-.44.5-.66,1.11-.66,1.84s.23,1.3.69,1.79c.46.5,1.02.75,1.67.75s1.17-.24,1.58-.71c.41-.47.62-1.08.62-1.83Z"/>
    <path class="cls-1" d="M581.23,215.37v-1.86h-.05c-.51.72-1.01,1.25-1.53,1.57-.51.32-1.15.49-1.91.49-1.27,0-2.35-.55-3.25-1.64s-1.34-2.42-1.34-3.99.48-2.88,1.43-3.98c.95-1.11,2.08-1.66,3.38-1.66.62,0,1.18.14,1.68.42.5.28,1.02.72,1.58,1.33v-1.5h3.23v10.83h-3.23ZM578.85,207.53c-.64,0-1.17.25-1.6.76-.43.51-.64,1.15-.64,1.93,0,.72.2,1.31.61,1.75.41.44.94.66,1.61.66s1.19-.25,1.64-.76.68-1.13.68-1.85c0-.67-.23-1.26-.68-1.75-.45-.49-.99-.74-1.62-.74Z"/>
    <path class="cls-1" d="M595.55,211.6v3.23c-1.11.5-2.03.76-2.77.76-1.63,0-3-.54-4.09-1.62s-1.64-2.42-1.64-4.04.51-2.97,1.52-4.04c1.01-1.07,2.3-1.6,3.86-1.6,1.09,0,2.14.25,3.16.76v3.06c-.94-.45-1.81-.68-2.59-.68-.72,0-1.31.22-1.75.66-.44.44-.66,1.03-.66,1.75s.22,1.29.66,1.74,1.01.66,1.73.66c.65,0,1.51-.21,2.58-.63Z"/>
    <path class="cls-1" d="M598.11,200.78h3.23v3.73h1.55v2.97h-1.55v7.89h-3.23v-7.89h-1.24v-2.97h1.24v-3.73Z"/>
    <polygon class="cls-2" points="325.05 140.61 341.58 188.44 354.23 188.44 328.09 122.53 323.04 122.53 297.12 188.44 308.13 188.44 325.05 140.61"/>
  </g>
</svg>