<?xml version="1.0" encoding="UTF-8"?>
<svg id="Layer_1" data-name="Layer 1" xmlns="http://www.w3.org/2000/svg" viewBox="0 0 649.82 300">
  <defs>
    <style>
      .cls-1 {
        fill: #fff;
      }
    </style>
  </defs>
  <g>
    <polygon class="cls-1" points="137.65 111.29 110.51 149.14 125.46 206.02 201.71 78.07 88.43 136.81 42.04 90 137.65 111.29"/>
    <polygon class="cls-1" points="137.82 111.23 87.17 137.64 39.44 89.18 137.82 111.23"/>
  </g>
  <g>
    <g>
      <path class="cls-1" d="M204.28,185.25l4.37-10.6c4.67,3.28,9.27,4.91,13.79,4.91,6.95,0,10.42-2.43,10.42-7.28,0-2.28-.82-4.44-2.46-6.51-1.64-2.06-5.01-4.37-10.12-6.94-5.11-2.56-8.55-4.67-10.33-6.32-1.77-1.65-3.14-3.62-4.1-5.89-.96-2.27-1.43-4.79-1.43-7.55,0-5.16,1.89-9.43,5.67-12.83,3.78-3.4,8.62-5.1,14.54-5.1,7.7,0,13.36,1.44,16.97,4.32l-3.59,10.19c-4.16-2.97-8.54-4.46-13.15-4.46-2.73,0-4.85.72-6.35,2.16-1.5,1.44-2.25,3.31-2.25,5.62,0,3.82,4.23,7.8,12.7,11.92,4.46,2.18,7.67,4.19,9.65,6.03,1.97,1.84,3.47,3.97,4.5,6.42,1.03,2.44,1.55,5.16,1.55,8.17,0,5.4-2.13,9.84-6.39,13.33-4.26,3.49-9.97,5.23-17.13,5.23-6.22,0-11.83-1.61-16.84-4.82Z"/>
      <path class="cls-1" d="M282.22,132.79v56.15h-11.83v-56.15h-21.2v-10.51h55.19v10.51h-22.16Z"/>
      <path class="cls-1" d="M399.89,188.94l-17.79-27.53c-1.79-.03-4.29-.14-7.51-.32v27.85h-12.29v-66.66c.67,0,3.23-.11,7.69-.34,4.46-.23,8.05-.34,10.78-.34,16.93,0,25.39,6.55,25.39,19.66,0,3.94-1.17,7.54-3.5,10.78-2.34,3.25-5.28,5.54-8.83,6.87l19.7,30.03h-13.65ZM374.59,132.56v18.52c2.18.18,3.85.27,5.01.27,4.94,0,8.56-.7,10.85-2.09,2.29-1.39,3.44-4.11,3.44-8.14,0-3.28-1.23-5.57-3.69-6.87-2.46-1.3-6.32-1.96-11.6-1.96-1.27,0-2.61.09-4,.27Z"/>
      <path class="cls-1" d="M442.57,132.79v56.15h-11.83v-56.15h-21.2v-10.51h55.19v10.51h-22.16Z"/>
      <path class="cls-1" d="M472.69,188.94v-66.66h11.83v66.66h-11.83Z"/>
      <path class="cls-1" d="M560.55,188.98h-11.47l-6.92-35.95-13.42,36.81h-4.23l-13.42-36.81-7.19,35.95h-11.42l13.42-66.7h6.28l14.42,44.91,14.11-44.91h6.23l13.6,66.7Z"/>
      <path class="cls-1" d="M579.66,132.79v15.61h22.02v10.06h-22.02v19.98h30.21v10.51h-42.04v-66.66h42.54v10.51h-30.71Z"/>
    </g>
    <path class="cls-1" d="M438.85,200.02h3.61v10.4c0,.97.27,1.74.8,2.33s1.24.88,2.11.88c1,0,1.78-.3,2.33-.89.55-.59.83-1.43.83-2.51v-10.21h3.6v11c0,.97-.25,1.97-.75,3.01s-1.27,1.84-2.31,2.39c-1.04.55-2.2.83-3.49.83-2.33,0-4.04-.65-5.11-1.95-1.08-1.3-1.62-2.66-1.62-4.1v-11.19Z"/>
    <path class="cls-1" d="M455.68,199.74h3.31v17.28h-3.31v-17.28Z"/>
    <path class="cls-1" d="M462.41,202.07h3.31v3.82h1.59v3.04h-1.59v8.09h-3.31v-8.09h-1.27v-3.04h1.27v-3.82Z"/>
    <path class="cls-1" d="M469.03,201.76c0-.56.2-1.05.61-1.45.41-.41.89-.61,1.46-.61s1.06.2,1.46.61c.41.41.61.89.61,1.45s-.2,1.06-.61,1.47c-.41.41-.89.61-1.46.61s-1.06-.2-1.46-.61c-.41-.41-.61-.9-.61-1.47ZM469.46,205.89h3.31v11.13h-3.31v-11.13Z"/>
    <path class="cls-1" d="M479.68,205.89v1.77c.16-.1.38-.3.69-.6.3-.29.59-.54.87-.74.28-.2.62-.37,1.01-.49s.75-.19,1.07-.19c.51,0,1.06.18,1.66.54.6.36,1.09,1,1.49,1.91.69-.88,1.37-1.51,2.03-1.88.66-.38,1.28-.56,1.84-.56,1.01,0,1.86.42,2.56,1.25.7.83,1.05,1.86,1.05,3.08v7.06h-3.31v-6.18c0-.61-.17-1.13-.51-1.55-.34-.42-.74-.63-1.22-.63-.57,0-1.06.24-1.48.71-.41.48-.62,1.04-.62,1.7v5.94h-3.29v-6.02c0-.65-.17-1.19-.51-1.64s-.75-.67-1.24-.67c-.57,0-1.06.24-1.48.73-.41.49-.62,1.07-.62,1.75v5.84h-3.34v-11.13h3.34Z"/>
    <path class="cls-1" d="M504.58,217.02v-1.9h-.05c-.52.74-1.04,1.28-1.57,1.61-.53.33-1.18.5-1.96.5-1.3,0-2.41-.56-3.33-1.68-.91-1.12-1.37-2.49-1.37-4.09s.49-2.95,1.46-4.08c.98-1.14,2.13-1.7,3.47-1.7.64,0,1.21.14,1.72.43.51.28,1.05.74,1.62,1.36v-1.54h3.31v11.11h-3.31ZM502.14,208.98c-.66,0-1.2.26-1.64.78-.44.52-.66,1.18-.66,1.97,0,.74.21,1.34.63,1.79.42.45.97.68,1.65.68s1.22-.26,1.68-.78.7-1.15.7-1.9c0-.69-.23-1.29-.7-1.79-.47-.5-1.02-.76-1.66-.76Z"/>
    <path class="cls-1" d="M511.71,202.07h3.31v3.82h1.59v3.04h-1.59v8.09h-3.31v-8.09h-1.27v-3.04h1.27v-3.82Z"/>
    <path class="cls-1" d="M528.97,212.24h-7.94c.04.72.28,1.3.71,1.75s.93.67,1.5.67c1.02,0,1.82-.46,2.39-1.39l3.04,1.01c-1.13,1.98-2.89,2.96-5.27,2.96-1.75,0-3.15-.53-4.18-1.59-1.04-1.06-1.55-2.49-1.55-4.29,0-1.61.55-2.97,1.64-4.06s2.44-1.64,4.03-1.64,2.95.58,4.02,1.73c1.07,1.15,1.61,2.59,1.61,4.32v.53ZM521.06,210.02h4.48c-.31-1.39-1.02-2.08-2.14-2.08-.64,0-1.17.18-1.59.54s-.67.88-.76,1.54Z"/>
    <path class="cls-1" d="M538.33,200.02h3.66v17h-3.66v-17Z"/>
    <path class="cls-1" d="M548.74,205.89v1.77c.16-.1.38-.3.69-.6.3-.29.59-.54.87-.74.28-.2.62-.37,1.01-.49s.75-.19,1.07-.19c.51,0,1.06.18,1.66.54.6.36,1.09,1,1.49,1.91.69-.88,1.37-1.51,2.03-1.88.66-.38,1.28-.56,1.84-.56,1.01,0,1.86.42,2.56,1.25.7.83,1.05,1.86,1.05,3.08v7.06h-3.31v-6.18c0-.61-.17-1.13-.51-1.55-.34-.42-.74-.63-1.22-.63-.57,0-1.06.24-1.48.71-.41.48-.62,1.04-.62,1.7v5.94h-3.29v-6.02c0-.65-.17-1.19-.51-1.64s-.75-.67-1.24-.67c-.57,0-1.06.24-1.48.73-.41.49-.62,1.07-.62,1.75v5.84h-3.34v-11.13h3.34Z"/>
    <path class="cls-1" d="M569.63,205.91v1.62h.05c.48-.65.99-1.12,1.51-1.42.52-.3,1.15-.45,1.88-.45,1.33,0,2.46.58,3.4,1.75.94,1.16,1.4,2.58,1.4,4.25,0,1.53-.46,2.84-1.37,3.93-.91,1.09-1.99,1.64-3.24,1.64-.77,0-1.41-.16-1.93-.48-.52-.32-1.05-.83-1.6-1.53h-.05v6.71h-3.37v-16.01h3.31ZM574.41,211.63c0-.73-.23-1.35-.7-1.87-.47-.52-1.02-.78-1.67-.78s-1.18.26-1.63.77c-.45.51-.67,1.14-.67,1.88s.23,1.33.71,1.84c.47.51,1.04.76,1.72.76s1.2-.24,1.62-.73c.42-.48.63-1.11.63-1.88Z"/>
    <path class="cls-1" d="M587.7,217.02v-1.9h-.05c-.52.74-1.04,1.28-1.57,1.61-.53.33-1.18.5-1.96.5-1.3,0-2.41-.56-3.33-1.68s-1.37-2.49-1.37-4.09.49-2.95,1.46-4.08c.98-1.14,2.13-1.7,3.47-1.7.64,0,1.21.14,1.72.43.51.28,1.05.74,1.62,1.36v-1.54h3.31v11.11h-3.31ZM585.27,208.98c-.66,0-1.2.26-1.64.78-.44.52-.66,1.18-.66,1.97,0,.74.21,1.34.63,1.79.42.45.97.68,1.65.68s1.22-.26,1.68-.78.7-1.15.7-1.9c0-.69-.23-1.29-.7-1.79-.47-.5-1.02-.76-1.66-.76Z"/>
    <path class="cls-1" d="M602.39,213.16v3.31c-1.14.52-2.08.78-2.84.78-1.67,0-3.07-.55-4.19-1.66s-1.68-2.49-1.68-4.14.52-3.05,1.56-4.14c1.04-1.1,2.36-1.64,3.96-1.64,1.11,0,2.19.26,3.24.78v3.13c-.97-.47-1.85-.7-2.65-.7-.74,0-1.34.23-1.79.68-.45.45-.68,1.05-.68,1.79s.22,1.33.67,1.78,1.04.68,1.77.68c.66,0,1.54-.22,2.64-.65Z"/>
    <path class="cls-1" d="M605.01,202.07h3.31v3.82h1.59v3.04h-1.59v8.09h-3.31v-8.09h-1.27v-3.04h1.27v-3.82Z"/>
    <polygon class="cls-1" points="325.05 140.37 342 189.41 354.98 189.41 328.17 121.84 322.99 121.84 296.41 189.41 307.71 189.41 325.05 140.37"/>
  </g>
</svg>