<svg width="22" height="16" viewBox="0 0 22 16" fill="none" xmlns="http://www.w3.org/2000/svg">
<defs>
  <clipPath id="clip">
    <rect width="22" height="16" rx="2"/>
  </clipPath>
</defs>

<g clip-path="url(#clip)">
  <!-- White background -->
  <rect width="22" height="16" fill="white"/>

  <!-- Red stripes -->
  <rect y="0" width="22" height="1.23" fill="#B22234"/>
  <rect y="2.46" width="22" height="1.23" fill="#B22234"/>
  <rect y="4.92" width="22" height="1.23" fill="#B22234"/>
  <rect y="7.38" width="22" height="1.23" fill="#B22234"/>
  <rect y="9.84" width="22" height="1.23" fill="#B22234"/>
  <rect y="12.30" width="22" height="1.23" fill="#B22234"/>
  <rect y="14.77" width="22" height="1.23" fill="#B22234"/>

  <!-- Blue canton -->
  <rect width="9.2" height="8.6" fill="#3C3B6E"/>

  <!-- Simplified stars -->
  <g fill="white">
    <circle cx="1.4" cy="1.3" r="0.28"/>
    <circle cx="3.2" cy="1.3" r="0.28"/>
    <circle cx="5.0" cy="1.3" r="0.28"/>
    <circle cx="6.8" cy="1.3" r="0.28"/>

    <circle cx="2.3" cy="2.6" r="0.28"/>
    <circle cx="4.1" cy="2.6" r="0.28"/>
    <circle cx="5.9" cy="2.6" r="0.28"/>
    <circle cx="7.7" cy="2.6" r="0.28"/>

    <circle cx="1.4" cy="3.9" r="0.28"/>
    <circle cx="3.2" cy="3.9" r="0.28"/>
    <circle cx="5.0" cy="3.9" r="0.28"/>
    <circle cx="6.8" cy="3.9" r="0.28"/>

    <circle cx="2.3" cy="5.2" r="0.28"/>
    <circle cx="4.1" cy="5.2" r="0.28"/>
    <circle cx="5.9" cy="5.2" r="0.28"/>
    <circle cx="7.7" cy="5.2" r="0.28"/>

    <circle cx="1.4" cy="6.5" r="0.28"/>
    <circle cx="3.2" cy="6.5" r="0.28"/>
    <circle cx="5.0" cy="6.5" r="0.28"/>
    <circle cx="6.8" cy="6.5" r="0.28"/>
  </g>
</g>

<rect x="0.5" y="0.5" width="21" height="15" rx="1.5"
      stroke="black" stroke-opacity="0.1"/>
</svg>