<svg width="129" height="128" viewBox="0 0 129 128" fill="none" xmlns="http://www.w3.org/2000/svg">
    <path d="M24.3921 63.0054C24.3921 40.5346 42.6859 22.1881 65.0913 22.1881C87.639 22.1881 105.791 40.5346 105.791 63.0054C105.791 70.543 103.806 77.6541 100.26 83.6273C95.0137 85.0495 89.9081 86.3295 84.8025 87.6095C84.7082 87.7042 84.6603 87.7991 84.6603 87.894C87.4967 88.8895 90.3332 90.0272 93.3118 91.0227C93.0274 91.3072 92.7446 91.5917 92.6023 91.7339C88.9158 95.0049 84.6603 97.2804 79.9814 98.9871C78.564 99.5561 77.145 99.8404 75.5853 99.5561C71.7565 98.8449 69.0623 95.8582 68.9201 91.7339C68.6373 86.4718 68.4951 86.045 68.2106 80.7829C68.2106 78.7919 68.2106 76.8007 68.07 74.9519C67.9277 71.6808 67.7855 68.4098 67.6433 65.2808C68.7779 64.9965 69.3452 64.4276 69.3452 63.2898C69.4874 63.4321 69.6296 63.5743 69.6296 63.5743C72.3238 65.7076 74.3085 68.4098 75.7275 71.5385C77.1449 74.5252 78.1373 77.6541 78.989 80.9251C78.989 81.2096 79.2719 81.3518 79.5563 81.6363C79.697 81.3518 79.9814 81.0674 80.1236 80.9251C80.2642 79.7874 80.4065 78.7919 80.5487 77.6541C81.116 70.9697 79.2719 64.9965 75.3009 59.5921C75.1602 59.3076 74.8758 59.0232 74.593 58.5966C74.7336 58.5966 74.8758 58.5966 75.018 58.7387C78.4217 59.4499 81.2582 61.1566 83.8102 63.2898C86.7888 65.8498 89.1986 68.8365 91.1849 72.1075C91.3255 72.2497 91.7506 72.3919 92.035 72.5342C92.035 72.2497 92.3179 71.9652 92.3179 71.6808C92.1773 70.6852 91.8928 69.832 91.7506 68.8365C89.9081 61.5831 86.0793 55.8944 79.5563 52.0545C78.4218 51.3433 77.2872 50.7745 76.0104 50.2055C76.1526 50.0633 76.2948 50.0633 76.4355 50.0633C78.564 49.4945 80.6909 49.4945 82.8178 49.7788C85.9371 50.2055 88.9157 51.0588 91.7506 52.0545C92.035 52.1967 92.4601 52.0545 92.7445 52.0545C92.7445 51.6278 92.7445 51.3433 92.4601 51.0588C88.064 45.3701 81.9661 42.9524 74.8758 43.2368C74.0257 43.3789 73.3162 43.3789 72.1816 43.5211C72.7489 42.8101 73.1739 42.2412 73.6006 41.8146C75.3009 40.3924 76.8621 39.1124 78.564 37.6902C78.7046 37.5479 78.8468 37.1212 78.989 36.8369C78.7046 36.8369 78.4218 36.5524 78.1373 36.6947C74.7336 36.979 71.6143 37.9747 68.7779 39.8234C68.2106 40.2501 67.6433 40.5346 67.0761 40.9612C66.9354 37.4057 66.651 33.8502 65.2336 30.5791C63.8145 33.9925 63.5317 37.4057 63.2472 40.9612C63.1529 40.9612 63.1066 40.9612 63.1066 40.9612C62.9644 40.8189 62.8222 40.6769 62.68 40.6769C59.5607 38.1169 56.0164 36.979 52.0454 36.5524C51.7609 36.5524 51.3359 36.5524 51.3359 36.979C51.3359 37.2635 51.6203 37.5479 51.7609 37.6902C53.4628 39.2546 55.3068 40.6769 57.0087 42.0989C57.2915 42.5256 57.576 42.9524 57.8588 43.2368C55.5897 43.3789 53.1799 43.2368 50.9108 43.5211C45.5223 44.0901 40.9841 46.7923 37.7226 51.201C37.5803 51.4855 37.4381 51.77 37.5804 51.9122C37.7226 52.0545 38.0054 52.1967 38.2899 52.0545C38.8572 52.0545 39.2822 51.77 39.7073 51.6277C43.111 50.49 46.5147 49.6367 50.2012 49.6367C51.478 49.6367 52.8955 49.6367 54.3145 50.2055C54.03 50.3478 53.7472 50.49 53.605 50.6322C49.634 52.1967 46.3725 54.7567 43.6783 58.1699C40.559 62.1521 38.8571 66.8453 38.0054 71.823C38.0054 71.9652 38.2899 72.2497 38.2899 72.5342C38.5727 72.3919 38.8572 72.3919 38.9994 72.1075C39.9917 70.8275 40.8418 69.4053 41.8342 68.1253C44.8128 64.4276 48.0744 61.4409 52.3282 59.5921C53.3206 59.1654 54.4551 58.8809 55.5897 58.5966C54.8818 59.7344 54.1723 60.7299 53.4628 61.8676C49.9184 67.6986 48.9244 74.0985 50.2012 80.9251C50.3435 81.0674 50.6263 81.3518 50.7685 81.6363C51.053 81.3518 51.1936 81.0674 51.3359 80.9251C52.0454 78.7919 52.4704 76.8007 53.1799 74.8097C54.7396 70.6852 56.7243 66.9875 59.9858 64.1431C60.2702 63.8586 60.6953 63.5743 61.1203 63.1476C60.9797 64.1431 61.2626 64.5698 61.9721 64.9965C62.2549 65.2808 62.5393 65.7076 62.5393 66.1343C62.68 66.5608 62.68 66.9875 62.68 67.4143C62.5394 71.112 62.3971 74.6674 62.2549 78.2229C61.972 83.7696 61.8298 84.4806 61.547 90.0272C61.547 91.165 61.4048 92.445 61.2626 93.4405C59.9858 98.2761 55.3068 100.836 50.4857 99.1293C45.8052 97.4226 41.6936 95.0049 37.8648 91.8762C37.5803 91.7339 37.4381 91.3072 37.0131 91.0227C39.9917 89.885 42.8281 88.8895 45.663 87.894C45.663 87.894 45.663 87.7517 45.663 87.6095C40.559 86.3295 35.3112 85.0495 30.065 83.6273C26.5191 77.6541 24.3921 70.543 24.3921 63.0054ZM74.0257 113.351C76.7199 110.934 79.6969 108.8 82.8178 107.094C85.2276 105.814 87.639 104.818 89.9081 103.396C92.8852 101.689 95.581 99.5561 98.4158 97.7071C98.7003 97.4226 99.1253 97.1382 99.5504 96.8539C100.543 100.125 101.394 103.396 102.387 106.525C102.529 106.525 102.671 106.525 102.671 106.525C105.223 98.1338 107.775 89.6005 110.329 81.0673C108.485 81.4941 106.783 81.9206 105.081 82.4896C107.635 77.2274 109.052 71.3964 109.477 65.4231L120.396 63.0054L109.477 60.7299C109.335 58.7387 109.052 56.7477 108.768 54.8987L111.321 54.33L111.179 53.6188L108.627 54.0455C108.06 51.4855 107.208 48.9255 106.216 46.5078L108.768 45.3701L108.485 44.6589L105.933 45.6545C104.939 43.2368 103.664 40.9612 102.245 38.6857L104.514 37.1212L104.089 36.5524L101.819 37.9747C100.402 35.9835 98.7002 33.9925 96.9984 32.1435L107.492 21.6192C107.775 21.3349 107.775 20.7659 107.492 20.4814C107.208 20.1971 106.783 20.1971 106.5 20.4814L95.8638 31.148C94.1619 29.2991 92.1772 27.7348 90.0503 26.3126L91.61 23.8948L90.9005 23.4681L89.3408 25.8859C87.2139 24.4636 84.8025 23.1837 82.3928 22.1881L83.5257 19.4859L82.8178 19.2015L81.6833 21.7614C79.2719 20.7659 76.7199 20.0549 74.1679 19.4859L74.7336 16.7837L73.8835 16.4993L73.3162 19.3437C71.4721 19.0592 69.6296 18.7749 67.6433 18.6327L65.0913 6.6861L62.5393 18.6327C60.6953 18.7749 58.7106 19.0592 56.8665 19.3437L56.2992 16.4993L55.4491 16.6415L56.0163 19.4859C53.4628 20.0549 50.9108 20.9082 48.4994 21.9037L47.3648 19.2015L46.6569 19.4859L47.7915 22.1881C45.3801 23.1837 42.9688 24.4636 40.8418 25.8859L39.14 23.4681L38.5727 23.8948L40.1323 26.3126C38.1476 27.7348 36.1629 29.4413 34.3188 31.148L23.8249 20.4814C23.3998 20.1971 22.9747 20.1971 22.6903 20.4814C22.4075 20.7659 22.4075 21.3349 22.6903 21.6192L33.3265 32.1435C31.4824 33.9925 29.9228 35.9835 28.5054 38.1169L26.094 36.4102L25.6689 37.1212L28.0787 38.6857C26.6613 40.9612 25.3845 43.2368 24.3921 45.6545L21.698 44.6589L21.4151 45.3701L23.9671 46.5078C23.1153 48.9255 22.2652 51.3433 21.698 54.0455L18.8615 53.4767L18.7209 54.33L21.5557 54.7567C21.2729 56.7477 20.9884 58.5966 20.8478 60.5876L9.07702 63.0054L20.8478 65.5653C21.2729 71.5385 22.8325 77.2274 25.2439 82.4896C23.542 81.9206 21.8402 81.4941 19.9961 81.0673C22.5497 89.6005 25.1017 98.1338 27.6536 106.525C27.6536 106.525 27.7959 106.525 27.9381 106.525C28.9305 103.254 29.9228 99.9826 30.9151 96.8539C33.042 98.2761 35.1706 99.8404 37.4381 101.263C41.9764 104.107 46.5147 106.809 51.053 109.511C57.7166 113.494 62.3971 119.182 64.6662 126.72C64.8085 127.147 64.9491 127.573 65.0913 128C65.3758 127.431 65.5164 126.862 65.6586 126.436C67.3605 121.316 69.9125 116.907 74.0257 113.351Z" fill="url(#paint0_linear_31110_2393)"/>
    <path d="M63.6798 2.41609L65.6631 4.54792H66.939V0H65.521V2.27398L63.5376 0H62.2617V4.54792H63.6798V2.41609Z" fill="url(#paint1_linear_31110_2393)"/>
    <path d="M125.357 64.5613V63.8507H127.625V62.7138H125.357V62.1452H127.909V61.0082H123.941V65.6982H128.05V64.5613H125.357Z" fill="url(#paint2_linear_31110_2393)"/>
    <path d="M5.10554 60.7315L4.68049 63.4337L4.11323 60.7315H2.55357L2.12852 63.4337H1.98627L1.56122 60.7315H0L0.993915 65.4249H2.69422L3.26147 62.5805L3.97098 65.4249H5.53064L6.6652 60.7315H5.10554Z" fill="url(#paint3_linear_31110_2393)"/>
    <defs>
    <linearGradient id="paint0_linear_31110_2393" x1="3.3326" y1="60.7314" x2="3.3326" y2="65.4248" gradientUnits="userSpaceOnUse">
    <stop stop-color="white"/>
    <stop offset="1" stop-color="#C2C2C2"/>
    </linearGradient>
    <linearGradient id="paint1_linear_31110_2393" x1="3.3326" y1="60.7314" x2="3.3326" y2="65.4248" gradientUnits="userSpaceOnUse">
    <stop stop-color="white"/>
    <stop offset="1" stop-color="#C2C2C2"/>
    </linearGradient>
    <linearGradient id="paint2_linear_31110_2393" x1="3.3326" y1="60.7314" x2="3.3326" y2="65.4248" gradientUnits="userSpaceOnUse">
    <stop stop-color="white"/>
    <stop offset="1" stop-color="#C2C2C2"/>
    </linearGradient>
    <linearGradient id="paint3_linear_31110_2393" x1="3.3326" y1="60.7314" x2="3.3326" y2="65.4248" gradientUnits="userSpaceOnUse">
    <stop stop-color="white"/>
    <stop offset="1" stop-color="#C2C2C2"/>
    </linearGradient>
    </defs>
    </svg>