<svg width="48" height="48" viewBox="0 0 48 48" fill="none" xmlns="http://www.w3.org/2000/svg">
    <path d="M0 24C0 10.7452 10.7452 0 24 0C37.2548 0 48 10.7452 48 24C48 37.2548 37.2548 48 24 48C10.7452 48 0 37.2548 0 24Z" fill="#E6F2FB" fillOpacity="0.12"/>
    <path d="M24.9999 14L16.0933 24.6879C15.7445 25.1064 15.5701 25.3157 15.5674 25.4925C15.5651 25.6461 15.6336 25.7923 15.7531 25.8889C15.8906 26 16.163 26 16.7079 26H23.9999L22.9999 34L31.9064 23.3121C32.2552 22.8936 32.4296 22.6843 32.4323 22.5075C32.4346 22.3539 32.3661 22.2077 32.2466 22.1111C32.1091 22 31.8367 22 31.2918 22H23.9999L24.9999 14Z" stroke="white" strokeWidth="1.5" strokeLinecap="round" strokeLinejoin="round"/>
    </svg>