<svg width="32" height="30" viewBox="0 0 32 30" fill="none" xmlns="http://www.w3.org/2000/svg">
    <path d="M0 4C0 1.79086 1.79086 0 4 0H28C30.2091 0 32 1.79086 32 4V26C32 28.2091 30.2091 30 28 30H4C1.79086 30 0 28.2091 0 26V4Z" fill="#FDF9EF"/>
    <path d="M17.7652 6.42252V5.41876C17.7652 5.08947 17.5026 4.82227 17.1785 4.82227H14.821C14.497 4.82227 14.2344 5.08947 14.2344 5.41876V6.42252H17.7652Z" fill="#244A77"/>
    <path d="M16.2351 10.9004L20.2249 12.6725V10.8431H18.3573C18.0333 10.8431 17.7703 10.5763 17.7703 10.2466C17.7703 9.91694 18.0329 9.65048 18.3573 9.65048H20.2249V9.42541C20.2249 8.42719 19.4259 7.61523 18.4435 7.61523H13.5568C12.5744 7.61523 11.7754 8.42719 11.7754 9.42541V9.65048H13.643C13.9671 9.65048 14.2297 9.91731 14.2297 10.2466C14.2297 10.5759 13.9671 10.8431 13.643 10.8431H11.7754V12.6725L15.7652 10.9004C15.9151 10.8339 16.0853 10.8339 16.2355 10.9004" fill="#244A77"/>
    <path d="M17.6475 13.546L18.5629 13.2359L16.0003 12.0977L10.1909 14.678C9.88171 14.8155 9.74968 15.1888 9.9028 15.4944L10.6742 17.0378C10.8073 17.0333 10.9415 17.0743 11.0525 17.1616L11.4114 17.4439C11.9599 17.8752 12.6469 18.1125 13.3467 18.1125C14.0465 18.1125 14.7339 17.8748 15.2823 17.4439L15.6417 17.1616C15.853 16.9953 16.1483 16.9953 16.36 17.1616L16.4444 17.2277V15.2427C16.4444 14.4725 16.9292 13.7888 17.6478 13.5456" fill="#244A77"/>
    <path d="M22.3731 24.2823C22.1931 24.3432 22.0058 24.3739 21.8163 24.3739C21.6268 24.3739 21.4395 24.3432 21.2598 24.2823C20.2338 23.9349 19.3274 23.3646 18.5859 22.6351C17.6377 22.6203 16.7386 22.2995 15.9999 21.7171C15.2434 22.3135 14.3193 22.6366 13.3464 22.6366C12.3735 22.6366 11.4493 22.3135 10.6928 21.7171C9.93629 22.3135 9.01212 22.6366 8.03921 22.6366C7.30563 22.6366 6.59968 22.4525 5.97266 22.1066V24.5816C5.97266 24.9109 6.23525 25.1777 6.55967 25.1777H25.4406C25.7646 25.1777 26.0276 24.9109 26.0276 24.5816V21.4336C25.1791 22.7411 23.9108 23.7615 22.3735 24.2823" fill="#244A77"/>
    <path d="M16.0003 18.3877C15.222 18.9997 14.2844 19.3057 13.3467 19.3057C12.4091 19.3057 11.4715 18.9997 10.6932 18.3877C9.91483 18.9997 8.9772 19.3057 8.03958 19.3057C7.59986 19.3057 7.16014 19.2385 6.7368 19.1039C6.35818 18.9834 5.97266 19.2688 5.97266 19.6723V20.6628C7.21506 21.7527 9.09904 21.6998 10.2778 20.5017C10.5069 20.2688 10.8786 20.2688 11.1078 20.5017C11.7057 21.1096 12.5008 21.4441 13.346 21.4441C14.1912 21.4441 14.9867 21.1096 15.5846 20.5017C15.8137 20.2688 16.1854 20.2688 16.4146 20.5017C16.7201 20.8121 17.0772 21.0508 17.466 21.2105C17.0205 20.4654 16.7077 19.6354 16.5531 18.7569C16.3618 18.6497 16.1767 18.527 15.9996 18.3881L16.0003 18.3877Z" fill="#244A77"/>
    <path d="M26.0151 17.4923V15.2438C26.0151 14.9873 25.8536 14.7593 25.6139 14.678L22.0016 13.4543C21.8812 13.4137 21.751 13.4137 21.6306 13.4543L18.0184 14.678C17.7787 14.7593 17.6172 14.9869 17.6172 15.2438V17.4923C17.6172 20.0638 19.2302 22.3374 21.6306 23.1505C21.691 23.1708 21.7536 23.1811 21.8161 23.1811C21.8787 23.1811 21.9416 23.1712 22.0016 23.1505C24.4024 22.3374 26.0151 20.0634 26.0151 17.4923ZM19.9743 18.4495C19.7819 18.1845 19.8376 17.8112 20.0984 17.6154C20.3591 17.4202 20.7265 17.4764 20.9192 17.7414L21.2248 18.1627L22.8803 17.1393C23.1571 16.9682 23.5183 17.0573 23.6867 17.3389C23.855 17.6202 23.767 17.9871 23.4903 18.1583L21.3761 19.4654C21.2811 19.5242 21.1757 19.5523 21.0713 19.5523C20.8905 19.5523 20.713 19.4677 20.5985 19.3098L19.9743 18.4495Z" fill="#244A77"/>
    </svg>