<svg width="48" height="48" viewBox="0 0 48 48" fill="none" xmlns="http://www.w3.org/2000/svg">
    <path d="M0 24C0 10.7452 10.7452 0 24 0C37.2548 0 48 10.7452 48 24C48 37.2548 37.2548 48 24 48C10.7452 48 0 37.2548 0 24Z" fill="#E6F2FB" fillOpacity="0.12"/>
    <path d="M14.6611 30.3391L19.255 25.7452M30.2175 14.7827C33.9275 18.4927 33.9275 24.5078 30.2175 28.2177C26.5075 31.9277 20.4924 31.9277 16.7825 28.2177M29 34.0002H19M24 34.0002V31.0002M29.5 21.5002C29.5 24.8139 26.8137 27.5002 23.5 27.5002C20.1863 27.5002 17.5 24.8139 17.5 21.5002C17.5 18.1865 20.1863 15.5002 23.5 15.5002C26.8137 15.5002 29.5 18.1865 29.5 21.5002Z" stroke="white" strokeWidth="1.5" strokeLinecap="round" strokeLinejoin="round"/>
    </svg>