<svg width="32" height="31" viewBox="0 0 32 31" fill="none" xmlns="http://www.w3.org/2000/svg">
    <path d="M0 4C0 1.79086 1.79086 0 4 0H28C30.2091 0 32 1.79086 32 4V27C32 29.2091 30.2091 31 28 31H4C1.79086 31 0 29.2091 0 27V4Z" fill="#E6F2FB"/>
    <path fillRule="evenodd" clipRule="evenodd" d="M26.1306 18.8509L23.2422 13.6843L21.5709 14.6808C21.2035 14.9002 21.0786 15.3909 21.2888 15.7669L23.4076 19.556C23.6216 19.9362 24.096 20.0641 24.4593 19.8474L26.1306 18.8509ZM24.0751 10.4496C24.1113 10.2808 24.2733 10.1737 24.4372 10.2112C24.6011 10.2487 24.7044 10.416 24.6681 10.5852L24.4503 11.6041C24.4069 11.8522 24.1525 11.9484 23.9669 11.8112L23.1251 11.2162C22.8026 10.9886 23.1195 10.4508 23.4865 10.7104C22.9178 9.67494 21.9196 8.95668 20.7815 8.76117C20.6158 8.73258 20.5035 8.57069 20.5316 8.39953C20.5593 8.22836 20.716 8.11245 20.8818 8.14143C22.2358 8.37441 23.4173 9.24452 24.0661 10.4937L24.0754 10.4504L24.0751 10.4496ZM9.56438 8.48337C9.40051 8.44589 9.29725 8.27859 9.33354 8.10936C9.36983 7.94052 9.53183 7.83349 9.69571 7.87097L10.6823 8.09584C10.9225 8.14066 11.0157 8.40339 10.8829 8.59503L10.3067 9.46476C10.0859 9.79781 9.56551 9.47055 9.81693 9.09152C8.81423 9.67881 8.11908 10.7096 7.92939 11.885C7.9017 12.0562 7.74494 12.1717 7.57919 12.1431C7.41345 12.1145 7.30121 11.9526 7.32927 11.7814C7.55487 10.3832 8.39744 9.16338 9.60703 8.49303L9.56513 8.48337H9.56438ZM17.6585 5.79924V10.8576H19.7556V6.51403L17.6585 5.79924ZM17.0487 4.86035H14.9516V10.8576H17.0487V4.86035ZM14.3418 6.51403V10.8576H12.2447V7.22843L14.3418 6.51403ZM11.6222 12.5801H20.3778V11.4874H11.6222V12.5801ZM14.8791 25.9768L15.6374 25.1936C15.9626 24.8578 15.7396 24.2663 15.2652 24.2663C15.1297 24.2663 14.995 24.3192 14.8925 24.4243L14.1341 25.2075C13.8086 25.5437 14.032 26.1348 14.5064 26.1348C14.6418 26.1348 14.7769 26.0819 14.8791 25.9768ZM13.4293 25.0456C13.1 25.3856 12.5302 25.143 12.5302 24.6612C12.5302 24.5213 12.5822 24.3822 12.6843 24.2764L13.6736 23.2548C13.7757 23.1493 13.9108 23.0968 14.0458 23.0968C14.5161 23.0968 14.7481 23.6837 14.4185 24.0241L13.4293 25.0456ZM12.012 24.0805L13.2654 22.7861C13.5905 22.4504 13.3675 21.8588 12.8927 21.8588C12.7577 21.8588 12.6226 21.9118 12.5205 22.0168L11.2671 23.3112C10.9416 23.6473 11.165 24.2385 11.6394 24.2385C11.7748 24.2385 11.9099 24.1856 12.012 24.0805ZM10.8035 22.9001C10.7014 23.0056 10.5663 23.0581 10.4309 23.0581C9.95648 23.0581 9.73312 22.467 10.0586 22.1312L11.0479 21.1096C11.15 21.0042 11.2851 20.9516 11.4205 20.9516C11.8949 20.9516 12.1179 21.5432 11.7928 21.8789L10.8035 22.9005V22.9001ZM10.7235 15.7452C10.9184 15.3693 10.7874 14.8945 10.4298 14.6808L8.75848 13.6843L5.87012 18.8509L7.5414 19.8474C7.90769 20.0657 8.38771 19.9304 8.59274 19.558C9.29874 18.2992 9.92767 16.9426 10.7238 15.7452H10.7235ZM21.1186 22.7112C20.144 21.712 18.9669 20.6955 17.9377 19.7307C17.8134 19.614 17.6208 19.6233 17.5078 19.7515C17.3948 19.8798 17.4038 20.0788 17.528 20.1955L20.6876 23.1563C21.1478 23.6311 20.4979 24.4997 19.8772 23.8587C18.8262 22.7815 17.5841 21.6954 16.4796 20.6537C16.355 20.537 16.1627 20.5463 16.0497 20.6746C15.9367 20.8029 15.9457 21.0018 16.0699 21.1185L19.4466 24.3034C19.9307 24.8034 19.197 25.5838 18.702 25.0723C17.5029 23.834 16.1796 22.6636 14.9247 21.4775C14.8009 21.3608 14.6093 21.3693 14.4959 21.4972C14.3826 21.6247 14.3912 21.8229 14.5146 21.94L17.9833 25.2206C18.4311 25.6835 17.8374 26.4945 17.2159 25.9691L16.3266 25.2272C16.6196 24.429 16.0164 23.5755 15.1802 23.64C15.1802 22.9805 14.6628 22.4565 14.0264 22.4674C14.0709 21.637 13.2949 21.0324 12.5381 21.2878C12.4423 20.7275 11.9716 20.3218 11.4205 20.3218C11.1103 20.3218 10.832 20.4424 10.5993 20.6827L9.25235 19.6306L11.141 16.2526C12.1284 16.3217 13.0776 16.2278 14.0462 16.0485C14.4798 15.9682 14.9232 15.8685 15.3217 15.9813C14.5835 16.3109 13.6754 16.7035 13.4401 16.9009C13.3245 16.9979 13.2938 17.1686 13.3686 17.3019C13.7548 17.9889 14.4383 18.3169 15.1836 18.3842C15.8963 18.4483 16.7221 18.276 17.5306 17.8776L21.8852 21.9635C21.9862 22.0628 22.0352 22.188 22.0345 22.329C22.0315 22.8217 21.4662 23.0705 21.119 22.7115L21.1186 22.7112ZM21.4018 20.6607L17.7861 17.2679C17.6836 17.1717 17.5351 17.1609 17.4225 17.2324C16.6656 17.6369 15.8904 17.8158 15.2356 17.7567C14.7601 17.7138 14.353 17.5427 14.0765 17.239C14.7028 16.9202 15.8271 16.4666 16.5638 16.0957C17.0528 15.8492 17.3372 15.7387 17.8415 16.0559C18.659 16.569 19.9842 16.528 20.8803 16.2904L22.7457 19.6287L21.4018 20.6611V20.6607Z" fill="#244A77"/>
    </svg>