<svg width="32" height="30" viewBox="0 0 32 30" fill="none" xmlns="http://www.w3.org/2000/svg">
    <path d="M0 4C0 1.79086 1.79086 0 4 0H28C30.2091 0 32 1.79086 32 4V26C32 28.2091 30.2091 30 28 30H4C1.79086 30 0 28.2091 0 26V4Z" fill="#FDF9EF"/>
    <path d="M19.3126 7.87266L21.7246 4.92679C21.7359 4.91163 21.7486 4.89796 21.7632 4.88613C21.8792 4.78857 22.0509 4.80446 22.1469 4.92235L24.5455 7.85233C24.5964 7.90481 24.6252 7.97577 24.6255 8.04932C24.6255 8.20306 24.503 8.32761 24.3517 8.32761H23.1096V15.5761H20.7652V8.32798H19.522V8.32687C19.3715 8.3265 19.2493 8.20195 19.2496 8.04895C19.2496 7.98427 19.2718 7.92218 19.3122 7.87266M11.0547 16.4113C11.0623 19.1868 13.2827 21.4305 16.0141 21.4227C18.7346 21.415 20.9383 19.1761 20.9459 16.4113V16.133H11.0547V16.4113ZM7.47368 12.0729C7.52278 12.1139 7.58424 12.1368 7.64789 12.1368V12.1379H8.89103V15.5761H11.2355V12.1379H12.4775C12.6292 12.1379 12.7517 12.0126 12.7514 11.8585C12.7514 11.785 12.7226 11.7144 12.6713 11.6623L10.2727 8.73229C10.1764 8.61477 10.0047 8.5985 9.88903 8.69644C9.87448 8.70827 9.86175 8.72194 9.85047 8.73709L7.4384 11.683C7.34275 11.8009 7.35875 11.9746 7.47368 12.0729ZM24.352 16.133H21.494V16.4113C21.4937 19.4943 19.034 21.9933 16 21.993C12.9663 21.9926 10.5073 19.4939 10.507 16.4113V16.133H7.64789C7.49659 16.133 7.37402 16.2576 7.37402 16.4113C7.37402 16.6704 7.38712 16.9354 7.41039 17.2048C7.43367 17.4672 7.46822 17.7255 7.51369 17.979C7.52823 18.0892 7.6057 18.1801 7.71118 18.21L9.28492 18.6539C9.34165 18.8276 9.40239 18.9965 9.47004 19.1598C9.5366 19.3243 9.61043 19.4876 9.6919 19.6499L8.88775 21.0934C8.83574 21.1858 8.8412 21.3004 8.90085 21.3876C9.49332 22.2602 10.2367 23.0167 11.0947 23.6202C11.1816 23.6853 11.298 23.6923 11.3918 23.6383L12.8125 22.8212C12.9721 22.9036 13.1329 22.9794 13.2947 23.0481C13.4555 23.1157 13.6217 23.1782 13.7926 23.2351L14.2295 24.8343C14.2578 24.937 14.3415 25.0139 14.4448 25.0327C14.699 25.08 14.9572 25.1162 15.2176 25.1399C15.4828 25.1647 15.7443 25.1772 15.9996 25.1772C16.2549 25.1772 16.5175 25.1647 16.7826 25.1399C17.0398 25.1162 17.2933 25.0811 17.5431 25.0349C17.6519 25.0205 17.7414 24.9418 17.7708 24.8343L18.2065 23.2351C18.3786 23.1778 18.5448 23.1154 18.7059 23.0481C18.8667 22.9794 19.0271 22.9036 19.1871 22.8212L20.6077 23.6383C20.699 23.6908 20.8121 23.6856 20.8983 23.6246C21.757 23.023 22.5011 22.2679 23.094 21.3957C23.1583 21.3074 23.1653 21.1888 23.1118 21.0934L22.3087 19.6499C22.3895 19.4876 22.4637 19.3243 22.5306 19.1598C22.5972 18.9965 22.6593 18.8276 22.715 18.6539L24.2887 18.21C24.3898 18.1808 24.4659 18.0962 24.4851 17.9912C24.5306 17.7329 24.5659 17.4705 24.5902 17.2059C24.6135 16.9365 24.6255 16.6715 24.6259 16.4113C24.6266 16.2579 24.5044 16.1334 24.3538 16.133H24.352ZM13.4115 10.1673C13.4599 10.2095 13.5217 10.232 13.5857 10.2317V10.2328H14.8277V15.5768H17.1722V10.2328H18.4153C18.5666 10.2328 18.6892 10.1082 18.6892 9.95447C18.6892 9.88093 18.6601 9.80997 18.6084 9.75823L16.2094 6.82861C16.1142 6.71109 15.9432 6.69409 15.8276 6.79092C15.8272 6.79129 15.8265 6.79203 15.8261 6.7924C15.8123 6.80422 15.7988 6.81753 15.7872 6.83157L13.3762 9.77744C13.2798 9.89423 13.2955 10.0679 13.4104 10.1659C13.4108 10.1662 13.4115 10.1666 13.4118 10.167" fill="#244A77"/>
    </svg>