<svg width="48" height="48" viewBox="0 0 48 48" fill="none" xmlns="http://www.w3.org/2000/svg">
    <path d="M0 24C0 10.7452 10.7452 0 24 0C37.2548 0 48 10.7452 48 24C48 37.2548 37.2548 48 24 48C10.7452 48 0 37.2548 0 24Z" fill="#E6F2FB" fillOpacity="0.12"/>
    <path d="M23.302 33.6147C23.5234 33.7439 23.6341 33.8085 23.7903 33.842C23.9116 33.868 24.0884 33.868 24.2097 33.842C24.3659 33.8085 24.4766 33.7439 24.698 33.6147C26.646 32.4783 32 28.9083 32 23.9999V19.2175C32 18.418 32 18.0182 31.8692 17.6746C31.7537 17.371 31.566 17.1001 31.3223 16.8854C31.0465 16.6423 30.6722 16.5019 29.9236 16.2212L24.5618 14.2105C24.3539 14.1326 24.25 14.0936 24.143 14.0782C24.0482 14.0644 23.9518 14.0644 23.857 14.0782C23.75 14.0936 23.6461 14.1326 23.4382 14.2105L18.0764 16.2212C17.3278 16.5019 16.9535 16.6423 16.6777 16.8854C16.434 17.1001 16.2463 17.371 16.1308 17.6746C16 18.0182 16 18.418 16 19.2175V23.9999C16 28.9083 21.354 32.4783 23.302 33.6147Z" stroke="white" strokeWidth="1.5" strokeLinecap="round" strokeLinejoin="round"/>
    </svg>