<svg width="32" height="30" viewBox="0 0 32 30" fill="none" xmlns="http://www.w3.org/2000/svg">
    <rect width="32" height="30" rx="12" fill="#FDF9EF"/>
    <path fillRule="evenodd" clipRule="evenodd" d="M19.956 17.1717C20.0236 17.1015 20.0236 16.9895 19.956 16.9193L19.0693 16.0183C19.0005 15.9495 18.8899 15.9495 18.8212 16.0183L18.1407 16.7097C18.0469 16.8055 17.9018 16.8262 17.7854 16.7604C17.5424 16.6236 17.2849 16.515 17.0183 16.4374C16.8903 16.4 16.8023 16.281 16.8023 16.1458V15.1683C16.8012 15.0703 16.7234 14.9912 16.6274 14.9901H15.3729C15.2766 14.9912 15.1987 15.0703 15.1973 15.1683V16.1458C15.1973 16.281 15.1093 16.4 14.9816 16.437C14.7146 16.515 14.4575 16.6233 14.2146 16.7604C14.0982 16.8262 13.9531 16.8051 13.8592 16.7094L13.1784 16.0179C13.1096 15.9488 12.9991 15.9488 12.9303 16.0179L12.0436 16.9193C11.9752 16.9891 11.9752 17.1015 12.0436 17.1713L12.7245 17.8628C12.8187 17.9585 12.8387 18.106 12.7739 18.2243C12.6394 18.4711 12.5328 18.7324 12.4557 19.0037C12.419 19.1334 12.3022 19.2228 12.1695 19.2228H11.2075C11.1111 19.2243 11.0332 19.3034 11.0322 19.401V20.6753C11.0336 20.7732 11.1114 20.8523 11.2075 20.8534H12.1695C12.3026 20.8534 12.4193 20.9428 12.4561 21.0726C12.5328 21.3438 12.6394 21.6051 12.7739 21.852C12.8387 21.9703 12.8183 22.1177 12.7245 22.2131L12.044 22.9045C11.9756 22.9744 11.9756 23.0867 12.044 23.1566L12.9307 24.058C12.9994 24.1271 13.11 24.1271 13.1787 24.058L13.8596 23.3665C13.9534 23.2708 14.0985 23.2501 14.2149 23.3159C14.4575 23.4526 14.715 23.5613 14.9816 23.6393C15.1096 23.6762 15.198 23.7952 15.1976 23.9305V24.908C15.1991 25.0059 15.2769 25.085 15.3729 25.0861H16.6274C16.7237 25.0847 16.8012 25.0056 16.8023 24.9076V23.9301C16.8023 23.7948 16.8903 23.6762 17.0183 23.6389C17.2853 23.5609 17.5424 23.4526 17.785 23.3155C17.9014 23.2501 18.0465 23.2708 18.1407 23.3661L18.8212 24.0576C18.8903 24.1267 19.0009 24.1267 19.0696 24.0576L19.9563 23.1566C20.024 23.0867 20.024 22.9744 19.9563 22.9045L19.2758 22.2131C19.1816 22.1177 19.1613 21.9699 19.226 21.8516C19.3606 21.6051 19.4671 21.3435 19.5439 21.0722C19.5806 20.9425 19.6977 20.8527 19.8305 20.8527H20.7925C20.8889 20.8516 20.9667 20.7721 20.9681 20.6745V19.4006C20.9667 19.3027 20.8889 19.2236 20.7928 19.2221H19.8308C19.6977 19.2221 19.5806 19.1327 19.5439 19.0029C19.4675 18.7317 19.3609 18.4704 19.2264 18.2235C19.1616 18.1053 19.182 17.9574 19.2762 17.8621L19.9567 17.1706L19.956 17.1717ZM15.9996 17.294C17.4911 17.294 18.7005 18.5229 18.7005 20.0389C18.7005 21.5545 17.4908 22.7833 15.9992 22.7833C14.5077 22.7833 13.2984 21.5545 13.2984 20.0385C13.3002 18.5232 14.5084 17.2955 16 17.294M22.1905 8.85371C22.1807 8.74247 22.1113 8.64564 22.0102 8.60203L16.1109 6.0601C16.0363 6.02832 15.9527 6.02832 15.8781 6.0601L9.94178 8.6109C9.83012 8.65894 9.75811 8.77129 9.75992 8.89436C9.79702 11.5176 9.92759 14.506 11.0194 16.7681C11.2966 17.3413 11.6403 17.8787 12.0432 18.3684C12.0102 18.4501 11.9789 18.5329 11.9501 18.6164H11.2067C11.1184 18.6164 11.0303 18.6326 10.9474 18.6629C8.96814 15.9654 8.76374 12.4046 8.7161 8.37696C8.70882 8.1445 8.84521 7.93236 9.05761 7.84588L15.7767 4.95951C15.9156 4.89631 16.0745 4.89631 16.2135 4.95951L22.8328 7.81188C23.0187 7.88727 23.1485 8.0606 23.17 8.26276C23.6199 11.7892 22.7106 15.74 20.7965 18.6171H20.0491C19.9931 18.4527 19.9269 18.2915 19.8519 18.1348L20.3782 17.6004C20.5233 17.4533 20.6044 17.2538 20.6037 17.0457C20.6037 17.0039 20.6001 16.9622 20.5935 16.9208C21.813 14.5448 22.4248 11.4629 22.1909 8.85408L22.1905 8.85371ZM20.2186 16.3287L19.4911 15.5896C19.1893 15.2839 18.7012 15.2839 18.3993 15.5896L17.8734 16.124C17.7192 16.0475 17.5603 15.9809 17.398 15.9237V15.1683C17.3977 14.7351 17.0525 14.3844 16.6266 14.3836H15.3726C14.9463 14.384 14.6012 14.7351 14.6004 15.1683V15.924C14.4382 15.9809 14.28 16.0478 14.1258 16.124L13.5995 15.5896C13.2977 15.2839 12.8099 15.2839 12.5081 15.5896L11.6214 16.4906C11.605 16.5072 11.5901 16.5246 11.5752 16.5423C11.5686 16.5287 11.561 16.5153 11.5548 16.5017C10.5452 14.4088 10.3993 11.5971 10.3593 9.09024L15.9941 6.66879L21.6108 9.08913C21.7828 11.4359 21.2577 14.1534 20.2182 16.3291M18.1044 20.0385C18.1044 21.2197 17.162 22.1772 15.9996 22.1772C14.8372 22.1772 13.8949 21.2197 13.8949 20.0385C13.8949 18.8573 14.8372 17.8998 15.9996 17.8998C17.1613 17.9009 18.1029 18.8577 18.1036 20.0385H18.1044Z" fill="#244A77"/>
    </svg>