<svg width="32" height="30" viewBox="0 0 32 30" fill="none" xmlns="http://www.w3.org/2000/svg">
    <path d="M0 4C0 1.79086 1.79086 0 4 0H28C30.2091 0 32 1.79086 32 4V26C32 28.2091 30.2091 30 28 30H4C1.79086 30 0 28.2091 0 26V4Z" fill="#FDF9EF"/>
    <path fillRule="evenodd" clipRule="evenodd" d="M13.7986 21.7315H16.3885V24.6888L20.3911 21.7315H27.0668V12.7316H13.799V21.7315H13.7986ZM18.742 17.2312V15.2477L20.4325 16.2392L22.123 17.2308L20.4325 18.2224L18.742 19.2139V17.2304V17.2312ZM25.7389 9.27903L25.744 9.27829L25.7491 9.27755V11.0179C25.7491 11.199 25.6047 11.3457 25.4265 11.3457C25.2483 11.3457 25.1039 11.1986 25.1039 11.0179V9.27755L25.109 9.27829L25.1141 9.27903C25.1276 9.28088 25.1414 9.28273 25.1548 9.28458L25.1752 9.28679C25.1858 9.2879 25.1967 9.28901 25.2076 9.29012C25.2185 9.29123 25.2298 9.29234 25.2403 9.29308L25.2592 9.29455C25.2745 9.29566 25.2894 9.29677 25.3047 9.29751L25.3127 9.29825C25.3305 9.29899 25.3483 9.29973 25.3661 9.3001H25.3687C25.388 9.30084 25.4072 9.30084 25.4265 9.30084C25.4458 9.30084 25.4651 9.30084 25.4844 9.3001H25.4869C25.5047 9.29936 25.5225 9.29899 25.5404 9.29788H25.5484C25.5636 9.29677 25.5786 9.29566 25.5938 9.29455L25.6127 9.29308C25.6237 9.29197 25.6349 9.29123 25.6458 9.29012C25.6564 9.28901 25.6673 9.2879 25.6778 9.28679L25.6982 9.28458C25.712 9.2831 25.7255 9.28125 25.7389 9.2794V9.27903ZM19.7051 6.9777C19.7051 6.7966 19.8495 6.64988 20.0277 6.64988H23.1625L23.1618 6.65469L23.161 6.65986C23.1592 6.67391 23.1574 6.68758 23.1556 6.70125L23.1534 6.72195C23.1523 6.73267 23.1512 6.74375 23.1501 6.75447C23.149 6.76556 23.1483 6.77702 23.1472 6.7881L23.1457 6.80732C23.1447 6.82284 23.1436 6.83837 23.1428 6.85352V6.86202C23.1414 6.88013 23.141 6.89824 23.1403 6.91635V6.91893C23.1396 6.93852 23.1396 6.95811 23.1396 6.9777C23.1396 6.99728 23.1396 7.01687 23.1403 7.03646V7.03904C23.141 7.05752 23.1414 7.07526 23.1425 7.09337V7.1015C23.1439 7.11702 23.1447 7.13255 23.1457 7.1477L23.1472 7.16692C23.1483 7.178 23.149 7.18946 23.1501 7.20055C23.1512 7.21164 23.1523 7.22235 23.1534 7.23344L23.1556 7.25414C23.1574 7.26818 23.1588 7.28185 23.161 7.29553L23.1618 7.3007L23.1625 7.30588H20.0277C19.8495 7.30588 19.7051 7.15916 19.7051 6.97806V6.9777ZM23.7855 6.9777C23.7855 6.05967 24.5224 5.31055 25.4258 5.31055C26.3292 5.31055 27.0665 6.05967 27.0665 6.9777C27.0665 7.89572 26.3292 8.64447 25.4258 8.64447C24.5224 8.64447 23.7855 7.89572 23.7855 6.9777ZM6.26013 19.4301L6.25504 19.4309L6.24995 19.4316V17.6916C6.24995 17.5106 6.3947 17.3635 6.57292 17.3635C6.75113 17.3635 6.89552 17.5106 6.89552 17.6916V19.4316L6.89043 19.4309L6.88534 19.4301C6.87224 19.4283 6.85879 19.4268 6.84569 19.4249L6.8406 19.4242L6.82569 19.4224L6.8206 19.4216C6.81114 19.4205 6.80168 19.4198 6.79223 19.4187C6.78095 19.4176 6.76968 19.4164 6.7584 19.4157L6.73985 19.4142C6.72458 19.4131 6.7093 19.4124 6.69439 19.4113H6.68639C6.66857 19.4098 6.65075 19.4094 6.63293 19.4087H6.63038C6.6111 19.4079 6.59183 19.4079 6.57255 19.4079C6.55328 19.4079 6.534 19.4079 6.51472 19.4087H6.51218C6.49436 19.4094 6.47653 19.4098 6.45871 19.4109H6.45071C6.43544 19.4124 6.42016 19.4131 6.40488 19.4142L6.38634 19.4157C6.37506 19.4168 6.36379 19.4176 6.35288 19.4187C6.34342 19.4198 6.33396 19.4205 6.32451 19.4216L6.31941 19.4224L6.3045 19.4242L6.29941 19.4249C6.28595 19.4268 6.27286 19.4283 6.25977 19.4301H6.26013ZM12.0866 21.7315C12.0866 21.9125 11.9423 22.0596 11.764 22.0596H8.83696L8.83769 22.0545L8.83842 22.0493C8.84024 22.0356 8.84169 22.0223 8.84351 22.009L8.84424 22.0038L8.84606 21.9887L8.84678 21.9835L8.84969 21.9547C8.85078 21.9432 8.85188 21.9318 8.8526 21.9207L8.85406 21.9018C8.85515 21.8863 8.85624 21.8708 8.85697 21.8553V21.8471C8.85806 21.829 8.85879 21.8109 8.85915 21.7928V21.7902C8.85988 21.7706 8.86024 21.751 8.86024 21.7315C8.86024 21.7119 8.85988 21.6923 8.85951 21.6727V21.6701C8.85879 21.6516 8.85806 21.6335 8.85733 21.6158L8.8566 21.6077C8.85588 21.5921 8.85479 21.5766 8.85369 21.5611L8.85224 21.5426C8.85115 21.5311 8.85006 21.5197 8.84933 21.5082C8.84824 21.4986 8.84751 21.489 8.84642 21.4794L8.84569 21.4742L8.84387 21.4591L8.84315 21.4539C8.84169 21.4406 8.83987 21.4269 8.83805 21.4136L8.83733 21.4084L8.8366 21.4033H11.764C11.9423 21.4033 12.0866 21.55 12.0866 21.7311V21.7315ZM8.21394 21.7315C8.21394 22.6498 7.47708 23.3986 6.57328 23.3986C5.66948 23.3986 4.93298 22.6498 4.93298 21.7315C4.93298 20.8131 5.66984 20.0647 6.57328 20.0647C7.47672 20.0647 8.21394 20.8134 8.21394 21.7315ZM18.2005 6.08074H4.93262V15.0806H9.1272V18.0379L12.3132 15.0806H13.153V12.403C13.153 12.2223 13.2978 12.0749 13.4756 12.0749H18.2001V6.08074H18.2005ZM8.54746 10.2872H7.2134C7.03518 10.2872 6.89079 10.1405 6.89079 9.95942C6.89079 9.77833 7.03518 9.63124 7.2134 9.63124H8.54746C8.72567 9.63124 8.87006 9.77833 8.87006 9.95942C8.87006 10.1405 8.72567 10.2872 8.54746 10.2872ZM12.2336 10.2872H10.8999C10.7217 10.2872 10.5769 10.1405 10.5769 9.95942C10.5769 9.77833 10.7217 9.63124 10.8999 9.63124H12.2336C12.4118 9.63124 12.5565 9.77833 12.5565 9.95942C12.5565 10.1405 12.4118 10.2872 12.2336 10.2872ZM15.9197 10.2872H14.5856C14.4074 10.2872 14.263 10.1405 14.263 9.95942C14.263 9.77833 14.4074 9.63124 14.5856 9.63124H15.9197C16.0979 9.63124 16.2423 9.77833 16.2423 9.95942C16.2423 10.1405 16.0979 10.2872 15.9197 10.2872Z" fill="#244A77"/>
    </svg>