<svg width="48" height="48" viewBox="0 0 48 48" fill="none" xmlns="http://www.w3.org/2000/svg">
<path d="M0 24C0 10.7452 10.7452 0 24 0C37.2548 0 48 10.7452 48 24C48 37.2548 37.2548 48 24 48C10.7452 48 0 37.2548 0 24Z" fill="#E6F2FB"/>
<g clip-path="url(#clip0_32543_493)">
<path d="M25.7829 30.2508C25.4534 30.2485 25.0683 29.9919 24.8665 29.6322C23.855 27.8224 23.8039 25.5658 24.6878 23.6803C24.8688 23.2955 25.2377 22.8625 25.6112 22.7777C26.1865 22.6471 26.4649 23.0503 26.69 23.3665C26.8709 23.3069 27.0565 23.268 27.2444 23.2451C27.0542 22.8167 26.4441 22.2462 26.0033 22.2393C22.4444 22.1981 19.6651 21.9644 16.3476 23.4971C14.8466 24.1889 13.5126 24.9931 12.341 26.134C12.2436 26.2256 12.1972 26.4432 12.2598 26.5234C12.3294 26.6128 12.58 26.638 12.6635 26.5578C13.4639 25.788 14.2851 25.1488 15.285 24.6265C14.835 26.166 14.8094 27.6826 15.4822 29.1145C15.8163 29.8316 16.4798 30.7594 17.38 30.7617L26.0149 30.7708C26.5485 30.7708 26.9428 30.2622 27.2004 29.8155C27.0148 29.7926 26.8338 29.7559 26.6598 29.6964C26.4905 29.9576 26.2631 30.2554 25.7829 30.2508ZM17.4055 30.2118C16.8 30.2027 16.2965 29.5566 16.039 29.0435C15.2804 27.5291 15.3338 25.7514 16.0576 24.2141C17.5238 23.4581 19.0898 23.016 20.7485 22.8373C20.4446 23.2405 20.2382 23.6414 20.0734 24.1042C19.4239 26.2027 19.5886 28.6219 20.8065 30.26L17.4055 30.2118ZM21.5257 30.2462C19.7858 28.725 19.8368 24.3539 21.4817 22.764L24.7528 22.7502C23.0662 24.5188 23.2425 28.6173 24.711 30.2554L21.5257 30.2462Z" fill="#244A77" stroke="#244A77" stroke-width="0.5" stroke-miterlimit="10"/>
<path d="M32.2718 17.9164C31.5201 18.6472 30.265 18.8351 29.4391 18.2463C28.6132 17.6575 27.7502 17.5636 26.9104 18.1982C26.2515 18.693 25.1217 18.7457 24.4303 18.2532C23.7599 17.7743 23.0152 17.559 22.2449 17.9851C21.4701 18.6541 20.2451 18.8373 19.3659 18.2028C18.7487 17.756 17.8927 17.5292 17.2153 18.0332C16.3731 18.6564 15.2108 18.8282 14.306 18.1821C13.4012 17.5361 12.9767 17.921 12.921 17.5178C12.8607 17.0848 13.7887 17.1604 14.6053 17.7652C15.3407 18.3081 16.2386 18.1019 16.909 17.6117C17.7697 16.9863 18.8787 17.2131 19.6675 17.7927C20.3774 18.315 21.2589 18.0745 21.9039 17.6117C22.7739 16.9863 23.8666 17.2108 24.66 17.7904C25.3792 18.315 26.2492 18.079 26.9173 17.6002C27.5739 17.1306 28.6643 17.0825 29.3069 17.6002C30.0725 18.2142 31.1002 18.2509 31.8287 17.6208C31.882 17.575 32.0607 17.5544 32.1303 17.559C32.2161 17.5659 32.3391 17.8499 32.2695 17.9164H32.2718Z" fill="#244A77" stroke="#244A77" stroke-width="0.5" stroke-miterlimit="10"/>
<path d="M32.0212 20.2072C32.6453 20.5738 30.6872 21.662 29.3092 20.6837C28.6921 20.2462 27.8662 20.0331 27.1957 20.5303C26.3721 21.1419 25.1889 21.3298 24.3189 20.6815C23.5603 20.1156 22.6787 20.111 21.9016 20.686C21.2009 21.2038 20.1036 21.2336 19.3774 20.7112C18.7371 20.2508 17.8927 20.024 17.1967 20.5303C16.3336 21.158 15.1621 21.3229 14.2526 20.6471C13.4267 20.0331 13.0323 20.4478 12.914 20.0148C12.8166 19.6574 13.6726 19.5749 14.6238 20.2714C15.1528 20.6585 16.0251 20.7273 16.5564 20.308C17.4959 19.5681 18.6629 19.536 19.6303 20.276C20.1337 20.6631 21.0408 20.7067 21.5559 20.3057C22.5024 19.5681 23.6694 19.5268 24.6321 20.2737C25.1611 20.6837 26.0728 20.6883 26.6088 20.276C27.5391 19.5612 28.6944 19.5589 29.6154 20.2691C30.2209 20.7364 31.0608 20.6425 31.6918 20.2301C31.7823 20.1706 31.9516 20.1591 32.0235 20.2004L32.0212 20.2072Z" fill="#244A77" stroke="#244A77" stroke-width="0.5" stroke-miterlimit="10"/>
<path d="M35.7146 25.7446C35.7053 25.6988 35.5847 25.6919 35.5777 25.6484L34.3482 25.4834C34.5987 25.1329 34.6382 24.6312 34.4317 24.3403C34.2229 24.0447 33.68 23.8798 33.4271 24.1203C33.0188 24.5075 33.0188 25.055 33.3343 25.4582L30.8195 25.7698C30.3021 25.8363 29.8753 25.8615 29.3649 25.8867L29.5458 25.3093L32.2231 25.0734C32.3182 25.0642 32.4783 24.9451 32.5224 24.8832C32.7799 24.5327 30.1212 25.0482 29.7338 24.929C29.699 24.5235 29.9797 24.4846 30.2789 24.4525L33.281 24.1432C32.9724 24.0516 32.7311 24.0264 32.4296 23.992C32.0375 23.4514 31.4273 23.1329 30.7244 23.1581L28.9682 23.2269C28.4253 23.2475 27.8221 23.1765 27.2444 23.2452C27.0565 23.2681 26.8709 23.307 26.69 23.3666C26.2005 23.5338 25.7573 23.8729 25.4233 24.551C24.841 25.7377 24.8178 27.094 25.3351 28.3013C25.6947 29.1398 26.1517 29.5178 26.6598 29.6965C26.8338 29.7561 27.0148 29.7927 27.2004 29.8156C27.6342 29.8683 28.0912 29.8477 28.5529 29.8798C29.7941 29.9714 31.8751 30.3517 32.4504 28.9519C31.6477 28.748 30.7777 28.6037 30.0145 28.5075C29.8846 28.4892 29.7222 28.1753 29.7106 28.0539L32.7288 28.3105C32.5015 28.0493 32.2208 27.9737 31.9099 27.9371L29.4971 27.6507C29.46 27.4743 29.395 27.1902 29.4878 27.1902C29.5737 27.1902 29.757 27.1902 29.8451 27.1971L32.1442 27.3322L33.4202 27.5086C33.2276 27.7377 33.0351 28.0676 33.049 28.3242C33.0606 28.5442 33.3506 28.9267 33.5756 29.0115C34.0466 29.1902 34.4363 28.7755 34.5361 28.425C34.6567 28.0058 34.4363 27.7057 34.0628 27.417L35.3156 27.2292C35.768 27.0734 35.9025 26.6633 35.9675 26.4846C35.9629 26.4204 35.9652 26.3563 35.9698 26.2922C35.8979 26.1203 35.7425 25.8615 35.7146 25.7446ZM31.7289 28.9726C31.5897 29.291 31.2069 29.3712 30.8566 29.22L30.3671 28.9153L31.7289 28.9726ZM33.847 24.5625C34.0118 24.5625 34.144 24.6931 34.144 24.8557C34.144 25.0184 34.0118 25.1513 33.847 25.1513C33.6823 25.1513 33.5478 25.0184 33.5478 24.8557C33.5478 24.6931 33.6823 24.5625 33.847 24.5625ZM26.0937 28.5442C25.3305 27.3483 25.3328 25.8225 26.0381 24.6014C26.4116 23.9554 27.0867 23.6621 27.8012 23.85C26.5949 25.2612 26.7364 27.8867 27.8128 29.2498C27.1099 29.417 26.4649 29.1283 26.0937 28.5442ZM30.1212 29.3918C29.2698 29.6438 28.3209 29.275 27.9126 28.3838C27.3674 27.1948 27.3674 25.8821 27.8824 24.6954C28.2281 23.8958 28.9496 23.5476 29.859 23.7652C28.4717 24.9176 28.2165 28.173 30.1212 29.3918ZM34.1347 28.2326C34.1347 28.4021 33.9955 28.5373 33.8262 28.5373C33.6568 28.5373 33.5176 28.4021 33.5176 28.2326C33.5176 28.0631 33.6545 27.9279 33.8262 27.9279C33.9978 27.9279 34.1347 28.0653 34.1347 28.2326ZM29.4391 26.7366C29.3092 26.7114 29.3324 26.2509 29.4438 26.2326C29.7964 26.1753 30.4622 25.9279 30.8218 25.9233L34.5338 25.8615C34.4247 26.0974 34.2971 26.3448 34.2994 26.4892C34.2994 26.6541 34.5059 26.9336 34.608 27.0298C32.9492 27.0527 31.0817 27.0596 29.4391 26.7366ZM35.007 26.7366C34.782 26.6495 34.7658 26.1478 35.0233 26.0905C35.1555 26.0631 35.3597 26.283 35.3481 26.4044C35.3365 26.5419 35.123 26.7824 35.007 26.7366Z" fill="#244A77" stroke="#244A77" stroke-width="0.25" stroke-miterlimit="10"/>
<path d="M34.1045 26.5442L30.4854 26.5557L30.2789 26.3403L33.9004 26.3289L34.1045 26.5442Z" fill="#244A77" stroke="#244A77" stroke-width="0.25" stroke-miterlimit="10"/>
</g>
<defs>
<clipPath id="clip0_32543_493">
<rect width="24" height="14" fill="white" transform="translate(12 17)"/>
</clipPath>
</defs>
</svg>
