<svg width="48" height="48" viewBox="0 0 48 48" fill="none" xmlns="http://www.w3.org/2000/svg">
<path d="M0 24C0 10.7452 10.7452 0 24 0C37.2548 0 48 10.7452 48 24C48 37.2548 37.2548 48 24 48C10.7452 48 0 37.2548 0 24Z" fill="#E6F2FB"/>
<g clip-path="url(#clip0_32543_521)">
<path d="M35.5155 29.7597C34.8037 30.0474 33.9606 29.8103 33.3446 29.4027C32.6931 28.9712 31.891 28.9526 31.2285 29.3708C30.9986 29.5146 30.7714 29.6452 30.5113 29.7411C29.8543 29.9808 29.1316 29.9222 28.5156 29.6025C28.3705 29.5279 28.2473 29.4507 28.1105 29.3655C27.5109 28.9872 26.7609 28.9579 26.1449 29.3175L25.7425 29.5519C24.9787 29.9994 24.0288 29.9968 23.2541 29.5679C23.1227 29.496 23.0077 29.4267 22.8818 29.3495C22.2549 28.9606 21.4884 28.9765 20.8615 29.3708C20.626 29.5173 20.3961 29.6558 20.1278 29.7464C19.6296 29.9195 19.0848 29.9328 18.5784 29.781C18.2827 29.6904 18.0199 29.5519 17.768 29.3894C17.0946 28.9552 16.2898 28.9579 15.6163 29.3948C15.3015 29.5972 14.9621 29.7544 14.5898 29.829C13.8753 29.9701 13.1635 29.8529 12.501 29.5732C12.3368 29.504 12.2355 29.3868 12.293 29.2083C12.3395 29.0644 12.5229 28.9765 12.6899 29.0511C13.0978 29.2349 13.5194 29.3548 13.9875 29.3468L13.3524 27.6606L12.5284 25.4336C12.4654 25.2658 12.6242 25.082 12.7857 25.0794L13.3469 25.0714V21.5338C13.3469 21.39 13.4701 21.2648 13.6097 21.2621L14.0012 21.2541V19.7464C14.0067 19.6132 14.1134 19.4773 14.2667 19.4773L15.4138 19.472V17.5487C15.4138 17.3889 15.5452 17.2664 15.7094 17.2664H17.549C17.7023 17.2664 17.8091 17.4075 17.8091 17.5434V19.4747H18.9288C19.0875 19.4747 19.2135 19.5945 19.2189 19.749V21.2568L19.8458 21.2621C20.0019 21.2621 20.1141 21.3873 20.1196 21.5391V25.0794L21.4199 25.0767V22.3516C21.4144 22.1651 21.5513 22.0399 21.7375 22.0399H23.6319V19.3122C23.6319 19.1444 23.7578 19.0271 23.933 19.0245H29.9337C30.0897 19.0245 30.2238 19.1444 30.2238 19.2962V22.0426L31.8664 22.0399C32.0115 22.0586 32.1237 22.1305 32.1565 22.269V23.6116H35.4662C35.5757 23.6116 35.6989 23.6782 35.7208 23.7821C35.7372 23.8673 35.7345 23.9659 35.7263 24.0618L33.0791 28.6649C33.3583 28.7661 33.5801 28.894 33.8155 29.0378C34.2508 29.3015 34.7818 29.44 35.2828 29.2829C35.4252 29.2376 35.5648 29.2829 35.6305 29.4081C35.6962 29.5333 35.6688 29.7064 35.5265 29.765L35.5155 29.7597ZM15.975 17.8231V19.4747H17.237V17.8231H15.975ZM26.6048 19.5786H24.193V22.0426H26.6048V19.5786ZM27.1742 19.5786V22.0426H29.6517V19.5786H27.1742ZM18.6468 20.0314H14.5651V21.2594H18.6468V20.0314ZM19.5474 21.8135H13.9136V25.0794H19.5474V21.8135ZM25.1484 22.594H21.9811V25.0794H25.1484V22.594ZM25.7124 22.594V25.0794H28.1077V22.594H25.7124ZM31.3462 23.6942C31.4256 23.6356 31.4941 23.6143 31.5871 23.6036V22.5967H28.6771V25.0767H29.7174L31.349 23.6942H31.3462ZM22.8407 28.7155C23.0761 28.814 23.2705 28.9312 23.4785 29.0591C24.1082 29.4454 24.8774 29.44 25.5098 29.0591C25.7233 28.9286 25.9259 28.814 26.1586 28.7155C26.8649 28.4198 27.6615 28.4651 28.3185 28.8513L28.6908 29.0698C29.2958 29.4241 30.0295 29.44 30.6345 29.0831L31.0396 28.8513C31.4804 28.5983 31.9813 28.4944 32.4905 28.537L32.9751 27.6819L34.9926 24.1683H31.6693L30.0541 25.5322C29.9802 25.5961 29.9145 25.6308 29.805 25.6388H13.2018L14.5679 29.2855C14.8225 29.2189 15.036 29.1097 15.2495 28.9872C16.0078 28.5024 16.8838 28.3745 17.7215 28.7528C17.9159 28.8407 18.0911 28.9419 18.2717 29.0538C18.9096 29.456 19.6898 29.4507 20.3331 29.0591C20.5138 28.9499 20.6863 28.8487 20.8806 28.7581C21.502 28.4757 22.2001 28.4518 22.8434 28.7235L22.8407 28.7155Z" fill="#244A77" stroke="#244A77" stroke-width="0.5" stroke-miterlimit="10"/>
<path d="M31.2039 31.2142C30.9219 31.3927 30.6481 31.5419 30.3333 31.6325C29.6024 31.8402 28.8468 31.6911 28.2227 31.2755C27.9736 31.1077 27.7108 30.9851 27.4124 30.9319C26.936 30.8466 26.4624 30.9532 26.0545 31.2036C25.789 31.3661 25.5344 31.5099 25.2305 31.6111C24.5817 31.8269 23.87 31.763 23.2814 31.4193L22.8051 31.1423C22.1974 30.788 21.4555 30.836 20.8587 31.2062C20.5959 31.3714 20.3386 31.5179 20.0347 31.6138C19.5392 31.771 19.0054 31.771 18.5126 31.6058C18.2252 31.5099 17.9761 31.3687 17.7242 31.2116C17.0782 30.804 16.287 30.8013 15.6437 31.2116C15.3781 31.3821 15.0989 31.5179 14.7923 31.6138C14.0258 31.8562 13.1169 31.6964 12.3997 31.3554C12.2628 31.2915 12.2409 31.113 12.3066 30.9931C12.3641 30.8892 12.5256 30.82 12.6625 30.8786C13.147 31.0917 13.6535 31.2142 14.1928 31.1769C15.0414 31.1157 15.3453 30.5989 16.1775 30.4177C16.8153 30.2792 17.4532 30.4098 18.0089 30.7347C18.2088 30.852 18.3922 30.9692 18.6084 31.0544C19.1669 31.2755 19.7856 31.2009 20.2975 30.9026C20.4946 30.788 20.6698 30.6761 20.8779 30.5829C21.5677 30.2739 22.3534 30.2899 23.0241 30.6335C23.1993 30.7241 23.3526 30.8173 23.5223 30.9159C24.1218 31.2702 24.861 31.2702 25.4632 30.9159C25.633 30.8173 25.7863 30.7241 25.9642 30.6335C26.6513 30.2819 27.4589 30.2659 28.1542 30.6042C28.3459 30.6974 28.5156 30.8013 28.699 30.9106C29.304 31.2728 30.0459 31.2675 30.6536 30.9106C30.8261 30.8093 30.9848 30.7081 31.1655 30.6202C31.9348 30.2393 32.8327 30.2872 33.5636 30.7268C33.7169 30.8173 33.8565 30.9026 34.0153 30.9825C34.4068 31.1769 34.853 31.2329 35.2718 31.1157C35.4169 31.073 35.562 31.105 35.6277 31.2462C35.6742 31.3474 35.6524 31.5339 35.5155 31.5925C35.2335 31.7097 34.9324 31.7337 34.623 31.707C34.1631 31.6697 33.747 31.5046 33.3692 31.2515C32.7068 30.8093 31.8882 30.78 31.2011 31.2142H31.2039Z" fill="#244A77" stroke="#244A77" stroke-width="0.5" stroke-miterlimit="10"/>
<path d="M18.644 23.3106H18.2717C18.1047 23.316 17.9706 23.2094 17.9624 23.0496C17.9541 22.919 18.0609 22.7565 18.2252 22.7565L18.6303 22.7512C18.7918 22.7512 18.9123 22.8684 18.9232 23.0096C18.9369 23.1588 18.8274 23.3106 18.644 23.3106Z" fill="#244A77" stroke="#244A77" stroke-width="0.5" stroke-miterlimit="10"/>
<path d="M17.0481 23.3133H16.673C16.5115 23.3133 16.3883 23.2014 16.3774 23.0523C16.3692 22.9111 16.4787 22.7539 16.6484 22.7539H17.0563C17.2151 22.7539 17.3383 22.8951 17.3355 23.0283C17.3355 23.1748 17.2178 23.3106 17.0453 23.3106L17.0481 23.3133Z" fill="#244A77" stroke="#244A77" stroke-width="0.5" stroke-miterlimit="10"/>
<path d="M15.474 23.3133H15.099C14.9374 23.316 14.817 23.2041 14.8033 23.0549C14.7923 22.9271 14.8936 22.7726 15.0524 22.7619C15.2002 22.7512 15.3535 22.7512 15.5014 22.7619C15.6492 22.7726 15.7505 22.9164 15.7505 23.0336C15.7505 23.1775 15.641 23.3133 15.4713 23.3133H15.474Z" fill="#244A77" stroke="#244A77" stroke-width="0.5" stroke-miterlimit="10"/>
</g>
<defs>
<clipPath id="clip0_32543_521">
<rect width="24" height="15" fill="white" transform="translate(12 17)"/>
</clipPath>
</defs>
</svg>
