<svg width="48" height="48" viewBox="0 0 48 48" fill="none" xmlns="http://www.w3.org/2000/svg">
<path d="M0 24C0 10.7452 10.7452 0 24 0C37.2548 0 48 10.7452 48 24C48 37.2548 37.2548 48 24 48C10.7452 48 0 37.2548 0 24Z" fill="#E6F2FB"/>
<g clip-path="url(#clip0_32543_509)">
<path d="M23.1771 28.7704C23.0064 28.8122 22.9101 28.2742 23.0725 28.2268C24.2918 27.8617 25.434 27.2122 26.3753 26.1586L24.6853 25.6652C24.2395 26.5656 23.7661 27.3265 23.0395 28.0652C22.9349 27.9788 22.7587 27.7335 22.7863 27.6275C22.8496 27.3711 23.8239 26.3426 24.1019 25.5426L21.9688 25.2862L21.7211 25.6652L20.8679 24.8736C20.9808 24.8346 21.278 24.7064 21.278 24.5893L21.2587 21.9497H18.2037L18.3578 23.7169C18.3441 23.8284 17.8046 23.7782 17.7881 23.6249L17.6064 21.9469H15.1074C15.1542 22.6187 15.2698 23.2542 15.4266 23.8953C15.4569 24.0263 15.1184 24.1879 14.9064 24.1573C14.1798 21.8884 14.4716 19.3156 15.8257 17.345C17.7826 14.5046 21.3798 13.4789 24.4652 14.9395C25.8688 15.6029 26.8789 16.6871 27.6853 17.9888L29.6808 15.7868L31.178 15.7422C31.3294 15.1875 31.7753 14.8642 32.2542 14.8893C32.7743 14.92 33.2009 15.3102 33.245 15.8704C33.289 16.4307 32.9725 16.9241 32.4275 17.0467C31.9624 17.1526 31.4175 16.9213 31.2055 16.3136L29.8707 16.3359L27.9606 18.5296L28.5028 20.2578L33.6413 20.241C33.8285 19.8257 34.1037 19.5024 34.4285 19.4411C34.8771 19.3574 35.2927 19.5581 35.5459 19.9344C35.9202 20.4947 35.6973 21.225 35.1028 21.4981C34.5083 21.7713 33.8422 21.4703 33.6331 20.7567L28.6074 20.7678L28.511 23.1622C30.0909 24.2576 29.5624 24.227 31.5661 24.1183C31.8853 23.6082 32.378 23.4158 32.8349 23.5887C33.3248 23.7726 33.6358 24.2799 33.523 24.8235C33.4101 25.3754 32.9257 25.7628 32.4 25.7098C31.9046 25.6597 31.5165 25.2081 31.4257 24.6674C29.0808 24.6005 30.1982 24.9266 28.3211 23.7252C27.5918 26.2171 25.7532 28.1544 23.1881 28.7732L23.1771 28.7704ZM18.3853 17.699C18.7982 16.7039 19.4367 15.8426 20.1798 15.0565C18.7927 15.3269 17.612 16.1213 16.6624 17.1694L18.3853 17.699ZM21.2725 18L21.267 14.9924C20.1248 15.7171 19.4753 16.6509 18.9853 17.7798L21.2753 17.9972L21.2725 18ZM24.1349 17.7436C23.5459 16.5087 22.9211 15.6781 21.8477 15.0147L21.8422 17.9749C22.1698 18.0111 22.4725 18 22.8165 17.9693L24.1349 17.7436ZM26.3863 17.1638C25.3652 15.9652 24.1597 15.3185 22.8248 15.0231C23.6973 15.8008 24.2395 16.6286 24.7294 17.6516L26.3863 17.1638ZM32.7633 15.9708C32.7633 15.653 32.5101 15.3966 32.1964 15.3966C31.8826 15.3966 31.6294 15.653 31.6294 15.9708C31.6294 16.2885 31.8826 16.545 32.1964 16.545C32.5101 16.545 32.7633 16.2885 32.7633 15.9708ZM17.612 21.3866C17.6753 20.2104 17.8597 19.2153 18.1762 18.2035L16.3431 17.6321C15.5918 18.7275 15.1459 20.018 15.1074 21.3783L17.612 21.3866ZM28.0101 21.3699C27.9248 19.8396 27.4899 18.6913 26.7193 17.6321L24.9468 18.2063C25.2798 19.285 25.4257 20.2912 25.5028 21.3866L28.0074 21.3671L28.0101 21.3699ZM21.2698 21.3838V18.5714L18.7514 18.3345C18.4156 19.3212 18.2009 20.3692 18.2312 21.3811H21.2698V21.3838ZM24.911 21.3783C24.8918 20.3219 24.7101 19.3184 24.3771 18.3289L21.8367 18.5575L21.856 21.3866L24.9083 21.3783H24.911ZM35.2321 20.5114C35.2321 20.1964 34.9789 19.94 34.6679 19.94C34.3569 19.94 34.1037 20.1964 34.1037 20.5114C34.1037 20.8264 34.3569 21.0828 34.6679 21.0828C34.9789 21.0828 35.2321 20.8264 35.2321 20.5114ZM24.3413 24.9907C24.7019 24.0095 24.8918 22.9949 24.911 21.958H21.8477L21.8395 24.7259L24.3386 24.9907H24.3413ZM26.7358 25.7043C27.5009 24.5782 27.9688 23.3573 27.9964 21.9497L25.5138 21.958C25.4175 23.073 25.2303 24.096 24.911 25.1245L26.7358 25.7043ZM33.0551 24.62C33.0551 24.3022 32.8019 24.0458 32.4881 24.0458C32.1743 24.0458 31.9211 24.3022 31.9211 24.62C31.9211 24.9377 32.1743 25.1942 32.4881 25.1942C32.8019 25.1942 33.0551 24.9377 33.0551 24.62Z" fill="#244A77" stroke="#244A77" stroke-width="0.5" stroke-miterlimit="10"/>
<path d="M22.3789 29.6037C22.3789 32.4301 20.1165 34.7213 17.3284 34.7213C14.5403 34.7213 12.2752 32.4301 12.2752 29.6037C12.2752 26.7773 14.5376 24.4861 17.3257 24.4861C20.1137 24.4861 22.3761 26.7773 22.3761 29.6037H22.3789ZM21.7431 29.6037C21.7431 27.1313 19.7642 25.1272 17.3257 25.1272C14.8871 25.1272 12.9055 27.1313 12.9055 29.6037C12.9055 32.0761 14.8844 34.0802 17.3229 34.0802C19.7614 34.0802 21.7403 32.0761 21.7403 29.6037H21.7431Z" fill="#244A77" stroke="#244A77" stroke-width="0.5" stroke-miterlimit="10"/>
<path d="M17.667 32.2544C17.6312 32.522 17.6835 33.0153 17.2761 32.9791C17.067 32.9596 16.9954 32.5498 17.0284 32.2572C16.3899 32.1958 15.7651 31.7638 15.6468 31.0586C15.6303 30.9555 15.7541 30.7185 15.8477 30.6767C16.3596 30.4426 16.0596 31.7722 17.4275 31.6328C17.9422 31.5798 18.3743 31.3206 18.3936 30.7966C18.4128 30.2837 18.0055 29.8656 17.422 29.9325C16.5275 30.0356 15.7156 29.5618 15.633 28.6252C15.5642 27.8392 16.1835 27.0894 17.0312 27.0253L17.1468 26.2866C17.3394 26.3201 17.5817 26.3619 17.5954 26.4566L17.6752 27.0225C18.2312 27.1117 18.8284 27.488 18.9771 28.1179C19.0046 28.2378 18.8807 28.5277 18.7706 28.5639C18.1624 28.7729 18.7156 27.5103 17.1248 27.6385C16.5853 27.6831 16.255 28.0705 16.2523 28.5054C16.2468 29.1269 16.7284 29.3583 17.3174 29.3081C18.1982 29.2329 18.922 29.729 19.0183 30.6265C19.0982 31.3652 18.4954 32.0899 17.667 32.2516V32.2544Z" fill="#244A77" stroke="#244A77" stroke-width="0.5" stroke-miterlimit="10"/>
</g>
<defs>
<clipPath id="clip0_32543_509">
<rect width="24" height="21" fill="white" transform="translate(12 14)"/>
</clipPath>
</defs>
</svg>
